<svg width="56" height="56" viewBox="0 0 56 56" fill="none" xmlns="http://www.w3.org/2000/svg">
<g clip-path="url(#clip0_1008_14889)">
<circle cx="28" cy="28" r="27.5" fill="#00AC6B" stroke="#01090F"/>
<path d="M35 20.5C35 24.3676 31.8676 27.5 28 27.5C24.1324 27.5 21 24.3676 21 20.5C21 16.6324 24.1324 13.5 28 13.5C31.8676 13.5 35 16.6324 35 20.5ZM13.5 39.25C13.5 38.1868 14.0286 37.2184 14.9789 36.3414C15.9325 35.4613 17.277 34.7074 18.8086 34.0938C21.8726 32.8664 25.5594 32.25 28 32.25C30.4406 32.25 34.1274 32.8664 37.1914 34.0938C38.723 34.7074 40.0675 35.4613 41.0211 36.3414C41.9714 37.2184 42.5 38.1868 42.5 39.25V42.5H13.5V39.25Z" fill="white" stroke="#06122C"/>
</g>
<defs>
<clipPath id="clip0_1008_14889">
<rect width="56" height="56" fill="white"/>
</clipPath>
</defs>
</svg>
