<svg width="352" height="450" viewBox="0 0 352 450" fill="none" xmlns="http://www.w3.org/2000/svg">
    <path
        d="M228.46 448.714C369.583 448.714 483.985 447.458 483.985 445.909C483.985 444.36 369.583 443.104 228.46 443.104C87.338 443.104 -27.0644 444.36 -27.0644 445.909C-27.0644 447.458 87.338 448.714 228.46 448.714Z"
        fill="black" stroke="black" stroke-width="1.36915" stroke-miterlimit="10"></path>
    <path d="M88.2329 354.605H98.8279L98.8279 82.8765H88.2329L88.2329 354.605Z" fill="white" stroke="black"
        stroke-width="1.36915" stroke-linejoin="round"></path>
    <path d="M98.5957 94.8085L88.252 105.652V75.2539H98.5957V94.8085Z" fill="#030028" stroke="black"
        stroke-width="1.36915" stroke-linejoin="round"></path>
    <path d="M154.51 85.1839H32.3373L52.6367 2.25781H134.208L154.51 85.1839Z" fill="white" stroke="black"
        stroke-width="1.36915" stroke-linejoin="round"></path>
    <path d="M32.3373 85.1839H59.7668L71.9911 2.25781H52.6367L32.3373 85.1839Z" fill="#E5E5E5" stroke="black"
        stroke-width="1.36915" stroke-linejoin="round"></path>
    <path
        d="M-0.0176626 241.513L0.417675 243.085C0.569572 243.605 0.694637 244.144 0.878235 244.648C1.22489 245.664 1.55465 246.705 1.92974 247.693L3.01394 250.674L3.55043 252.153L4.0422 253.634L4.5338 255.112L4.96051 256.604C5.24186 257.599 5.54609 258.586 5.7559 259.601C5.98174 260.61 6.23066 261.613 6.4401 262.623L6.97399 265.683C8.32442 273.86 8.60173 282.244 8.54745 290.61L8.54042 293.748C8.51699 294.796 8.47245 295.845 8.43945 296.891L8.22797 303.175C8.11745 305.271 7.97647 307.369 7.85171 309.463L7.6588 312.606C7.59749 313.652 7.53403 314.701 7.43505 315.747L6.90045 322.031L6.63415 325.171L6.50101 326.74L6.3372 328.31L5.01198 340.86L13.0299 341.551L13.6589 328.813L13.7361 327.222L13.7823 325.626L13.8748 322.437L14.0577 316.058C14.0989 314.998 14.102 313.93 14.1052 312.865L14.1218 309.67C14.1282 307.54 14.1536 305.412 14.146 303.283L14.0042 296.885C13.9768 295.82 13.9634 294.755 13.9264 293.688L13.7539 290.487C13.3312 281.963 12.5727 273.398 10.6927 264.965L9.95819 261.813C9.68017 260.77 9.36249 259.733 9.06591 258.694C8.7879 257.652 8.41294 256.636 8.06104 255.613L7.53005 254.084L6.93762 252.583C5.37781 248.565 3.4633 244.804 2.27295 240.896L-0.0131709 241.51L-0.0176626 241.513Z"
        fill="#85ED73" stroke="black" stroke-width="1.36915" stroke-linejoin="round"></path>
    <path
        d="M-9.87924 159.004C-5.71871 161.345 -1.87688 164.221 1.63782 167.427L2.95573 168.634L3.28577 168.936L3.59717 169.256L4.21776 169.896L5.46041 171.178L6.08024 171.821L6.39165 172.141L6.68295 172.477L9.01033 175.18C9.40989 175.621 9.75882 176.103 10.1219 176.572L11.2066 177.985L12.2936 179.398L13.3032 180.865C13.9668 181.849 14.6609 182.816 15.3021 183.815C16.5266 185.844 17.8255 187.837 18.9145 189.945C21.251 194.081 23.1514 198.429 24.9864 202.794C28.471 211.605 31.0286 220.752 32.8471 230.025C34.6649 239.3 35.7449 248.703 36.2667 258.122C36.7803 267.543 36.7743 276.989 36.228 286.398C36.1494 288.755 35.9288 291.098 35.7581 293.449L35.4878 296.973C35.4484 297.561 35.3905 298.146 35.3252 298.731L35.1387 300.487C34.887 302.828 34.6538 305.172 34.3872 307.513L33.4483 314.513C33.1624 316.852 32.7523 319.169 32.3824 321.492L31.8171 324.978L31.5356 326.722L31.2103 328.455L29.8984 335.392L29.5679 337.126L29.1957 338.852L28.4521 342.3C26.523 351.513 24.1385 360.613 21.6812 369.694L13.9593 367.425C16.6019 358.561 19.1784 349.664 21.2995 340.662L22.1165 337.29L22.525 335.604L22.8919 333.909L24.3542 327.13L24.7167 325.433L25.0367 323.73L25.6769 320.323C26.0965 318.052 26.5592 315.784 26.897 313.498L27.9923 306.652C28.3131 304.364 28.5982 302.072 28.9048 299.782L29.1305 298.064C29.2092 297.491 29.2805 296.918 29.3325 296.343L29.6836 292.897C29.9085 290.599 30.1847 288.304 30.3182 285.998C31.0885 276.793 31.3281 267.551 31.0593 258.332C30.7853 249.113 29.9612 239.907 28.4188 230.824C26.8748 221.745 24.6118 212.783 21.4486 204.146C19.7747 199.869 18.0384 195.601 15.8801 191.548C14.8802 189.477 13.6719 187.525 12.5373 185.53C11.9421 184.55 11.2962 183.601 10.6787 182.636L9.74041 181.193L8.72696 179.804L7.71351 178.415C7.37494 177.954 7.04831 177.48 6.67624 177.045L4.50038 174.386L4.22765 174.054L3.93705 173.738L3.35584 173.106L2.19342 171.843L1.61221 171.212L1.3216 170.896L1.01237 170.599L-0.224569 169.409C-3.52455 166.243 -7.13676 163.393 -11.0617 161.051L-9.88072 159.001L-9.87924 159.004Z"
        fill="#85ED73" stroke="black" stroke-width="1.36915" stroke-linejoin="round"></path>
    <path
        d="M83.9937 444.943C91.5351 411.171 92.5225 369.274 92.5225 341.875H-33.2469C-33.2469 369.274 -32.2595 411.171 -24.7181 444.943H83.996H83.9937Z"
        fill="#F88BAC" stroke="black" stroke-width="1.36915" stroke-linejoin="round"></path>
    <path d="M91.4599 357.833H-33.2469V360.198H91.4599V357.833Z" fill="#F45183" stroke="black" stroke-width="1.36915"
        stroke-linejoin="round"></path>
    <path
        d="M53.8787 198.427C56.3401 199.706 58.8018 200.987 61.2632 202.266C63.674 203.519 66.1014 204.794 68.197 206.513C68.1267 205.243 68.0304 203.976 67.8895 202.712C67.6498 200.552 67.2904 198.418 66.8442 196.299C62.3989 190.874 56.3694 186.747 49.6734 184.635C42.703 182.439 35.019 182.323 28.6146 178.807C28.0687 178.508 27.4813 178.109 27.3841 177.494C27.2617 176.726 28.0264 176.051 28.8 175.962C29.5736 175.872 30.3273 176.196 31.0421 176.501C36.934 179.003 43.1857 180.656 49.5449 181.394C52.8926 181.782 56.2938 181.923 59.5371 182.838C60.908 183.225 62.2598 183.775 63.4926 184.5C62.0173 180.251 60.3332 176.061 58.6276 171.906C58.1989 170.863 57.7644 169.817 57.3242 168.769C53.489 168.228 49.4644 168.396 45.5775 168.6C41.5079 168.813 37.4401 169.025 33.3704 169.238C27.6415 169.537 21.1395 169.551 17.1598 165.424C16.6949 164.941 16.258 164.22 16.602 163.645C16.8004 163.314 17.1929 163.163 17.5598 163.044C22.6008 161.407 28.011 161.505 33.3077 161.351C39.9546 161.157 46.5883 160.535 53.158 159.504C50.526 154.119 47.527 148.947 43.8487 144.417C40.5743 144.294 37.2869 144.552 34.0754 145.201C26.0349 146.831 18.6251 150.807 10.5995 152.508C9.67716 152.704 8.48271 152.75 8.04632 151.917C7.59715 151.064 8.36088 150.091 9.08977 149.46C16.9806 142.613 27.4774 140.038 37.8977 138.249C36.5341 137.076 35.0943 135.982 33.5647 134.982C29.3668 132.242 24.6471 130.361 19.7388 129.341C17.3523 130.126 15.1478 131.296 13.2873 133.055C12.0122 134.26 10.9644 135.689 9.67278 136.876C7.82796 138.571 5.55385 139.714 3.48866 141.131C-0.659598 143.977 -3.99111 147.992 -6.0205 152.591C-6.30795 153.242 -6.60603 153.948 -7.2172 154.316C-8.11257 154.854 -9.35551 154.38 -9.94396 153.518C-10.5324 152.656 -10.5964 151.537 -10.4797 150.501C-9.97694 146.008 -6.56088 142.352 -2.77906 139.868C1.00291 137.386 5.28811 135.73 9.01481 133.164C10.5471 132.11 12.1377 130.324 11.3875 128.622C11.3601 128.559 11.3258 128.503 11.295 128.446C9.32272 128.431 7.35109 128.544 5.3982 128.799C0.64202 129.421 -3.98842 130.83 -8.32525 132.876C-8.39049 133.045 -8.46345 133.212 -8.52295 133.383C-10.2229 138.171 -10.1078 143.734 -13.186 147.78C-13.666 148.41 -14.6012 149.013 -15.162 148.453C-15.3509 148.266 -15.423 147.993 -15.4624 147.731C-15.6459 146.497 -15.2345 145.258 -14.8297 144.078C-14.0761 141.885 -13.3224 139.694 -12.5689 137.502C-12.2661 136.618 -11.9623 135.7 -11.9566 134.776C-15.1218 136.605 -18.091 138.784 -20.7846 141.252C-23.2461 143.507 -25.5401 146.081 -26.7028 149.209C-28.0676 152.884 -26.6729 154.949 -25.9823 158.387C-25.9177 158.707 -25.8685 159.07 -26.055 159.339C-26.2935 159.685 -26.7878 159.707 -27.2082 159.693C-31.1543 159.575 -35.6562 159.339 -39.5617 159.853C-44.9772 160.565 -50.2867 162.098 -55.2355 164.407C-57.2107 165.327 -59.2843 166.544 -60.0251 168.59C-60.7442 170.578 -59.9969 172.766 -59.1984 174.724C-56.0205 182.519 -51.9063 190.034 -46.1743 196.203C-43.7154 198.849 -41.0013 201.194 -38.1119 203.318C-38.4231 196.694 -37.9772 190.034 -35.8691 183.776C-33.1421 175.682 -27.2777 168.301 -19.222 165.441C-17.5047 164.832 -15.6288 164.432 -13.8692 164.906C-5.25339 167.221 -18.4859 181.028 -21.3318 184.058C-25.8146 188.831 -31.303 193.507 -32.2065 199.99C-32.5747 202.631 -32.113 205.255 -31.2481 207.793C-27.224 210.134 -22.9963 212.184 -18.7008 214.074C-20.5632 205.751 -19.8515 196.838 -16.4525 189.005C-15.8792 187.683 -15.1636 186.314 -13.9031 185.61C-12.6462 184.909 -11.1122 185.016 -9.67765 185.142C-9.07245 187.972 -10.7004 190.731 -11.9196 193.357C-15.0723 200.137 -15.727 208.041 -13.7375 215.247C-13.6377 215.61 -13.5197 215.967 -13.4091 216.325C-12.7473 216.598 -12.0876 216.869 -11.4261 217.138C-5.41279 219.59 0.655202 221.951 6.90411 223.711C6.40995 219.134 4.97284 214.61 3.28094 210.297C0.782338 203.923 -2.29528 197.73 -3.86941 191.067C-4.33357 189.099 -4.64879 186.955 -3.81343 185.111C-2.97806 183.267 -0.565893 182.024 1.15592 183.087C3.4706 186.515 5.41128 188.951 5.72781 193.223C6.11644 198.455 5.42242 203.822 6.79371 208.887C7.90096 212.979 10.2807 216.59 12.6242 220.122L16.4444 225.88C22.5463 226.94 28.6561 227.389 34.7463 227.302C34.156 222.718 31.706 218.239 30.5472 213.637C29.3125 208.737 29.4526 203.277 26.552 199.138C25.858 198.148 25.0014 197.256 24.5027 196.155C24.004 195.054 23.9549 193.626 24.7958 192.754C25.4949 192.029 26.6143 191.886 27.6131 192.019C31.2114 192.498 33.8043 195.917 34.67 199.438C35.5357 202.96 35.093 206.648 35.0141 210.274C34.8891 216.114 35.9079 222.263 38.9151 227.16C41.508 227.021 44.0971 226.787 46.6793 226.465C45.8535 224.421 45.2526 222.287 44.9011 220.11C44.7868 219.398 44.7011 218.643 44.9684 217.973C45.4039 216.875 46.7016 216.311 47.8803 216.397C49.0589 216.484 50.1325 217.089 51.108 217.756C53.7199 219.541 55.9379 221.887 57.6062 224.573C60.2926 223.981 62.9703 223.304 65.6337 222.541C66.4465 222.308 67.3248 222.028 67.7955 221.327C68.1723 220.764 68.2018 220.048 68.2196 219.371C68.2824 216.988 68.341 214.599 68.3419 212.215C64.3414 206.853 59.4392 202.162 53.8842 198.427L53.8787 198.427ZM-0.613351 173.145C-0.791491 173.473 -1.07332 173.768 -1.47934 174.008C-4.18181 175.605 -4.48591 172.226 -3.00977 170.84C-1.24103 169.176 0.613137 170.896 -0.615052 173.147L-0.613351 173.145ZM6.07571 158.233C5.00801 159.6 3.09337 160.032 1.36387 159.891C-0.348749 159.752 -2.33385 158.721 -2.30648 157.004C-2.21383 151.513 8.62075 154.973 6.07586 158.235L6.07571 158.233Z"
        fill="#00A700" stroke="black" stroke-width="1.36915" stroke-linejoin="round"></path>
    <path fill-rule="evenodd" clip-rule="evenodd"
        d="M-4.44137 161.312L-3.87678 161.322C-3.77388 156.032 -1.69954 151.433 2.29109 147.657C10.7878 139.616 25.3998 137.429 31.1457 137.63L31.2109 135.753C25.2099 135.545 9.92728 137.844 0.996804 146.296C-3.26623 150.329 -5.53203 155.227 -5.74491 160.86C-12.0646 158.748 -18.0926 157.836 -23.9345 158.092L-23.8519 159.969C-22.5356 159.911 -21.2086 159.915 -19.8695 159.982C-20.5298 160.583 -22.3427 161.558 -23.9722 162.435L-23.9733 162.435C-28.3029 164.762 -34.8483 168.282 -39.2565 173.93C-44.5707 180.741 -45.4934 189.021 -41.9958 198.543L-41.9957 198.545L-40.231 197.897C-47.7724 177.364 -31.7095 168.728 -23.0809 164.089L-23.0809 164.089C-19.9217 162.391 -18.0887 161.405 -17.804 160.134C-15.0659 160.399 -12.2758 160.921 -9.42257 161.703C-5.35702 164.357 -6.17435 172.305 -7.12106 181.489C-8.53475 195.218 -10.2936 212.306 3.13202 221.746L3.13217 221.748L4.21457 220.212C-1.33679 216.308 -4.58763 210.625 -5.71876 202.839C-6.71925 195.949 -5.93969 188.37 -5.25077 181.681L-5.25008 181.675C-4.44764 173.879 -3.73137 166.921 -6.00344 162.755C-1.54097 164.275 3.0805 166.412 7.90054 169.179C14.28 175.212 14.7281 182.993 15.201 191.23L15.2013 191.235C15.8378 202.288 16.5593 214.818 31.5505 225.788L31.5506 225.79L32.661 224.275C18.3826 213.825 17.7188 202.283 17.0776 191.123L17.0774 191.119C16.686 184.312 16.3116 177.801 12.7607 172.141C20.6938 177.248 29.2584 184.058 38.3944 192.518C41.2791 197.825 40.688 203.352 40.1156 208.699C39.5024 214.426 38.9242 219.836 42.397 224.704L42.3969 224.702L43.9283 223.613C40.8681 219.326 41.41 214.261 41.9845 208.898C42.4505 204.546 42.9283 200.08 41.6636 195.592C49.0282 202.622 56.7489 210.688 64.7957 219.765L64.7958 219.767L66.2025 218.521C55.9584 206.966 46.2313 197.033 37.0827 188.776C39.5014 189.515 41.9457 189.872 44.3482 190.223L44.3514 190.223L44.3548 190.224C51.139 191.214 58.154 192.237 64.7739 201.935L64.7757 201.935L66.3283 200.877C59.2436 190.498 51.8149 189.414 44.6299 188.366L44.6241 188.366C39.9466 187.684 35.5304 187.04 31.3978 183.774L31.3861 183.789C26.3425 179.512 21.4886 175.777 16.8357 172.594C20.8212 173.184 25.1467 172.959 29.6308 172.725L29.6354 172.725L29.6415 172.724C39.9099 172.189 50.528 171.635 59.0729 180.733L60.4448 179.449C51.3012 169.711 39.7391 170.315 29.538 170.849L29.5296 170.85C22.73 171.205 16.3072 171.541 11.1904 168.943L11.1903 168.943C10.9832 168.818 10.7766 168.693 10.5705 168.569C8.73883 167.472 6.93413 166.462 5.15436 165.539C8.6299 164.693 11.4703 162.891 14.4388 161.006L14.4426 161.003C18.0209 158.732 21.7227 156.383 26.9304 155.529C32.9015 154.551 40.0341 155.719 48.7404 159.11L49.4241 157.36C29.1281 149.456 20.7889 154.749 13.4319 159.419C9.92529 161.646 6.59983 163.743 2.26674 164.106C-0.00796235 163.03 -2.24254 162.099 -4.44137 161.312Z"
        fill="black"></path>
    <path
        d="M22.4359 250.19C19.7205 249.594 16.8369 249.583 14.3185 248.411C13.9488 248.239 13.5742 248.029 13.3478 247.689C12.8802 246.985 13.2587 245.969 13.9433 245.476C14.6297 244.982 15.5168 244.882 16.3603 244.844C19.2548 244.708 22.1697 245.093 24.9359 245.955C22.8301 243.301 20.116 241.303 16.7588 240.49C10.5406 238.982 3.97975 242.018 -2.32878 240.949C-3.07907 240.822 -3.85388 240.621 -4.4217 240.112C-5.86637 238.818 -5.22834 236.507 -4.9775 234.582C-3.54833 223.63 -14.3478 220.187 -25.94 220.145C-23.5274 222.338 -21.3598 224.831 -19.4319 227.452C-18.8178 228.286 -18.2088 229.175 -18.0462 230.195C-17.8835 231.218 -18.3062 232.406 -19.2629 232.806C-20.7342 233.419 -22.1841 231.941 -23.0715 230.62C-25.5566 226.916 -28.0994 222.813 -32.2696 221.22C-32.9406 220.964 -33.6315 220.785 -34.3355 220.655C-40.9591 221.453 -46.908 223.075 -49.8769 224.701C-52.4437 226.105 -54.8166 227.793 -57.0127 229.689C-55.2922 229.563 -53.5692 229.445 -51.8462 229.352C-47.3808 229.11 -42.7861 228.995 -38.5718 230.486C-36.9931 231.045 -35.4181 231.887 -34.532 233.309C-34.3763 233.557 -34.2419 233.843 -34.2824 234.133C-34.3291 234.462 -34.5925 234.716 -34.8582 234.918C-36.428 236.101 -38.5491 236.302 -40.4952 236.025C-42.4414 235.749 -44.2997 235.05 -46.2099 234.59C-51.5983 233.296 -57.1086 233.954 -62.5286 235.356C-67.3054 241.173 -70.8114 248.138 -72.9553 255.373C-73.5945 257.528 -74.116 259.71 -74.5487 261.906C-73.7905 260.786 -73.0166 259.677 -72.1913 258.604C-69.5275 255.144 -66.1991 251.978 -62.0383 250.642C-57.9245 249.323 -53.471 249.923 -49.1953 250.537C-47.4394 250.79 -45.3678 251.285 -44.7609 252.951C-44.2488 254.359 -45.1568 255.968 -46.4376 256.75C-47.7183 257.533 -49.2722 257.691 -50.766 257.83C-54.2238 258.151 -57.6835 258.472 -61.1415 258.792C-63.3775 259 -65.6558 259.217 -67.7234 260.095C-71.2434 261.589 -73.7241 264.817 -75.5318 268.186C-76.2136 273.959 -76.3312 279.816 -76.1087 285.66C-75.912 285.128 -75.6943 284.603 -75.4516 284.086C-73.4115 279.74 -69.4954 276.083 -64.7607 275.26C-62.8311 274.925 -60.673 275.124 -59.1954 276.41C-57.7178 277.695 -57.3384 280.282 -58.8021 281.582C-59.5897 282.281 -60.6856 282.478 -61.6975 282.768C-65.7215 283.926 -68.9443 286.869 -72.0084 289.722C-73.0836 290.724 -74.1742 291.743 -74.9289 293.002C-75.1777 293.416 -75.3822 293.849 -75.5595 294.296C-75.5563 294.336 -75.5533 294.375 -75.5501 294.416C-75.0039 300.651 -74.0557 307.231 -70.0964 312.083C-68.6245 313.887 -66.8183 315.344 -64.9241 316.711C-65.0607 314.649 -65.0399 312.574 -64.848 310.516C-64.6782 308.698 -64.3332 306.786 -63.1351 305.404C-61.9027 303.985 -59.989 303.377 -58.1499 302.983C-57.0517 302.745 -55.897 302.563 -54.8143 302.861C-53.7298 303.159 -52.7391 304.064 -52.6878 305.187C-52.6027 307.069 -54.8266 308.021 -56.4238 309.024C-58.8061 310.521 -60.3567 313.154 -60.8317 315.924C-61.0378 317.117 -61.0445 318.332 -60.9066 319.536C-60.5291 319.806 -60.1534 320.078 -59.7845 320.358C-56.2602 323.028 -52.9635 326.644 -52.6641 331.051C-49.8695 328.517 -46.6544 326.773 -43.1953 325.5C-42.501 322.791 -41.9489 320.124 -42.9972 317.614C-43.4825 316.451 -44.3083 315.201 -43.8124 314.043C-43.4629 313.225 -42.506 312.781 -41.6177 312.838C-40.7294 312.894 -39.9146 313.366 -39.2437 313.952C-37.1409 315.788 -36.2566 318.818 -36.7674 321.56C-36.9139 322.35 -37.1803 323.109 -37.5222 323.832C-32.48 322.654 -27.1388 322.05 -21.9314 321.216C-21.8699 321.169 -21.8041 321.128 -21.7427 321.079C-18.5681 318.539 -17.0053 314.242 -17.4821 310.208C-17.959 306.175 -20.3506 302.475 -23.6416 300.09C-25.0972 299.035 -26.7608 298.181 -27.8295 296.736C-28.8982 295.291 -29.0875 292.963 -27.645 291.89C-27.1606 291.532 -26.5624 291.362 -25.9689 291.25C-20.9308 290.303 -15.6707 293.255 -12.997 297.624C-10.3215 301.99 -9.94347 307.466 -10.9552 312.485C-11.4389 314.885 -12.2433 317.215 -13.3015 319.423C-5.11904 317.208 2.64626 313.391 9.30003 308.178C10.0886 306.593 10.7415 304.943 11.2075 303.215C13.1138 296.159 11.04 287.508 4.64206 283.96C-0.291431 281.224 -6.92353 281.844 -11.0082 277.956C-12.2461 276.778 -13.1721 275.014 -12.6534 273.388C-11.9553 271.201 -9.18359 270.526 -6.88625 270.598C4.82486 270.966 17.0622 283.46 17.3068 295.018C17.3514 297.119 17.1317 299.202 16.725 301.255C17.3113 300.603 17.8816 299.938 18.4359 299.259C22.4656 294.324 25.6118 288.66 27.7104 282.646C27.5645 281.27 27.3446 279.902 27.0196 278.547C25.591 272.59 21.8372 266.845 16.116 264.642C12.3025 263.174 7.54219 263.129 5.05807 259.887C4.63402 259.333 4.29762 258.686 4.25211 257.991C4.15738 256.531 5.41725 255.247 6.83038 254.865C8.2435 254.484 9.74979 254.81 11.1413 255.264C17.2313 257.25 22.3713 261.681 25.7804 267.098C27.452 269.756 28.7238 272.639 29.6449 275.639C30.6517 270.677 30.9487 265.58 30.4238 260.535C30.159 257.984 29.5828 255.36 28.6875 252.876C26.7848 251.614 24.6693 250.68 22.4359 250.19ZM-42.1777 274.743C-43.3315 275.221 -44.6091 275.288 -45.8573 275.35C-47.4844 275.43 -49.6183 275.136 -49.9289 273.54C-50.1613 272.344 -49.096 271.288 -48.0121 270.728C-46.4588 269.925 -41.8111 268.614 -40.4735 270.418C-39.2779 272.029 -40.708 274.133 -42.1777 274.743ZM-29.0033 244.319C-30.9901 243.504 -32.5111 241.48 -32.4229 239.337C-32.4057 238.916 -32.3127 238.464 -31.9972 238.186C-31.7393 237.957 -31.3812 237.888 -31.0422 237.835C-28.6964 237.482 -17.3044 241.107 -22.7765 243.88C-24.6913 244.85 -27.0185 245.133 -29.0052 244.319L-29.0033 244.319ZM-17.1518 265.58C-18.6677 265.558 -20.4321 264.867 -20.7246 263.382C-20.8466 262.758 -20.6757 262.111 -20.4079 261.535C-19.7383 260.097 -15.3713 256.316 -14.2413 258.679C-12.6221 262.066 -11.6188 265.66 -17.1517 265.582L-17.1518 265.58Z"
        fill="#00A700" stroke="black" stroke-width="1.36915" stroke-linejoin="round"></path>
    <path fill-rule="evenodd" clip-rule="evenodd"
        d="M30.1142 271.197L28.2429 271.136C28.4753 264.063 26.1129 258.891 21.0222 255.32C16.5149 252.16 10.5379 250.669 5.26029 249.353L5.24965 249.35L5.24677 249.349C-0.291649 247.968 -5.15502 246.755 -7.22581 243.894C-8.1507 244.696 -9.23981 245.68 -10.4591 246.847C-11.3141 248.133 -11.5095 249.959 -10.992 251.88C-9.25687 258.319 -0.846832 263.027 4.01342 265.26C12.7782 269.287 17.7455 273.255 20.1214 278.126C22.5394 283.083 22.3367 289.044 19.4687 297.452L19.4667 297.451L17.6943 296.847C22.8841 281.639 19.3703 274.375 3.22994 266.957C-8.18176 261.711 -11.7849 256.127 -12.7997 252.365C-13.0621 251.391 -13.1744 250.428 -13.1414 249.511C-16.0991 252.554 -19.5459 256.453 -23.1475 261.244L-23.147 261.244L-23.1665 261.269C-23.2634 261.398 -23.3605 261.528 -23.4576 261.658C-24.3242 262.82 -25.175 264.001 -26.0094 265.2C-26.1815 270.181 -20.9237 274.572 -14.8524 279.642L-14.8039 279.683L-14.8038 279.683C-11.8285 282.168 -8.75327 284.737 -6.04063 287.62C-1.16396 292.802 -1.62016 299.804 -2.86008 304.767C-4.2957 310.51 -7.31868 315.727 -9.51849 318.143L-9.51878 318.139L-10.9046 316.882C-8.79233 314.562 -5.97537 309.499 -4.67855 304.312C-3.55026 299.802 -3.10861 293.466 -7.4053 288.9C-10.0553 286.084 -13.1055 283.537 -16.0538 281.076C-21.3674 276.64 -26.4306 272.412 -27.6222 267.568C-30.2533 271.52 -32.7101 275.651 -34.9781 279.935C-35.0912 280.173 -35.2121 280.403 -35.3403 280.624C-36.4402 282.728 -37.4945 284.869 -38.5018 287.044C-40.447 294.905 -36.7252 299.253 -34.0045 302.431L-34.0022 302.434C-29.8491 307.284 -28.0995 311.143 -28.4979 314.577C-28.826 317.413 -30.555 319.84 -34.1049 322.445L-35.2139 320.938C-32.1188 318.668 -30.6212 316.638 -30.3589 314.362C-30.0313 311.52 -31.6877 308.016 -35.426 303.649L-35.4279 303.647C-37.5495 301.168 -40.4845 297.738 -40.8752 292.441C-45.4704 303.462 -48.9027 315.291 -51.0903 327.667L-51.0901 327.668L-52.9339 327.343C-50.4548 313.32 -46.3942 299.987 -40.868 287.717C-40.365 286.6 -39.8499 285.493 -39.3227 284.394C-41.5899 285.667 -44.3552 286.429 -47.2068 287.214L-47.2127 287.215L-47.2445 287.224L-47.2449 287.224L-47.2456 287.224L-47.2458 287.225L-47.2464 287.225C-48.809 287.655 -50.4215 288.099 -52.0041 288.642C-55.9367 289.988 -60.8372 292.042 -63.864 296.005C-67.0429 300.167 -67.85 305.889 -66.3285 313.496L-68.1642 313.863C-71.7336 295.995 -62.3052 290.193 -52.61 286.872C-50.9614 286.308 -49.308 285.852 -47.7092 285.413L-47.7076 285.412C-43.0056 284.117 -38.9092 282.989 -36.9802 279.719C-34.1885 274.38 -31.108 269.274 -27.7657 264.445C-30.9378 265.369 -36.5846 265.86 -47.5612 265.469C-68.8577 264.71 -73.1823 276.895 -73.9994 280.647L-73.9993 280.649L-75.8282 280.251C-75.3025 277.839 -73.713 273.219 -68.974 269.379C-63.8424 265.221 -56.6156 263.276 -47.4924 263.601C-28.1431 264.291 -26.2945 262.267 -24.7566 260.267C-22.5429 257.314 -20.3954 254.698 -18.3818 252.408C-18.4835 252.419 -18.5862 252.428 -18.6897 252.437L-18.6917 252.435C-22.8667 252.764 -28.5424 250.862 -34.8136 248.76L-34.8137 248.76L-34.8222 248.757L-34.826 248.756C-44.4074 245.544 -55.2675 241.903 -62.7386 245.723C-66.3574 247.574 -68.8997 250.989 -70.5108 256.163L-72.2981 255.608C-70.5548 250.006 -67.6263 246.12 -63.5916 244.059C-55.4172 239.881 -44.1597 243.655 -34.2273 246.985L-34.2254 246.986L-34.2183 246.988C-26.262 249.655 -18.7436 252.175 -15.6085 249.36C-13.4573 247.078 -11.5255 245.217 -9.91579 243.757C-14.4406 243.347 -20.292 239.174 -27.9669 230.95C-35.5096 222.866 -40.8134 224.559 -53.1403 229.525L-53.8403 227.79C-41.3308 222.752 -34.9476 220.727 -26.5963 229.674C-17.8763 239.019 -11.4448 243.042 -7.48085 241.635C-5.97373 240.377 -5.06207 239.727 -4.94646 239.647L-3.86559 241.174C-3.89056 241.192 -4.58508 241.688 -5.79112 242.68C-4.19844 245.067 0.414429 246.217 5.69625 247.534L5.70314 247.535C11.1411 248.891 17.304 250.429 22.0985 253.79C27.7477 257.751 30.3694 263.444 30.116 271.197L30.1142 271.197Z"
        fill="black"></path>
    <path d="M399.665 274.407H19.0213V284.296H399.665V274.407Z" fill="#030028" stroke="black" stroke-width="1.36915"
        stroke-linejoin="round"></path>
    <path
        d="M248.789 369.352H149.289V375.623H248.789C250.521 375.623 251.925 374.219 251.925 372.487C251.925 370.755 250.521 369.352 248.789 369.352Z"
        fill="#030028" stroke="black" stroke-width="1.36915" stroke-linejoin="round"></path>
    <path d="M117.478 444.974H99.0702L76.582 308.027H94.9894L117.478 444.974Z" fill="#030028" stroke="black"
        stroke-width="1.36915" stroke-linejoin="round"></path>
    <path d="M76.582 308.027L99.0702 444.974H105.97L83.4822 308.027H76.582Z" fill="#FB5D96" stroke="black"
        stroke-width="1.36915" stroke-linejoin="round"></path>
    <path d="M154.207 383.419H139.076V444.973H154.207V383.419Z" fill="#030028" stroke="black" stroke-width="1.36915"
        stroke-linejoin="round"></path>
    <path d="M37.5464 444.974H19.139L55.6881 308.027H74.0981L37.5464 444.974Z" fill="#030028"></path>
    <path
        d="M164.229 380.013H129.052C129.052 389.716 136.927 397.582 146.642 397.582C156.356 397.582 164.231 389.716 164.231 380.013H164.229Z"
        fill="#030028" stroke="black" stroke-width="1.36915" stroke-linejoin="round"></path>
    <path d="M55.6881 308.027L19.139 444.974H26.0392L62.5883 308.027H55.6881Z" fill="#FB5D96" stroke="black"
        stroke-width="1.36915" stroke-linejoin="round"></path>
    <path
        d="M61.1386 373.586C58.9151 372.795 56.6142 371.857 55.1258 370.028C54.6666 369.466 54.3081 368.843 54.0244 368.186C53.2376 367.629 52.4715 366.921 51.7208 366.047C47.6297 361.294 44.3821 352.204 42.5765 340.45C41.0288 330.361 40.9049 320.55 41.5833 316.072C41.6685 315.515 41.751 314.93 41.8362 314.327C42.2334 311.504 43.0434 305.755 44.7097 304.622C44.831 304.253 44.9728 303.89 45.1611 303.545C46.1078 301.801 47.9161 300.52 48.9272 298.879C45.5971 299.765 42.5326 300.654 39.8267 301.533C34.5052 303.264 33.4992 306.972 32.6454 313.034C32.5654 313.603 32.488 314.155 32.408 314.68C31.6471 319.694 31.6342 330.332 33.4037 341.852C34.8637 351.364 38.0056 364.334 44.6839 372.089C48.5584 376.588 57.1069 375.508 62.3201 375.508L63.94 375.495C63.8729 375.366 63.7981 375.24 63.713 375.119C63.1197 374.295 62.0956 373.924 61.1412 373.583L61.1386 373.586Z"
        fill="#FB5D96" stroke="black" stroke-width="1.36915" stroke-linejoin="round"></path>
    <path
        d="M155.254 288.366C150.686 281.06 143.192 283.731 140.928 283.489C133.385 282.685 79.6874 290.693 48.9267 298.881C47.9155 300.52 46.1099 301.8 45.1606 303.547C44.9723 303.892 44.8304 304.253 44.7092 304.624C44.784 304.575 44.8588 304.529 44.9336 304.498C69.7924 294.354 127.021 288.632 138.268 288.632C138.885 288.632 139.364 288.65 139.692 288.683C142.186 288.949 145.514 290.294 147.379 293.275C149.497 296.66 149.404 301.777 147.111 308.074C143.809 317.14 140.002 328.276 136.643 338.1C133.411 347.553 130.357 356.483 129.449 358.518C126.023 366.196 124.463 369.7 102.057 369.7H58.5689C56.9593 369.7 55.4554 369.2 54.0212 368.185C54.3076 368.845 54.6661 369.466 55.1227 370.027C56.6111 371.857 58.912 372.792 61.1355 373.586C62.0925 373.926 63.1166 374.299 63.7073 375.121C63.7924 375.24 63.8672 375.366 63.9343 375.497L102.222 375.17C114.727 375.17 123.351 374.585 128.556 371.98C134.654 368.927 135.735 367.201 137.925 362.293C138.952 359.99 141.322 353.092 145.424 341.099C148.769 331.316 152.561 320.227 155.832 311.243C160.003 299.783 157.818 292.476 155.249 288.369L155.254 288.366Z"
        fill="#FB5D96" stroke="black" stroke-width="1.36915" stroke-linejoin="round"></path>
    <path
        d="M107.616 375.82H64.1281C59.8022 375.82 55.9355 373.874 52.6312 370.038C46.4404 362.847 43.4765 350.485 42.0784 341.377C40.3604 330.185 40.3579 319.939 41.0853 315.157C41.1678 314.618 41.2452 314.054 41.3277 313.474C42.1171 307.873 43.0973 300.906 48.1764 298.832C75.839 287.545 139.2 281.884 145.899 282.601C149.827 283.018 155.105 285.19 158.133 290.036C161.329 295.148 161.427 301.921 158.427 310.166C155.146 319.176 151.349 330.281 148.001 340.079C144.439 350.495 141.624 358.722 140.605 361.01C135.911 371.535 131.613 375.82 107.619 375.82H107.616ZM144.126 285.496C132.666 285.496 74.5158 291.291 49.2984 301.579C45.8006 303.006 44.9494 309.038 44.2684 313.887C44.1858 314.479 44.1033 315.054 44.0208 315.6C42.5272 325.442 44.4851 356.025 54.8831 368.103C57.5967 371.254 60.705 372.851 64.1281 372.851H107.616C130.066 372.851 133.579 369.469 137.889 359.799C138.854 357.635 141.789 349.053 145.187 339.118C148.543 329.307 152.345 318.189 155.634 309.151C158.306 301.808 158.298 295.905 155.613 291.608C153.15 287.666 148.816 285.893 145.584 285.551C145.249 285.515 144.758 285.496 144.126 285.496Z"
        fill="#FB5D96" stroke="black" stroke-width="1.36915" stroke-linejoin="round"></path>
    <path d="M83.3021 374.335L92.3948 383.42H202.468L211.509 374.389" fill="#030028"></path>
    <path d="M83.3021 374.335L92.3948 383.42H202.468L211.509 374.389" stroke="black" stroke-width="1.36915"
        stroke-linejoin="round"></path>
    <path
        d="M162.79 374.335C147.653 367.044 128.614 350.918 138.591 304.068C141.63 289.794 137.547 281.266 132.349 263.839C127.151 246.412 110.681 194.558 110.681 194.558L15.6493 201.545C15.6493 201.545 30.3138 246.412 35.5115 263.839C40.7092 281.266 44.7926 289.794 41.7539 304.068C31.7789 350.918 50.8183 367.044 65.9523 374.335H162.79Z"
        fill="white" stroke="black" stroke-width="1.36915" stroke-linejoin="round"></path>
    <path fill-rule="evenodd" clip-rule="evenodd"
        d="M15.9671 189.306C13.0677 189.148 10.3803 191.076 9.68247 193.997C8.89721 197.284 10.9286 200.585 14.2197 201.369C14.6985 201.484 15.1776 201.538 15.6492 201.538V201.541H104.619V189.306H15.9671Z"
        fill="#E5E5E5"></path>
    <path
        d="M15.9671 189.306L15.93 189.989C15.9424 189.99 15.9548 189.99 15.9671 189.99V189.306ZM9.68247 193.997L10.3483 194.156L9.68247 193.997ZM14.2197 201.369L14.061 202.035H14.061L14.2197 201.369ZM15.6492 201.538H16.3338C16.3338 201.356 16.2617 201.182 16.1332 201.054C16.0048 200.925 15.8306 200.853 15.649 200.853L15.6492 201.538ZM15.6492 201.541H14.9647C14.9647 201.92 15.2712 202.226 15.6492 202.226V201.541ZM104.619 201.541V202.226C104.997 202.226 105.304 201.92 105.304 201.541H104.619ZM104.619 189.306H105.304C105.304 188.928 104.997 188.621 104.619 188.621V189.306ZM16.0043 188.622C12.781 188.447 9.79281 190.589 9.01663 193.838L10.3483 194.156C10.9678 191.563 13.3544 189.85 15.93 189.989L16.0043 188.622ZM9.01663 193.838C8.14333 197.494 10.4026 201.163 14.061 202.035L14.3784 200.703C11.4545 200.007 9.65109 197.075 10.3483 194.156L9.01663 193.838ZM14.061 202.035C14.5923 202.162 15.1248 202.223 15.6495 202.222L15.649 200.853C15.2305 200.853 14.8047 200.805 14.3784 200.703L14.061 202.035ZM14.9647 201.538V201.541H16.3338V201.538H14.9647ZM15.6492 202.226H104.619V200.857H15.6492V202.226ZM105.304 201.541V189.306H103.935V201.541H105.304ZM104.619 188.621H15.9671V189.99H104.619V188.621Z"
        fill="black"></path>
    <path
        d="M110.57 196.839C111.355 193.552 109.324 190.252 106.033 189.467C102.742 188.683 99.437 190.712 98.6518 193.999C97.8665 197.286 99.8979 200.587 103.189 201.371C106.48 202.156 109.785 200.127 110.57 196.839Z"
        fill="#C8C8C8" stroke="black" stroke-width="1.36915" stroke-linejoin="round"></path>
    <path d="M98.4924 302.769H60.6896V305.363H98.4924V302.769Z" fill="black"></path>
    <path
        d="M159.801 373.586C157.578 372.795 155.277 371.857 153.789 370.028C153.33 369.466 152.971 368.843 152.687 368.186C151.9 367.629 151.134 366.921 150.384 366.047C146.293 361.294 143.045 352.204 141.239 340.45C139.692 330.361 139.568 320.55 140.246 316.072C140.331 315.515 140.414 314.93 140.499 314.327C140.896 311.504 141.706 305.755 143.373 304.622C143.494 304.253 143.636 303.89 143.824 303.545C144.771 301.801 146.579 300.52 147.59 298.879C144.26 299.765 141.195 300.654 138.49 301.533C133.168 303.264 132.162 306.972 131.308 313.034C131.228 313.603 131.151 314.155 131.071 314.68C130.31 319.694 130.297 330.332 132.067 341.852C133.527 351.364 136.668 364.334 143.347 372.089C147.221 376.588 155.77 375.508 160.983 375.508L162.603 375.495C162.536 375.366 162.461 375.24 162.376 375.119C161.783 374.295 160.758 373.924 159.804 373.583L159.801 373.586Z"
        fill="#FB5D96" stroke="black" stroke-width="1.36915" stroke-linejoin="round"></path>
    <path
        d="M253.917 288.366C249.349 281.06 241.855 283.731 239.59 283.489C232.048 282.685 178.35 290.693 147.59 298.881C146.578 300.52 144.773 301.8 143.823 303.547C143.635 303.892 143.493 304.253 143.372 304.624C143.447 304.575 143.522 304.529 143.596 304.498C168.455 294.354 225.684 288.632 236.931 288.632C237.547 288.632 238.027 288.65 238.355 288.683C240.849 288.949 244.177 290.294 246.042 293.275C248.16 296.66 248.067 301.777 245.774 308.074C242.472 317.14 238.664 328.276 235.306 338.1C232.074 347.553 229.02 356.483 228.112 358.518C224.686 366.196 223.125 369.7 200.72 369.7H157.232C155.622 369.7 154.118 369.2 152.684 368.185C152.97 368.845 153.329 369.466 153.786 370.027C155.274 371.857 157.575 372.792 159.798 373.586C160.755 373.926 161.779 374.299 162.37 375.121C162.455 375.24 162.53 375.366 162.597 375.497L200.885 375.17C213.39 375.17 222.014 374.585 227.219 371.98C233.317 368.927 234.398 367.201 236.588 362.293C237.615 359.99 239.985 353.092 244.087 341.099C247.432 331.316 251.224 320.227 254.495 311.243C258.666 299.783 256.481 292.476 253.912 288.369L253.917 288.366Z"
        fill="#030028" stroke="black" stroke-width="1.36915" stroke-linejoin="round"></path>
    <path
        d="M206.278 375.82H162.79C158.464 375.82 154.597 373.874 151.293 370.038C145.102 362.847 142.138 350.485 140.74 341.378C139.022 330.185 139.019 319.939 139.747 315.157C139.829 314.618 139.907 314.054 139.989 313.474C140.779 307.873 141.759 300.906 146.838 298.832C174.501 287.545 237.861 281.89 244.56 282.601C248.489 283.018 253.766 285.19 256.795 290.036C259.991 295.148 260.089 301.922 257.089 310.166C253.808 319.176 250.011 330.281 246.662 340.079C243.1 350.496 240.286 358.722 239.267 361.01C234.572 371.535 230.275 375.82 206.28 375.82H206.278ZM242.788 285.497C231.327 285.497 173.177 291.291 147.96 301.579C144.462 303.006 143.611 309.038 142.93 313.887C142.847 314.479 142.765 315.054 142.682 315.6C141.189 325.442 143.147 356.025 153.545 368.103C156.258 371.254 159.367 372.852 162.79 372.852H206.278C228.727 372.852 232.24 369.469 236.551 359.799C237.516 357.635 240.451 349.053 243.848 339.118C247.204 329.307 251.006 318.189 254.295 309.151C256.968 301.808 256.96 295.906 254.275 291.608C251.811 287.666 247.478 285.893 244.245 285.551C243.91 285.515 243.42 285.497 242.788 285.497Z"
        fill="#CFC6CE" stroke="black" stroke-width="1.36915" stroke-linejoin="round"></path>
    <path d="M326.403 267.667H282.481L275.555 235.231H319.474L326.403 267.667Z" fill="#FB5D96" stroke="black"
        stroke-width="1.36915" stroke-linejoin="round"></path>
    <path d="M324.919 267.667H280.997L274.071 235.231H317.99L324.919 267.667Z" fill="white" stroke="black"
        stroke-width="1.36915" stroke-linejoin="round"></path>
    <path d="M320.877 248.75H276.955L274.071 235.231H317.99L320.877 248.75Z" fill="#030028" stroke="black"
        stroke-width="1.36915" stroke-linejoin="round"></path>
    <path
        d="M260.714 267.667H333.825C337.55 267.667 340.573 270.687 340.573 274.407H253.963C253.963 270.687 256.986 267.667 260.711 267.667H260.714Z"
        fill="white" stroke="black" stroke-width="1.36915" stroke-linejoin="round"></path>
    <path
        d="M177.677 211.724L174.798 229.733C174.904 231.828 177.109 235.832 181.786 235.832H377.014C381.691 235.832 386.287 232.044 387.283 227.373L390.613 211.724H177.677Z"
        fill="#E5E5E5" stroke="black" stroke-width="1.36915" stroke-linejoin="round"></path>
    <path
        d="M390.938 210.186L412.845 107.243C413.885 101.606 411.545 98.532 409.213 96.4683L213.307 94.9404C208.631 94.9404 204.034 98.7278 203.038 103.399L178.863 216.995L176.982 225.838C175.989 230.509 178.974 234.296 183.651 234.296H377.338C382.015 234.296 386.612 230.509 387.607 225.838L390.938 210.188V210.186Z"
        fill="#BEB2BD" stroke="black" stroke-width="1.36915" stroke-linejoin="round"></path>
    <path
        d="M184.124 221.224C181.784 221.224 180.293 219.33 180.789 216.996L204.964 103.4C205.462 101.063 207.76 99.1719 210.097 99.1719H403.785C406.124 99.1719 407.615 101.066 407.12 103.4L382.945 216.996C382.447 219.333 380.149 221.224 377.812 221.224H184.124Z"
        fill="white" stroke="black" stroke-width="1.36915" stroke-linejoin="round"></path>
    <path
        d="M402.888 103.4L378.712 216.996H185.024L209.2 103.4H402.888ZM404.688 94.9414H211C206.324 94.9414 201.727 98.7288 200.731 103.4L176.556 216.996C175.563 221.667 178.547 225.455 183.224 225.455H376.912C381.589 225.455 386.185 221.667 387.181 216.996L411.356 103.4C412.349 98.7288 409.365 94.9414 404.688 94.9414Z"
        fill="#030028" stroke="black" stroke-width="1.36915" stroke-linejoin="round"></path>
    <path
        d="M392.075 154.205C374.963 156.176 357.52 161.594 341.225 170.135C329.684 176.185 318.541 183.826 306.435 187.518C290.128 192.494 274.178 189.721 258.761 187.513C240.067 184.836 224.11 185.774 204.653 193.674C199.122 195.92 193.656 198.504 188.335 201.429L185.023 216.991H378.711L392.073 154.202L392.075 154.205Z"
        fill="#FB5D96" stroke="black" stroke-width="1.36915" stroke-linejoin="round"></path>
    <path
        d="M178.004 210.187L174.673 225.836C173.68 230.507 176.665 234.294 181.341 234.294H375.029C379.706 234.294 384.303 230.507 385.298 225.836L388.628 210.187H178.004Z"
        fill="white" stroke="black" stroke-width="1.36915" stroke-linejoin="round"></path>
    <path
        d="M290.636 177.282H207.124C204.803 177.282 203.322 175.404 203.815 173.085L215.982 115.903C216.475 113.584 218.758 111.706 221.077 111.706H304.589C306.91 111.706 308.391 113.584 307.898 115.903L295.731 173.085C295.238 175.404 292.955 177.282 290.636 177.282Z"
        fill="#E5E5E5" stroke="black" stroke-width="1.36915" stroke-linejoin="round"></path>
    <path
        d="M215.227 119.453L215.983 115.903C216.476 113.584 218.759 111.706 221.078 111.706H304.589C306.911 111.706 308.392 113.584 307.899 115.903L307.143 119.453H215.227Z"
        fill="#030028" stroke="black" stroke-width="1.36915" stroke-linejoin="round"></path>
    <path
        d="M223.646 115.579C223.448 116.512 222.53 117.269 221.593 117.269C220.657 117.269 220.061 116.512 220.26 115.579C220.458 114.646 221.377 113.889 222.313 113.889C223.249 113.889 223.845 114.646 223.646 115.579Z"
        fill="#F0EBF1" stroke="black" stroke-width="1.36915" stroke-linejoin="round"></path>
    <path
        d="M229.075 115.579C228.876 116.512 227.958 117.269 227.022 117.269C226.085 117.269 225.489 116.512 225.688 115.579C225.887 114.646 226.805 113.889 227.741 113.889C228.678 113.889 229.274 114.646 229.075 115.579Z"
        fill="#F0EBF1" stroke="black" stroke-width="1.36915" stroke-linejoin="round"></path>
    <path
        d="M234.501 115.579C234.302 116.512 233.384 117.269 232.447 117.269C231.511 117.269 230.915 116.512 231.114 115.579C231.312 114.646 232.231 113.889 233.167 113.889C234.104 113.889 234.699 114.646 234.501 115.579Z"
        fill="#F0EBF1" stroke="black" stroke-width="1.36915" stroke-linejoin="round"></path>
    <path d="M287.755 171.125H211.824L221.167 127.229H297.095L287.755 171.125Z" fill="white" stroke="black"
        stroke-width="1.36915" stroke-linejoin="round"></path>
    <path d="M264.411 149.178H220.232L224.047 131.251H268.226L264.411 149.178Z" fill="#F45183" stroke="black"
        stroke-width="1.36915" stroke-linejoin="round"></path>
    <path d="M283.814 134.925H271.415L272.196 131.251H284.596L283.814 134.925Z" fill="#FBB9CC" stroke="black"
        stroke-width="1.36915" stroke-linejoin="round"></path>
    <path d="M289.808 142.052H269.897L270.679 138.378H290.59L289.808 142.052Z" fill="#FBB9CC" stroke="black"
        stroke-width="1.36915" stroke-linejoin="round"></path>
    <path d="M284.712 149.178H268.381L269.163 145.504H285.493L284.712 149.178Z" fill="#FBB9CC" stroke="black"
        stroke-width="1.36915" stroke-linejoin="round"></path>
    <path
        d="M278.141 164.794C280.32 162.836 280.802 159.823 279.217 158.064C277.633 156.305 274.582 156.465 272.404 158.423C270.225 160.38 269.743 163.393 271.327 165.152C272.912 166.912 275.962 166.751 278.141 164.794Z"
        fill="#00A700" stroke="black" stroke-width="1.36915" stroke-linejoin="round"></path>
    <path d="M236.102 171.124H215.559L218.592 156.871H239.136L236.102 171.124Z" fill="#85ED73" stroke="black"
        stroke-width="1.36915" stroke-linejoin="round"></path>
    <path d="M259.741 171.124H239.198L242.229 156.871H262.772L259.741 171.124Z" fill="#85ED73" stroke="black"
        stroke-width="1.36915" stroke-linejoin="round"></path>
    <path
        d="M369.201 201.679H305.129C302.807 201.679 301.326 199.8 301.819 197.482L313.987 140.3C314.479 137.981 316.762 136.103 319.081 136.103H383.154C385.475 136.103 386.956 137.981 386.463 140.3L374.296 197.482C373.803 199.8 371.52 201.679 369.201 201.679Z"
        fill="#E5E5E5" stroke="black" stroke-width="1.36915" stroke-linejoin="round"></path>
    <path
        d="M313.234 143.85L313.99 140.3C314.482 137.981 316.765 136.103 319.084 136.103H383.157C385.478 136.103 386.959 137.981 386.466 140.3L385.71 143.85H313.234Z"
        fill="#030028" stroke="black" stroke-width="1.36915" stroke-linejoin="round"></path>
    <path
        d="M321.653 139.975C321.455 140.908 320.536 141.665 319.6 141.665C318.663 141.665 318.068 140.908 318.266 139.975C318.465 139.043 319.383 138.285 320.319 138.285C321.256 138.285 321.852 139.043 321.653 139.975Z"
        fill="#F0EBF1" stroke="black" stroke-width="1.36915" stroke-linejoin="round"></path>
    <path
        d="M327.082 139.975C326.883 140.908 325.965 141.665 325.028 141.665C324.092 141.665 323.496 140.908 323.695 139.975C323.893 139.043 324.812 138.285 325.748 138.285C326.684 138.285 327.28 139.043 327.082 139.975Z"
        fill="#F0EBF1" stroke="black" stroke-width="1.36915" stroke-linejoin="round"></path>
    <path
        d="M332.507 139.975C332.309 140.908 331.39 141.665 330.454 141.665C329.518 141.665 328.922 140.908 329.12 139.975C329.319 139.043 330.237 138.285 331.174 138.285C332.11 138.285 332.706 139.043 332.507 139.975Z"
        fill="#F0EBF1" stroke="black" stroke-width="1.36915" stroke-linejoin="round"></path>
    <path
        d="M334.406 75.5756H278.581C276.118 75.5756 274.545 73.5825 275.069 71.1219L282.029 38.4166C282.553 35.956 284.972 33.9629 287.435 33.9629H343.26C345.724 33.9629 347.296 35.956 346.772 38.4166L339.812 71.1219C339.288 73.5825 336.87 75.5756 334.406 75.5756Z"
        fill="black"></path>
    <path
        d="M329.821 70.1015H272.565C270.038 70.1015 268.428 68.056 268.964 65.5356L276.103 31.9926C276.639 29.4685 279.121 27.4268 281.648 27.4268H338.903C341.43 27.4268 343.04 29.4722 342.505 31.9926L335.365 65.5356C334.83 68.0598 332.348 70.1015 329.821 70.1015Z"
        fill="#E5E5E5" stroke="black" stroke-width="1.36915" stroke-linejoin="round"></path>
    <path d="M341.415 28.3205L319.083 2.36864C317.514 0.543785 314.474 0.543785 312.131 2.36864L278.754 28.3205"
        fill="#E5E5E5"></path>
    <path d="M341.415 28.3205L319.083 2.36864C317.514 0.543785 314.474 0.543785 312.131 2.36864L278.754 28.3205"
        stroke="black" stroke-width="1.36915" stroke-linejoin="round"></path>
    <path d="M277.52 29.3447H342.218L305.266 50.9738L277.52 29.3447Z" fill="#BEB2BD" stroke="black"
        stroke-width="1.36915" stroke-linejoin="round"></path>
    <path d="M331.991 31.6078L324.646 22.2891H288.761L285.825 36.0765L305.264 50.9745L331.04 36.0765L331.991 31.6078Z"
        fill="white" stroke="black" stroke-width="1.36915" stroke-linejoin="round"></path>
    <path
        d="M306.975 41.2479C304.425 41.2479 303.223 39.4118 303.759 36.8914C304.29 34.3897 306.346 32.535 308.716 32.535C309.933 32.535 310.487 33.066 310.651 33.2193L310.767 32.6658H313.471L312.396 37.7104C312.228 38.5069 312.43 38.907 313.137 38.907C314.047 38.907 314.841 37.7777 315.238 35.9005C316.08 31.9404 314.013 29.9959 309.895 29.9959C305.777 29.9959 302.497 32.9164 301.674 36.7867C300.805 40.8777 302.973 43.4879 307.334 43.4879C308.929 43.4879 310.565 42.9793 311.786 42.3361L312.576 44.2395C311.022 45.1893 309.09 45.8325 306.833 45.8325C300.94 45.8325 297.799 42.1828 298.926 36.8727C300.097 31.3645 305.092 27.6699 310.43 27.6699C316.102 27.6699 318.865 31.0093 317.855 35.7659C317.143 39.1052 315.054 41.2292 312.419 41.2292C311.179 41.2292 310.299 40.6758 310.015 39.8344C309.663 40.2345 308.648 41.2517 306.967 41.2517L306.975 41.2479ZM307.911 38.7238C308.821 38.7238 309.7 38.017 309.944 36.8653C310.146 35.9154 309.685 35.0516 308.69 35.0516C307.761 35.0516 306.889 35.8033 306.664 36.8653C306.439 37.9273 306.934 38.7238 307.907 38.7238H307.911Z"
        fill="black"></path>
    <path d="M324.439 22.4229L323.192 31.7713H331.918" stroke="black" stroke-width="1.36915"></path>
    <path d="M362.036 254.14H330.638L337.794 220.515H369.192L362.036 254.14Z" fill="#FBE62E" stroke="black"
        stroke-width="1.36915" stroke-linejoin="round"></path>
    <path d="M353.766 225.275H340.402V227.87H353.766V225.275Z" fill="#FF8793" stroke="black" stroke-width="1.36915"
        stroke-linejoin="round"></path>
    <path d="M358.495 231.209H339.138V233.803H358.495V231.209Z" fill="#FF8793" stroke="black" stroke-width="1.36915"
        stroke-linejoin="round"></path>
    <path d="M352.17 243.816H336.456V246.411H352.17V243.816Z" fill="#FF8793" stroke="black" stroke-width="1.36915"
        stroke-linejoin="round"></path>
    <path d="M343.321 237.144H337.876V239.738H343.321V237.144Z" fill="#FF8793" stroke="black" stroke-width="1.36915"
        stroke-linejoin="round"></path>
    <path d="M361.389 237.144H345.795V239.738H361.389V237.144Z" fill="#FF8793" stroke="black" stroke-width="1.36915"
        stroke-linejoin="round"></path>
    <path
        d="M205.549 205.948H129.763C128.006 205.948 126.886 204.526 127.258 202.772L137.996 152.312C138.37 150.557 140.096 149.135 141.853 149.135H217.639C219.395 149.135 220.515 150.557 220.144 152.312L209.405 202.772C209.031 204.526 207.305 205.948 205.549 205.948Z"
        fill="#E5E5E5" stroke="black" stroke-width="1.36915" stroke-linejoin="round"></path>
    <path d="M206.807 190.001H135.13L142.75 154.198H214.427L206.807 190.001Z" fill="white" stroke="black"
        stroke-width="1.36915" stroke-linejoin="round"></path>
    <path
        d="M151.486 180.308C147.134 180.308 144.345 176.773 145.272 172.426C146.198 168.08 150.49 164.545 154.842 164.545C159.193 164.545 161.982 168.08 161.056 172.426C160.13 176.773 155.837 180.308 151.486 180.308ZM154.336 166.915C151.295 166.915 148.292 169.386 147.647 172.426C147 175.464 148.95 177.937 151.991 177.937C155.032 177.937 158.035 175.467 158.68 172.426C159.327 169.389 157.377 166.915 154.336 166.915Z"
        fill="#CFC6CE" stroke="black" stroke-width="1.36915" stroke-linejoin="round"></path>
    <path
        d="M151.306 181.155L152.173 177.09C154.747 177.09 157.285 174.998 157.832 172.426C158.379 169.855 156.731 167.763 154.156 167.763L155.023 163.697C159.842 163.697 162.929 167.613 161.905 172.426C160.881 177.239 156.127 181.155 151.309 181.155H151.306Z"
        fill="#FFC842" stroke="black" stroke-width="1.36915" stroke-linejoin="round"></path>
    <path
        d="M172.794 180.308C170.057 180.308 167.849 178.925 166.889 176.603C166.371 175.351 166.265 173.908 166.58 172.424C167.506 168.078 171.798 164.543 176.15 164.543C180.501 164.543 183.29 168.078 182.364 172.424C181.438 176.771 177.146 180.306 172.794 180.306V180.308ZM175.644 166.916C172.603 166.916 169.6 169.387 168.956 172.427C168.734 173.463 168.809 174.473 169.172 175.346C169.843 176.969 171.388 177.938 173.302 177.938C176.343 177.938 179.343 175.467 179.991 172.427C180.638 169.389 178.688 166.916 175.647 166.916H175.644Z"
        fill="#CFC6CE" stroke="black" stroke-width="1.36915" stroke-linejoin="round"></path>
    <path
        d="M166.075 177.054C165.502 175.668 165.384 174.068 165.732 172.426C166.756 167.613 171.51 163.697 176.328 163.697L175.462 167.763C172.887 167.763 170.349 169.855 169.802 172.426C169.617 173.305 169.679 174.158 169.983 174.897L166.072 177.056L166.075 177.054Z"
        fill="#F45183" stroke="black" stroke-width="1.36915" stroke-linejoin="round"></path>
    <path
        d="M194.107 180.308C189.756 180.308 186.967 176.773 187.893 172.426C188.819 168.08 193.112 164.545 197.463 164.545C201.815 164.545 204.603 168.08 203.677 172.426C202.751 176.773 198.459 180.308 194.107 180.308ZM196.958 166.915C193.916 166.915 190.916 169.386 190.269 172.426C189.621 175.464 191.572 177.937 194.613 177.937C197.654 177.937 200.657 175.467 201.301 172.426C201.949 169.389 199.999 166.915 196.958 166.915Z"
        fill="#CFC6CE" stroke="black" stroke-width="1.36915" stroke-linejoin="round"></path>
    <path
        d="M200.752 178.515L198.438 175.678C199.478 174.802 200.192 173.648 200.453 172.426C201 169.855 199.351 167.763 196.777 167.763L197.644 163.697C202.462 163.697 205.55 167.613 204.526 172.426C204.038 174.714 202.699 176.876 200.754 178.515H200.752Z"
        fill="#A041FF" stroke="black" stroke-width="1.36915" stroke-linejoin="round"></path>
    <path
        d="M148.04 199.381C149.486 198.082 149.806 196.082 148.754 194.914C147.702 193.746 145.677 193.852 144.231 195.151C142.786 196.45 142.466 198.45 143.518 199.618C144.57 200.786 146.595 200.68 148.04 199.381Z"
        fill="#FFC842" stroke="black" stroke-width="1.36915" stroke-linejoin="round"></path>
    <path
        d="M169.792 199.381C171.238 198.082 171.557 196.082 170.505 194.914C169.453 193.746 167.429 193.852 165.983 195.151C164.537 196.45 164.218 198.45 165.269 199.618C166.321 200.786 168.346 200.68 169.792 199.381Z"
        fill="#F45183" stroke="black" stroke-width="1.36915" stroke-linejoin="round"></path>
    <path
        d="M191.859 197.292C191.487 199.039 189.769 200.456 188.02 200.456C186.271 200.456 185.154 199.039 185.526 197.292C185.897 195.545 187.615 194.128 189.364 194.128C191.113 194.128 192.23 195.545 191.859 197.292Z"
        fill="#A041FF" stroke="black" stroke-width="1.36915" stroke-linejoin="round"></path>
    <path
        d="M219.807 104.067C230.821 94.1719 233.255 78.9365 225.241 70.0381C217.228 61.1397 201.803 61.9479 190.788 71.8434C179.774 81.7389 177.341 96.9743 185.354 105.873C193.367 114.771 208.792 113.963 219.807 104.067Z"
        fill="black"></path>
    <path
        d="M216.97 101.233C227.984 91.338 230.417 76.1025 222.404 67.2041C214.391 58.3057 198.966 59.1139 187.951 69.0094C176.937 78.9049 174.503 94.1404 182.517 103.039C190.53 111.937 205.955 111.129 216.97 101.233Z"
        fill="#FBE62E" stroke="black" stroke-width="1.36915" stroke-linejoin="round"></path>
    <path
        d="M196.383 97.1759L187.94 86.4655L193.032 82.2711L198.168 88.7869L214.651 75.209L217.958 79.4035L196.383 97.1759Z"
        fill="white" stroke="black" stroke-width="1.36915" stroke-linejoin="round"></path>
    <path d="M357.855 194.274H317.341L326.682 150.379H367.196L357.855 194.274Z" fill="white" stroke="black"
        stroke-width="1.36915" stroke-linejoin="round"></path>
    <path
        d="M342.19 166.655L346.9 173.931C344.912 175.373 342.538 176.247 340.15 176.247C334.846 176.247 331.459 171.952 332.587 166.655C333.714 161.357 338.927 157.062 344.231 157.062C344.231 157.062 343.317 161.357 342.19 166.655Z"
        fill="#85ED73" stroke="black" stroke-width="1.36915" stroke-linejoin="round"></path>
    <path
        d="M354.372 165.694C353.753 168.603 351.901 171.21 349.479 172.97L344.769 165.694L346.809 156.102C352.113 156.102 355.5 160.397 354.372 165.694Z"
        fill="#FB5D96" stroke="black" stroke-width="1.36915" stroke-linejoin="round"></path>
    <path d="M350.534 182.899H329.307L329.859 180.302H351.086L350.534 182.899Z" fill="#CFC6CE" stroke="black"
        stroke-width="1.36915" stroke-linejoin="round"></path>
    <path d="M344.739 188.405H332.759L333.311 185.811H345.291L344.739 188.405Z" fill="#CFC6CE" stroke="black"
        stroke-width="1.36915" stroke-linejoin="round"></path>
</svg>