<svg width="32" height="32" viewBox="0 0 32 32" fill="none" xmlns="http://www.w3.org/2000/svg">
<path d="M15.497 27.2597C22.1962 27.2597 27.6269 21.829 27.6269 15.1299C27.6269 8.43072 22.1962 3 15.497 3C8.79791 3 3.36719 8.43072 3.36719 15.1299C3.36719 21.829 8.79791 27.2597 15.497 27.2597Z" fill="#97DDE5" stroke="#01090F" stroke-width="0.3" stroke-miterlimit="10" stroke-linecap="round" stroke-linejoin="round"/>
<path d="M25.0453 7.73145C24.013 8.76377 22.7226 9.71007 21.3462 10.3123C19.5396 11.1725 17.561 11.6887 15.4963 11.6887C13.6037 11.6887 11.7971 11.3446 10.1626 10.5703C8.61411 9.88213 7.15165 8.93583 5.94727 7.73145" fill="#97DDE5"/>
<path d="M25.0453 7.73145C24.013 8.76377 22.7226 9.71007 21.3462 10.3123C19.5396 11.1725 17.561 11.6887 15.4963 11.6887C13.6037 11.6887 11.7971 11.3446 10.1626 10.5703C8.61411 9.88213 7.15165 8.93583 5.94727 7.73145" stroke="#01090F" stroke-width="0.3" stroke-miterlimit="10" stroke-linecap="round" stroke-linejoin="round"/>
<path d="M15.3272 3.08594C12.9184 4.97854 11.1118 7.55936 10.1655 10.5703C9.73538 12.0328 9.47729 13.4952 9.47729 15.0437C9.47729 17.1084 9.90743 19.087 10.6817 20.9796C11.714 23.4744 13.4346 25.6251 15.4992 27.2596" fill="#97DDE5"/>
<path d="M15.3272 3.08594C12.9184 4.97854 11.1118 7.55936 10.1655 10.5703C9.73538 12.0328 9.47729 13.4952 9.47729 15.0437C9.47729 17.1084 9.90743 19.087 10.6817 20.9796C11.714 23.4744 13.4346 25.6251 15.4992 27.2596" stroke="#01090F" stroke-width="0.3" stroke-miterlimit="10" stroke-linecap="round" stroke-linejoin="round"/>
<path d="M16.0999 27.26C18.1645 25.7115 19.799 23.6469 20.8314 21.2381C21.6916 19.3455 22.1218 17.2808 22.1218 15.1302C22.1218 13.4956 21.8637 11.8611 21.3475 10.3987C20.4012 7.55976 18.6807 4.97894 16.3579 3.17236" fill="#97DDE5"/>
<path d="M16.0999 27.26C18.1645 25.7115 19.799 23.6469 20.8314 21.2381C21.6916 19.3455 22.1218 17.2808 22.1218 15.1302C22.1218 13.4956 21.8637 11.8611 21.3475 10.3987C20.4012 7.55976 18.6807 4.97894 16.3579 3.17236" stroke="#01090F" stroke-width="0.3" stroke-miterlimit="10" stroke-linecap="round" stroke-linejoin="round"/>
<path d="M6.63647 23.3887C7.84086 22.3563 9.21729 21.4961 10.6798 20.9799C12.1422 20.3777 13.7767 20.1196 15.4973 20.1196C17.3899 20.1196 19.1965 20.5498 20.831 21.238C22.1214 21.7541 23.3258 22.5284 24.3581 23.3887" fill="#97DDE5"/>
<path d="M6.63647 23.3887C7.84086 22.3563 9.21729 21.4961 10.6798 20.9799C12.1422 20.3777 13.7767 20.1196 15.4973 20.1196C17.3899 20.1196 19.1965 20.5498 20.831 21.238C22.1214 21.7541 23.3258 22.5284 24.3581 23.3887" stroke="#01090F" stroke-width="0.3" stroke-miterlimit="10" stroke-linecap="round" stroke-linejoin="round"/>
<path d="M17.1953 29.2768H2C2.50398 28.0182 3.30698 26.8992 4.34062 26.0149C5.37426 25.1307 6.60792 24.5074 7.93657 24.1982C6.88829 23.8018 5.98878 23.0942 5.36073 22.1718C4.73269 21.2494 4.40671 20.1572 4.42727 19.0441C4.42727 16.055 6.70831 13.6289 9.51575 13.6289H9.8082H9.83744C10.5567 13.6688 11.2579 13.8671 11.8904 14.2093C12.7313 14.6979 13.4267 15.399 13.9055 16.2412C14.3843 17.0834 14.6294 18.0366 14.6159 19.0035C14.6361 20.1074 14.3143 21.1908 13.694 22.1073C13.0737 23.0239 12.1849 23.7294 11.1476 24.1285C11.9807 24.2972 12.7808 24.5991 13.5164 25.0224C13.7773 25.1678 14.0293 25.3287 14.2709 25.5041C15.3097 26.2586 16.165 27.2343 16.7742 28.3597C16.9361 28.6552 17.0768 28.9617 17.1953 29.2768Z" fill="#4AC7D3" stroke="#01090F" stroke-width="0.3" stroke-linecap="round" stroke-linejoin="round"/>
<path d="M12.7797 25.5605L12.7787 25.5598C11.9066 24.8811 10.905 24.3878 9.83654 24.1085C10.721 23.6822 11.479 23.03 12.0304 22.2153C12.6676 21.2737 12.998 20.1605 12.977 19.0263C12.991 18.0341 12.74 17.056 12.2495 16.1914C11.7586 15.326 11.0455 14.6054 10.1828 14.1029L10.1828 14.1029L10.1808 14.1017C9.97354 13.9852 9.7584 13.8837 9.53703 13.7978C9.6287 13.7865 9.72079 13.7782 9.81313 13.773H9.83403C10.529 13.8122 11.2066 14.0039 11.8178 14.3343C12.635 14.8095 13.3106 15.4911 13.7759 16.3095C14.2415 17.1285 14.4799 18.0554 14.4667 18.9956L14.4667 18.9956L14.4667 19.0004C14.4863 20.0733 14.1736 21.1264 13.5706 22.0174C12.9676 22.9085 12.1033 23.5945 11.0945 23.9827L10.614 24.1676L11.1186 24.2697C11.936 24.4351 12.7208 24.7313 13.4423 25.1465L13.4441 25.1475C13.6999 25.2901 13.9468 25.4477 14.1835 25.6196C15.2042 26.361 16.0446 27.3196 16.643 28.4253L16.6431 28.4254C16.7676 28.6548 16.8791 28.8909 16.9771 29.1325H15.5409C15.4237 28.8592 15.2917 28.5923 15.1455 28.333C14.6985 27.5224 14.1269 26.7859 13.4512 26.1502C13.2377 25.9424 13.0135 25.7456 12.7797 25.5605Z" fill="#FFC664" stroke="#01090F" stroke-width="0.3"/>
<path d="M28.998 29.2885H13.791C14.296 28.0295 15.1 26.9103 16.1346 26.0261C17.1693 25.1418 18.4039 24.5188 19.7334 24.2099C18.6852 23.8135 17.7856 23.1059 17.1576 22.1835C16.5296 21.2611 16.2036 20.1689 16.2241 19.0559C16.2241 16.0667 18.5052 13.6406 21.3185 13.6406H21.6109C22.3307 13.677 23.0328 13.8755 23.6638 14.221C24.5186 14.7131 25.2242 15.4243 25.7069 16.28C26.1895 17.1358 26.4313 18.1045 26.4069 19.0849C26.4271 20.1887 26.1053 21.2722 25.485 22.1887C24.8648 23.1053 23.9759 23.8108 22.9386 24.2099C23.7733 24.3795 24.5751 24.6813 25.3132 25.1037C25.5731 25.2479 25.8232 25.4088 26.0619 25.5855C27.0927 26.3333 27.9437 27.2987 28.5535 28.4121C28.7193 28.6951 28.8677 28.9877 28.998 29.2885Z" fill="#4AC7D3" stroke="#01090F" stroke-width="0.3" stroke-linecap="round" stroke-linejoin="round"/>
<path d="M24.5836 25.5643L24.5834 25.5642C23.7127 24.8865 22.7131 24.3933 21.6466 24.1133C22.5235 23.6911 23.2766 23.047 23.8277 22.2424C24.4653 21.3114 24.8022 20.2096 24.7934 19.0838C24.807 18.0907 24.555 17.1118 24.0633 16.2469C23.5713 15.3815 22.857 14.6612 21.9932 14.1594L21.9932 14.1594L21.9913 14.1584C21.7846 14.0421 21.57 13.9408 21.3491 13.8551C21.441 13.8437 21.5333 13.8353 21.6258 13.8299C22.3197 13.8662 22.9963 14.0579 23.6047 14.3908C24.4274 14.8677 25.107 15.5535 25.5737 16.3775C26.0406 17.202 26.2774 18.135 26.2597 19.0805L26.2596 19.0805L26.2597 19.086C26.2793 20.1589 25.9666 21.2121 25.3636 22.1031C24.7606 22.9941 23.8963 23.6802 22.8875 24.0683L22.4077 24.253L22.9115 24.3553C23.7306 24.5218 24.5173 24.8179 25.2415 25.2324L25.2432 25.2333C25.4974 25.3743 25.742 25.5317 25.9754 25.7045L25.9766 25.7053C26.9895 26.4402 27.8256 27.3887 28.4247 28.4826L28.4246 28.4826L28.4268 28.4863C28.5508 28.6979 28.6649 28.915 28.7687 29.1369H27.3447C27.2239 28.8619 27.086 28.5945 26.932 28.3363C26.4925 27.5263 25.9271 26.7902 25.2565 26.1551C25.0439 25.9454 24.8192 25.7482 24.5836 25.5643Z" fill="#FFC664" stroke="#01090F" stroke-width="0.3"/>
<path d="M24.8147 29.2814H6.53125C7.13301 27.761 8.09784 26.4083 9.34282 25.3397C10.5878 24.271 12.0757 23.5184 13.6785 23.1465C12.4127 22.6733 11.3255 21.8228 10.5662 20.7119C9.80696 19.601 9.41289 18.284 9.43812 16.9419C9.43812 13.3492 12.1871 10.4297 15.5677 10.4297H15.9186H15.9537C16.8224 10.4852 17.6667 10.7374 18.4219 11.1668C19.4339 11.7533 20.2709 12.5959 20.8474 13.6085C21.4239 14.6211 21.7192 15.7674 21.7031 16.9303C21.7374 18.2672 21.3545 19.5819 20.607 20.6946C19.8595 21.8073 18.7838 22.6637 17.5271 23.1465C18.5242 23.3491 19.482 23.7097 20.3637 24.2144C20.6789 24.3872 20.9818 24.5811 21.2703 24.7948C22.8249 25.9529 24.037 27.5046 24.7796 29.2872L24.8147 29.2814Z" fill="#97DDE5" stroke="#01090F" stroke-width="0.3" stroke-linecap="round" stroke-linejoin="round"/>
<path d="M24.5528 29.1318C23.8144 27.4638 22.6548 26.0112 21.1842 24.9157C20.9012 24.706 20.6041 24.5158 20.295 24.3464L20.2925 24.345L20.2925 24.345C19.4247 23.8483 18.482 23.4933 17.5005 23.2939L16.9964 23.1914L17.4766 23.0069C18.6981 22.5374 19.7445 21.7067 20.4742 20.6277C21.2038 19.5486 21.5816 18.2732 21.5565 16.9742L21.5564 16.9692L21.5565 16.9692C21.5721 15.8331 21.2836 14.7131 20.7204 13.7237C20.1572 12.7345 19.3395 11.9112 18.3506 11.3379C17.6166 10.9207 16.7963 10.6754 15.9522 10.6207H15.9265C15.776 10.6298 15.626 10.6451 15.477 10.6666C15.787 10.7812 16.0876 10.9204 16.3758 11.083L16.3775 11.0839L16.3775 11.0839C17.4112 11.6845 18.2661 12.5465 18.8547 13.5822C19.4429 14.6172 19.744 15.7885 19.7275 16.9767C19.7529 18.3361 19.3569 19.6704 18.593 20.7989C17.9167 21.7981 16.9811 22.5931 15.889 23.1027C17.1995 23.4302 18.429 24.0246 19.4987 24.85C19.7835 25.0637 20.0553 25.294 20.3126 25.5398C20.3126 25.5399 20.3127 25.5399 20.3128 25.54L20.2091 25.6484C21.0024 26.4009 21.6715 27.2725 22.1919 28.2313L24.5528 29.1318ZM24.5528 29.1318H22.8057C22.6619 28.7994 22.5009 28.4746 22.3232 28.1587L24.5528 29.1318Z" fill="#FFC664" stroke="#01090F" stroke-width="0.3"/>
</svg>
