<svg width="56" height="56" viewBox="0 0 56 56" fill="none" xmlns="http://www.w3.org/2000/svg">
<g clip-path="url(#clip0_1008_14905)">
<circle cx="28" cy="28" r="27.5" fill="#F78400" stroke="#01090F"/>
<path d="M28.0006 41.9252C27.9734 41.895 27.9448 41.8631 27.9149 41.8297C27.6261 41.507 27.2127 41.0367 26.7162 40.4479C25.7229 39.2698 24.3993 37.6204 23.0767 35.7337C21.7532 33.8456 20.4373 31.7292 19.454 29.6165C18.4674 27.4969 17.834 25.4198 17.834 23.5999C17.834 18.2179 22.3615 13.8333 28.0007 13.8333C33.6398 13.8333 38.1673 18.2179 38.1673 23.5999C38.1673 25.4198 37.5339 27.4969 36.5473 29.6165C35.564 31.7292 34.2481 33.8456 32.9246 35.7337C31.602 37.6204 30.2784 39.2698 29.2851 40.4479C28.7886 41.0367 28.3752 41.507 28.0864 41.8297C28.0565 41.8631 28.0279 41.895 28.0006 41.9252ZM23.6911 23.5999C23.6911 25.9179 25.6398 27.7666 28.0007 27.7666C30.3615 27.7666 32.3102 25.9179 32.3102 23.5999C32.3102 21.2819 30.3615 19.4333 28.0007 19.4333C25.6398 19.4333 23.6911 21.2819 23.6911 23.5999Z" fill="white" stroke="#06122C"/>
</g>
<defs>
<clipPath id="clip0_1008_14905">
<rect width="56" height="56" fill="white"/>
</clipPath>
</defs>
</svg>
