<svg width="64" height="64" viewBox="0 0 64 64" fill="none" xmlns="http://www.w3.org/2000/svg">
<circle cx="32" cy="32" r="31.5" transform="rotate(-180 32 32)" fill="white" stroke="#CADBFB"/>
<path d="M36.17 32.5825L25 32.5825C24.45 32.5825 24 32.1325 24 31.5825C24 31.0325 24.45 30.5825 25 30.5825L36.17 30.5825L31.29 25.7025C30.9 25.3125 30.9 24.6825 31.29 24.2925C31.68 23.9025 32.31 23.9025 32.7 24.2925L39.29 30.8825C39.68 31.2725 39.68 31.9025 39.29 32.2925L32.7 38.8825C32.5132 39.0698 32.2595 39.175 31.995 39.175C31.7305 39.175 31.4768 39.0698 31.29 38.8825C30.9 38.4925 30.9 37.8525 31.29 37.4625L36.17 32.5825Z" fill="#2C71F0"/>
</svg>
