<svg width="32" height="32" viewBox="0 0 32 32" fill="none" xmlns="http://www.w3.org/2000/svg">
<g clip-path="url(#clip0_30533_33706)">
<rect x="14.6285" y="3.15" width="2.42305" height="22.6486" rx="1.21152" fill="#FB5D96" stroke="#01090F" stroke-width="0.3"/>
<rect x="8.06382" y="25.2633" width="15.5529" height="4.58603" rx="1.40595" fill="#FFA9C6" stroke="#01090F" stroke-width="0.3"/>
<path fill-rule="evenodd" clip-rule="evenodd" d="M23.7394 5.96777L19.7888 17.0344H21.2736L23.4275 9.06859C23.5106 8.76146 23.9466 8.76216 24.0286 9.06956L26.1547 17.0344H27.6393L23.7394 5.96777Z" fill="#FB5D96"/>
<path d="M19.7888 17.0344L19.6475 16.984L19.576 17.1844H19.7888V17.0344ZM23.7394 5.96777L23.8808 5.91792L23.7403 5.51906L23.5981 5.91734L23.7394 5.96777ZM21.2736 17.0344V17.1844H21.3885L21.4184 17.0736L21.2736 17.0344ZM23.4275 9.06859L23.2827 9.02943L23.4275 9.06859ZM24.0286 9.06956L23.8837 9.10824L23.8837 9.10824L24.0286 9.06956ZM26.1547 17.0344L26.0097 17.0731L26.0394 17.1844H26.1547V17.0344ZM27.6393 17.0344V17.1844H27.8512L27.7808 16.9845L27.6393 17.0344ZM19.9301 17.0848L23.8806 6.0182L23.5981 5.91734L19.6475 16.984L19.9301 17.0848ZM21.2736 16.8844H19.7888V17.1844H21.2736V16.8844ZM21.4184 17.0736L23.5723 9.10774L23.2827 9.02943L21.1288 16.9953L21.4184 17.0736ZM23.5723 9.10774C23.6154 8.94865 23.8412 8.94902 23.8837 9.10824L24.1735 9.03087C24.0519 8.5753 23.4058 8.57426 23.2827 9.02943L23.5723 9.10774ZM23.8837 9.10824L26.0097 17.0731L26.2996 16.9957L24.1735 9.03087L23.8837 9.10824ZM27.6393 16.8844H26.1547V17.1844H27.6393V16.8844ZM23.5979 6.01763L27.4978 17.0843L27.7808 16.9845L23.8808 5.91792L23.5979 6.01763Z" fill="#01090F"/>
<path fill-rule="evenodd" clip-rule="evenodd" d="M8.01477 5.96777L4.06421 17.0344H5.48394C5.48043 16.9975 5.48351 16.9592 5.49426 16.9208L7.70368 9.02789C7.78866 8.7243 8.21932 8.72502 8.30329 9.02889L10.4844 16.9218C10.4949 16.9599 10.4979 16.9979 10.4944 17.0344H11.9147L8.01477 5.96777Z" fill="#FB5D96"/>
<path d="M4.06421 17.0344L3.92294 16.984L3.85139 17.1844H4.06421V17.0344ZM8.01477 5.96777L8.15624 5.91792L8.01568 5.51906L7.8735 5.91734L8.01477 5.96777ZM5.48394 17.0344V17.1844H5.64892L5.63326 17.0202L5.48394 17.0344ZM5.49426 16.9208L5.63871 16.9612L5.63871 16.9612L5.49426 16.9208ZM7.70368 9.02789L7.55923 8.98746H7.55923L7.70368 9.02789ZM8.30329 9.02889L8.44788 8.98894L8.30329 9.02889ZM10.4844 16.9218L10.629 16.8819V16.8819L10.4844 16.9218ZM10.4944 17.0344L10.3451 17.0202L10.3295 17.1844H10.4944V17.0344ZM11.9147 17.0344V17.1844H12.1266L12.0562 16.9845L11.9147 17.0344ZM4.20548 17.0848L8.15604 6.0182L7.8735 5.91734L3.92294 16.984L4.20548 17.0848ZM5.48394 16.8844H4.06421V17.1844H5.48394V16.8844ZM5.63326 17.0202C5.63148 17.0015 5.63298 16.9817 5.63871 16.9612L5.34981 16.8804C5.33404 16.9367 5.32937 16.9936 5.33462 17.0486L5.63326 17.0202ZM5.63871 16.9612L7.84812 9.06833L7.55923 8.98746L5.34981 16.8804L5.63871 16.9612ZM7.84812 9.06833C7.89214 8.91107 8.11522 8.91144 8.15871 9.06885L8.44788 8.98894C8.32343 8.53859 7.68518 8.53752 7.55923 8.98746L7.84812 9.06833ZM8.15871 9.06885L10.3398 16.9618L10.629 16.8819L8.44788 8.98894L8.15871 9.06885ZM10.3398 16.9618C10.3454 16.982 10.3469 17.0017 10.3451 17.0202L10.6437 17.0486C10.6489 16.9941 10.6444 16.9377 10.629 16.8819L10.3398 16.9618ZM11.9147 16.8844H10.4944V17.1844H11.9147V16.8844ZM7.8733 6.01763L11.7732 17.0843L12.0562 16.9845L8.15624 5.91792L7.8733 6.01763Z" fill="#01090F"/>
<rect x="6.11362" y="6.89395" width="1.90593" height="19.4528" rx="0.952965" transform="rotate(-90 6.11362 6.89395)" fill="#FFA9C6" stroke="#01090F" stroke-width="0.3"/>
<path d="M12.9524 16.9575H3C3.10974 18.6627 4.25608 22.073 7.96352 22.073C11.671 22.073 12.8342 18.6627 12.9524 16.9575Z" fill="#FFC664" stroke="#01090F" stroke-width="0.3"/>
<path d="M28.6792 16.9575H18.7268C18.8365 18.6627 19.9829 22.073 23.6903 22.073C27.3978 22.073 28.561 18.6627 28.6792 16.9575Z" fill="#FFC664" stroke="#01090F" stroke-width="0.3"/>
</g>
<defs>
<clipPath id="clip0_30533_33706">
<rect width="27" height="27" fill="white" transform="translate(2 3)"/>
</clipPath>
</defs>
</svg>
