<svg width="288" height="160" viewBox="0 0 288 160" fill="none" xmlns="http://www.w3.org/2000/svg">
<g clip-path="url(#clip0_1102_31073)">
<path fill-rule="evenodd" clip-rule="evenodd" d="M122.888 8.70722L96.9814 8.88808L97.412 46.7648L123.319 46.5839L122.888 8.70722ZM121.09 10.5314L121.495 44.785L99.211 44.9405L98.8056 10.687L121.09 10.5314Z" fill="#FBE62E" stroke="#06122C" stroke-width="0.8" stroke-miterlimit="10"/>
<path d="M96.9512 146.272L84.1149 146.362L84.126 147.953C84.1428 150.364 86.1136 152.307 88.5247 152.29L92.6245 152.262C95.0356 152.245 96.9791 150.274 96.9623 147.863L96.9512 146.272Z" fill="#FBE62E" stroke="#06122C" stroke-width="0.8" stroke-miterlimit="10"/>
<path d="M80.3027 146.388L67.4664 146.478L67.4775 148.069C67.4944 150.48 69.4652 152.424 71.8763 152.407L75.9761 152.378C78.3872 152.361 80.3307 150.39 80.3138 147.979L80.3027 146.388Z" fill="#FBE62E" stroke="#06122C" stroke-width="0.8" stroke-miterlimit="10"/>
<path d="M148.082 145.915L135.246 146.004L135.257 147.596C135.274 150.007 137.244 151.95 139.656 151.933L143.755 151.905C146.166 151.888 148.11 149.917 148.093 147.506L148.082 145.915Z" fill="#FBE62E" stroke="#06122C" stroke-width="0.8" stroke-miterlimit="10"/>
<path d="M97.375 38.1904L70.0185 38.3814C65.4404 38.4134 61.7472 42.1585 61.7792 46.7366L62.4324 140.305C62.4644 144.883 66.2095 148.576 70.7876 148.544L98.1441 148.353L97.375 38.1904Z" fill="#FBE62E" stroke="#06122C" stroke-width="0.8" stroke-miterlimit="10"/>
<path d="M130.998 146.036L118.162 146.125L118.173 147.716C118.19 150.127 120.161 152.071 122.572 152.054L126.671 152.025C129.082 152.009 131.026 150.038 131.009 147.627L130.998 146.036Z" fill="#FBE62E" stroke="#06122C" stroke-width="0.8" stroke-miterlimit="10"/>
<path d="M88.7404 38.251L142.57 37.8752C147.152 37.8432 150.893 41.5321 150.925 46.1145L151.578 139.683C151.61 144.265 147.921 148.006 143.339 148.038L89.5095 148.414C84.9271 148.446 81.1863 144.757 81.1543 140.175L80.5011 46.6062C80.4691 42.0237 84.158 38.283 88.7404 38.251Z" fill="#9BCDFB" stroke="#06122C" stroke-width="0.8" stroke-miterlimit="10"/>
<path d="M141.737 156.641C139.386 156.657 137.467 154.765 137.451 152.414C137.434 150.064 139.326 148.145 141.677 148.128C144.028 148.112 145.947 150.004 145.963 152.355C145.98 154.706 144.087 156.625 141.737 156.641Z" fill="#06122C" stroke="#06122C" stroke-width="0.8" stroke-miterlimit="10"/>
<path d="M124.659 156.761C122.308 156.777 120.389 154.885 120.372 152.534C120.356 150.183 122.248 148.264 124.599 148.248C126.95 148.231 128.869 150.124 128.885 152.474C128.902 154.825 127.009 156.744 124.659 156.761Z" fill="#06122C" stroke="#06122C" stroke-width="0.8" stroke-miterlimit="10"/>
<path d="M90.6038 156.998C88.2531 157.014 86.3341 155.122 86.3177 152.771C86.3013 150.42 88.1937 148.501 90.5444 148.485C92.8951 148.468 94.8141 150.361 94.8305 152.711C94.8469 155.062 92.9546 156.981 90.6038 156.998Z" fill="#06122C" stroke="#06122C" stroke-width="0.8" stroke-miterlimit="10"/>
<path d="M73.5257 157.117C71.175 157.134 69.256 155.241 69.2396 152.891C69.2232 150.54 71.1155 148.621 73.4663 148.604C75.817 148.588 77.736 150.48 77.7524 152.831C77.7688 155.182 75.8764 157.101 73.5257 157.117Z" fill="#06122C" stroke="#06122C" stroke-width="0.8" stroke-miterlimit="10"/>
<path d="M97.4666 5.17144L122.817 4.99445C124.928 4.97972 126.651 6.67877 126.665 8.78938C126.68 10.9 124.981 12.6229 122.87 12.6377L97.5199 12.8147C95.4093 12.8294 93.6864 11.1303 93.6716 9.01973C93.6569 6.90911 95.3559 5.18617 97.4666 5.17144Z" fill="#9BCDFB" stroke="#06122C" stroke-width="0.8" stroke-miterlimit="10"/>
<path d="M140.998 51.6997L141.574 134.257" stroke="#06122C" stroke-width="0.8" stroke-miterlimit="10"/>
<path d="M124.758 51.8138L125.334 134.371" stroke="#06122C" stroke-width="0.8" stroke-miterlimit="10"/>
<path d="M108.521 51.9269L109.098 134.484" stroke="#06122C" stroke-width="0.8" stroke-miterlimit="10"/>
<path d="M92.2773 52.0403L92.8537 134.598" stroke="#06122C" stroke-width="0.8" stroke-miterlimit="10"/>
<path d="M70.4883 52.1908L71.0647 134.748" stroke="#06122C" stroke-width="0.8" stroke-miterlimit="10"/>
<path d="M240.888 73.8697L141.409 74.5642C138.368 74.5854 135.92 77.0682 135.941 80.1095L136.443 152.107C136.465 155.148 138.947 157.597 141.989 157.575L241.467 156.881C244.509 156.86 246.957 154.377 246.936 151.336L246.433 79.3382C246.412 76.2968 243.929 73.8485 240.888 73.8697Z" fill="#FBE62E" stroke="#06122C" stroke-width="0.8" stroke-miterlimit="10"/>
<path d="M231.673 73.9344L132.194 74.6289C129.153 74.6501 126.705 77.1329 126.726 80.1742L127.229 152.172C127.25 155.213 129.733 157.661 132.774 157.64L232.252 156.946C235.294 156.924 237.742 154.442 237.721 151.4L237.218 79.4028C237.197 76.3615 234.714 73.9132 231.673 73.9344Z" fill="#FBE62E" stroke="#06122C" stroke-width="0.8" stroke-miterlimit="10"/>
<path d="M135.37 95.882L182.244 123.339L228.791 95.1588" stroke="#06122C" stroke-width="0.8" stroke-linecap="round" stroke-linejoin="round"/>
<path d="M184.737 52.4656C183.653 52.2962 182.559 52.2119 181.462 52.2136C175.609 52.2545 170.011 54.6191 165.9 58.7872C161.79 62.9554 159.504 68.5857 159.545 74.4395L167.109 74.3867C167.082 70.539 168.585 66.8383 171.287 64.0986C173.988 61.3589 177.668 59.8046 181.515 59.7778C182.617 59.7731 183.716 59.8964 184.79 60.1451C187.991 60.8568 190.856 62.6324 192.918 65.1822C194.98 67.7319 196.116 70.9051 196.142 74.184L203.715 74.1312C203.675 68.8442 201.737 63.7477 198.253 59.7707C194.769 55.7937 189.972 53.2011 184.737 52.4656Z" fill="#FBE62E" stroke="#06122C" stroke-width="0.8" stroke-miterlimit="10"/>
<path d="M186.451 113.181L177.955 113.241C177.201 113.246 176.594 113.862 176.599 114.616L176.695 128.299C176.7 129.053 177.316 129.66 178.07 129.655L186.565 129.596C187.32 129.59 187.927 128.975 187.921 128.22L187.826 114.537C187.821 113.783 187.205 113.176 186.451 113.181Z" fill="#F5E644" stroke="#06122C" stroke-width="0.8" stroke-linecap="round" stroke-linejoin="round"/>
<path d="M240.888 73.87L141.409 74.5645C138.368 74.5857 135.92 77.0684 135.941 80.1098L136.443 152.107C136.465 155.149 138.947 157.597 141.989 157.576L241.467 156.881C244.509 156.86 246.957 154.377 246.936 151.336L246.433 79.3384C246.412 76.297 243.929 73.8487 240.888 73.87Z" fill="#FBE62E" stroke="#06122C" stroke-width="0.8" stroke-miterlimit="10"/>
<path d="M231.673 73.9347L132.194 74.6292C129.153 74.6504 126.705 77.1331 126.726 80.1745L127.229 152.172C127.25 155.213 129.733 157.662 132.774 157.64L232.252 156.946C235.294 156.925 237.742 154.442 237.721 151.4L237.218 79.4031C237.197 76.3617 234.714 73.9134 231.673 73.9347Z" fill="#FBE62E" stroke="#06122C" stroke-width="0.8" stroke-miterlimit="10"/>
<path d="M135.37 95.8822L182.244 123.339L228.791 95.1591" stroke="#06122C" stroke-width="0.8" stroke-linecap="round" stroke-linejoin="round"/>
<path d="M184.737 52.4656C183.653 52.2962 182.559 52.2119 181.462 52.2136C175.609 52.2545 170.011 54.6191 165.9 58.7872C161.79 62.9554 159.504 68.5857 159.545 74.4395L167.109 74.3867C167.082 70.539 168.585 66.8383 171.287 64.0986C173.988 61.3589 177.668 59.8046 181.515 59.7778C182.617 59.7731 183.716 59.8964 184.79 60.1451C187.991 60.8568 190.856 62.6324 192.918 65.1822C194.98 67.7319 196.116 70.9051 196.142 74.184L203.715 74.1312C203.675 68.8442 201.737 63.7477 198.253 59.7707C194.769 55.7937 189.972 53.2011 184.737 52.4656Z" fill="#FBE62E" stroke="#06122C" stroke-width="0.8" stroke-miterlimit="10"/>
<path d="M186.451 113.182L177.955 113.241C177.201 113.246 176.594 113.862 176.599 114.616L176.695 128.299C176.7 129.053 177.316 129.66 178.07 129.655L186.565 129.596C187.32 129.59 187.927 128.975 187.921 128.221L187.826 114.538C187.821 113.783 187.205 113.176 186.451 113.182Z" fill="#F78400" stroke="#06122C" stroke-width="0.8" stroke-linecap="round" stroke-linejoin="round"/>
<path d="M144.698 88.8058L101.298 89.1088C98.5986 89.1277 96.4254 91.3248 96.4442 94.0163L96.8529 152.567C96.8717 155.258 99.0754 157.425 101.775 157.406L145.175 157.103C147.874 157.084 150.048 154.887 150.029 152.196L149.62 93.6451C149.601 90.9536 147.397 88.787 144.698 88.8058Z" fill="#9BCDFB" stroke="#06122C" stroke-width="0.8" stroke-linecap="round" stroke-linejoin="round"/>
<path d="M140.094 88.8379L96.6947 89.1409C93.9951 89.1598 91.8219 91.3569 91.8407 94.0484L92.2494 152.599C92.2682 155.291 94.4719 157.457 97.1716 157.438L140.571 157.135C143.271 157.116 145.444 154.919 145.425 152.228L145.016 93.6772C144.998 90.9857 142.794 88.8191 140.094 88.8379Z" fill="#E9F1FF" stroke="#06122C" stroke-width="0.8" stroke-linecap="round" stroke-linejoin="round"/>
<path d="M99.2578 148.438L99.2927 153.439" stroke="#06122C" stroke-width="0.8" stroke-linecap="round" stroke-linejoin="round"/>
<path d="M98.8438 89.1259L99.2001 140.169L99.2259 143.86" fill="white"/>
<path d="M98.8438 89.1259L99.2001 140.169L99.2259 143.86" stroke="#06122C" stroke-width="0.8" stroke-linecap="round" stroke-linejoin="round"/>
<path d="M121.53 136.554C128.531 136.505 134.168 130.807 134.119 123.826C134.07 116.846 128.355 111.227 121.353 111.276C114.352 111.324 108.715 117.023 108.764 124.003C108.813 130.984 114.528 136.603 121.53 136.554Z" stroke="#06122C" stroke-width="0.8" stroke-linecap="round" stroke-linejoin="round"/>
<path d="M108.748 124.004L134.12 123.827" stroke="#06122C" stroke-width="0.8" stroke-linecap="round" stroke-linejoin="round"/>
<path d="M121.355 111.275L121.532 136.554" stroke="#06122C" stroke-width="0.8" stroke-linecap="round" stroke-linejoin="round"/>
<path d="M121.527 136.539L121.445 136.54L120.995 136.179C119.216 134.799 117.766 133.043 116.749 131.037V131.037C115.085 127.838 114.583 124.163 115.328 120.637C116.074 117.111 118.022 113.95 120.84 111.694L121.285 111.344L121.368 111.343" stroke="#06122C" stroke-width="0.8" stroke-linecap="round" stroke-linejoin="round"/>
<path d="M121.877 136.535L121.977 136.535C123.824 135.139 125.345 133.357 126.431 131.315C128.2 127.987 128.706 124.135 127.855 120.465C127.005 116.796 124.855 113.555 121.801 111.339L121.701 111.339" stroke="#06122C" stroke-width="0.8" stroke-linecap="round" stroke-linejoin="round"/>
<path d="M129.84 114.424C128.78 115.28 127.594 115.968 126.324 116.464C124.742 117.084 123.059 117.409 121.359 117.424C118.289 117.453 115.297 116.463 112.854 114.608" stroke="#06122C" stroke-width="0.8" stroke-linecap="round" stroke-linejoin="round"/>
<path d="M112.956 133.312C114.245 132.304 115.705 131.532 117.265 131.034V131.034C118.6 130.592 119.997 130.365 121.404 130.361C123.105 130.358 124.792 130.665 126.382 131.268C127.659 131.746 128.854 132.418 129.926 133.259" stroke="#06122C" stroke-width="0.8" stroke-linecap="round" stroke-linejoin="round"/>
<path d="M215.933 38.7497L218.008 36.2313C219.742 34.0239 222.721 33.1801 225.355 34.1498L228.443 35.2056L225.924 33.1305C223.717 31.3963 222.873 28.4178 223.843 25.7835L224.899 22.6958L222.824 25.2143C221.09 27.4216 218.111 28.2654 215.477 27.2957L212.389 26.2399L214.907 28.315C217.115 30.0492 217.959 33.0277 216.989 35.662L215.933 38.7497Z" fill="white" stroke="#06122C" stroke-width="0.8" stroke-miterlimit="10" stroke-linejoin="round"/>
</g>
<defs>
<clipPath id="clip0_1102_31073">
<rect width="288" height="160" fill="white"/>
</clipPath>
</defs>
</svg>
