<svg width="32" height="32" viewBox="0 0 32 32" fill="none" xmlns="http://www.w3.org/2000/svg">
<g clip-path="url(#clip0_30533_33760)">
<path d="M4.42643 14.5636C5.31191 13.6516 6.26661 13.0312 7.19607 12.6248C9.04869 11.8148 10.1417 13.8975 9.05913 15.6053L8.33443 16.7486C7.94049 17.3701 6.9096 17.5831 6.17503 17.5401C4.63656 17.45 3.35294 15.6694 4.42643 14.5636Z" fill="#FFC664" stroke="#01090F" stroke-width="0.3"/>
<path d="M17.4599 27.3887C18.3455 26.4768 18.9376 25.5043 19.3165 24.5633C20.0717 22.6876 17.9577 21.6564 16.2825 22.7886L15.161 23.5466C14.5514 23.9587 14.3687 24.9954 14.4333 25.7284C14.5686 27.2635 16.3862 28.4942 17.4599 27.3887Z" fill="#FFC664" stroke="#01090F" stroke-width="0.3"/>
<path d="M10.804 23.0948C10.2583 22.3699 9.45231 21.6717 8.79686 21.1785C8.4175 20.8931 8.28064 20.374 8.50316 19.9546C8.73827 19.5116 9.29046 19.3376 9.70652 19.6178C11.0186 20.5014 11.8881 21.6306 12.3543 22.44C12.561 22.7987 12.3998 23.2369 12.0345 23.4317C11.6156 23.6551 11.0896 23.4741 10.804 23.0948Z" fill="#519AF4" stroke="#01090F" stroke-width="0.3"/>
<path d="M25.9879 3.20008C16.3377 4.42324 10.7268 10.9722 8.23599 15.9252C7.4685 17.4514 8.42728 19.1834 9.75666 20.2563C10.5239 20.8755 11.1782 21.5902 11.7122 22.2922C12.7131 23.6078 14.4463 24.4112 15.9372 23.6972C24.9371 19.387 28.133 11.4182 28.8387 5.99353C29.0548 4.33242 27.6497 2.98945 25.9879 3.20008Z" fill="#9BCDFB" stroke="#01090F" stroke-width="0.3"/>
<path fill-rule="evenodd" clip-rule="evenodd" d="M24.4687 7.54705C22.9701 6.04846 23.5747 3.53422 25.6736 3.24025C25.786 3.2245 25.899 3.20948 26.0125 3.1952C27.6642 2.98742 29.0562 4.32301 28.8429 5.97398C28.8264 6.10153 28.8085 6.23049 28.7893 6.36078C28.4802 8.44938 25.9616 9.04 24.4687 7.54705Z" fill="#FFC664"/>
<path d="M28.7893 6.36078L28.6409 6.33882L28.7893 6.36078ZM28.8429 5.97398L28.6941 5.95475L28.8429 5.97398ZM25.9938 3.04637C25.8796 3.06074 25.7659 3.07586 25.6528 3.0917L25.6944 3.3888C25.8061 3.37315 25.9184 3.35822 26.0312 3.34403L25.9938 3.04637ZM28.9376 6.38274C28.9571 6.25154 28.975 6.12166 28.9916 5.9932L28.6941 5.95475C28.6778 6.08139 28.66 6.20944 28.6409 6.33882L28.9376 6.38274ZM28.6409 6.33882C28.4957 7.31951 27.8359 7.94379 27.0352 8.15182C26.2315 8.36064 25.2834 8.14961 24.5748 7.44099L24.3626 7.65312C25.147 8.43744 26.2046 8.67758 27.1107 8.44218C28.0197 8.20598 28.7737 7.49065 28.9376 6.38274L28.6409 6.33882ZM25.6528 3.0917C24.5399 3.24757 23.8178 3.99616 23.5771 4.90346C23.3372 5.80766 23.5755 6.86596 24.3626 7.65312L24.5748 7.44099C23.8633 6.72955 23.6546 5.78143 23.8671 4.98038C24.0788 4.18241 24.7084 3.5269 25.6944 3.3888L25.6528 3.0917ZM26.0312 3.34403C27.5903 3.14789 28.8943 4.40582 28.6941 5.95475L28.9916 5.9932C29.2182 4.2402 27.7381 2.82694 25.9938 3.04637L26.0312 3.34403Z" fill="#01090F"/>
<circle cx="19.6506" cy="12.2421" r="2.73127" fill="#519AF4" stroke="#01090F" stroke-width="0.3"/>
<path d="M8.92669 22.8073C7.63888 21.5194 6.09199 22.167 5.20143 22.8608C4.92229 23.0783 4.73437 23.3859 4.60377 23.7148C3.71677 25.9483 5.98157 28.135 8.18261 27.1702L8.47527 27.0419C8.8757 26.8664 9.24651 26.6084 9.446 26.2193C9.88488 25.3634 10.1255 24.0061 8.92669 22.8073Z" fill="#FFC664"/>
<path d="M5.20143 22.8608L5.10925 22.7425L5.20143 22.8608ZM8.92669 22.8073L9.03276 22.7012L8.92669 22.8073ZM9.446 26.2193L9.31252 26.1509L9.446 26.2193ZM8.47527 27.0419L8.53549 27.1793L8.47527 27.0419ZM8.18261 27.1702L8.12239 27.0328L8.18261 27.1702ZM4.60377 23.7148L4.46436 23.6594L4.60377 23.7148ZM5.29362 22.9792C5.72624 22.6421 6.31108 22.3226 6.93487 22.2396C7.55094 22.1577 8.21206 22.3048 8.82063 22.9133L9.03276 22.7012C8.35351 22.0219 7.59728 21.8489 6.89532 21.9423C6.20107 22.0346 5.56718 22.3857 5.10925 22.7425L5.29362 22.9792ZM8.82063 22.9133C9.9575 24.0502 9.73341 25.33 9.31252 26.1509L9.57947 26.2878C10.0364 25.3967 10.2935 23.9619 9.03276 22.7012L8.82063 22.9133ZM8.41505 26.9045L8.12239 27.0328L8.24283 27.3076L8.53549 27.1793L8.41505 26.9045ZM9.31252 26.1509C9.13543 26.4962 8.80042 26.7356 8.41505 26.9045L8.53549 27.1793C8.95097 26.9972 9.35759 26.7205 9.57947 26.2878L9.31252 26.1509ZM4.74318 23.7701C4.86799 23.4558 5.04281 23.1746 5.29362 22.9792L5.10925 22.7425C4.80178 22.982 4.60075 23.316 4.46436 23.6594L4.74318 23.7701ZM4.46436 23.6594C3.52788 26.0175 5.91901 28.3262 8.24283 27.3076L8.12239 27.0328C6.04412 27.9438 3.90565 25.8791 4.74318 23.7701L4.46436 23.6594Z" fill="#01090F"/>
<path d="M6.24681 23.2232L5.32634 25.541C5.06972 26.1872 5.72494 26.8198 6.36171 26.5407L8.8833 25.4353C8.99375 25.3869 9.09355 25.315 9.16055 25.2147C9.50404 24.7006 9.82632 23.6925 8.95025 22.8165C8.04908 21.9153 6.95016 22.4915 6.41571 22.9719C6.33958 23.0404 6.28459 23.128 6.24681 23.2232Z" fill="#519AF4"/>
<path d="M5.32634 25.541L5.18693 25.4856L5.32634 25.541ZM6.24681 23.2232L6.38622 23.2785L6.38622 23.2785L6.24681 23.2232ZM6.41571 22.9719L6.51599 23.0835H6.51599L6.41571 22.9719ZM8.95025 22.8165L8.84418 22.9225L8.95025 22.8165ZM9.16055 25.2147L9.28527 25.298V25.298L9.16055 25.2147ZM8.8833 25.4353L8.82308 25.298L8.8833 25.4353ZM6.36171 26.5407L6.42193 26.678L6.36171 26.5407ZM5.46574 25.5964L6.38622 23.2785L6.1074 23.1678L5.18693 25.4856L5.46574 25.5964ZM6.51599 23.0835C6.77065 22.8546 7.15548 22.6076 7.57507 22.5231C7.98596 22.4404 8.43319 22.5115 8.84418 22.9225L9.05631 22.7104C8.56614 22.2202 8.01333 22.1289 7.51585 22.229C7.02708 22.3275 6.59522 22.6089 6.31542 22.8604L6.51599 23.0835ZM8.84418 22.9225C9.25196 23.3303 9.3755 23.7607 9.36282 24.1464C9.34996 24.5376 9.19617 24.8914 9.03582 25.1314L9.28527 25.298C9.46842 25.0239 9.64752 24.6166 9.66266 24.1562C9.67797 23.6903 9.52461 23.1787 9.05631 22.7104L8.84418 22.9225ZM8.82308 25.298L6.30149 26.4033L6.42193 26.678L8.94352 25.5727L8.82308 25.298ZM9.03582 25.1314C8.9888 25.2018 8.91494 25.2577 8.82308 25.298L8.94352 25.5727C9.07256 25.5162 9.1983 25.4282 9.28527 25.298L9.03582 25.1314ZM6.38622 23.2785C6.41742 23.2 6.4606 23.1333 6.51599 23.0835L6.31542 22.8604C6.21855 22.9475 6.15177 23.0561 6.1074 23.1678L6.38622 23.2785ZM5.18693 25.4856C4.88084 26.2564 5.66238 27.011 6.42193 26.678L6.30149 26.4033C5.78749 26.6286 5.25861 26.1179 5.46574 25.5964L5.18693 25.4856Z" fill="#01090F"/>
</g>
<defs>
<clipPath id="clip0_30533_33760">
<rect width="27" height="27" fill="white" transform="translate(2 3)"/>
</clipPath>
</defs>
</svg>
