<svg width="353" height="536" viewBox="0 0 353 536" fill="none" xmlns="http://www.w3.org/2000/svg">
    <path
        d="M151.915 175.865C151.777 178.872 154.879 178.872 155.74 177.555C156.601 176.237 156.038 174.42 156.824 173.294C157.355 172.508 157.993 171.796 158.715 171.18C157.546 171.403 156.399 171.647 155.251 171.902C155.081 172.083 154.901 172.253 154.699 172.391C154.21 172.763 152.043 173.486 151.915 175.876V175.865Z"
        fill="#549CF1" stroke="black" stroke-width="1.2" stroke-linecap="round" stroke-linejoin="round"></path>
    <path
        d="M144.913 339.742C143.235 337.979 141.003 335.843 141.875 333.569C142.502 331.923 144.595 331.104 145.051 329.404C145.774 326.738 142.215 325.027 141.057 322.53C139.898 320.023 141.375 317.08 142.608 314.551C143.84 312.022 144.701 308.633 142.682 306.689C140.207 304.298 135.638 306.264 132.918 304.171C130.644 302.439 130.899 298.975 129.624 296.425C127.659 292.462 121.879 290.178 122.421 285.779C122.761 283.134 125.311 281.476 127.414 279.861C129.518 278.236 131.547 275.516 130.357 273.136C128.636 269.672 125.289 272.201 122.368 269.661C119.871 267.494 120.158 262.681 117.023 261.65C115.568 261.172 114.027 261.799 112.518 262.065C111.01 262.33 109.087 261.969 108.64 260.513C108.343 259.557 108.842 258.516 108.64 257.538C108.3 255.722 105.92 255.158 104.072 255.498C102.234 255.838 100.459 256.455 98.6212 256.274C94.8387 255.913 92.4588 252.29 92.0869 249.804C91.715 247.317 91.885 244.672 90.7907 242.398C90.4507 241.718 89.9619 241.112 89.3776 240.624C88.7826 240.135 88.1026 239.784 87.3589 239.583C85.7864 246.351 84.9895 253.267 85.0002 260.216C85.0002 299.761 110.351 333.389 145.678 345.756C147.453 344.577 146.486 341.421 144.913 339.753V339.742Z"
        fill="#549CF1" stroke="black" stroke-width="1.2" stroke-linecap="round" stroke-linejoin="round"></path>
    <path
        d="M138.57 180.987C141.471 180.827 141.917 178.564 144.892 178.628C148.6 178.713 147.74 175.706 145.636 174.665C142.14 175.887 138.719 177.332 135.394 178.978C135.638 179.945 136.392 181.103 138.57 180.976V180.987Z"
        fill="#549CF1" stroke="black" stroke-width="1.2" stroke-linecap="round" stroke-linejoin="round"></path>
    <path
        d="M159.554 342.505C163.964 338.531 166.46 334.568 170.87 330.583C172.846 328.799 175.024 326.387 174.28 323.837C173.792 322.169 172.113 320.968 171.932 319.247C171.645 316.601 174.865 315.018 177.51 314.816C180.166 314.614 185.139 314.848 186.924 312.883C189.612 309.929 186.924 305.19 187.646 301.259C188.199 298.242 190.781 295.809 190.972 292.749C191.269 288.095 186.127 285.099 181.622 283.888C177.117 282.687 171.837 281.688 169.627 277.576C168.479 275.451 168.075 272.434 165.759 271.733C164.293 271.276 162.667 272.052 161.201 271.616C157.95 270.66 158.205 265.103 155.007 263.998C152.085 262.999 149.142 266.729 146.167 265.889C143.5 265.135 142.693 261.225 139.994 260.598C136.626 259.822 132.759 267.387 127.914 266.304C123.632 265.347 125.534 259.599 123.536 257.187C121.518 254.723 117.746 256.093 118.203 252.853C118.543 250.515 120.009 247.041 117.671 246.722C115.121 246.361 113.878 251.004 109.267 251.864C107.387 252.204 104.189 251.418 103.849 246.255C103.572 242.164 106.855 237.277 113.73 236.257C123.579 234.79 122.909 239.327 126.065 240.422C129.221 241.527 130.389 240.857 132.004 237.925C133.502 235.194 132.1 231.337 134.172 229.021C135.319 227.736 137.179 227.396 138.666 226.514C143.043 223.9 143.575 216.973 148.207 214.89C150.693 213.764 153.573 214.136 156.293 213.966C159.013 213.796 162.136 212.191 160.383 208.345C159.905 207.325 158.651 206.794 158.184 205.753C156.888 202.831 161.403 200.515 162.976 203.585C166.174 209.854 169.297 202.799 170.636 204.744C171.773 206.401 169.404 208.367 170.636 210.077C171.199 210.863 172.623 210.587 173.919 210.8C175.343 211.023 176.65 211.671 177.425 210.959C178.902 209.599 178.658 207.75 176.14 206.656C175.545 206.401 174.28 206.04 174.057 205.424C173.303 203.405 176.713 203.267 176.958 201.503C177.372 198.539 174.79 198.273 173.728 196.849C172.325 194.99 172.729 191.378 170.402 192.079C168.065 192.78 166.599 194.416 165.016 192.568C164.219 191.569 163.602 190.432 163.199 189.21C161.839 185.523 155.613 186.203 154.975 189.688C153.955 195.202 152.861 196.573 149.865 197.859C147.176 198.996 147.325 204.032 144.627 202.916C143.267 202.342 144.403 198.953 141.928 196.945C140.6 195.861 138.124 196.605 136.817 195.511C133.991 193.099 136.297 189.348 138.145 188.849C142.757 187.584 142.512 185.194 145.562 184.758C148.154 184.386 149.514 187.191 151.256 186.66C153.169 186.086 153.243 183.09 154.773 182.113C156.951 180.71 158.014 182.113 161.052 178.83C162.806 176.928 169.127 178.001 169.074 180.583C169.042 182.261 163.794 182.463 163.486 184.45C163.326 185.523 165.525 185.598 167.523 185.991C168.766 186.235 170.105 187.244 170.955 187.202C172.729 187.106 172.219 184.981 173.951 184.695C176.682 184.248 179.433 183.898 179.285 181.358C179.157 179.202 176.512 180.955 176.097 177.672C175.757 174.952 170.721 173.762 169.234 172.221C168.341 171.307 167.289 170.574 166.12 170.064C163.634 170.319 161.18 170.68 158.757 171.148C158.035 171.764 157.398 172.476 156.866 173.262C156.08 174.388 156.643 176.205 155.783 177.523C154.911 178.84 151.809 178.851 151.958 175.833C152.075 173.454 154.242 172.71 154.741 172.349C154.943 172.2 155.124 172.04 155.294 171.86C152.032 172.614 148.823 173.539 145.668 174.643C147.782 175.685 148.632 178.692 144.935 178.607C141.96 178.543 141.524 180.806 138.613 180.965C136.435 181.082 135.68 179.945 135.436 178.957C123.462 184.896 112.954 193.407 104.656 203.872C96.3581 214.338 90.4614 226.514 87.412 239.529C88.1452 239.731 88.8358 240.082 89.4308 240.57C90.0257 241.059 90.5039 241.654 90.8439 242.345C91.9382 244.618 91.7788 247.253 92.1401 249.75C92.5013 252.247 94.8919 255.881 98.6743 256.221C100.523 256.401 102.308 255.796 104.125 255.445C105.942 255.094 108.332 255.668 108.693 257.485C108.885 258.462 108.396 259.504 108.693 260.46C109.14 261.926 111.073 262.277 112.572 262.011C114.059 261.746 115.642 261.119 117.076 261.586C120.211 262.606 119.935 267.44 122.421 269.597C125.343 272.137 128.689 269.597 130.411 273.072C131.601 275.451 129.571 278.182 127.467 279.797C125.364 281.412 122.793 283.08 122.474 285.715C121.932 290.103 127.712 292.398 129.677 296.361C130.942 298.922 130.697 302.385 132.971 304.107C135.702 306.2 140.26 304.234 142.735 306.625C144.754 308.569 143.893 311.958 142.661 314.487C141.428 317.016 139.941 319.916 141.11 322.466C142.278 325.016 145.827 326.674 145.105 329.34C144.648 331.04 142.555 331.858 141.928 333.505C141.057 335.779 143.288 337.915 144.967 339.678C146.55 341.346 147.506 344.513 145.732 345.671C149.078 346.839 152.489 347.806 155.953 348.571C155.857 346.361 157.801 344.077 159.597 342.451L159.554 342.505Z"
        fill="#88EB7A" stroke="black" stroke-width="1.2" stroke-linecap="round" stroke-linejoin="round"></path>
    <path
        d="M261.042 229.978C260.394 230.031 259.767 230.243 259.215 230.604C258.673 230.966 258.216 231.444 257.908 232.017C257.632 232.57 256.463 233.909 255.783 233.909C252.372 233.909 253.637 231.901 250.226 231.221C248.59 230.881 245.849 232.666 244.925 231.274C244.383 230.456 244.213 229.446 243.82 228.554C242.46 225.483 237.955 224.4 235.341 226.514C234.565 227.141 233.96 227.98 233.12 228.522C229.582 230.806 225.035 226.663 220.881 227.374C219.574 227.64 218.394 228.363 217.587 229.425C216.769 230.488 216.365 231.805 216.45 233.133C216.524 233.919 216.769 234.706 216.599 235.471C216.323 236.692 215.101 237.436 213.953 237.946C211.701 238.945 209.799 238.966 207.355 241.176C205.528 242.823 204.285 245.575 205.528 247.689C205.868 248.242 206.335 248.709 206.633 249.283C208.046 252.066 204.657 254.946 204.38 258.048C204.04 261.714 207.929 264.179 209.778 267.366C211.233 269.863 211.956 273.454 214.793 274.06C217.619 274.665 220.094 271.531 223.006 271.605C224.727 271.648 226.32 272.827 228.042 272.625C229.402 272.477 230.485 271.499 231.644 270.755C232.791 270.022 234.374 269.523 235.468 270.32C236.52 271.085 236.637 272.657 237.562 273.582C238.996 275.005 241.726 274.315 243.065 275.823C244.882 277.895 243.31 279.617 243.713 282.347C244.106 284.929 245.881 287.532 247.432 289.636C249.079 291.867 248.93 294.937 248.356 297.647C247.783 300.356 246.826 303.076 247.113 305.817C247.336 307.985 248.664 310.205 250.577 311.045C260.787 296.042 266.238 278.31 266.206 260.173C266.217 249.888 264.474 239.667 261.053 229.967L261.042 229.978Z"
        fill="#88EB7A" stroke="black" stroke-width="1.2" stroke-linecap="round" stroke-linejoin="round"></path>
    <path
        d="M236.552 200.642C235.617 202.247 235.426 204.754 233.598 205.073C233.014 205.116 232.43 205.052 231.877 204.871C230.326 204.531 228.573 204.574 227.277 205.498C226.82 205.827 226.448 206.274 226.214 206.784C225.98 207.294 225.874 207.867 225.917 208.43C226.034 210.024 227.298 210.354 228.169 211.129C228.722 211.629 229.094 212.489 228.679 213.084C227.298 214.019 225.449 213.796 223.834 213.424C222.092 212.999 220.264 212.404 218.543 213.042C218.086 213.212 217.672 213.488 217.332 213.849C217.003 214.21 216.758 214.646 216.631 215.124C216.099 217.164 218.054 217.504 218.554 218.8C219.202 220.5 216.918 222.731 218.214 224.038C218.894 224.718 220.041 224.485 220.891 224.038C221.731 223.592 222.549 222.933 223.505 222.933C224.366 222.933 225.12 223.454 225.906 223.826C227.266 224.463 228.934 224.601 230.241 223.868C231.739 223.018 232.504 220.798 231.229 219.438C230.889 219.098 230.655 218.662 230.57 218.195C230.39 216.877 231.633 216.612 232.515 216.877C233.173 217.079 233.768 217.493 234.459 217.621C236.265 217.961 237.742 216.261 238.89 214.827C239.485 214.03 240.218 213.35 241.057 212.829C241.291 212.702 241.556 212.627 241.833 212.617C242.098 212.617 242.375 212.67 242.619 212.776C242.863 212.893 243.076 213.063 243.246 213.275C243.405 213.488 243.522 213.743 243.565 214.008C243.766 215.007 244.255 215.932 244.956 216.675C245.658 217.419 246.561 217.94 247.549 218.195C248.76 218.471 250.067 218.312 251.129 219.14C251.374 219.321 251.565 219.565 251.671 219.852C251.777 220.139 251.809 220.447 251.746 220.745C251.321 222.561 248.154 221.796 247.496 223.762C247.06 225.048 248.038 226.344 249.376 226.535C251.437 226.833 253.063 225.058 253.669 223.199C254.317 221.212 255.687 220.405 256.739 219.788C252.946 212.192 248.101 205.169 242.364 198.921C240.451 197.944 237.636 198.783 236.563 200.632L236.552 200.642Z"
        fill="#88EB7A" stroke="black" stroke-width="1.2" stroke-linecap="round" stroke-linejoin="round"></path>
    <path
        d="M256.707 219.778C255.656 220.394 254.296 221.212 253.647 223.189C253.042 225.048 251.416 226.822 249.355 226.525C248.016 226.333 247.039 225.037 247.474 223.752C248.133 221.786 251.299 222.551 251.724 220.734C251.788 220.437 251.756 220.129 251.65 219.842C251.544 219.555 251.353 219.31 251.108 219.13C250.046 218.301 248.739 218.45 247.528 218.184C246.539 217.929 245.647 217.398 244.946 216.665C244.245 215.932 243.766 215.007 243.554 214.009C243.501 213.743 243.395 213.488 243.225 213.276C243.065 213.063 242.853 212.893 242.608 212.776C242.364 212.659 242.098 212.606 241.822 212.617C241.546 212.627 241.291 212.691 241.046 212.829C240.207 213.361 239.474 214.03 238.879 214.827C237.742 216.282 236.265 217.972 234.448 217.632C233.768 217.504 233.173 217.09 232.504 216.888C231.612 216.622 230.369 216.888 230.56 218.205C230.645 218.673 230.879 219.109 231.219 219.449C232.504 220.809 231.729 223.019 230.23 223.879C228.924 224.623 227.255 224.474 225.895 223.847C225.109 223.486 224.355 222.955 223.494 222.955C222.538 222.955 221.72 223.603 220.87 224.06C220.031 224.517 218.862 224.74 218.193 224.06C216.907 222.742 219.213 220.532 218.533 218.822C218.044 217.526 216.078 217.186 216.609 215.146C216.737 214.667 216.971 214.232 217.311 213.871C217.64 213.509 218.054 213.233 218.522 213.063C220.243 212.436 222.071 213.021 223.813 213.446C225.439 213.839 227.277 214.062 228.658 213.106C229.072 212.5 228.7 211.639 228.148 211.151C227.277 210.364 226.012 210.046 225.895 208.452C225.853 207.889 225.949 207.315 226.193 206.805C226.427 206.295 226.799 205.849 227.255 205.519C228.552 204.595 230.305 204.542 231.856 204.893C232.408 205.073 232.993 205.137 233.577 205.094C235.405 204.754 235.596 202.258 236.531 200.664C237.604 198.826 240.42 197.976 242.321 198.943C233.843 189.689 223.537 182.304 212.051 177.247C200.566 172.2 188.146 169.597 175.598 169.608C172.421 169.608 169.244 169.778 166.078 170.107C167.247 170.617 168.309 171.35 169.191 172.264C170.678 173.826 175.704 174.994 176.055 177.714C176.469 180.987 179.125 179.244 179.242 181.401C179.391 183.941 176.65 184.291 173.908 184.737C172.177 185.024 172.687 187.149 170.912 187.245C170.073 187.287 168.724 186.278 167.48 186.034C165.483 185.63 163.284 185.566 163.443 184.493C163.74 182.496 168.989 182.304 169.032 180.626C169.085 178.033 162.763 176.971 161.01 178.873C157.971 182.156 156.919 180.764 154.731 182.156C153.201 183.133 153.126 186.129 151.214 186.703C149.471 187.234 148.111 184.429 145.519 184.801C142.459 185.247 142.714 187.638 138.103 188.892C136.244 189.402 133.949 193.142 136.775 195.553C138.082 196.669 140.547 195.893 141.885 196.988C144.35 198.996 143.213 202.385 144.584 202.959C147.283 204.075 147.134 199.038 149.822 197.902C152.829 196.627 153.944 195.256 154.933 189.731C155.57 186.246 161.796 185.566 163.156 189.253C163.56 190.464 164.176 191.601 164.973 192.61C166.556 194.459 168.033 192.833 170.36 192.122C172.687 191.41 172.283 195.022 173.685 196.892C174.758 198.305 177.33 198.592 176.915 201.546C176.671 203.299 173.26 203.448 174.015 205.466C174.238 206.083 175.502 206.444 176.097 206.699C178.626 207.793 178.87 209.642 177.383 211.002C176.607 211.714 175.3 211.066 173.877 210.843C172.591 210.63 171.157 210.906 170.593 210.12C169.361 208.42 171.73 206.444 170.593 204.786C169.255 202.831 166.142 209.897 162.933 203.628C161.361 200.558 156.845 202.874 158.141 205.796C158.598 206.837 159.862 207.347 160.341 208.388C162.115 212.245 158.981 213.839 156.25 214.009C153.53 214.179 150.651 213.807 148.165 214.933C143.522 217.026 142.99 223.943 138.623 226.557C137.136 227.438 135.277 227.768 134.129 229.064C132.057 231.38 133.449 235.248 131.962 237.968C130.347 240.9 129.178 241.58 126.022 240.464C122.856 239.349 123.536 234.833 113.687 236.3C106.813 237.319 103.53 242.196 103.806 246.297C104.146 251.461 107.355 252.258 109.225 251.907C113.825 251.036 115.079 246.404 117.629 246.765C119.966 247.105 118.49 250.569 118.16 252.895C117.703 256.136 121.475 254.765 123.494 257.23C125.47 259.642 123.589 265.401 127.871 266.346C132.716 267.43 136.584 259.876 139.952 260.641C142.65 261.257 143.458 265.178 146.125 265.932C149.1 266.771 152.043 263.042 154.964 264.041C158.162 265.146 157.907 270.703 161.159 271.659C162.625 272.094 164.25 271.319 165.717 271.776C168.033 272.488 168.447 275.494 169.584 277.619C171.794 281.731 177.075 282.73 181.579 283.93C186.084 285.131 191.216 288.138 190.929 292.792C190.738 295.862 188.146 298.285 187.604 301.302C186.892 305.233 189.569 309.972 186.881 312.925C185.096 314.891 180.113 314.679 177.468 314.859C174.822 315.05 171.592 316.634 171.89 319.29C172.081 321.011 173.749 322.212 174.238 323.88C175.003 326.43 172.825 328.841 170.827 330.626C166.418 334.6 163.921 338.563 159.512 342.547C157.706 344.173 155.761 346.468 155.846 348.678C162.317 350.112 168.925 350.835 175.555 350.835C190.345 350.835 204.912 347.233 217.98 340.306C231.049 333.378 242.226 323.359 250.524 311.119C248.622 310.28 247.294 308.049 247.06 305.892C246.773 303.129 247.719 300.42 248.303 297.721C248.888 295.023 249.026 291.931 247.379 289.71C245.828 287.607 244.043 285.004 243.66 282.422C243.246 279.691 244.829 277.97 243.001 275.898C241.663 274.389 238.932 275.08 237.498 273.656C236.573 272.743 236.457 271.159 235.394 270.394C234.289 269.598 232.717 270.097 231.569 270.83C230.422 271.563 229.327 272.53 227.967 272.7C226.267 272.891 224.663 271.712 222.931 271.68C220.02 271.606 217.555 274.74 214.718 274.134C211.881 273.529 211.17 269.948 209.703 267.441C207.855 264.253 203.977 261.788 204.306 258.123C204.593 255.02 207.971 252.13 206.558 249.357C206.261 248.784 205.793 248.316 205.453 247.764C204.2 245.649 205.453 242.897 207.281 241.251C209.714 239.051 211.626 239.019 213.879 238.021C215.026 237.511 216.259 236.767 216.524 235.545C216.694 234.78 216.45 233.983 216.376 233.208C216.291 231.869 216.694 230.551 217.513 229.489C218.331 228.427 219.499 227.704 220.806 227.438C224.961 226.737 229.508 230.881 233.046 228.586C233.885 228.044 234.491 227.205 235.267 226.578C237.88 224.474 242.385 225.558 243.745 228.618C244.149 229.521 244.308 230.52 244.85 231.348C245.774 232.73 248.526 230.966 250.152 231.295C253.562 231.975 252.309 233.983 255.709 233.983C256.389 233.983 257.557 232.645 257.834 232.092C258.142 231.518 258.599 231.03 259.14 230.668C259.682 230.307 260.309 230.095 260.968 230.042C259.735 226.567 258.29 223.157 256.644 219.852L256.707 219.778Z"
        fill="#4790F2" stroke="black" stroke-width="1.2" stroke-miterlimit="10"></path>
    <path
        d="M391.57 306.752C378.496 372.392 270.831 406.278 151.079 382.438C-135.364 318.652 -90.5789 93.9167 198.421 144.73C318.163 168.572 404.645 241.113 391.571 306.763L391.57 306.752Z"
        stroke="white" stroke-width="1.2" stroke-linecap="round" stroke-linejoin="round" stroke-dasharray="4.33 4.33">
    </path>
    <path
        d="M389.832 212.171C405.371 277.27 321.681 353.027 202.925 381.362C-83.9912 443.023 -137.139 220.124 146.661 145.607C265.418 117.271 374.292 147.072 389.832 212.171V212.171Z"
        stroke="white" stroke-width="1.2" stroke-linecap="round" stroke-linejoin="round" stroke-dasharray="4.33 4.33">
    </path>
    <path
        d="M98.5721 120.812C100.007 104.792 88.1845 90.642 72.1647 89.2066C56.1449 87.7713 41.9948 99.5943 40.5594 115.614C39.124 131.634 50.947 145.784 66.9668 147.219C82.9866 148.655 97.1367 136.832 98.5721 120.812Z"
        fill="#DE0364" stroke="black" stroke-width="1.2"></path>
    <path
        d="M51.9747 125.84C53.4515 125.171 55.0027 124.661 56.5858 124.321C56.2352 124.193 55.9058 124.055 55.5765 123.885C53.0584 122.737 50.9122 120.878 49.4141 118.551C47.916 116.224 47.1191 113.505 47.1191 110.731C47.1191 107.81 48.001 104.962 49.6478 102.55C51.2947 100.139 53.6321 98.2898 56.3521 97.2274C58.0202 96.5793 59.8051 96.2393 61.6007 96.2499C65.4469 96.2499 69.1231 97.7799 71.843 100.5C74.563 103.22 76.0823 106.907 76.0823 110.742C76.0823 113.016 75.5404 115.258 74.5098 117.287C73.4792 119.316 71.9811 121.069 70.1431 122.408C70.0687 122.429 70.0049 122.472 69.9199 122.504H69.9943C68.9531 123.247 67.8162 123.864 66.605 124.31C74.3505 125.978 80.5872 131.429 83.1265 138.526C88.3752 133.022 91.297 125.712 91.2864 118.105C91.2864 110.243 88.1627 102.699 82.6059 97.1424C77.0492 91.5856 69.5056 88.4619 61.6432 88.4619C53.7809 88.4619 46.2479 91.5856 40.6805 97.1424C35.1237 102.699 32.0001 110.243 32.0001 118.105C32.0001 125.67 34.89 132.959 40.0855 138.452C41.1268 135.657 42.7098 133.107 44.7498 130.94C46.7898 128.772 49.2547 127.041 51.9747 125.84Z"
        fill="#FFA9C6" stroke="black" stroke-width="1.2" stroke-miterlimit="10"></path>
    <path
        d="M66.6157 124.32C67.8269 123.874 68.9637 123.258 70.0156 122.504H69.9412C70.0156 122.472 70.09 122.44 70.1643 122.408C72.0024 121.069 73.4899 119.306 74.5205 117.276C75.5511 115.247 76.0824 113.005 76.0717 110.731C76.0717 106.885 74.5418 103.209 71.8218 100.489C69.1019 97.7691 65.4257 96.2498 61.5795 96.2498C59.7839 96.2498 58.0096 96.5791 56.3309 97.2272C53.6109 98.2897 51.2735 100.138 49.6266 102.55C47.9798 104.962 47.0979 107.81 47.0979 110.731C47.0979 113.504 47.8948 116.224 49.3929 118.551C50.891 120.878 53.0266 122.737 55.5553 123.885C55.8846 124.034 56.2246 124.172 56.5646 124.32C54.9815 124.66 53.4303 125.17 51.9535 125.84C49.2229 127.04 46.7686 128.772 44.7286 130.94C42.6887 133.107 41.1056 135.668 40.0643 138.451C41.4774 139.95 43.0393 141.299 44.7392 142.478C49.6904 145.921 55.5871 147.769 61.622 147.759C67.6569 147.759 73.5537 145.921 78.5048 142.478C80.1623 141.32 81.7029 140.003 83.1053 138.536C80.5979 131.418 74.3399 125.978 66.6157 124.31V124.32Z"
        fill="white" stroke="black" stroke-width="1.2" stroke-linecap="round" stroke-linejoin="round"></path>
    <path
        d="M72.1405 137.687C78.0798 137.687 82.8928 132.874 82.8928 126.934C82.8928 120.995 78.0798 116.193 72.1405 116.193C66.2013 116.193 61.3989 121.006 61.3989 126.934C61.3989 132.863 66.2119 137.687 72.1405 137.687Z"
        fill="#88EB79" stroke="black" stroke-width="1.2" stroke-linecap="round" stroke-linejoin="round"></path>
    <path d="M72.0768 121.409V132.48" stroke="black" stroke-width="1.2" stroke-linecap="round" stroke-linejoin="round">
    </path>
    <path d="M77.6123 126.934H66.5413" stroke="black" stroke-width="1.2" stroke-linecap="round" stroke-linejoin="round">
    </path>
    <path
        d="M285.828 300.634C285.828 303.684 287.039 306.616 289.196 308.773C291.353 310.93 294.285 312.141 297.335 312.151C298.896 312.151 300.448 311.833 301.882 311.217C299.81 310.324 298.047 308.847 296.814 306.967C295.571 305.086 294.912 302.887 294.912 300.634C294.912 298.382 295.571 296.182 296.814 294.302C298.057 292.421 299.81 290.944 301.882 290.052C300.448 289.436 298.896 289.117 297.335 289.117C294.285 289.117 291.353 290.328 289.196 292.485C287.039 294.642 285.828 297.574 285.828 300.624V300.634Z"
        fill="#FF3D2D" stroke="black" stroke-width="1.2" stroke-linecap="round" stroke-linejoin="round"></path>
    <path
        d="M306.982 279.608H297.898C299.236 279.64 300.575 279.81 301.882 280.107C311.487 282.296 318.69 291.295 318.69 302.068C318.69 315.456 308.151 331.733 301.882 340.233C299.449 343.526 297.675 345.651 297.388 345.981H306.472C306.472 345.981 327.775 320.63 327.775 302.068C327.775 289.861 318.51 279.926 306.982 279.608Z"
        fill="#FF3D2D" stroke="black" stroke-width="1.2" stroke-linecap="round" stroke-linejoin="round"></path>
    <path
        d="M301.882 280.107C300.575 279.81 299.236 279.64 297.898 279.608H297.335C285.552 279.608 276 289.669 276 302.079C276 320.651 296.283 344.791 297.303 345.991H297.398C297.685 345.651 299.46 343.537 301.893 340.243C308.161 331.744 318.701 315.466 318.701 302.079C318.701 291.295 311.497 282.296 301.893 280.107H301.882ZM301.882 311.206C300.448 311.822 298.896 312.141 297.335 312.141C294.285 312.141 291.353 310.93 289.196 308.773C287.039 306.616 285.828 303.683 285.828 300.634C285.828 299.125 286.125 297.627 286.699 296.225C287.284 294.833 288.123 293.558 289.196 292.496C290.269 291.422 291.533 290.583 292.925 289.999C294.317 289.425 295.815 289.127 297.335 289.127C298.896 289.127 300.448 289.446 301.882 290.062C303.954 290.955 305.718 292.432 306.95 294.312C308.193 296.193 308.852 298.392 308.852 300.645C308.852 302.897 308.193 305.097 306.95 306.977C305.707 308.858 303.943 310.335 301.882 311.227V311.206Z"
        fill="#FF8782" stroke="black" stroke-width="1.2" stroke-linecap="round" stroke-linejoin="round"></path>
    <path
        d="M61.828 346.634C61.828 349.684 63.0392 352.616 65.196 354.773C67.3529 356.93 70.2853 358.141 73.3346 358.151C74.8965 358.151 76.4477 357.833 77.882 357.217C75.8102 356.324 74.0465 354.847 72.814 352.967C71.5709 351.086 70.9122 348.887 70.9122 346.634C70.9122 344.382 71.5709 342.182 72.814 340.302C74.0571 338.421 75.8102 336.944 77.882 336.052C76.4477 335.436 74.8965 335.117 73.3346 335.117C70.2853 335.117 67.3529 336.328 65.196 338.485C63.0392 340.642 61.828 343.574 61.828 346.624V346.634Z"
        fill="#A041FF" stroke="black" stroke-width="1.2" stroke-linecap="round" stroke-linejoin="round"></path>
    <path
        d="M82.9819 325.608H73.8978C75.2365 325.64 76.5752 325.81 77.8821 326.107C87.4869 328.296 94.6905 337.295 94.6905 348.068C94.6905 361.456 84.1507 377.733 77.8821 386.233C75.449 389.526 73.6746 391.651 73.3878 391.981H82.472C82.472 391.981 103.775 366.63 103.775 348.068C103.775 335.861 94.5098 325.926 82.9819 325.608Z"
        fill="#A041FF" stroke="black" stroke-width="1.2" stroke-linecap="round" stroke-linejoin="round"></path>
    <path
        d="M77.882 326.107C76.5752 325.81 75.2365 325.64 73.8977 325.608H73.3346C61.5517 325.608 52.0001 335.669 52.0001 348.079C52.0001 366.651 72.2828 390.791 73.3027 391.991H73.3984C73.6852 391.651 75.4596 389.537 77.8927 386.243C84.1613 377.744 94.7011 361.466 94.7011 348.079C94.7011 337.295 87.4975 328.296 77.8927 326.107H77.882ZM77.882 357.206C76.4477 357.822 74.8965 358.141 73.3346 358.141C70.2853 358.141 67.3529 356.93 65.196 354.773C63.0392 352.616 61.828 349.683 61.828 346.634C61.828 345.125 62.1255 343.627 62.6992 342.225C63.2836 340.833 64.1229 339.558 65.196 338.496C66.2691 337.422 67.5335 336.583 68.9253 335.999C70.3172 335.425 71.8153 335.127 73.3346 335.127C74.8965 335.127 76.4477 335.446 77.882 336.062C79.9539 336.955 81.7176 338.432 82.95 340.312C84.1931 342.193 84.8519 344.392 84.8519 346.645C84.8519 348.897 84.1931 351.097 82.95 352.977C81.7069 354.858 79.9432 356.335 77.882 357.227V357.206Z"
        fill="#BD80FF" stroke="black" stroke-width="1.2" stroke-linecap="round" stroke-linejoin="round"></path>
    <path
        d="M309.569 197.48C325.653 197.48 338.692 184.441 338.692 168.357C338.692 152.273 325.653 139.235 309.569 139.235C293.485 139.235 280.447 152.273 280.447 168.357C280.447 184.441 293.485 197.48 309.569 197.48Z"
        fill="#F78400" stroke="black" stroke-width="1.2"></path>
    <path
        d="M291.975 175.986C293.452 175.316 295.003 174.806 296.586 174.466C296.235 174.339 295.906 174.201 295.576 174.031C293.058 172.883 290.912 171.024 289.414 168.697C287.916 166.36 287.119 163.65 287.119 160.877C287.119 157.955 288.001 155.108 289.648 152.696C291.295 150.284 293.632 148.436 296.352 147.373C298.02 146.725 299.805 146.385 301.601 146.396C305.447 146.396 309.123 147.926 311.843 150.646C314.552 153.365 316.082 157.052 316.082 160.888C316.082 163.162 315.54 165.403 314.51 167.433C313.479 169.462 311.981 171.215 310.143 172.554C310.069 172.575 310.005 172.618 309.92 172.649H309.994C308.953 173.393 307.816 174.009 306.605 174.456C314.35 176.124 320.587 181.574 323.127 188.672C328.375 183.168 331.297 175.858 331.286 168.251C331.286 160.388 328.163 152.845 322.606 147.288C317.049 141.731 309.506 138.608 301.643 138.608C293.781 138.608 286.237 141.731 280.681 147.288C275.124 152.845 272 160.388 272 168.251C272 175.816 274.89 183.104 280.086 188.597C281.127 185.803 282.71 183.253 284.75 181.086C286.79 178.918 289.255 177.186 291.975 175.986Z"
        fill="#FEC56D" stroke="black" stroke-width="1.2" stroke-miterlimit="10"></path>
    <path
        d="M306.616 174.466C307.827 174.02 308.964 173.404 310.015 172.65H309.941C310.015 172.618 310.09 172.586 310.164 172.554C312.002 171.215 313.49 169.452 314.52 167.422C315.551 165.393 316.082 163.151 316.072 160.877C316.072 157.031 314.542 153.355 311.832 150.635C309.112 147.915 305.436 146.396 301.59 146.396C299.794 146.396 298.02 146.725 296.341 147.373C293.621 148.436 291.284 150.284 289.637 152.696C287.99 155.108 287.108 157.956 287.108 160.877C287.108 163.65 287.905 166.37 289.403 168.697C290.901 171.035 293.037 172.883 295.566 174.031C295.895 174.18 296.235 174.318 296.575 174.466C294.992 174.806 293.441 175.316 291.964 175.986C289.244 177.186 286.779 178.918 284.739 181.086C282.699 183.253 281.116 185.814 280.075 188.597C281.488 190.096 283.05 191.445 284.75 192.624C289.701 196.067 295.598 197.915 301.633 197.905C307.667 197.905 313.554 196.067 318.515 192.624C320.173 191.466 321.713 190.149 323.116 188.682C320.608 181.564 314.35 176.124 306.626 174.456L306.616 174.466Z"
        fill="white" stroke="black" stroke-width="1.2" stroke-linecap="round" stroke-linejoin="round"></path>
    <path
        d="M312.13 187.832C318.069 187.832 322.872 183.019 322.872 177.08C322.872 171.141 318.058 166.338 312.13 166.338C306.201 166.338 301.388 171.151 301.388 177.08C301.388 183.009 306.201 187.832 312.13 187.832Z"
        fill="#88EB79" stroke="black" stroke-width="1.2" stroke-linecap="round" stroke-linejoin="round"></path>
    <path d="M312.077 171.555V182.626" stroke="black" stroke-width="1.2" stroke-linecap="round" stroke-linejoin="round">
    </path>
    <path d="M317.612 177.08H306.541" stroke="black" stroke-width="1.2" stroke-linecap="round" stroke-linejoin="round">
    </path>
    <path
        d="M171.018 103.026C171.018 106.076 172.229 109.008 174.386 111.165C176.543 113.322 179.475 114.533 182.524 114.533C184.086 114.533 185.637 114.214 187.072 113.598C185 112.705 183.236 111.239 182.004 109.359C180.761 107.478 180.102 105.279 180.102 103.026C180.102 100.774 180.761 98.5745 182.004 96.6939C183.247 94.8133 185.011 93.3365 187.072 92.444C185.637 91.8278 184.086 91.509 182.524 91.509C179.475 91.509 176.543 92.7203 174.386 94.8877C172.229 97.0445 171.018 99.977 171.018 103.026Z"
        fill="#008D98" stroke="black" stroke-width="1.2" stroke-linecap="round" stroke-linejoin="round"></path>
    <path
        d="M192.172 82H183.087C184.426 82.0319 185.765 82.2019 187.072 82.4994C196.677 84.6881 203.88 93.6873 203.88 104.461C203.88 117.848 193.34 134.125 187.072 142.625C184.639 145.919 182.864 148.033 182.578 148.373H191.662C191.662 148.373 212.964 123.033 212.964 104.461C212.964 92.2529 203.7 82.3187 192.172 82Z"
        fill="#008D98" stroke="black" stroke-width="1.2" stroke-linecap="round" stroke-linejoin="round"></path>
    <path
        d="M187.072 82.4994C185.765 82.2019 184.426 82.0319 183.088 82H182.524C170.742 82 161.19 92.0617 161.19 104.471C161.19 123.044 181.473 147.183 182.493 148.384H182.588C182.875 148.044 184.649 145.929 187.082 142.636C193.351 134.136 203.891 117.859 203.891 104.471C203.891 93.6873 196.687 84.6881 187.082 82.4994H187.072ZM187.072 113.598C185.637 114.214 184.086 114.533 182.524 114.533C179.475 114.533 176.543 113.322 174.386 111.165C172.229 109.008 171.018 106.076 171.018 103.026C171.018 99.9771 172.229 97.0447 174.386 94.8879C176.543 92.731 179.475 91.5198 182.524 91.5092C184.086 91.5092 185.637 91.8279 187.072 92.4442C189.144 93.3366 190.897 94.8135 192.14 96.6941C193.372 98.5747 194.031 100.774 194.031 103.026C194.031 105.279 193.372 107.478 192.14 109.359C190.907 111.239 189.144 112.716 187.072 113.609V113.598Z"
        fill="#97DDE5" stroke="black" stroke-width="1.2" stroke-linecap="round" stroke-linejoin="round"></path>
    <path
        d="M208.569 430.872C224.653 430.872 237.692 417.834 237.692 401.75C237.692 385.666 224.653 372.627 208.569 372.627C192.485 372.627 179.447 385.666 179.447 401.75C179.447 417.834 192.485 430.872 208.569 430.872Z"
        fill="#00AC6B" stroke="black" stroke-width="1.2"></path>
    <path
        d="M190.975 409.378C192.452 408.709 194.003 408.199 195.586 407.859C195.235 407.731 194.906 407.593 194.576 407.423C192.058 406.276 189.912 404.416 188.414 402.089C186.916 399.752 186.119 397.043 186.119 394.27C186.119 391.348 187.001 388.5 188.648 386.088C190.295 383.677 192.632 381.828 195.352 380.765C197.02 380.117 198.805 379.777 200.601 379.788C204.447 379.788 208.123 381.318 210.843 384.038C213.552 386.758 215.082 390.445 215.082 394.28C215.082 396.554 214.54 398.796 213.51 400.825C212.479 402.854 210.981 404.607 209.143 405.946C209.069 405.967 209.005 406.01 208.92 406.042H208.994C207.953 406.786 206.816 407.402 205.605 407.848C213.35 409.516 219.587 414.967 222.127 422.064C227.375 416.56 230.297 409.251 230.286 401.643C230.286 393.781 227.163 386.237 221.606 380.68C216.049 375.124 208.506 372 200.643 372C192.781 372 185.248 375.124 179.681 380.68C174.113 386.237 171 393.781 171 401.643C171 409.208 173.89 416.497 179.086 421.99C180.127 419.195 181.71 416.645 183.75 414.478C185.79 412.31 188.255 410.579 190.975 409.378Z"
        fill="#7FDFB3" stroke="black" stroke-width="1.2" stroke-miterlimit="10"></path>
    <path
        d="M205.626 407.859C206.837 407.413 207.974 406.796 209.026 406.042H208.952C209.026 406.01 209.101 405.978 209.175 405.946C211.013 404.608 212.501 402.844 213.531 400.815C214.562 398.785 215.093 396.543 215.082 394.27C215.082 390.434 213.552 386.747 210.843 384.027C208.123 381.307 204.447 379.788 200.601 379.788C198.805 379.788 197.031 380.117 195.352 380.766C192.632 381.828 190.295 383.677 188.648 386.089C187.001 388.5 186.119 391.348 186.119 394.27C186.119 397.043 186.916 399.763 188.414 402.09C189.912 404.427 192.048 406.276 194.576 407.423C194.906 407.572 195.246 407.71 195.586 407.859C194.003 408.199 192.452 408.709 190.975 409.378C188.244 410.579 185.79 412.311 183.75 414.478C181.71 416.645 180.127 419.206 179.086 421.99C180.499 423.488 182.061 424.837 183.76 426.017C188.712 429.459 194.608 431.308 200.643 431.297C206.678 431.297 212.575 429.459 217.526 426.017C219.184 424.858 220.724 423.541 222.127 422.075C219.619 414.956 213.361 409.516 205.637 407.848L205.626 407.859Z"
        fill="white" stroke="black" stroke-width="1.2" stroke-linecap="round" stroke-linejoin="round"></path>
    <path
        d="M211.141 421.225C217.08 421.225 221.893 416.412 221.893 410.483C221.893 404.554 217.08 399.731 211.141 399.731C205.201 399.731 200.399 404.544 200.399 410.483C200.399 416.422 205.212 421.225 211.141 421.225Z"
        fill="#88EB79" stroke="black" stroke-width="1.2" stroke-linecap="round" stroke-linejoin="round"></path>
    <path d="M211.087 404.937V416.008" stroke="black" stroke-width="1.2" stroke-linecap="round" stroke-linejoin="round">
    </path>
    <path d="M216.623 410.472H205.552" stroke="black" stroke-width="1.2" stroke-linecap="round" stroke-linejoin="round">
    </path>
    <path
        d="M22.5693 310.48C38.6533 310.48 51.6918 297.441 51.6918 281.357C51.6918 265.273 38.6533 252.235 22.5693 252.235C6.48539 252.235 -6.55322 265.273 -6.55322 281.357C-6.55322 297.441 6.48539 310.48 22.5693 310.48Z"
        fill="#F8BC20" stroke="black" stroke-width="1.2"></path>
    <path
        d="M4.97468 288.986C6.45153 288.316 8.00274 287.806 9.58584 287.466C9.23522 287.339 8.90584 287.201 8.57647 287.031C6.0584 285.883 3.9122 284.024 2.41411 281.697C0.916011 279.36 0.119147 276.65 0.119147 273.877C0.119147 270.955 1.00101 268.108 2.64785 265.696C4.29469 263.284 6.63214 261.436 9.35209 260.373C11.0202 259.725 12.8052 259.385 14.6007 259.396C18.4469 259.396 22.1231 260.926 24.843 263.646C27.5523 266.365 29.0823 270.052 29.0823 273.888C29.0823 276.162 28.5405 278.403 27.5099 280.433C26.4792 282.462 24.9811 284.215 23.143 285.554C23.0687 285.575 23.0049 285.618 22.9199 285.649H22.9943C21.9531 286.393 20.8162 287.009 19.605 287.456C27.3505 289.124 33.5872 294.574 36.1265 301.672C41.3752 296.168 44.297 288.858 44.2864 281.251C44.2864 273.388 41.1627 265.845 35.6059 260.288C30.0492 254.731 22.5056 251.608 14.6432 251.608C6.78087 251.608 -0.752083 254.731 -6.31947 260.288C-11.8869 265.845 -14.9999 273.388 -14.9999 281.251C-14.9999 288.816 -12.11 296.104 -6.91446 301.597C-5.87323 298.803 -4.29015 296.253 -2.25019 294.086C-0.210233 291.918 2.25474 290.186 4.97468 288.986Z"
        fill="#FCEE70" stroke="black" stroke-width="1.2" stroke-miterlimit="10"></path>
    <path
        d="M19.6263 287.466C20.8375 287.02 21.9744 286.404 23.0262 285.65H22.9518C23.0262 285.618 23.1006 285.586 23.1749 285.554C25.013 284.215 26.5005 282.452 27.5311 280.422C28.5617 278.393 29.093 276.151 29.0823 273.877C29.0823 270.042 27.5524 266.355 24.843 263.635C22.1231 260.915 18.4469 259.396 14.6008 259.396C12.8052 259.396 11.0308 259.725 9.35212 260.373C6.63217 261.436 4.29472 263.284 2.64788 265.696C1.00104 268.108 0.119176 270.956 0.119176 273.877C0.119176 276.65 0.916039 279.37 2.41413 281.697C3.91223 284.035 6.0478 285.883 8.5765 287.031C8.90587 287.18 9.24587 287.318 9.58587 287.466C8.00277 287.806 6.45156 288.316 4.97471 288.986C2.24414 290.186 -0.210204 291.918 -2.25016 294.086C-4.29012 296.253 -5.8732 298.814 -6.91443 301.597C-5.50133 303.096 -3.93949 304.445 -2.23953 305.624C2.71162 309.067 8.60837 310.915 14.6432 310.905C20.6781 310.905 26.5749 309.067 31.5261 305.624C33.1835 304.466 34.7241 303.149 36.1266 301.682C33.6191 294.564 27.3611 289.124 19.6369 287.456L19.6263 287.466Z"
        fill="white" stroke="black" stroke-width="1.2" stroke-linecap="round" stroke-linejoin="round"></path>
    <path
        d="M25.1406 300.832C31.0798 300.832 35.8929 296.019 35.8929 290.091C35.8929 284.162 31.0798 279.338 25.1406 279.338C19.2013 279.338 14.3989 284.151 14.3989 290.091C14.3989 296.03 19.2119 300.832 25.1406 300.832Z"
        fill="#88EB79" stroke="black" stroke-width="1.2" stroke-linecap="round" stroke-linejoin="round"></path>
    <path d="M25.0874 284.544V295.615" stroke="black" stroke-width="1.2" stroke-linecap="round" stroke-linejoin="round">
    </path>
    <path d="M30.6229 290.08H19.5519" stroke="black" stroke-width="1.2" stroke-linecap="round" stroke-linejoin="round">
    </path>
    <path
        d="M68.5001 498L66.759 488.003C66.0294 483.825 64.028 479.973 61.028 476.975C58.0281 473.976 54.1758 471.977 49.9971 471.25L40.0001 469.5L49.9971 467.759C54.1769 467.031 58.0301 465.03 61.0302 462.03C64.0302 459.03 66.031 455.177 66.759 450.997L68.5001 441L70.2496 450.997C70.977 455.176 72.9765 459.028 75.9749 462.028C78.9734 465.028 82.8247 467.029 87.003 467.759L97.0001 469.5L87.003 471.25C82.8259 471.979 78.9754 473.979 75.9771 476.977C72.9787 479.975 70.9786 483.826 70.2496 488.003L68.5001 498Z"
        fill="white"></path>
    <path
        d="M329.577 66L320.516 59.6269C316.728 56.9647 312.21 55.5368 307.579 55.5379C302.949 55.5391 298.432 56.9694 294.645 59.6335L285.577 66L291.95 56.9389C294.615 53.1504 296.045 48.6317 296.045 44C296.045 39.3683 294.615 34.8495 291.95 31.061L285.577 22L294.645 28.3665C298.432 31.0306 302.949 32.4609 307.579 32.4621C312.21 32.4632 316.728 31.0352 320.516 28.373L329.577 22L323.211 31.0675C320.549 34.8548 319.121 39.371 319.121 44C319.121 48.629 320.549 53.1452 323.211 56.9325L329.577 66Z"
        fill="white"></path>
    <path
        d="M290.5 476L289.614 470.914C289.243 468.788 288.225 466.829 286.699 465.303C285.172 463.777 283.212 462.76 281.086 462.39L276 461.5L281.086 460.614C283.213 460.244 285.173 459.226 286.7 457.7C288.226 456.173 289.244 454.213 289.614 452.086L290.5 447L291.39 452.086C291.76 454.212 292.778 456.172 294.303 457.698C295.829 459.225 297.788 460.243 299.914 460.614L305 461.5L299.914 462.39C297.789 462.761 295.83 463.779 294.304 465.304C292.779 466.83 291.761 468.789 291.39 470.914L290.5 476Z"
        fill="white"></path>
    <path
        d="M263.5 104L262.736 99.6153C262.416 97.7827 261.539 96.0936 260.223 94.7785C258.907 93.4633 257.217 92.5864 255.385 92.2673L251 91.5L255.385 90.7363C257.218 90.417 258.908 89.5396 260.224 88.2237C261.54 86.9079 262.417 85.2179 262.736 83.3847L263.5 79L264.267 83.3847C264.586 85.2174 265.463 86.907 266.779 88.2228C268.094 89.5386 269.783 90.4164 271.615 90.7363L276 91.5L271.615 92.2673C269.783 92.5871 268.095 93.4643 266.779 94.7794C265.464 96.0944 264.587 97.7832 264.267 99.6153L263.5 104Z"
        fill="white"></path>
    <path
        d="M168.454 528.454L161.305 523.428L154.15 528.454L159.179 521.302L154.152 514.152L161.302 519.179L168.454 514.15L163.428 521.305L168.454 528.454Z"
        fill="white"></path>
    <path
        d="M127.454 65.4543L120.305 60.4276L113.15 65.4543L118.179 58.3019L113.152 51.1523L120.302 56.179L127.454 51.1496L122.428 58.3047L127.454 65.4543Z"
        fill="#FBE62E"></path>
    <path
        d="M212.5 491L210.348 478.655L198 476.497L210.348 474.345L212.5 462L214.652 474.345L227 476.497L214.652 478.655L212.5 491Z"
        fill="#FBE62E"></path>
    <path
        d="M236.5 44L234.348 31.6551L222 29.4972L234.348 27.3449L236.5 15L238.652 27.3449L251 29.4972L238.652 31.6551L236.5 44Z"
        fill="white"></path>
</svg>