<svg width="288" height="160" viewBox="0 0 288 160" fill="none" xmlns="http://www.w3.org/2000/svg">
<path d="M89.15 9.93579H84.8105V149.871H89.15V9.93579Z" fill="#FFC664" stroke="black" stroke-width="0.8" stroke-miterlimit="10"/>
<path d="M105.732 149.871H65.7514C64.9999 149.871 64.3906 150.48 64.3906 151.232C64.3906 151.983 64.9999 152.593 65.7514 152.593H105.732C106.484 152.593 107.093 151.983 107.093 151.232C107.093 150.48 106.484 149.871 105.732 149.871Z" fill="#FB5D96" stroke="black" stroke-width="0.8" stroke-miterlimit="10"/>
<path d="M86.8917 15.4538C90.1693 15.4538 92.8264 12.8471 92.8264 9.63158C92.8264 6.41604 90.1693 3.80933 86.8917 3.80933C83.6141 3.80933 80.957 6.41604 80.957 9.63158C80.957 12.8471 83.6141 15.4538 86.8917 15.4538Z" fill="#F5A6A7" stroke="black" stroke-width="0.8" stroke-miterlimit="10"/>
<path d="M133.504 66.9424L118.588 28.752L103.672 66.9424" stroke="black" stroke-width="0.8" stroke-miterlimit="10" stroke-linejoin="round"/>
<path d="M136.96 66.9426C136.96 76.8918 128.729 84.9671 118.587 84.9671C108.446 84.9671 100.215 76.8918 100.215 66.9426H136.96Z" fill="#D1D3D5" stroke="black" stroke-width="0.8" stroke-miterlimit="10"/>
<path d="M102.716 66.9426H100.215C100.215 76.8918 108.446 84.9671 118.587 84.9671C119.019 84.9671 119.429 84.9448 119.838 84.9225C110.265 84.2979 102.716 76.4902 102.716 66.9426Z" fill="black" fill-opacity="0.1"/>
<path d="M70.1118 66.9423L55.1956 28.7518L40.2793 66.9423" stroke="black" stroke-width="0.8" stroke-miterlimit="10" stroke-linejoin="round"/>
<path d="M73.5672 66.9425C73.5672 76.8916 65.336 84.967 55.1947 84.967C45.0535 84.967 36.8223 76.8916 36.8223 66.9425H73.5672Z" fill="#D1D3D5" stroke="black" stroke-width="0.8" stroke-miterlimit="10"/>
<path d="M39.3235 66.9425H36.8223C36.8223 76.8916 45.0535 84.967 55.1947 84.967C55.6268 84.967 56.036 84.9447 56.4453 84.9223C46.8953 84.2977 39.3235 76.4901 39.3235 66.9425Z" fill="black" fill-opacity="0.1"/>
<path d="M55.8535 67.3883H73.1118C72.9981 71.8944 71.1791 76.1105 67.9275 79.3005C64.6987 82.5128 60.4239 84.342 55.8535 84.4982V67.3883Z" fill="white"/>
<path d="M119.248 67.3671H136.506C136.393 71.8732 134.574 76.0893 131.322 79.2793C128.093 82.4915 123.818 84.3208 119.248 84.4769V67.3671Z" fill="white"/>
<path d="M129.367 27.9609H44.4395V30.504H129.367V27.9609Z" fill="white" stroke="black" stroke-width="0.8" stroke-miterlimit="10"/>
<path d="M84.709 30.7594H89.1429L84.709 35.3994V30.7594Z" fill="black"/>
<path d="M86.8917 14.1157C83.8448 14.1157 81.3436 11.8626 81.0025 8.96265C80.9798 9.18572 80.957 9.4088 80.957 9.63187C80.957 12.8442 83.6174 15.4541 86.8917 15.4541C90.166 15.4541 92.8264 12.8442 92.8264 9.63187C92.8264 9.4088 92.8036 9.18572 92.7809 8.96265C92.4398 11.8626 89.9386 14.1157 86.8917 14.1157Z" fill="black"/>
<path d="M198.044 71.2926V59.1258C198.044 52.566 203.362 47.2489 209.92 47.2489H140.582C134.023 47.2489 128.706 52.567 128.706 59.1258V71.2926H198.044Z" fill="#FFC664" stroke="black" stroke-width="0.8"/>
<path d="M218.474 147.211V56.2482C218.474 51.288 214.454 47.2683 209.495 47.2683H140.156C145.115 47.2683 149.135 51.2889 149.135 56.2482V147.21C149.135 152.169 153.156 156.19 158.115 156.19H227.452C222.493 156.19 218.473 152.169 218.473 147.21L218.474 147.211Z" fill="#F4F4F4" stroke="black" stroke-width="0.8"/>
<path d="M164.086 137.803C167.28 141.828 169.028 146.863 167.718 151.832C167.275 153.513 166.766 154.975 166.272 155.691H228.074C232.244 155.691 237.708 151.452 237.708 148.948V136.781L164.086 137.803Z" fill="black" stroke="black" stroke-width="0.8"/>
<path d="M169.991 132.147V144.314C169.991 150.874 164.674 156.191 158.115 156.191H227.453C234.012 156.191 239.329 150.873 239.329 144.314V132.147H169.991Z" fill="white" stroke="black" stroke-width="0.8"/>
<path d="M162.365 121.859H206.07" stroke="black" stroke-width="0.8"/>
<path fill-rule="evenodd" clip-rule="evenodd" d="M206.07 100.894H162.365V100.021H206.07V100.894Z" fill="black"/>
<path fill-rule="evenodd" clip-rule="evenodd" d="M206.07 93.3301H162.365V92.4573H206.07V93.3301Z" fill="#FB5D96"/>
<path fill-rule="evenodd" clip-rule="evenodd" d="M206.07 85.7653H162.365V84.8925H206.07V85.7653Z" fill="black"/>
<path fill-rule="evenodd" clip-rule="evenodd" d="M195.037 61.0278H174.607V60.155H195.037V61.0278Z" fill="black"/>
<path fill-rule="evenodd" clip-rule="evenodd" d="M206.07 78.2013H162.365V77.3285H206.07V78.2013Z" fill="#FB5D96"/>
<path d="M171.389 119.097C173.175 119.097 173.175 111.277 174.961 111.277C176.748 111.277 176.748 119.097 178.534 119.097C180.321 119.097 180.321 115.47 182.107 115.47C183.893 115.47 183.893 119.097 185.68 119.097C187.466 119.097 187.307 115.47 189.093 115.47C190.88 115.47 190.807 118.478 192.399 119.097C193.755 119.625 194.828 118.732 195.166 118.446" stroke="black" stroke-width="0.8" stroke-miterlimit="10" stroke-linecap="round"/>
<path d="M136.961 140.404C126.72 140.404 118.422 132.106 118.422 121.852C118.422 111.612 126.72 103.313 136.961 103.313H155.5V121.852C155.513 132.106 147.215 140.404 136.961 140.404Z" fill="#F5A6A7" stroke="black" stroke-width="0.8" stroke-miterlimit="10" stroke-linecap="round" stroke-linejoin="round"/>
<path d="M136.962 134.524C129.963 134.524 124.289 128.851 124.289 121.852C124.289 114.853 129.963 109.18 136.962 109.18C143.96 109.18 149.634 114.853 149.634 121.852C149.634 128.851 143.96 134.524 136.962 134.524Z" fill="#F5A6A7" stroke="black" stroke-width="0.8" stroke-miterlimit="10" stroke-linecap="round" stroke-linejoin="round"/>
<path d="M141.875 113.734L135.121 123.846L131.518 121.466L129.1 125.12L136.356 129.919L145.542 116.153L141.875 113.734Z" fill="white" stroke="black" stroke-width="0.8" stroke-miterlimit="10" stroke-linecap="round" stroke-linejoin="round"/>
<path d="M206.07 69.0787H227.302C239.029 69.0787 248.533 59.5741 248.533 47.8472C248.533 36.1202 239.029 26.6156 227.302 26.6156C215.575 26.6156 206.07 36.1202 206.07 47.8472V69.0787Z" fill="#FFC664" stroke="black" stroke-width="0.8" stroke-miterlimit="10"/>
<path d="M227.302 62.352C235.318 62.352 241.807 55.8635 241.807 47.8471C241.807 39.8307 235.318 33.3422 227.302 33.3422C219.285 33.3422 212.797 39.8307 212.797 47.8471C212.797 55.8436 219.285 62.352 227.302 62.352Z" fill="#FFC664" stroke="black" stroke-width="0.8" stroke-miterlimit="10"/>
<path d="M235.398 43.3228L231.946 39.8702L227.382 44.4539L222.798 39.8702L219.346 43.3228L223.929 47.9065L219.346 52.4703L222.798 55.9229L227.382 51.3591L231.946 55.9229L235.398 52.4703L230.835 47.9065L235.398 43.3228Z" fill="#FB5D96" stroke="black" stroke-width="0.8" stroke-miterlimit="10" stroke-linecap="round" stroke-linejoin="round"/>
</svg>
