<svg width="56" height="56" viewBox="0 0 56 56" fill="none" xmlns="http://www.w3.org/2000/svg">
<g clip-path="url(#clip0_1008_14897)">
<circle cx="28" cy="28" r="27.5" fill="#519AF4" stroke="#01090F"/>
<path d="M32.2299 14.8368L32.3493 15.1666H32.7H39.6667C41.2239 15.1666 42.5 16.4427 42.5 17.9999V41.3333C42.5 42.8904 41.2239 44.1666 39.6667 44.1666H16.3333C14.7761 44.1666 13.5 42.8904 13.5 41.3333V17.9999C13.5 16.4427 14.7761 15.1666 16.3333 15.1666H23.3H23.6507L23.7701 14.8368C24.4027 13.0896 26.0561 11.8333 28 11.8333C29.9439 11.8333 31.5973 13.0896 32.2299 14.8368ZM38 41.8333H38.5V41.3333V38.9999C38.5 37.9848 37.9892 37.1227 37.2499 36.4232C36.513 35.726 35.5159 35.156 34.4436 34.7056C32.301 33.8057 29.7353 33.3333 28 33.3333C26.2647 33.3333 23.699 33.8057 21.5564 34.7056C20.4841 35.156 19.487 35.726 18.7501 36.4232C18.0108 37.1227 17.5 37.9848 17.5 38.9999V41.3333V41.8333H18H38ZM30.1667 16.3333C30.1667 15.1404 29.1928 14.1666 28 14.1666C26.8072 14.1666 25.8333 15.1404 25.8333 16.3333C25.8333 17.5261 26.8072 18.4999 28 18.4999C29.1928 18.4999 30.1667 17.5261 30.1667 16.3333ZM33.5 26.3333C33.5 23.2904 31.0428 20.8333 28 20.8333C24.9572 20.8333 22.5 23.2904 22.5 26.3333C22.5 29.3761 24.9572 31.8333 28 31.8333C31.0428 31.8333 33.5 29.3761 33.5 26.3333Z" fill="white" stroke="#06122C"/>
</g>
<defs>
<clipPath id="clip0_1008_14897">
<rect width="56" height="56" fill="white"/>
</clipPath>
</defs>
</svg>
