<svg width="352" height="519" viewBox="0 0 352 519" fill="none" xmlns="http://www.w3.org/2000/svg">
    <path
        d="M389.797 515.111L338.932 515.089C338.932 515.089 341.156 438.732 334.859 413.681C330.646 381.3 311.968 317.162 284.262 266.35C258.19 214.7 223.101 176.387 223.853 176.42C229.882 171.121 235.911 165.823 241.94 160.536C241.134 160.611 279.501 198.956 309.571 252.218C341.275 304.47 362.812 372.079 371.732 406.05C385.789 459.592 389.797 515.122 389.797 515.122V515.111Z"
        fill="#FFF2D2" stroke="#010101" stroke-width="1.2" stroke-linecap="round" stroke-linejoin="round"></path>
    <path
        d="M233.977 167.521C230.602 170.487 227.228 173.453 223.853 176.419C223.101 176.387 258.19 214.711 284.262 266.35C311.968 317.162 330.657 381.3 334.859 413.681C341.156 438.721 338.932 515.089 338.932 515.089L379.201 515.111C379.201 515.111 373.806 453.53 361.35 408.2C352.226 374.981 331.43 308.607 300.318 257.387C270.817 205.178 233.182 167.596 233.977 167.532V167.521Z"
        fill="#FCE5A7" stroke="#010101" stroke-width="1.2" stroke-linecap="round" stroke-linejoin="round"></path>
    <path d="M340.641 480.043C355.686 478.936 370.732 477.829 385.789 476.711L340.641 480.043Z" fill="#90A4AE"></path>
    <path d="M340.641 480.043C355.686 478.936 370.732 477.829 385.789 476.711" stroke="#010101" stroke-width="1.2"
        stroke-linecap="round" stroke-linejoin="round"></path>
    <path d="M336.245 422.891C348.765 420.527 361.286 418.173 373.806 415.809L336.245 422.891Z" fill="#90A4AE"></path>
    <path d="M336.245 422.891C348.765 420.527 361.286 418.173 373.806 415.809" stroke="#010101" stroke-width="1.2"
        stroke-linecap="round" stroke-linejoin="round"></path>
    <path d="M324.993 368.995C336.062 365.642 346.304 362.536 357.384 359.183L324.993 368.995Z" fill="#90A4AE"></path>
    <path d="M324.993 368.995C336.062 365.642 346.304 362.536 357.384 359.183" stroke="#010101" stroke-width="1.2"
        stroke-linecap="round" stroke-linejoin="round"></path>
    <path d="M311.119 325.889C321.092 321.88 330.463 318 340.437 313.981L311.119 325.889Z" fill="#90A4AE"></path>
    <path d="M311.119 325.889C321.092 321.88 330.463 318 340.437 313.981" stroke="#010101" stroke-width="1.2"
        stroke-linecap="round" stroke-linejoin="round"></path>
    <path d="M295.224 288.038C304.219 283.546 313.225 279.054 322.22 274.572L295.224 288.038Z" fill="#90A4AE"></path>
    <path d="M295.224 288.038C304.219 283.546 313.225 279.054 322.22 274.572" stroke="#010101" stroke-width="1.2"
        stroke-linecap="round" stroke-linejoin="round"></path>
    <path d="M275.159 249.585C283.165 244.706 291.183 239.827 299.189 234.948L275.159 249.585Z" fill="#90A4AE"></path>
    <path d="M275.159 249.585C283.165 244.706 291.183 239.827 299.189 234.948" stroke="#010101" stroke-width="1.2"
        stroke-linecap="round" stroke-linejoin="round"></path>
    <path d="M256.739 220.063C263.95 214.969 271.161 209.875 278.372 204.792L256.739 220.063Z" fill="#90A4AE"></path>
    <path d="M256.739 220.063C263.95 214.969 271.161 209.875 278.372 204.792" stroke="#010101" stroke-width="1.2"
        stroke-linecap="round" stroke-linejoin="round"></path>
    <path d="M240.296 197.021C246.884 191.798 253.482 186.586 260.07 181.363L240.296 197.021Z" fill="#90A4AE"></path>
    <path d="M240.296 197.021C246.884 191.798 253.482 186.586 260.07 181.363" stroke="#010101" stroke-width="1.2"
        stroke-linecap="round" stroke-linejoin="round"></path>
    <path
        d="M247.824 84.0171C227.963 91.9269 216.227 112.647 219.451 134.087L219.666 157.999C220.73 157.312 230.027 162.492 231.209 161.943C237.721 158.956 239.86 149.993 246.05 153.432L246.523 148.563L235.346 149.176L246.663 141.804L246.889 130.799L230.381 132.217L247.017 124.017L247.286 110.594L234.755 112.002L247.415 104.372L247.824 84.0063V84.0171Z"
        fill="#00A700" stroke="#010101" stroke-width="1.2" stroke-linecap="round" stroke-linejoin="round"></path>
    <path
        d="M192.606 146.07L210.263 140.374L197.42 150.842L205.244 158.58L218.506 155.99L210.048 163.33L211.176 164.286C211.338 164.05 211.467 163.803 211.638 163.566C216.26 156.903 222.805 160.923 231.209 161.944L219.398 134.109C206.792 116.473 183.933 109.767 164.169 117.913L178.645 132.239L193.046 128.907L183.073 136.624L192.616 146.07H192.606Z"
        fill="#00A700" stroke="#010101" stroke-width="1.2" stroke-linecap="round" stroke-linejoin="round"></path>
    <path
        d="M240.483 167.671L186.738 166.973L190.252 153.109L178.376 165.479L164.771 163.04L170.596 142.706L156.388 161.535L139.784 158.569L144.609 143.211L132.078 157.193L106.898 152.69C121.546 129.756 149.972 120.148 175.582 129.487L231.209 161.954L240.483 167.682V167.671Z"
        fill="#068806" stroke="#010101" stroke-width="1.2" stroke-linecap="round" stroke-linejoin="round"></path>
    <path
        d="M231.563 170.82L266.631 134.603L254.454 127.091L271.596 127.704L279.667 116.484L261.332 105.941L284.642 109.563L294.497 95.8709L280.344 88.2084L299.065 89.5195L314.003 68.7563C287.523 62.4801 260.43 75.3765 248.543 99.9118L231.208 161.943L231.563 170.82Z"
        fill="#068806" stroke="#010101" stroke-width="1.2" stroke-linecap="round" stroke-linejoin="round"></path>
    <path
        d="M233.659 168.542L154.12 203.706L150.971 189.681L146.039 206.221L132.895 210.316L128.876 189.434L124.803 212.841L108.768 217.838L106.114 201.879L101.331 220.16L77 227.747C79.6115 200.471 100.428 178.773 127.317 175.313L231.208 161.943L233.659 168.542Z"
        fill="#00A700" stroke="#010101" stroke-width="1.2" stroke-linecap="round" stroke-linejoin="round"></path>
    <path
        d="M234.142 169.187L313.982 138.934L306.48 126.672L321.537 135.119L333.831 128.907L322.182 111.121L341.397 125.081L356.389 117.505L347.19 104.189L363.353 113.99L386.094 102.502C365.234 84.7372 335.175 83.6517 313.466 99.8904L229.575 162.621L234.153 169.187H234.142Z"
        fill="#00A700" stroke="#010101" stroke-width="1.2" stroke-linecap="round" stroke-linejoin="round"></path>
    <path
        d="M233.659 168.542L176.42 236.99L167.457 225.77L170.327 242.879L160.407 252.465L147.651 235.463L154.292 258.376L142.191 270.069L132.809 256.882L136.571 275.496L118.215 293.239C108.564 267.5 117.602 238.612 140.053 223.438L231.209 161.943L233.659 168.542Z"
        fill="#068806" stroke="#010101" stroke-width="1.2" stroke-linecap="round" stroke-linejoin="round"></path>
    <path
        d="M234.142 169.187L211.692 253.368L198.752 247.328L208.876 261.417L204.287 274.518L185.415 264.996L201.45 282.6L195.851 298.58L181.675 290.961L193.261 305.996L184.771 330.241C164.803 311.455 160.074 281.396 173.336 257.613L231.208 161.943L234.142 169.176V169.187Z"
        fill="#00A700" stroke="#010101" stroke-width="1.2" stroke-linecap="round" stroke-linejoin="round"></path>
    <path
        d="M234.142 169.187L321.462 178.214L320.086 163.921L329.941 178.204L343.74 178.182L341.064 157.097L352.241 178.161L369.071 178.128L366.62 162.137L376.873 178.118L402.408 178.075C391.414 152.884 364.815 138.44 338.141 143.169L231.208 161.943L234.142 169.176V169.187Z"
        fill="#068806" stroke="#010101" stroke-width="1.2" stroke-linecap="round" stroke-linejoin="round"></path>
    <path
        d="M234.142 169.187L308.866 213.991L313.95 200.654L316.497 217.817L328.909 224.029L335.82 204.061L336.561 227.865L351.704 235.442L356.583 220.106L358.732 238.967L381.709 250.466C382.967 223.083 365.438 198.204 339.355 190.369L231.208 161.986L234.142 169.219V169.187Z"
        fill="#00A700" stroke="#010101" stroke-width="1.2" stroke-linecap="round" stroke-linejoin="round"></path>
    <path d="M64.3778 1V39.5353" stroke="#010101" stroke-width="1.2" stroke-miterlimit="10" stroke-linecap="round">
    </path>
    <path d="M26.0906 13.4316L48.75 44.6225" stroke="#010101" stroke-width="1.2" stroke-miterlimit="10"
        stroke-linecap="round"></path>
    <path d="M2.43958 46.0059L39.0964 57.9161" stroke="#010101" stroke-width="1.2" stroke-miterlimit="10"
        stroke-linecap="round"></path>
    <path d="M2.43958 86.2494L39.0964 74.3262" stroke="#010101" stroke-width="1.2" stroke-miterlimit="10"
        stroke-linecap="round"></path>
    <path d="M41.3535 97.8336L48.7501 87.6323L41.3535 97.8336Z" fill="#FAE62F"></path>
    <path d="M41.3535 97.8336L48.7501 87.6323" stroke="#010101" stroke-width="1.2" stroke-miterlimit="10"
        stroke-linecap="round"></path>
    <path d="M85.7586 95.5767L79.9796 87.6714L85.7586 95.5767Z" fill="#FAE62F"></path>
    <path d="M85.7586 95.5767L79.9796 87.6714" stroke="#010101" stroke-width="1.2" stroke-miterlimit="10"
        stroke-linecap="round"></path>
    <path d="M126.316 86.2494L89.6595 74.3262" stroke="#010101" stroke-width="1.2" stroke-miterlimit="10"
        stroke-linecap="round"></path>
    <path d="M126.316 46.0059L89.6595 57.9161" stroke="#010101" stroke-width="1.2" stroke-miterlimit="10"
        stroke-linecap="round"></path>
    <path d="M102.652 13.4316L80.0056 44.6225" stroke="#010101" stroke-width="1.2" stroke-miterlimit="10"
        stroke-linecap="round"></path>
    <path d="M42.0448 23.5806L52.0243 42.5873" stroke="#010101" stroke-width="1.2" stroke-miterlimit="10"
        stroke-linecap="round"></path>
    <path d="M24.8251 38.8311L42.5013 51.0283" stroke="#010101" stroke-width="1.2" stroke-miterlimit="10"
        stroke-linecap="round"></path>
    <path d="M15.9545 66.1206H37.4268" stroke="#010101" stroke-width="1.2" stroke-miterlimit="10"
        stroke-linecap="round"></path>
    <path d="M23.9116 95.4858L41.5747 83.2886" stroke="#010101" stroke-width="1.2" stroke-miterlimit="10"
        stroke-linecap="round"></path>
    <path d="M36.8527 95.081L44.8885 86.0146L36.8527 95.081Z" fill="#FAE62F"></path>
    <path d="M36.8527 95.081L44.8885 86.0146" stroke="#010101" stroke-width="1.2" stroke-miterlimit="10"
        stroke-linecap="round"></path>
    <path d="M54.2545 96.7641L55.4416 91.9243L54.2545 96.7641Z" fill="#FAE62F"></path>
    <path d="M54.2545 96.7641L55.4416 91.9243" stroke="#010101" stroke-width="1.2" stroke-miterlimit="10"
        stroke-linecap="round"></path>
    <path d="M74.6445 98.0555L73.34 92.7983L74.6445 98.0555Z" fill="#FAE62F"></path>
    <path d="M74.6445 98.0555L73.34 92.7983" stroke="#010101" stroke-width="1.2" stroke-miterlimit="10"
        stroke-linecap="round"></path>
    <path d="M103.331 94.9506L85.6677 82.7534" stroke="#010101" stroke-width="1.2" stroke-miterlimit="10"
        stroke-linecap="round"></path>
    <path d="M107.374 87.1102L88.1981 77.4829" stroke="#010101" stroke-width="1.2" stroke-miterlimit="10"
        stroke-linecap="round"></path>
    <path d="M112.084 60.3291L90.755 62.912" stroke="#010101" stroke-width="1.2" stroke-miterlimit="10"
        stroke-linecap="round"></path>
    <path d="M103.93 38.8311L86.2411 51.0283" stroke="#010101" stroke-width="1.2" stroke-miterlimit="10"
        stroke-linecap="round"></path>
    <path d="M86.7108 23.5806L76.7313 42.5873" stroke="#010101" stroke-width="1.2" stroke-miterlimit="10"
        stroke-linecap="round"></path>
    <path d="M55.4418 9.79199L60.4902 39.5349" stroke="#010101" stroke-width="1.2" stroke-miterlimit="10"
        stroke-linecap="round"></path>
    <path d="M24.0424 25.8115L45.606 46.9055" stroke="#010101" stroke-width="1.2" stroke-miterlimit="10"
        stroke-linecap="round"></path>
    <path d="M8.03571 57.1982L37.896 61.6075" stroke="#010101" stroke-width="1.2" stroke-miterlimit="10"
        stroke-linecap="round"></path>
    <path d="M13.5673 92.0287L40.2967 78.0312" stroke="#010101" stroke-width="1.2" stroke-miterlimit="10"
        stroke-linecap="round"></path>
    <path d="M48.6196 96.5159L51.9069 89.915L48.6196 96.5159Z" fill="#FAE62F"></path>
    <path d="M48.6196 96.5159L51.9069 89.915" stroke="#010101" stroke-width="1.2" stroke-miterlimit="10"
        stroke-linecap="round"></path>
    <path d="M93.573 95.5766L83.1499 85.4536L93.573 95.5766Z" fill="#FAE62F"></path>
    <path d="M93.573 95.5766L83.1499 85.4536" stroke="#010101" stroke-width="1.2" stroke-miterlimit="10"
        stroke-linecap="round"></path>
    <path d="M120.837 70.4783L90.7289 68.5215" stroke="#010101" stroke-width="1.2" stroke-miterlimit="10"
        stroke-linecap="round"></path>
    <path d="M115.189 40.2134L88.4592 54.2108" stroke="#010101" stroke-width="1.2" stroke-miterlimit="10"
        stroke-linecap="round"></path>
    <path d="M49.0366 16.8105L55.4418 39.5352" stroke="#010101" stroke-width="1.2" stroke-miterlimit="10"
        stroke-linecap="round"></path>
    <path d="M18.6677 42.0918L39.266 53.6498" stroke="#010101" stroke-width="1.2" stroke-miterlimit="10"
        stroke-linecap="round"></path>
    <path d="M14.3628 74.3526L37.7658 71.3262" stroke="#010101" stroke-width="1.2" stroke-miterlimit="10"
        stroke-linecap="round"></path>
    <path d="M79.4322 94.8334L77.2145 89.3936L79.4322 94.8334Z" fill="#FAE62F"></path>
    <path d="M79.4322 94.8334L77.2145 89.3936" stroke="#010101" stroke-width="1.2" stroke-miterlimit="10"
        stroke-linecap="round"></path>
    <path d="M73.7313 16.145L69.3611 39.3523" stroke="#010101" stroke-width="1.2" stroke-miterlimit="10"
        stroke-linecap="round"></path>
    <path d="M104.035 28.186L86.124 43.5662" stroke="#010101" stroke-width="1.2" stroke-miterlimit="10"
        stroke-linecap="round"></path>
    <path d="M82.4846 15.8975L74.3184 38.0481" stroke="#010101" stroke-width="1.2" stroke-miterlimit="10"
        stroke-linecap="round"></path>
    <path
        d="M64.3778 96.5159C81.1645 96.5159 94.7729 82.9075 94.7729 66.1207C94.7729 49.334 81.1645 35.7256 64.3778 35.7256C47.591 35.7256 33.9826 49.334 33.9826 66.1207C33.9826 82.9075 47.591 96.5159 64.3778 96.5159Z"
        fill="#FAE62F" stroke="#010101" stroke-width="1.2" stroke-miterlimit="10"></path>
    <path
        d="M120.707 94.5462H92.7248C91.7204 86.3408 84.7543 80.1835 76.4967 80.1835H54.5678C53.5634 71.9781 46.5973 65.8208 38.3397 65.8208H13.3452C4.31802 65.8208 -3.0003 73.1261 -3.0003 82.1533V94.5462H-18.6545C-27.6817 94.5462 -35 101.864 -35 110.892V114.049H137V110.892C137 101.864 129.669 94.5592 120.654 94.5592"
        fill="white"></path>
    <path
        d="M120.707 94.5462H92.7248C91.7204 86.3408 84.7543 80.1835 76.4967 80.1835H54.5678C53.5634 71.9781 46.5973 65.8208 38.3397 65.8208H13.3452C4.31802 65.8208 -3.0003 73.1261 -3.0003 82.1533V94.5462H-18.6545C-27.6817 94.5462 -35 101.864 -35 110.892V114.049H137V110.892C137 101.864 129.669 94.5592 120.654 94.5592"
        stroke="#010101" stroke-width="1.2" stroke-linecap="round" stroke-linejoin="round"></path>
    <path d="M92.7119 94.52H75.675" stroke="#010101" stroke-width="1.2" stroke-linecap="round" stroke-linejoin="round">
    </path>
    <path d="M54.555 80.1572H32.8871" stroke="#010101" stroke-width="1.2" stroke-linecap="round"
        stroke-linejoin="round"></path>
    <path d="M14.6107 94.52H-7.07031" stroke="#010101" stroke-width="1.2" stroke-linecap="round"
        stroke-linejoin="round"></path>
    <path d="M140.673 408.249L219.99 462.778" stroke="#010101" stroke-width="1.2" stroke-miterlimit="10"></path>
    <path d="M206.552 408.249L127.235 462.778" stroke="#010101" stroke-width="1.2" stroke-miterlimit="10"></path>
    <path
        d="M146.535 391.705L140.047 389.85C126.631 429.788 114.973 470.792 104.971 512.783L111.46 514.638C125.116 473.69 136.852 432.708 146.535 391.705Z"
        fill="#FCE5A7" stroke="#010101" stroke-width="1.2" stroke-miterlimit="10"></path>
    <path
        d="M200.69 391.705L207.178 389.85C220.593 429.788 232.252 470.792 242.253 512.783L235.765 514.638C222.108 473.69 210.373 432.708 200.69 391.705Z"
        fill="#FCE5A7" stroke="#010101" stroke-width="1.2" stroke-miterlimit="10"></path>
    <path
        d="M236.171 384.042C241.507 381.396 241.408 373.679 236.193 370.792C233.844 369.496 230.594 367.366 230.122 365.324L212.722 300.015C208.912 288.774 198.373 281.221 186.506 281.221H160.696C148.829 281.221 138.29 288.785 134.48 300.015L117.08 365.324C116.608 367.366 113.358 369.496 111.009 370.792C105.783 373.69 105.696 381.451 111.075 384.064C111.316 384.185 111.558 384.284 111.81 384.383C133.295 392.495 154.702 395.064 173.596 394.933C192.5 395.064 213.896 392.484 235.381 384.383C235.644 384.284 235.897 384.174 236.149 384.042H236.171Z"
        fill="#FF928E" stroke="#010101" stroke-width="1.2" stroke-miterlimit="10"></path>
    <path opacity="0.49"
        d="M164.297 383.679C166.12 384.843 165.384 387.555 163.265 387.5C145.525 386.995 118.903 382.285 115.247 378.08C111.064 373.272 124.161 372.756 126.06 366.202C128.08 359.231 135.15 326.505 137.95 316.91C138.016 316.669 146.535 362.953 151.233 371.329C154.735 377.564 159.796 380.803 164.297 383.679Z"
        fill="#EF6A66"></path>
    <path d="M366 351H-11V362H366V351Z" fill="#FCC565" stroke="#010101" stroke-width="1.2" stroke-miterlimit="10">
    </path>
    <path
        d="M248.1 226H103.9C96.2232 226 90 231.941 90 239.269V319.731C90 327.059 96.2232 333 103.9 333H248.1C255.777 333 262 327.059 262 319.731V239.269C262 231.941 255.777 226 248.1 226Z"
        fill="#F2F7F9" stroke="#010101" stroke-width="1.2" stroke-miterlimit="10"></path>
    <path
        d="M201.107 350.778H127.828C127.828 347.803 130.243 345.398 133.207 345.398H211.328C214.303 345.398 216.707 347.814 216.707 350.778H201.107Z"
        fill="#F2F7F9" stroke="#010101" stroke-width="1.2" stroke-miterlimit="10"></path>
    <path d="M70.4138 514.748H81.5896L43.8906 364.018L33.3735 366.653L70.4138 514.748Z" fill="#FCC565" stroke="#010101"
        stroke-width="1.2" stroke-miterlimit="10"></path>
    <path d="M0.17571 514.748H-11.0001L26.699 364.018L37.216 366.653L0.17571 514.748Z" fill="#FCC565" stroke="#010101"
        stroke-width="1.2" stroke-miterlimit="10"></path>
    <path d="M54.364 361.998H16.2258V372.987H54.364V361.998Z" fill="#FCC565" stroke="#010101" stroke-width="1.2"
        stroke-miterlimit="10"></path>
    <path
        d="M35.306 369.913C36.6217 369.913 37.6882 368.847 37.6882 367.531C37.6882 366.216 36.6217 365.149 35.306 365.149C33.9903 365.149 32.9237 366.216 32.9237 367.531C32.9237 368.847 33.9903 369.913 35.306 369.913Z"
        fill="#CFD8DC" stroke="#010101" stroke-width="1.2" stroke-miterlimit="10"></path>
    <path
        d="M248.462 323.95C249.905 323.95 251.075 322.78 251.075 321.337C251.075 319.894 249.905 318.725 248.462 318.725C247.019 318.725 245.849 319.894 245.849 321.337C245.849 322.78 247.019 323.95 248.462 323.95Z"
        stroke="#010101" stroke-width="1.2" stroke-miterlimit="10"></path>
    <path d="M241.93 318V324.203" stroke="#010101" stroke-width="1.2" stroke-miterlimit="10"></path>
    <path d="M238 318V324.203" stroke="#010101" stroke-width="1.2" stroke-miterlimit="10"></path>
    <path
        d="M187.483 272.921H168.919C166.295 272.921 164.1 274.941 163.891 277.565L159.072 337.725H191.666L187.483 272.921ZM178.569 303.33C173.266 303.33 168.963 299.027 168.963 293.725C168.963 288.422 173.266 284.119 178.569 284.119C183.871 284.119 188.175 288.422 188.175 293.725C188.175 299.027 183.871 303.33 178.569 303.33Z"
        fill="#D0D3D5"></path>
    <path
        d="M188.427 273.086C188.219 270.462 186.034 268.442 183.399 268.442H164.089C161.465 268.442 159.269 270.462 159.061 273.086L152.836 350.767H194.63L188.405 273.086H188.427ZM173.75 298.862C168.447 298.862 164.144 294.559 164.144 289.256C164.144 283.954 168.447 279.651 173.75 279.651C179.052 279.651 183.355 283.954 183.355 289.256C183.355 294.559 179.052 298.862 173.75 298.862Z"
        fill="#F2F7F9" stroke="#010101" stroke-width="1.2" stroke-miterlimit="10"></path>
    <path
        d="M47.8407 316.8H73.343C74.3091 316.8 75.0995 317.59 75.0995 318.556V350.876H46.0842V318.556C46.0842 317.59 46.8747 316.8 47.8407 316.8Z"
        fill="white" stroke="#010101" stroke-width="1.2" stroke-miterlimit="10"></path>
    <path
        d="M46.0734 343.828C40.9576 343.828 36.7859 339.667 36.7859 334.54C36.7859 329.414 40.9466 325.253 46.0734 325.253V329.392C43.241 329.392 40.9247 331.697 40.9247 334.54C40.9247 337.384 43.2301 339.689 46.0734 339.689V343.828Z"
        fill="white" stroke="#010101" stroke-width="1.2" stroke-miterlimit="10"></path>
    <path
        d="M169.227 297.885C169.721 294.866 173.541 293.417 176.439 294.416C183.948 297.04 181.127 307.744 180.545 310.741C179.096 318.239 178.536 325.967 180.238 333.411C182.313 342.479 189.931 350.866 206.388 350.756C224.271 350.635 228.684 342.962 243.351 342.962C255.57 342.962 266.757 355.114 286.858 349.318C311.438 342.237 311.844 350.108 311.844 350.108"
        stroke="#010101" stroke-width="1.2" stroke-miterlimit="10"></path>
    <line y1="514.8" x2="422" y2="514.8" stroke="black"></line>
    <path
        d="M376.34 416.996C376.164 416.908 375.989 416.82 375.813 416.721C353.604 403.921 339.629 413.735 327.893 410.936C324.38 410.102 319.298 398.388 334.722 396.159C349.477 394.041 365.933 400.386 367.481 400.825C358.27 387.794 346.26 379.571 334.36 378.287C299.658 374.521 292.972 408.982 295.211 414.01C291.281 410.156 256.656 404.338 248.027 438.162C245.063 449.755 248.598 463.917 257.534 477.057C257.666 475.466 257.49 457.824 264.648 444.738C272.135 431.103 281.324 439.94 280.885 443.508C279.392 455.496 265.307 465.135 269.501 490.429L269.599 491.022C273.112 494.293 276.878 497.301 280.852 499.991C281.028 499.585 281.115 499.332 281.115 499.332C281.115 499.332 280.127 485.06 284.036 473.226C285.177 469.79 289.163 458.79 296.375 465.662C306.958 475.729 291.007 484.764 294.86 506.83L295.047 508.027C299.021 509.871 308.308 511.792 308.308 511.792C308.308 511.792 306.124 484.16 317.376 486.027C326.159 487.443 322.251 496.642 321.581 501.934C320.176 512.572 321.823 516.337 321.823 516.337C336.369 518.73 351.233 518.544 365.713 515.766C373.387 503.174 378.777 489.331 381.632 474.862C381.632 474.862 378.733 472.007 368.249 469.548C363.133 468.363 353.121 468.769 354.856 460.041C357.073 448.876 382.18 460.579 382.18 460.579C382.18 460.579 383.608 451.204 383.278 446.835C382.949 446.626 382.609 446.428 382.246 446.209C362.925 434.868 348.873 446.637 343.164 433.211C339.256 424.044 350.959 424.154 354.57 424.296C367.02 424.79 380.051 430.708 380.051 430.708L380.753 430.675C379.634 425.998 378.162 421.42 376.34 416.963V416.996ZM286.253 435.483C283.893 435.307 279.041 430.62 279.941 428.435C281.434 424.79 294.399 423.868 295.771 427.59C296.858 430.499 289.338 435.725 286.264 435.494L286.253 435.483ZM304.795 460.052C302.589 460.876 296.221 458.647 296.123 456.265C295.98 452.313 307.364 446.077 310.142 448.833C312.348 451.127 307.705 459.009 304.795 460.052ZM307.65 421.684C304.642 419.06 310.021 407.291 313.984 407.192C316.355 407.105 319.045 413.296 318.43 415.558C317.574 418.5 309.999 423.725 307.65 421.716V421.684ZM346.227 464.564C343.845 465.98 335.776 464.608 335.523 461.864C335.194 458.351 345.963 454.102 348.587 456.473C350.168 457.955 348.06 463.543 346.227 464.597V464.564Z"
        fill="#17A638" stroke="black" stroke-width="1.2" stroke-miterlimit="10"></path>
    <path
        d="M275.352 481.734C276.274 476.783 277.635 471.919 279.403 467.199C281.126 462.456 283.377 457.922 286.11 453.685C287.483 451.555 289.052 449.546 290.776 447.69C292.511 445.813 294.454 444.145 296.583 442.717C298.713 441.301 301.03 440.17 303.456 439.358C305.926 438.634 308.473 438.216 311.042 438.14C311.36 438.129 311.624 438.381 311.634 438.699C311.645 439.018 311.393 439.281 311.075 439.292C308.605 439.325 306.156 439.676 303.785 440.335C301.425 441.071 299.174 442.136 297.099 443.486C295.014 444.836 293.081 446.428 291.369 448.239C289.634 450.04 288.053 451.983 286.648 454.058C283.86 458.23 281.543 462.698 279.732 467.385C277.855 472.04 276.384 476.838 275.341 481.745L275.352 481.734Z"
        fill="#91C46A"></path>
    <path
        d="M301.579 499.244C303.423 490.802 305.597 482.426 308.188 474.17C309.494 470.053 310.921 465.958 312.601 461.962C313.435 459.953 314.368 457.988 315.411 456.067C316.443 454.113 317.706 452.291 319.188 450.644C319.407 450.413 319.77 450.402 320 450.622C320.231 450.841 320.242 451.193 320.033 451.423C318.584 452.971 317.332 454.695 316.311 456.55C315.246 458.416 314.28 460.327 313.413 462.292C311.657 466.211 310.153 470.262 308.758 474.335C305.97 482.535 303.61 490.857 301.579 499.255V499.244Z"
        fill="#91C46A"></path>
    <path
        d="M340.123 508.532C338.816 505.776 337.796 502.889 337.082 499.925C336.335 496.972 335.776 493.964 335.424 490.934C335.073 487.893 334.897 484.841 334.886 481.789C334.842 480.263 334.952 478.726 334.985 477.2C335.018 475.674 335.216 474.148 335.293 472.633C335.303 472.326 335.567 472.084 335.885 472.095H335.907C336.215 472.117 336.456 472.381 336.445 472.688V472.71C336.292 474.203 336.105 475.707 335.973 477.222C335.841 478.737 335.743 480.23 335.732 481.745C335.644 484.775 335.732 487.805 335.973 490.824C336.237 493.843 336.698 496.851 337.345 499.804C337.971 502.801 338.904 505.721 340.134 508.521L340.123 508.532Z"
        fill="#91C46A"></path>
    <path
        d="M253.791 445.923C255.152 441.389 257.183 437.075 259.807 433.134C262.376 429.138 265.658 425.647 269.479 422.825C271.411 421.431 273.486 420.246 275.67 419.29C277.877 418.379 280.16 417.688 282.499 417.216C287.186 416.447 291.973 416.469 296.65 417.303C296.968 417.358 297.177 417.655 297.122 417.973C297.067 418.28 296.77 418.5 296.463 418.445C291.896 417.523 287.197 417.402 282.587 418.083C277.965 418.829 273.573 420.597 269.731 423.254C265.889 425.965 262.562 429.357 259.939 433.266C257.282 437.163 255.207 441.422 253.791 445.923Z"
        fill="#91C46A"></path>
    <path
        d="M376.329 417.007C376.153 416.897 375.978 416.82 375.802 416.721C353.582 403.921 339.629 413.735 327.882 410.936C324.369 410.101 319.286 398.388 334.722 396.17C349.487 394.051 365.922 400.397 367.481 400.847C358.27 387.816 346.249 379.571 334.359 378.298C299.668 374.532 292.972 408.993 295.211 414.032L365.779 515.777C373.442 503.185 378.832 489.342 381.686 474.873C381.686 474.873 378.766 472.04 368.26 469.57C363.144 468.384 353.132 468.791 354.867 460.063C357.084 448.898 382.191 460.59 382.191 460.59C382.191 460.59 383.629 451.226 383.3 446.856C382.96 446.637 382.619 446.45 382.257 446.23C362.947 434.89 348.895 446.659 343.175 433.232C339.267 424.066 350.958 424.164 354.592 424.318C367.03 424.79 380.062 430.718 380.062 430.718L380.764 430.685C379.644 426.009 378.173 421.431 376.34 416.985L376.329 417.007ZM307.639 421.716C304.631 419.092 310.01 407.302 313.962 407.17C316.333 407.082 319.078 413.252 318.408 415.525C317.574 418.5 309.988 423.725 307.65 421.716H307.639ZM346.216 464.586C343.834 466.002 335.765 464.641 335.512 461.885C335.183 458.361 345.963 454.124 348.576 456.495C350.157 457.889 348.06 463.543 346.227 464.586H346.216Z"
        fill="#068806" stroke="black" stroke-width="1.2" stroke-miterlimit="10"></path>
    <path
        d="M365.537 419.213C360.564 418.445 355.536 418.116 350.508 418.203C345.491 418.247 340.485 418.851 335.6 420.015C333.163 420.597 330.791 421.387 328.497 422.386C326.203 423.352 324.04 424.593 322.042 426.075C320.066 427.557 318.298 429.302 316.783 431.256C315.334 433.254 314.149 435.428 313.248 437.723C313.128 438.03 312.787 438.184 312.48 438.063C312.172 437.942 312.019 437.602 312.14 437.294C313.117 434.923 314.401 432.684 315.949 430.631C317.563 428.633 319.429 426.865 321.515 425.361C323.59 423.89 325.829 422.661 328.19 421.705C330.539 420.728 332.965 419.971 335.446 419.433C340.386 418.357 345.425 417.841 350.475 417.896C355.525 417.896 360.564 418.335 365.537 419.202V419.213Z"
        fill="#91C46A"></path>
    <path
        d="M372.75 449.886C364.165 448.843 355.558 448.141 346.929 447.855C342.615 447.734 338.301 447.724 334.008 447.998C331.867 448.13 329.738 448.36 327.619 448.701C325.533 449.008 323.48 449.568 321.537 450.391C321.241 450.523 320.9 450.391 320.779 450.095C320.659 449.798 320.779 449.458 321.076 449.337C323.129 448.525 325.281 447.976 327.476 447.702C329.639 447.35 331.813 447.219 333.975 447.131C338.312 446.955 342.648 447.054 346.962 447.273C355.602 447.756 364.198 448.646 372.75 449.875V449.886Z"
        fill="#91C46A"></path>
    <path
        d="M367.953 489.232C365.768 487.124 363.386 485.236 360.828 483.611C358.27 481.975 355.613 480.493 352.858 479.187C350.113 477.902 347.303 476.761 344.437 475.784C343.021 475.257 341.561 474.872 340.068 474.411C338.586 473.939 337.137 473.643 335.677 473.259C335.37 473.171 335.194 472.863 335.26 472.556C335.348 472.249 335.666 472.062 335.973 472.139C337.444 472.567 338.915 472.973 340.332 473.445C341.748 473.917 343.241 474.389 344.657 474.96C347.511 476.047 350.311 477.277 353.033 478.66C355.745 480.065 358.369 481.635 360.883 483.37C363.43 485.082 365.801 487.047 367.953 489.232Z"
        fill="#91C46A"></path>
    <path
        d="M339.552 386.432C334.843 386.213 330.122 386.674 325.555 387.816C320.988 388.903 316.652 390.824 312.765 393.469C310.855 394.809 309.088 396.335 307.496 398.047C305.937 399.782 304.565 401.659 303.379 403.668C301.118 407.763 299.592 412.22 298.856 416.831C298.801 417.149 298.516 417.358 298.197 417.314C297.879 417.259 297.67 416.974 297.714 416.655C298.571 411.924 300.25 407.379 302.666 403.218C303.895 401.176 305.322 399.266 306.936 397.52C308.605 395.819 310.438 394.282 312.425 392.964C316.41 390.374 320.823 388.518 325.467 387.519C330.078 386.476 334.821 386.114 339.541 386.443L339.552 386.432Z"
        fill="#91C46A"></path>
    <path d="M295.2 414.01L365.768 515.755" stroke="black" stroke-width="1.2" stroke-miterlimit="10"></path>
</svg>