<svg width="288" height="160" viewBox="0 0 288 160" fill="none" xmlns="http://www.w3.org/2000/svg">
<path d="M206.651 29.9507L168.102 58.164V60.3599L212.36 28.797" fill="#06122C"/>
<path d="M206.651 29.9507L168.102 58.164V60.3599L212.36 28.797" stroke="#06122C" stroke-width="0.8" stroke-miterlimit="10"/>
<path d="M212.502 65.1722C212.502 65.1722 209.864 42.9465 223.791 38.6532L212.502 65.1722Z" fill="#06122C"/>
<path d="M228.027 69.9718C228.027 69.9718 226.586 49.5904 229.855 43.5128L228.027 69.9718Z" fill="#06122C"/>
<path d="M248.44 68.9039C248.44 68.9039 243.138 63.4225 241.084 51.8164L248.44 68.9039Z" fill="#06122C"/>
<path d="M196.589 50.6454C196.589 50.6454 196.1 32.3741 213.617 30.4869L196.589 50.6454Z" fill="#06122C"/>
<path d="M212.502 65.1723C211.751 56.7058 212.618 45.4428 220.162 40.1287C221.269 39.407 222.464 38.8305 223.718 38.4131L223.863 38.8892C222.647 39.2689 221.485 39.8052 220.407 40.4847C212.905 45.6015 211.897 56.813 212.502 65.1723Z" fill="#06122C"/>
<path d="M228.027 69.9718C227.599 63.1094 226.814 49.3845 229.636 43.3799L230.065 43.6115C227.2 49.5003 227.736 63.1309 228.019 69.9547L228.027 69.9718Z" fill="#06122C"/>
<path d="M248.438 68.9036C244.291 64.1427 242.073 57.9751 240.838 51.859L241.327 51.7732C242.395 57.8851 244.441 64.0613 248.438 68.9036Z" fill="#06122C"/>
<path d="M196.588 50.6454C196.588 43.4184 199.813 35.6338 206.551 32.2927C208.769 31.2102 211.158 30.5209 213.611 30.2554L213.662 30.7486C211.263 30.9716 208.92 31.6056 206.736 32.6229C200.015 35.8311 196.729 43.4913 196.609 50.6368L196.588 50.6454Z" fill="#06122C"/>
<path d="M247.877 21.021C247.877 21.021 225.613 23.2942 224.459 37.8211L247.877 21.021Z" fill="#06122C"/>
<path d="M255.945 35.1278C255.945 35.1278 235.739 38.1644 230.52 42.6808L255.945 35.1278Z" fill="#06122C"/>
<path d="M259.835 54.75C259.835 54.75 253.328 50.7741 241.555 51.2973L259.835 54.75Z" fill="#06122C"/>
<path d="M230.228 8.66028C230.228 8.66028 212.291 12.1644 214.281 29.6765L230.228 8.66028Z" fill="#06122C"/>
<path d="M247.878 21.0212C239.609 22.2435 228.865 25.6834 225.51 34.1156C225.084 35.3186 224.813 36.5711 224.704 37.8427L224.211 37.8041C224.342 36.4841 224.643 35.1866 225.107 33.944C228.646 25.426 239.458 22.1149 247.878 21.004V21.0212Z" fill="#06122C"/>
<path d="M255.945 35.1276C249.254 36.3328 235.787 38.7904 230.683 42.8479L230.361 42.4747C235.59 38.4216 249.147 36.2042 255.945 35.1105V35.1276Z" fill="#06122C"/>
<path d="M259.836 54.75C254.26 51.9064 247.762 51.2588 241.569 51.5461L241.543 51.0529C247.784 50.9242 254.286 51.7434 259.836 54.75Z" fill="#06122C"/>
<path d="M230.227 8.66028C223.27 10.3373 216.502 15.2182 214.846 22.4752C214.329 24.8282 214.222 27.2527 214.529 29.6422L214.036 29.698C213.758 27.2609 213.903 24.7942 214.465 22.4066C216.266 15.1153 223.154 10.2515 230.205 8.68172L230.227 8.66028Z" fill="#06122C"/>
<path d="M212.359 28.797L262.172 68.7064" stroke="#06122C" stroke-width="0.8" stroke-miterlimit="10"/>
<path d="M159.506 56.1782C159.506 56.1782 166.99 43.354 176.083 46.6437L159.506 56.1782Z" fill="#06122C"/>
<path d="M159.506 56.1783C162.911 50.654 169.01 44.036 176.169 46.4121L176.001 46.8754C169.066 44.4135 162.967 50.8856 159.506 56.1783Z" fill="#06122C"/>
<path d="M165.814 64.9277C165.814 64.9277 173.196 53.5532 177.356 51.6317L165.814 64.9277Z" fill="#06122C"/>
<path d="M165.814 64.9279C168.167 61.1592 170.833 57.5953 173.783 54.274C174.781 53.1438 175.95 52.1783 177.249 51.4132L177.459 51.8636C176.191 52.5698 175.04 53.4699 174.049 54.5313C170.966 57.7052 168.324 61.2823 165.814 64.9279Z" fill="#06122C"/>
<path d="M177.057 72.515C177.057 72.515 176.436 67.4926 179.987 60.5057L177.057 72.515Z" fill="#06122C"/>
<path d="M177.056 72.515C176.734 68.3332 177.995 64.1643 179.762 60.4114L180.191 60.6387C178.296 64.2844 176.885 68.3589 177.043 72.515H177.056Z" fill="#06122C"/>
<path d="M156.881 42.1274C156.881 42.1274 163.923 32.2626 173.951 38.2673L156.881 42.1274Z" fill="#06122C"/>
<path d="M156.881 42.1274C161.106 36.5516 167.818 34.2656 174.08 38.0442L173.823 38.4731C172.474 37.6296 170.989 37.0259 169.435 36.6889C164.61 35.6853 159.815 38.4045 156.881 42.1274Z" fill="#06122C"/>
<path d="M195.89 46.9225C195.89 46.9225 183.186 39.228 176.77 46.4678L195.89 46.9225Z" fill="#06122C"/>
<path d="M194.526 57.6235C194.526 57.6235 182.611 51.1556 178.043 51.4645L194.526 57.6235Z" fill="#06122C"/>
<path d="M188.28 69.6803C188.28 69.6803 186.423 64.9624 179.977 60.549L188.28 69.6803Z" fill="#06122C"/>
<path d="M191.48 33.322C191.48 33.322 180.573 28.0122 174.637 38.0829L191.48 33.322Z" fill="#06122C"/>
<path d="M195.889 46.9226C190.313 43.9203 181.868 41.1539 176.953 46.631L176.584 46.305C181.731 40.7979 190.253 43.6973 195.885 46.9226H195.889Z" fill="#06122C"/>
<path d="M194.526 57.6234C190.613 55.5523 186.533 53.8134 182.328 52.4251C180.945 51.9656 179.497 51.7254 178.039 51.7131L178.014 51.2371C179.521 51.2866 181.011 51.5762 182.427 52.0949C186.605 53.6015 190.648 55.4581 194.514 57.6449L194.526 57.6234Z" fill="#06122C"/>
<path d="M188.281 69.6799C186.432 65.9528 183.246 63.0491 179.836 60.7545L180.119 60.3256C183.464 62.7789 186.553 65.8327 188.268 69.6628L188.281 69.6799Z" fill="#06122C"/>
<path d="M191.481 33.3221C185.164 30.6586 178.318 31.9153 174.853 38.2073L174.424 37.9585C178.117 31.6408 185.104 30.4355 191.481 33.3221Z" fill="#06122C"/>
<path d="M173.969 36.8518L184.408 77.8978" stroke="#06122C" stroke-width="0.8" stroke-miterlimit="10"/>
<path d="M140.428 58.5671C140.255 58.5659 140.09 58.4969 139.968 58.3749C139.846 58.2528 139.777 58.0877 139.776 57.9151C139.773 57.8273 139.788 57.7398 139.819 57.6577C139.85 57.5757 139.898 57.5007 139.958 57.4372C140.019 57.3737 140.092 57.3229 140.173 57.2879C140.253 57.2529 140.34 57.2342 140.428 57.2332C140.6 57.2343 140.765 57.3033 140.887 57.4254C141.009 57.5474 141.078 57.7125 141.08 57.8851C141.082 57.9729 141.068 58.0604 141.036 58.1425C141.005 58.2245 140.958 58.2995 140.897 58.363C140.836 58.4265 140.763 58.4773 140.683 58.5123C140.602 58.5474 140.516 58.566 140.428 58.5671Z" fill="#06122C"/>
<path d="M140.428 57.4822C140.535 57.4822 140.637 57.5246 140.713 57.6002C140.788 57.6758 140.831 57.7784 140.831 57.8853V57.9153C140.831 58.0223 140.788 58.1248 140.713 58.2004C140.637 58.276 140.535 58.3185 140.428 58.3185C140.321 58.3185 140.218 58.276 140.143 58.2004C140.067 58.1248 140.024 58.0223 140.024 57.9153V57.8853C140.024 57.7784 140.067 57.6758 140.143 57.6002C140.218 57.5246 140.321 57.4822 140.428 57.4822ZM140.428 56.9889C140.31 56.9883 140.193 57.0111 140.084 57.056C139.975 57.1008 139.876 57.1668 139.793 57.2502C139.709 57.3335 139.643 57.4326 139.598 57.5416C139.553 57.6506 139.531 57.7674 139.531 57.8853V57.9153C139.547 58.1429 139.649 58.3561 139.815 58.5117C139.982 58.6674 140.202 58.7539 140.43 58.7539C140.658 58.7539 140.878 58.6674 141.044 58.5117C141.211 58.3561 141.313 58.1429 141.328 57.9153V57.8853C141.328 57.7672 141.305 57.6503 141.26 57.5413C141.214 57.4322 141.148 57.3332 141.064 57.25C140.981 57.1667 140.881 57.1007 140.772 57.0559C140.663 57.0111 140.546 56.9883 140.428 56.9889Z" fill="#06122C"/>
<path d="M143.131 58.5671C142.958 58.5659 142.793 58.4969 142.671 58.3749C142.549 58.2528 142.48 58.0877 142.479 57.9151C142.476 57.8273 142.491 57.7398 142.522 57.6577C142.553 57.5757 142.601 57.5007 142.662 57.4372C142.722 57.3737 142.795 57.3229 142.876 57.2879C142.956 57.2529 143.043 57.2342 143.131 57.2332C143.303 57.2343 143.469 57.3033 143.591 57.4254C143.713 57.5474 143.782 57.7125 143.783 57.8851C143.786 57.9729 143.771 58.0604 143.74 58.1425C143.708 58.2245 143.661 58.2995 143.6 58.363C143.539 58.4265 143.467 58.4773 143.386 58.5123C143.305 58.5474 143.219 58.566 143.131 58.5671Z" fill="white"/>
<path d="M248.365 140.327H9.00977V151.747H248.365V140.327Z" fill="#519AF4" stroke="#06122C" stroke-width="0.8" stroke-linejoin="round"/>
<path d="M270.216 140.327H27.1641V151.747H270.216V140.327Z" fill="white" stroke="#06122C" stroke-width="0.8" stroke-linejoin="round"/>
<path d="M230.911 127.65C230.764 127.649 230.618 127.625 230.478 127.58L227.692 126.664C227.343 126.548 227.053 126.298 226.887 125.969C226.722 125.641 226.693 125.259 226.807 124.909L235.547 98.3527C235.64 98.075 235.817 97.8334 236.055 97.662C236.292 97.4906 236.577 97.398 236.87 97.3972C237.017 97.3981 237.163 97.4219 237.302 97.4676L240.088 98.3879C240.262 98.4443 240.422 98.5347 240.56 98.6539C240.698 98.773 240.811 98.9185 240.893 99.0819C240.975 99.2447 241.025 99.4223 241.039 99.6044C241.052 99.7864 241.03 99.9694 240.973 100.143L232.228 126.694C232.138 126.973 231.962 127.215 231.725 127.387C231.488 127.558 231.203 127.65 230.911 127.65Z" fill="#06122C"/>
<path d="M236.871 97.6885C236.987 97.6893 237.102 97.708 237.213 97.7439L239.999 98.6641C240.275 98.7556 240.505 98.9525 240.637 99.2123C240.767 99.4716 240.789 99.7717 240.698 100.047L231.958 126.604C231.885 126.824 231.745 127.015 231.557 127.151C231.369 127.286 231.143 127.359 230.912 127.358C230.796 127.357 230.68 127.338 230.57 127.303L227.784 126.387C227.508 126.294 227.279 126.098 227.145 125.839C227.015 125.578 226.993 125.276 227.085 124.999L235.825 98.4429C235.898 98.2236 236.039 98.0328 236.226 97.8975C236.414 97.7622 236.639 97.6891 236.871 97.6885ZM236.871 97.1102C236.517 97.1095 236.173 97.2206 235.887 97.4274C235.6 97.6342 235.387 97.9263 235.277 98.2618L226.532 124.818C226.463 125.028 226.435 125.249 226.452 125.468C226.468 125.688 226.528 125.903 226.628 126.099C226.727 126.296 226.865 126.471 227.032 126.615C227.199 126.758 227.393 126.867 227.603 126.935L230.389 127.856C230.551 127.909 230.721 127.938 230.892 127.941C231.245 127.94 231.589 127.828 231.875 127.62C232.161 127.413 232.375 127.12 232.486 126.785L241.231 100.233C241.3 100.023 241.327 99.8022 241.311 99.582C241.294 99.3618 241.234 99.147 241.135 98.9499C241.036 98.7528 240.898 98.5773 240.731 98.4333C240.563 98.2894 240.369 98.1798 240.159 98.111L237.374 97.1957C237.212 97.1403 237.042 97.1114 236.871 97.1102Z" fill="#06122C"/>
<path d="M233.34 130.33C233.193 130.329 233.047 130.305 232.907 130.259L230.121 129.339C229.948 129.283 229.787 129.193 229.649 129.074C229.511 128.955 229.397 128.811 229.315 128.648C229.233 128.485 229.183 128.308 229.17 128.126C229.156 127.945 229.179 127.762 229.236 127.589L237.981 101.032C238.071 100.754 238.248 100.512 238.484 100.34C238.721 100.169 239.006 100.077 239.299 100.077C239.446 100.078 239.591 100.102 239.731 100.147L242.517 101.068C242.69 101.124 242.851 101.214 242.989 101.333C243.128 101.451 243.241 101.596 243.323 101.759C243.406 101.921 243.455 102.099 243.468 102.28C243.482 102.462 243.459 102.645 243.402 102.818L234.662 129.374C234.569 129.652 234.392 129.894 234.155 130.065C233.917 130.236 233.632 130.329 233.34 130.33Z" fill="#06122C"/>
<path d="M239.3 100.369C239.416 100.37 239.531 100.388 239.642 100.424L242.428 101.344C242.704 101.436 242.934 101.633 243.066 101.893C243.196 102.152 243.218 102.452 243.127 102.727L234.387 129.284C234.314 129.504 234.174 129.696 233.986 129.831C233.799 129.967 233.572 130.039 233.341 130.038C233.225 130.037 233.109 130.019 232.999 129.983L230.213 129.068C229.937 128.976 229.708 128.778 229.577 128.518C229.446 128.258 229.423 127.956 229.514 127.68L238.254 101.123C238.327 100.904 238.468 100.713 238.656 100.578C238.843 100.443 239.068 100.369 239.3 100.369ZM239.3 99.7905C238.947 99.7906 238.603 99.9019 238.317 100.109C238.03 100.315 237.817 100.607 237.706 100.942L228.981 127.499C228.912 127.708 228.885 127.929 228.901 128.149C228.918 128.369 228.977 128.583 229.077 128.78C229.176 128.976 229.314 129.151 229.481 129.295C229.648 129.438 229.842 129.547 230.052 129.616L232.838 130.536C233.001 130.588 233.17 130.615 233.341 130.616C233.694 130.617 234.038 130.506 234.325 130.299C234.611 130.093 234.825 129.8 234.935 129.465L243.68 102.908C243.749 102.699 243.776 102.478 243.76 102.258C243.743 102.038 243.683 101.824 243.584 101.627C243.484 101.431 243.347 101.256 243.18 101.112C243.012 100.969 242.818 100.86 242.609 100.791L239.823 99.871C239.66 99.8193 239.491 99.7922 239.32 99.7905H239.3Z" fill="#06122C"/>
<path d="M237.258 129.736C237.111 129.738 236.964 129.714 236.825 129.666L234.039 128.75C233.866 128.694 233.705 128.603 233.567 128.484C233.428 128.365 233.315 128.22 233.233 128.057C233.15 127.894 233.101 127.716 233.088 127.534C233.074 127.352 233.097 127.169 233.154 126.995L241.894 100.454C241.986 100.175 242.163 99.9329 242.4 99.7613C242.638 99.5897 242.924 99.4976 243.217 99.4984C243.364 99.4993 243.51 99.5231 243.649 99.5688L246.435 100.484C246.609 100.541 246.769 100.632 246.908 100.751C247.046 100.87 247.16 101.015 247.242 101.178C247.324 101.341 247.373 101.519 247.387 101.701C247.4 101.883 247.378 102.066 247.32 102.239L238.575 128.791C238.484 129.067 238.307 129.308 238.07 129.478C237.834 129.648 237.549 129.738 237.258 129.736Z" fill="#06122C"/>
<path d="M243.217 99.7801C243.334 99.7786 243.449 99.7974 243.559 99.8354L246.345 100.751C246.482 100.796 246.609 100.867 246.719 100.961C246.828 101.056 246.918 101.17 246.983 101.299C247.048 101.428 247.087 101.569 247.097 101.713C247.108 101.857 247.09 102.002 247.044 102.139L238.304 128.69C238.232 128.911 238.092 129.103 237.904 129.239C237.716 129.376 237.49 129.449 237.258 129.449C237.142 129.449 237.026 129.429 236.916 129.389L234.13 128.474C233.993 128.429 233.866 128.357 233.757 128.263C233.647 128.169 233.557 128.054 233.492 127.925C233.428 127.796 233.389 127.656 233.378 127.512C233.368 127.368 233.386 127.223 233.431 127.086L242.171 100.534C242.244 100.314 242.384 100.123 242.572 99.9872C242.76 99.8517 242.986 99.7792 243.217 99.7801ZM243.217 99.1968C242.863 99.1969 242.518 99.3087 242.231 99.5164C241.943 99.724 241.729 100.017 241.618 100.353L232.878 126.905C232.74 127.328 232.775 127.789 232.976 128.187C233.176 128.585 233.526 128.887 233.949 129.027L236.735 129.942C236.897 129.998 237.067 130.027 237.238 130.028C237.592 130.027 237.936 129.915 238.222 129.708C238.509 129.5 238.722 129.207 238.832 128.871L247.587 102.32C247.726 101.896 247.69 101.435 247.49 101.037C247.289 100.64 246.939 100.338 246.516 100.197L243.73 99.2823C243.568 99.2294 243.398 99.2006 243.227 99.1968H243.217Z" fill="#06122C"/>
<path d="M225.061 109.901L224.109 112.791L224.224 112.829L225.175 109.939L225.061 109.901Z" fill="#06122C"/>
<path d="M225.516 108.54L225.611 108.545L225.606 108.571L225.516 108.54Z" fill="#06122C"/>
<path d="M244.237 118.875C244.017 118.872 243.798 118.837 243.588 118.769C243.067 118.595 242.636 118.223 242.386 117.733C242.224 117.417 242.146 117.064 242.16 116.709C242.173 116.353 242.278 116.008 242.464 115.704C242.65 115.401 242.911 115.151 243.221 114.978C243.532 114.805 243.882 114.715 244.237 114.716C244.457 114.717 244.676 114.751 244.886 114.816C245.144 114.901 245.383 115.036 245.59 115.214C245.796 115.391 245.965 115.607 246.087 115.85C246.21 116.093 246.283 116.358 246.303 116.629C246.323 116.901 246.289 117.173 246.203 117.431C246.071 117.849 245.809 118.214 245.456 118.474C245.102 118.733 244.676 118.874 244.237 118.875Z" fill="#06122C"/>
<path d="M244.237 115.038C244.427 115.038 244.615 115.069 244.795 115.129C245.233 115.284 245.593 115.603 245.801 116.019C245.908 116.227 245.972 116.454 245.989 116.687C246.007 116.921 245.977 117.155 245.902 117.376C245.786 117.733 245.56 118.044 245.256 118.265C244.953 118.485 244.587 118.604 244.212 118.603C244.022 118.604 243.834 118.573 243.654 118.513C243.255 118.377 242.917 118.104 242.7 117.743C242.483 117.382 242.4 116.956 242.467 116.54C242.534 116.124 242.746 115.745 243.065 115.47C243.385 115.195 243.791 115.042 244.212 115.038H244.237ZM244.212 114.46C243.62 114.462 243.051 114.688 242.619 115.091C242.186 115.494 241.92 116.046 241.876 116.636C241.831 117.226 242.011 117.811 242.378 118.275C242.746 118.739 243.274 119.047 243.859 119.138C244.443 119.23 245.041 119.098 245.533 118.768C246.024 118.439 246.374 117.937 246.511 117.361C246.649 116.786 246.565 116.18 246.276 115.663C245.987 115.147 245.514 114.759 244.951 114.575C244.713 114.498 244.463 114.459 244.212 114.46Z" fill="#06122C"/>
<path d="M242.131 125.266C241.912 125.266 241.695 125.231 241.487 125.161C240.966 124.988 240.534 124.616 240.286 124.126C240.038 123.636 239.995 123.068 240.165 122.546C240.301 122.132 240.564 121.772 240.917 121.516C241.27 121.261 241.695 121.123 242.131 121.123C242.514 121.124 242.889 121.231 243.216 121.431C243.542 121.632 243.807 121.918 243.981 122.259C244.144 122.576 244.222 122.928 244.208 123.284C244.195 123.639 244.09 123.985 243.904 124.288C243.718 124.591 243.457 124.841 243.147 125.014C242.836 125.187 242.486 125.278 242.131 125.276V125.266Z" fill="#06122C"/>
<path d="M242.13 121.414C242.319 121.414 242.507 121.443 242.688 121.499C243.093 121.63 243.438 121.901 243.66 122.263C243.883 122.626 243.968 123.056 243.901 123.476C243.833 123.897 243.617 124.279 243.293 124.553C242.968 124.828 242.555 124.977 242.13 124.974C241.942 124.974 241.755 124.943 241.577 124.884C241.176 124.751 240.835 124.48 240.616 124.119C240.396 123.758 240.312 123.331 240.379 122.914C240.445 122.497 240.658 122.117 240.979 121.842C241.299 121.567 241.707 121.416 242.13 121.414ZM242.13 120.831C241.534 120.829 240.96 121.051 240.521 121.454C240.082 121.857 239.811 122.41 239.762 123.004C239.713 123.598 239.889 124.188 240.256 124.657C240.623 125.127 241.153 125.441 241.741 125.537C242.329 125.633 242.931 125.504 243.428 125.175C243.925 124.847 244.28 124.343 244.422 123.765C244.565 123.186 244.484 122.576 244.196 122.054C243.908 121.533 243.434 121.139 242.869 120.951C242.63 120.872 242.381 120.831 242.13 120.831Z" fill="#06122C"/>
<path d="M246.344 112.478C246.124 112.478 245.905 112.444 245.695 112.378C245.239 112.215 244.855 111.898 244.608 111.482C244.361 111.066 244.268 110.576 244.344 110.098C244.421 109.621 244.662 109.185 245.026 108.866C245.391 108.548 245.855 108.367 246.339 108.355C246.559 108.354 246.778 108.39 246.988 108.46C247.443 108.623 247.828 108.939 248.075 109.356C248.322 109.772 248.415 110.261 248.338 110.739C248.262 111.217 248.021 111.653 247.656 111.972C247.292 112.29 246.828 112.471 246.344 112.483V112.478Z" fill="#06122C"/>
<path d="M246.34 108.626C246.529 108.625 246.718 108.656 246.898 108.716C247.303 108.846 247.648 109.117 247.87 109.48C248.093 109.843 248.178 110.273 248.111 110.693C248.043 111.113 247.827 111.495 247.503 111.77C247.178 112.045 246.765 112.194 246.34 112.191C246.152 112.191 245.965 112.16 245.787 112.101C245.337 111.952 244.965 111.632 244.751 111.21C244.615 110.939 244.55 110.637 244.563 110.333C244.576 110.03 244.667 109.735 244.826 109.476C244.985 109.217 245.208 109.003 245.473 108.854C245.737 108.706 246.036 108.627 246.34 108.626ZM246.34 108.047C245.778 108.046 245.234 108.246 244.806 108.61C244.378 108.974 244.095 109.479 244.006 110.034C243.917 110.589 244.03 111.157 244.323 111.637C244.616 112.116 245.071 112.475 245.606 112.649C245.93 112.754 246.273 112.788 246.611 112.748C246.949 112.708 247.275 112.595 247.566 112.418C247.857 112.24 248.105 112.001 248.295 111.718C248.484 111.435 248.61 111.114 248.664 110.777C248.718 110.441 248.698 110.097 248.606 109.769C248.514 109.441 248.352 109.136 248.131 108.877C247.91 108.618 247.635 108.409 247.326 108.266C247.017 108.123 246.68 108.048 246.34 108.047Z" fill="#06122C"/>
<path d="M250.966 121.072C250.745 121.072 250.526 121.037 250.317 120.966C249.824 120.802 249.411 120.459 249.16 120.004C248.909 119.549 248.838 119.016 248.962 118.512C249.086 118.007 249.396 117.568 249.829 117.281C250.263 116.995 250.788 116.882 251.301 116.965C251.814 117.049 252.277 117.322 252.597 117.732C252.917 118.141 253.071 118.656 253.029 119.174C252.987 119.691 252.751 120.174 252.369 120.526C251.986 120.878 251.485 121.073 250.966 121.072Z" fill="#06122C"/>
<path d="M250.966 117.235C251.155 117.235 251.344 117.266 251.524 117.326C251.972 117.474 252.343 117.794 252.555 118.216C252.767 118.637 252.803 119.126 252.655 119.574C252.552 119.885 252.366 120.162 252.115 120.374C251.865 120.586 251.561 120.725 251.237 120.775C250.913 120.825 250.581 120.784 250.278 120.658C249.976 120.532 249.714 120.324 249.522 120.058C249.33 119.792 249.215 119.478 249.19 119.151C249.165 118.824 249.231 118.497 249.38 118.205C249.529 117.913 249.756 117.668 250.036 117.497C250.316 117.326 250.638 117.235 250.966 117.235ZM250.966 116.652C250.37 116.65 249.795 116.873 249.357 117.276C248.918 117.678 248.647 118.232 248.598 118.825C248.549 119.419 248.725 120.009 249.092 120.479C249.459 120.948 249.989 121.262 250.577 121.358C251.165 121.454 251.767 121.325 252.264 120.997C252.761 120.668 253.116 120.165 253.258 119.586C253.401 119.008 253.32 118.397 253.032 117.876C252.744 117.354 252.27 116.96 251.705 116.773C251.466 116.693 251.217 116.653 250.966 116.652Z" fill="#06122C"/>
<path d="M248.858 127.479C248.64 127.478 248.423 127.444 248.215 127.378C247.759 127.216 247.374 126.899 247.127 126.483C246.881 126.067 246.787 125.577 246.864 125.099C246.94 124.621 247.182 124.185 247.546 123.867C247.91 123.548 248.375 123.367 248.858 123.355C249.186 123.356 249.509 123.434 249.801 123.583C250.092 123.732 250.345 123.948 250.537 124.214C250.729 124.479 250.856 124.786 250.907 125.11C250.958 125.433 250.931 125.765 250.83 126.076C250.689 126.487 250.424 126.843 250.07 127.095C249.716 127.347 249.293 127.481 248.858 127.479Z" fill="#06122C"/>
<path d="M248.859 123.627C249.048 123.627 249.237 123.657 249.417 123.718C249.821 123.848 250.166 124.118 250.389 124.48C250.611 124.843 250.697 125.272 250.63 125.692C250.563 126.112 250.348 126.494 250.024 126.769C249.7 127.044 249.289 127.194 248.864 127.192C248.674 127.19 248.486 127.16 248.305 127.102C247.901 126.972 247.556 126.701 247.334 126.339C247.111 125.977 247.026 125.547 247.092 125.127C247.159 124.708 247.374 124.326 247.698 124.05C248.022 123.775 248.434 123.625 248.859 123.627ZM248.859 123.049C248.266 123.051 247.695 123.277 247.261 123.681C246.827 124.085 246.561 124.638 246.516 125.229C246.472 125.82 246.651 126.407 247.02 126.872C247.388 127.337 247.918 127.646 248.504 127.737C249.09 127.829 249.688 127.697 250.181 127.366C250.674 127.036 251.024 126.533 251.162 125.956C251.3 125.379 251.216 124.772 250.926 124.254C250.636 123.737 250.162 123.348 249.598 123.164C249.359 123.086 249.11 123.047 248.859 123.049Z" fill="#06122C"/>
<path d="M253.067 114.696C252.849 114.696 252.631 114.66 252.424 114.59C251.968 114.428 251.583 114.111 251.336 113.695C251.09 113.278 250.996 112.789 251.073 112.311C251.149 111.833 251.391 111.397 251.755 111.079C252.119 110.76 252.584 110.579 253.067 110.567C253.45 110.568 253.826 110.675 254.152 110.876C254.479 111.076 254.743 111.363 254.918 111.704C255.08 112.02 255.158 112.373 255.145 112.728C255.131 113.083 255.026 113.429 254.841 113.732C254.655 114.035 254.394 114.285 254.083 114.459C253.773 114.632 253.423 114.722 253.067 114.721V114.696Z" fill="#06122C"/>
<path d="M253.067 110.844C253.257 110.843 253.445 110.874 253.625 110.934C254.026 111.067 254.367 111.338 254.586 111.699C254.805 112.06 254.889 112.487 254.823 112.904C254.756 113.321 254.544 113.701 254.223 113.976C253.902 114.25 253.494 114.402 253.072 114.404C252.739 114.401 252.414 114.305 252.133 114.127C251.851 113.949 251.624 113.697 251.478 113.398C251.342 113.127 251.277 112.825 251.29 112.522C251.303 112.218 251.394 111.924 251.553 111.665C251.712 111.406 251.935 111.193 252.2 111.045C252.465 110.897 252.764 110.819 253.067 110.818V110.844ZM253.067 110.235C252.47 110.233 251.894 110.456 251.454 110.86C251.015 111.263 250.743 111.818 250.694 112.413C250.644 113.008 250.821 113.599 251.189 114.07C251.556 114.54 252.087 114.855 252.677 114.951C253.266 115.047 253.87 114.918 254.368 114.589C254.866 114.26 255.222 113.755 255.364 113.175C255.507 112.596 255.425 111.983 255.137 111.461C254.848 110.938 254.373 110.544 253.806 110.356C253.568 110.277 253.318 110.236 253.067 110.235Z" fill="#06122C"/>
<path d="M257.695 123.305C257.475 123.305 257.256 123.269 257.046 123.199C256.59 123.037 256.205 122.72 255.959 122.303C255.712 121.886 255.619 121.396 255.696 120.918C255.773 120.44 256.016 120.004 256.381 119.686C256.746 119.367 257.211 119.187 257.695 119.176C257.915 119.177 258.134 119.211 258.344 119.277C258.795 119.444 259.174 119.763 259.416 120.178C259.658 120.594 259.749 121.08 259.672 121.555C259.596 122.03 259.357 122.463 258.996 122.782C258.636 123.1 258.176 123.283 257.695 123.3V123.305Z" fill="#06122C"/>
<path d="M257.694 119.448C258.072 119.447 258.44 119.565 258.746 119.786C259.052 120.007 259.28 120.32 259.397 120.679C259.514 121.038 259.515 121.424 259.398 121.784C259.282 122.143 259.055 122.456 258.749 122.678C258.444 122.899 258.076 123.019 257.698 123.018C257.321 123.018 256.953 122.898 256.648 122.675C256.343 122.453 256.116 122.139 256.001 121.78C255.885 121.42 255.886 121.034 256.004 120.675C256.12 120.318 256.346 120.007 256.65 119.787C256.953 119.566 257.319 119.448 257.694 119.448ZM257.694 118.87C257.098 118.868 256.524 119.091 256.085 119.493C255.646 119.896 255.375 120.449 255.326 121.043C255.277 121.637 255.454 122.227 255.821 122.696C256.187 123.166 256.717 123.48 257.305 123.576C257.893 123.672 258.496 123.543 258.993 123.214C259.49 122.886 259.845 122.382 259.987 121.804C260.129 121.226 260.048 120.615 259.76 120.093C259.472 119.572 258.999 119.178 258.433 118.99C258.195 118.911 257.945 118.87 257.694 118.87Z" fill="#06122C"/>
<path d="M264.423 125.517C263.874 125.517 263.347 125.299 262.958 124.91C262.57 124.522 262.352 123.995 262.352 123.445C262.352 122.896 262.57 122.369 262.958 121.98C263.347 121.592 263.874 121.373 264.423 121.373C264.644 121.373 264.863 121.409 265.072 121.479C265.528 121.641 265.913 121.959 266.16 122.375C266.406 122.792 266.499 123.282 266.422 123.76C266.345 124.239 266.103 124.675 265.738 124.993C265.373 125.311 264.908 125.491 264.423 125.502V125.517Z" fill="#06122C"/>
<path d="M264.424 121.665C264.896 121.665 265.348 121.853 265.682 122.187C266.016 122.521 266.204 122.973 266.204 123.446C266.204 123.918 266.016 124.371 265.682 124.704C265.348 125.038 264.896 125.226 264.424 125.226C264.234 125.225 264.046 125.196 263.865 125.14C263.46 125.01 263.115 124.739 262.893 124.376C262.67 124.014 262.585 123.583 262.653 123.163C262.72 122.743 262.936 122.361 263.261 122.086C263.586 121.812 263.998 121.662 264.424 121.665ZM264.424 121.082C263.863 121.084 263.321 121.285 262.894 121.649C262.468 122.013 262.185 122.517 262.096 123.071C262.007 123.625 262.118 124.192 262.409 124.672C262.7 125.151 263.152 125.512 263.684 125.688C263.923 125.767 264.172 125.808 264.424 125.809C265.05 125.809 265.652 125.56 266.095 125.117C266.538 124.674 266.787 124.072 266.787 123.446C266.787 122.819 266.538 122.218 266.095 121.774C265.652 121.331 265.05 121.082 264.424 121.082Z" fill="#06122C"/>
<path d="M255.592 129.696C255.371 129.696 255.152 129.661 254.943 129.59C254.487 129.428 254.103 129.111 253.856 128.695C253.609 128.279 253.516 127.789 253.592 127.311C253.669 126.834 253.91 126.398 254.274 126.079C254.639 125.76 255.103 125.579 255.587 125.568C255.807 125.567 256.027 125.603 256.236 125.673C256.691 125.835 257.076 126.152 257.323 126.569C257.57 126.985 257.663 127.474 257.586 127.952C257.51 128.43 257.269 128.866 256.904 129.185C256.54 129.503 256.076 129.684 255.592 129.696Z" fill="#06122C"/>
<path d="M255.587 125.844C255.776 125.844 255.965 125.875 256.145 125.935C256.546 126.068 256.886 126.339 257.106 126.7C257.325 127.061 257.409 127.488 257.342 127.905C257.276 128.322 257.063 128.702 256.743 128.977C256.422 129.251 256.014 129.403 255.592 129.405C255.259 129.401 254.934 129.306 254.652 129.128C254.371 128.95 254.144 128.698 253.998 128.399C253.787 127.977 253.75 127.489 253.897 127.041C254.013 126.685 254.239 126.375 254.543 126.155C254.846 125.935 255.212 125.818 255.587 125.819V125.844ZM255.587 125.236C254.99 125.234 254.414 125.457 253.974 125.861C253.534 126.264 253.262 126.819 253.213 127.414C253.164 128.009 253.341 128.6 253.708 129.071C254.076 129.541 254.607 129.856 255.196 129.952C255.785 130.048 256.389 129.919 256.887 129.59C257.385 129.261 257.741 128.756 257.884 128.176C258.026 127.596 257.945 126.984 257.656 126.462C257.368 125.939 256.893 125.545 256.326 125.357C256.087 125.277 255.838 125.237 255.587 125.236Z" fill="#06122C"/>
<path d="M259.801 116.908C259.581 116.908 259.362 116.874 259.152 116.808C258.696 116.645 258.312 116.329 258.065 115.912C257.818 115.496 257.725 115.006 257.801 114.529C257.878 114.051 258.119 113.615 258.483 113.296C258.848 112.978 259.312 112.797 259.796 112.785C260.016 112.785 260.235 112.82 260.445 112.89C260.9 113.053 261.285 113.37 261.532 113.786C261.779 114.202 261.872 114.692 261.795 115.169C261.719 115.647 261.478 116.083 261.113 116.402C260.749 116.72 260.285 116.901 259.801 116.913V116.908Z" fill="#06122C"/>
<path d="M259.801 113.056C259.989 113.057 260.176 113.087 260.355 113.147C260.759 113.277 261.104 113.548 261.326 113.91C261.549 114.272 261.634 114.702 261.568 115.121C261.501 115.541 261.286 115.923 260.962 116.198C260.638 116.473 260.226 116.624 259.801 116.622C259.612 116.622 259.423 116.591 259.243 116.531C258.838 116.401 258.493 116.13 258.271 115.767C258.048 115.405 257.963 114.974 258.03 114.554C258.098 114.134 258.314 113.752 258.639 113.477C258.963 113.202 259.376 113.053 259.801 113.056ZM259.801 112.478C259.241 112.481 258.7 112.682 258.274 113.047C257.849 113.412 257.567 113.916 257.479 114.47C257.39 115.023 257.502 115.59 257.793 116.069C258.084 116.548 258.535 116.908 259.067 117.084C259.392 117.192 259.737 117.229 260.078 117.19C260.419 117.152 260.747 117.039 261.04 116.862C261.333 116.684 261.584 116.444 261.775 116.159C261.966 115.875 262.093 115.552 262.147 115.214C262.201 114.875 262.18 114.529 262.087 114.199C261.994 113.869 261.83 113.563 261.607 113.303C261.384 113.043 261.107 112.834 260.795 112.692C260.483 112.549 260.144 112.476 259.801 112.478Z" fill="#06122C"/>
<path d="M238.33 98.2345L229.59 124.788C229.3 125.669 229.779 126.618 230.66 126.908L233.445 127.825C234.326 128.115 235.275 127.636 235.565 126.755L244.306 100.202C244.596 99.3204 244.116 98.371 243.235 98.081L240.451 97.1643C239.57 96.8743 238.62 97.3534 238.33 98.2345Z" fill="#06122C"/>
<path d="M240.756 100.917L232.015 127.47C231.725 128.351 232.204 129.301 233.086 129.591L235.87 130.507C236.751 130.797 237.701 130.318 237.991 129.437L246.731 102.884C247.021 102.003 246.542 101.054 245.661 100.764L242.876 99.8469C241.995 99.5568 241.046 100.036 240.756 100.917Z" fill="#06122C"/>
<path d="M244.676 100.326L235.935 126.879C235.645 127.76 236.124 128.71 237.006 129L239.79 129.916C240.671 130.206 241.621 129.727 241.911 128.846L250.651 102.293C250.941 101.412 250.462 100.463 249.581 100.173L246.796 99.2559C245.915 98.9658 244.966 99.445 244.676 100.326Z" fill="#06122C"/>
<path d="M269.181 139.935C268.685 139.936 268.193 139.858 267.722 139.704L225.265 125.724C224.092 125.337 223.12 124.499 222.564 123.396C222.007 122.293 221.912 121.014 222.298 119.84L228.981 99.4992C229.171 98.9176 229.474 98.3794 229.873 97.9152C230.272 97.4511 230.758 97.0703 231.304 96.7946C231.85 96.519 232.446 96.3539 233.056 96.3089C233.666 96.2638 234.279 96.3397 234.86 96.5322L277.337 110.512C278.509 110.902 279.479 111.739 280.035 112.842C280.591 113.944 280.687 115.222 280.304 116.396L273.606 136.742C273.298 137.672 272.705 138.481 271.91 139.055C271.115 139.628 270.16 139.936 269.181 139.935Z" fill="#FFC664"/>
<path d="M233.421 96.5879C233.884 96.5861 234.345 96.6608 234.784 96.8092L277.256 110.784C277.802 110.964 278.307 111.25 278.742 111.626C279.178 112.002 279.535 112.46 279.793 112.973C280.051 113.487 280.206 114.047 280.248 114.62C280.29 115.194 280.218 115.77 280.037 116.316L273.329 136.662C273.15 137.209 272.866 137.716 272.491 138.153C272.116 138.59 271.658 138.949 271.143 139.208C270.629 139.467 270.069 139.621 269.494 139.662C268.92 139.704 268.343 139.631 267.797 139.448L225.34 125.468C224.793 125.288 224.288 125.002 223.852 124.627C223.416 124.251 223.059 123.793 222.801 123.279C222.542 122.765 222.388 122.206 222.346 121.632C222.305 121.058 222.377 120.482 222.559 119.936L229.257 99.5901C229.541 98.7132 230.095 97.9488 230.841 97.4067C231.586 96.8646 232.484 96.5727 233.406 96.5728L233.421 96.5879ZM233.406 95.9895C232.364 95.9909 231.348 96.3206 230.504 96.9317C229.66 97.5428 229.03 98.4044 228.704 99.3939L222.006 119.735C221.596 120.982 221.697 122.341 222.289 123.513C222.88 124.685 223.912 125.574 225.159 125.986L267.616 139.96C268.115 140.127 268.638 140.212 269.165 140.212C270.206 140.211 271.221 139.882 272.065 139.272C272.909 138.662 273.539 137.801 273.867 136.813L280.565 116.466C280.973 115.22 280.871 113.863 280.28 112.692C279.689 111.521 278.657 110.632 277.412 110.221L234.955 96.2409C234.455 96.0748 233.932 95.9899 233.406 95.9895Z" fill="#06122C"/>
<path d="M268.265 138.019C267.79 138.019 267.319 137.944 266.867 137.798L227.175 124.723C226.618 124.541 226.102 124.25 225.658 123.867C225.213 123.485 224.848 123.018 224.584 122.495C224.32 121.971 224.162 121.4 224.119 120.815C224.076 120.23 224.149 119.643 224.334 119.086L230.188 101.31C230.48 100.417 231.048 99.6389 231.809 99.088C232.571 98.537 233.487 98.2409 234.427 98.2421C234.9 98.2426 235.37 98.3172 235.82 98.4633L275.516 111.538C276.64 111.91 277.569 112.713 278.102 113.769C278.635 114.826 278.726 116.051 278.358 117.175L272.504 134.952C272.211 135.845 271.644 136.622 270.882 137.173C270.121 137.724 269.205 138.02 268.265 138.019Z" fill="#9BCDFB"/>
<path d="M234.427 98.5282C234.869 98.5305 235.309 98.6018 235.729 98.7395L275.426 111.814C276.476 112.162 277.345 112.912 277.843 113.9C278.34 114.888 278.426 116.033 278.081 117.084L272.228 134.861C272.057 135.382 271.785 135.864 271.428 136.28C271.07 136.696 270.634 137.037 270.145 137.284C269.655 137.531 269.121 137.679 268.575 137.72C268.028 137.761 267.478 137.693 266.958 137.521L227.266 124.446C226.215 124.099 225.345 123.349 224.846 122.361C224.347 121.373 224.261 120.228 224.606 119.176L230.489 101.4C230.763 100.564 231.293 99.837 232.005 99.3213C232.717 98.8057 233.573 98.5281 234.452 98.5282H234.427ZM234.452 97.95C233.449 97.9484 232.472 98.2636 231.659 98.8506C230.846 99.4376 230.24 100.266 229.926 101.219L224.073 119C223.677 120.196 223.772 121.501 224.338 122.627C224.904 123.753 225.894 124.608 227.09 125.004L266.782 138.079C267.978 138.472 269.281 138.375 270.407 137.81C271.532 137.245 272.387 136.256 272.786 135.062L278.639 117.28C279.034 116.084 278.938 114.78 278.372 113.654C277.806 112.529 276.817 111.673 275.622 111.276L235.925 98.2014C235.447 98.0406 234.946 97.9591 234.442 97.96L234.452 97.95Z" fill="#06122C"/>
<path d="M229.317 102.642L229.689 102.763C230.132 102.909 230.498 103.224 230.708 103.64C230.919 104.055 230.955 104.537 230.811 104.98L226.999 116.546C226.853 116.989 226.538 117.355 226.122 117.565C225.706 117.775 225.224 117.812 224.781 117.668L224.404 117.542" fill="#FFC664"/>
<path d="M229.317 102.642L229.689 102.763C230.132 102.909 230.498 103.224 230.708 103.64C230.919 104.055 230.955 104.537 230.811 104.98L226.999 116.546C226.853 116.989 226.538 117.355 226.122 117.565C225.706 117.775 225.224 117.812 224.781 117.668L224.404 117.542" stroke="#06122C" stroke-width="0.8" stroke-miterlimit="10" stroke-linecap="round"/>
<path d="M227.371 109.521L226.359 112.597C226.326 112.698 226.38 112.806 226.48 112.839L226.786 112.939C226.886 112.972 226.994 112.918 227.027 112.817L228.04 109.741C228.073 109.641 228.018 109.533 227.918 109.5L227.612 109.399C227.512 109.366 227.404 109.421 227.371 109.521Z" fill="#06122C"/>
<path d="M227.795 108.246L227.794 108.251C227.741 108.409 227.828 108.579 227.986 108.632L228.081 108.663C228.24 108.715 228.41 108.629 228.462 108.471L228.464 108.466C228.516 108.308 228.43 108.137 228.272 108.085L228.176 108.054C228.018 108.002 227.847 108.088 227.795 108.246Z" fill="#06122C"/>
<path d="M247.305 118.875C247.085 118.875 246.866 118.839 246.657 118.769C246.136 118.595 245.704 118.223 245.455 117.733C245.293 117.417 245.215 117.064 245.228 116.709C245.242 116.353 245.346 116.008 245.532 115.704C245.718 115.401 245.979 115.151 246.289 114.978C246.6 114.805 246.95 114.715 247.305 114.716C247.525 114.717 247.744 114.751 247.954 114.816C248.405 114.984 248.784 115.302 249.026 115.717C249.269 116.133 249.359 116.62 249.283 117.094C249.206 117.569 248.967 118.003 248.607 118.321C248.246 118.639 247.786 118.822 247.305 118.839V118.875Z" fill="#549CF1"/>
<path d="M247.304 115.038C247.634 115.038 247.957 115.13 248.237 115.303C248.518 115.476 248.745 115.724 248.893 116.019C249 116.227 249.064 116.454 249.081 116.687C249.098 116.921 249.069 117.155 248.994 117.376C248.878 117.733 248.652 118.044 248.348 118.265C248.045 118.485 247.679 118.604 247.304 118.603C247.022 118.603 246.745 118.536 246.494 118.408C246.243 118.28 246.026 118.094 245.861 117.866C245.696 117.638 245.587 117.374 245.543 117.096C245.499 116.817 245.522 116.533 245.609 116.265C245.727 115.908 245.954 115.598 246.258 115.377C246.562 115.157 246.928 115.038 247.304 115.038ZM247.304 114.46C246.712 114.462 246.143 114.688 245.71 115.091C245.277 115.494 245.012 116.046 244.968 116.636C244.923 117.226 245.102 117.811 245.47 118.275C245.837 118.739 246.366 119.047 246.951 119.138C247.535 119.23 248.133 119.098 248.624 118.768C249.116 118.439 249.465 117.937 249.603 117.361C249.741 116.786 249.657 116.18 249.368 115.663C249.079 115.147 248.606 114.759 248.043 114.575C247.804 114.498 247.555 114.459 247.304 114.46Z" fill="#06122C"/>
<path d="M245.199 125.266C244.649 125.266 244.122 125.048 243.734 124.66C243.345 124.271 243.127 123.744 243.127 123.195C243.127 122.645 243.345 122.118 243.734 121.73C244.122 121.341 244.649 121.123 245.199 121.123C245.419 121.123 245.638 121.158 245.847 121.228C246.304 121.391 246.689 121.708 246.935 122.125C247.182 122.542 247.275 123.032 247.198 123.51C247.12 123.988 246.878 124.424 246.513 124.742C246.148 125.06 245.683 125.24 245.199 125.251V125.266Z" fill="#549CF1"/>
<path d="M245.198 121.414C245.387 121.414 245.575 121.443 245.756 121.499C246.161 121.63 246.506 121.901 246.729 122.263C246.951 122.626 247.036 123.056 246.969 123.476C246.901 123.897 246.686 124.279 246.361 124.553C246.036 124.828 245.623 124.977 245.198 124.974C245.01 124.974 244.823 124.943 244.645 124.884C244.244 124.751 243.904 124.48 243.684 124.119C243.465 123.758 243.381 123.331 243.447 122.914C243.514 122.497 243.726 122.117 244.047 121.842C244.368 121.567 244.776 121.416 245.198 121.414ZM245.198 120.831C244.602 120.829 244.028 121.051 243.589 121.454C243.15 121.857 242.879 122.41 242.83 123.004C242.781 123.598 242.958 124.188 243.324 124.657C243.691 125.127 244.221 125.441 244.809 125.537C245.397 125.633 245.999 125.504 246.496 125.175C246.993 124.847 247.348 124.343 247.491 123.765C247.633 123.186 247.552 122.576 247.264 122.054C246.976 121.533 246.503 121.139 245.937 120.951C245.699 120.872 245.449 120.831 245.198 120.831Z" fill="#06122C"/>
<path d="M249.407 112.478C249.189 112.477 248.972 112.444 248.764 112.378C248.308 112.215 247.923 111.898 247.676 111.482C247.43 111.066 247.336 110.576 247.413 110.098C247.489 109.621 247.731 109.185 248.095 108.866C248.459 108.548 248.923 108.367 249.407 108.355C249.628 108.354 249.847 108.39 250.056 108.46C250.512 108.623 250.897 108.94 251.144 109.357C251.39 109.774 251.483 110.264 251.406 110.742C251.329 111.22 251.087 111.656 250.722 111.974C250.356 112.292 249.891 112.472 249.407 112.483V112.478Z" fill="#549CF1"/>
<path d="M249.406 108.626C249.688 108.626 249.966 108.692 250.218 108.82C250.469 108.948 250.687 109.134 250.853 109.362C251.018 109.59 251.128 109.854 251.172 110.133C251.216 110.411 251.193 110.697 251.106 110.965C250.989 111.322 250.762 111.633 250.458 111.853C250.153 112.074 249.787 112.192 249.411 112.192C249.223 112.192 249.036 112.161 248.858 112.101C248.409 111.953 248.037 111.633 247.822 111.211C247.686 110.939 247.622 110.638 247.635 110.334C247.648 110.031 247.738 109.735 247.897 109.477C248.057 109.218 248.279 109.004 248.544 108.855C248.809 108.706 249.107 108.628 249.411 108.626H249.406ZM249.411 108.048C248.849 108.046 248.304 108.244 247.875 108.608C247.447 108.972 247.162 109.477 247.073 110.032C246.984 110.588 247.096 111.156 247.389 111.636C247.682 112.116 248.137 112.475 248.672 112.649C248.911 112.728 249.16 112.769 249.411 112.77C249.73 112.785 250.049 112.735 250.349 112.623C250.648 112.511 250.921 112.339 251.152 112.118C251.384 111.898 251.568 111.632 251.693 111.339C251.819 111.045 251.884 110.729 251.884 110.409C251.884 110.089 251.819 109.773 251.693 109.479C251.568 109.186 251.384 108.92 251.152 108.7C250.921 108.479 250.648 108.307 250.349 108.195C250.049 108.083 249.73 108.033 249.411 108.048Z" fill="#06122C"/>
<path d="M254.034 121.072C253.813 121.072 253.594 121.037 253.385 120.966C252.892 120.802 252.479 120.459 252.228 120.004C251.977 119.549 251.906 119.016 252.031 118.512C252.155 118.007 252.464 117.568 252.898 117.281C253.331 116.995 253.857 116.882 254.37 116.965C254.882 117.049 255.345 117.322 255.665 117.732C255.985 118.141 256.14 118.656 256.097 119.174C256.055 119.691 255.819 120.174 255.437 120.526C255.054 120.878 254.554 121.073 254.034 121.072Z" fill="#549CF1"/>
<path d="M254.034 117.235C254.506 117.235 254.959 117.423 255.293 117.757C255.627 118.091 255.814 118.543 255.814 119.015C255.814 119.488 255.627 119.94 255.293 120.274C254.959 120.608 254.506 120.796 254.034 120.796C253.752 120.796 253.475 120.729 253.224 120.6C252.973 120.472 252.757 120.286 252.592 120.058C252.427 119.83 252.318 119.566 252.275 119.287C252.232 119.009 252.256 118.725 252.344 118.457C252.462 118.102 252.688 117.792 252.991 117.573C253.295 117.354 253.66 117.235 254.034 117.235ZM254.034 116.652C253.438 116.65 252.864 116.873 252.425 117.276C251.986 117.678 251.715 118.232 251.666 118.825C251.617 119.419 251.794 120.009 252.16 120.479C252.527 120.948 253.057 121.262 253.645 121.358C254.233 121.454 254.835 121.325 255.332 120.997C255.829 120.668 256.184 120.165 256.327 119.586C256.469 119.008 256.388 118.397 256.1 117.876C255.812 117.354 255.338 116.96 254.773 116.773C254.535 116.693 254.285 116.653 254.034 116.652Z" fill="#06122C"/>
<path d="M251.927 127.479C251.708 127.479 251.49 127.443 251.283 127.373C250.827 127.211 250.443 126.894 250.196 126.478C249.949 126.062 249.856 125.572 249.932 125.094C250.009 124.616 250.25 124.18 250.614 123.862C250.979 123.543 251.443 123.362 251.927 123.35C252.147 123.35 252.366 123.386 252.575 123.456C253.032 123.618 253.417 123.936 253.663 124.352C253.91 124.769 254.003 125.259 253.926 125.737C253.848 126.216 253.606 126.652 253.241 126.97C252.876 127.288 252.411 127.468 251.927 127.479Z" fill="#549CF1"/>
<path d="M251.926 123.627C252.207 123.627 252.485 123.694 252.736 123.823C252.986 123.951 253.203 124.137 253.368 124.365C253.534 124.593 253.643 124.857 253.687 125.135C253.73 125.413 253.708 125.698 253.62 125.965C253.504 126.323 253.277 126.634 252.972 126.854C252.668 127.075 252.301 127.193 251.926 127.192C251.738 127.19 251.551 127.159 251.373 127.102C250.923 126.953 250.551 126.633 250.337 126.212C250.2 125.94 250.136 125.638 250.149 125.335C250.162 125.031 250.253 124.736 250.412 124.477C250.571 124.218 250.794 124.004 251.058 123.856C251.323 123.707 251.622 123.628 251.926 123.627ZM251.926 123.049C251.364 123.048 250.82 123.247 250.392 123.611C249.964 123.976 249.681 124.481 249.592 125.036C249.503 125.59 249.616 126.159 249.909 126.638C250.202 127.117 250.657 127.476 251.191 127.65C251.516 127.755 251.859 127.789 252.197 127.749C252.535 127.71 252.861 127.597 253.152 127.419C253.442 127.241 253.691 127.002 253.881 126.719C254.07 126.436 254.196 126.115 254.25 125.779C254.304 125.442 254.284 125.098 254.192 124.77C254.1 124.442 253.938 124.138 253.717 123.878C253.496 123.619 253.221 123.41 252.912 123.267C252.603 123.124 252.266 123.049 251.926 123.049Z" fill="#06122C"/>
<path d="M256.135 114.696C255.914 114.696 255.695 114.66 255.486 114.59C255.03 114.428 254.646 114.111 254.399 113.695C254.152 113.278 254.059 112.789 254.135 112.311C254.212 111.833 254.453 111.397 254.817 111.079C255.182 110.76 255.646 110.579 256.13 110.567C256.35 110.567 256.569 110.603 256.779 110.673C257.234 110.835 257.619 111.152 257.866 111.568C258.113 111.984 258.206 112.474 258.129 112.952C258.053 113.43 257.812 113.866 257.447 114.184C257.083 114.503 256.619 114.684 256.135 114.696Z" fill="#549CF1"/>
<path d="M256.136 110.844C256.325 110.844 256.514 110.874 256.694 110.934C257.095 111.067 257.436 111.339 257.655 111.7C257.874 112.062 257.958 112.489 257.891 112.907C257.824 113.324 257.61 113.704 257.289 113.978C256.967 114.253 256.558 114.404 256.136 114.404C255.947 114.404 255.761 114.373 255.582 114.314C255.182 114.181 254.841 113.909 254.622 113.549C254.402 113.188 254.318 112.761 254.385 112.344C254.451 111.927 254.664 111.547 254.985 111.272C255.305 110.997 255.713 110.845 256.136 110.844ZM256.136 110.26C255.539 110.258 254.963 110.481 254.523 110.885C254.083 111.289 253.811 111.843 253.762 112.438C253.713 113.033 253.889 113.625 254.257 114.095C254.625 114.566 255.156 114.88 255.745 114.976C256.334 115.073 256.938 114.943 257.436 114.614C257.934 114.285 258.29 113.78 258.432 113.201C258.575 112.621 258.494 112.009 258.205 111.486C257.916 110.964 257.441 110.569 256.875 110.381C256.636 110.302 256.387 110.261 256.136 110.26Z" fill="#06122C"/>
<path d="M260.762 123.305C260.542 123.305 260.323 123.269 260.114 123.199C259.593 123.025 259.161 122.653 258.912 122.163C258.75 121.847 258.672 121.494 258.685 121.139C258.699 120.784 258.803 120.438 258.989 120.135C259.175 119.832 259.436 119.581 259.746 119.408C260.057 119.235 260.407 119.145 260.762 119.146C260.983 119.147 261.201 119.181 261.411 119.247C261.862 119.414 262.241 119.732 262.483 120.148C262.726 120.563 262.816 121.05 262.74 121.525C262.663 121.999 262.424 122.433 262.064 122.751C261.703 123.069 261.243 123.253 260.762 123.27V123.305Z" fill="#549CF1"/>
<path d="M260.762 119.448C261.022 119.445 261.28 119.5 261.516 119.607C261.753 119.714 261.964 119.871 262.133 120.068C262.303 120.265 262.427 120.497 262.498 120.747C262.569 120.997 262.584 121.26 262.543 121.516C262.502 121.773 262.405 122.017 262.259 122.233C262.114 122.448 261.923 122.629 261.7 122.763C261.478 122.897 261.228 122.981 260.97 123.008C260.712 123.036 260.45 123.007 260.204 122.923C259.756 122.775 259.385 122.455 259.173 122.033C258.961 121.612 258.925 121.123 259.073 120.675C259.189 120.318 259.415 120.007 259.718 119.787C260.022 119.566 260.387 119.448 260.762 119.448ZM260.762 118.87C260.167 118.868 259.592 119.091 259.154 119.493C258.715 119.896 258.444 120.449 258.395 121.043C258.346 121.637 258.522 122.227 258.889 122.696C259.256 123.166 259.786 123.48 260.374 123.576C260.961 123.672 261.564 123.543 262.061 123.214C262.558 122.886 262.913 122.382 263.055 121.804C263.197 121.226 263.117 120.615 262.829 120.093C262.541 119.572 262.067 119.178 261.502 118.99C261.263 118.911 261.014 118.87 260.762 118.87Z" fill="#06122C"/>
<path d="M267.49 125.517C266.94 125.517 266.413 125.299 266.025 124.91C265.636 124.522 265.418 123.995 265.418 123.445C265.418 122.896 265.636 122.369 266.025 121.98C266.413 121.592 266.94 121.373 267.49 121.373C267.817 121.374 268.14 121.451 268.432 121.601C268.724 121.75 268.976 121.966 269.168 122.232C269.359 122.497 269.486 122.804 269.536 123.128C269.586 123.452 269.559 123.783 269.456 124.094C269.32 124.508 269.056 124.868 268.703 125.123C268.35 125.379 267.926 125.517 267.49 125.517Z" fill="#549CF1"/>
<path d="M267.491 121.665C267.681 121.666 267.869 121.696 268.049 121.756C268.497 121.904 268.868 122.224 269.08 122.646C269.292 123.067 269.328 123.556 269.181 124.004C269.065 124.36 268.838 124.67 268.535 124.89C268.231 125.11 267.866 125.227 267.491 125.226C267.302 125.225 267.114 125.196 266.933 125.14C266.486 124.99 266.116 124.67 265.902 124.25C265.795 124.041 265.731 123.813 265.714 123.579C265.697 123.345 265.726 123.11 265.801 122.887C265.919 122.532 266.145 122.223 266.449 122.003C266.752 121.784 267.117 121.666 267.491 121.665ZM267.491 121.082C266.895 121.08 266.321 121.303 265.882 121.706C265.443 122.109 265.172 122.662 265.123 123.256C265.074 123.849 265.251 124.44 265.617 124.909C265.984 125.378 266.514 125.692 267.102 125.788C267.69 125.884 268.292 125.755 268.789 125.427C269.286 125.098 269.641 124.595 269.784 124.016C269.926 123.438 269.845 122.827 269.557 122.306C269.269 121.784 268.795 121.391 268.23 121.203C267.992 121.124 267.742 121.083 267.491 121.082Z" fill="#06122C"/>
<path d="M258.65 129.696C258.322 129.696 257.999 129.618 257.707 129.469C257.416 129.32 257.163 129.104 256.971 128.838C256.779 128.573 256.652 128.266 256.601 127.942C256.55 127.619 256.577 127.287 256.678 126.976C256.815 126.562 257.078 126.202 257.431 125.946C257.784 125.691 258.209 125.553 258.645 125.553C258.865 125.553 259.084 125.588 259.293 125.658C259.749 125.821 260.134 126.138 260.381 126.554C260.627 126.97 260.721 127.46 260.644 127.938C260.568 128.415 260.326 128.851 259.962 129.17C259.598 129.488 259.133 129.669 258.65 129.681V129.696Z" fill="#549CF1"/>
<path d="M258.649 125.844C258.839 125.844 259.027 125.874 259.207 125.935C259.608 126.068 259.949 126.339 260.168 126.7C260.387 127.06 260.471 127.487 260.405 127.905C260.338 128.322 260.126 128.701 259.805 128.976C259.484 129.251 259.077 129.403 258.654 129.404C258.464 129.405 258.276 129.374 258.096 129.314C257.695 129.181 257.355 128.91 257.135 128.549C256.916 128.188 256.832 127.761 256.898 127.344C256.965 126.927 257.178 126.547 257.498 126.272C257.819 125.998 258.227 125.846 258.649 125.844ZM258.649 125.261C258.052 125.259 257.476 125.482 257.036 125.885C256.597 126.289 256.325 126.843 256.276 127.438C256.226 128.033 256.403 128.625 256.771 129.095C257.138 129.566 257.669 129.881 258.259 129.977C258.848 130.073 259.452 129.944 259.95 129.615C260.448 129.285 260.804 128.781 260.946 128.201C261.089 127.621 261.007 127.009 260.719 126.487C260.43 125.964 259.955 125.569 259.388 125.381C259.15 125.302 258.9 125.261 258.649 125.261Z" fill="#06122C"/>
<path d="M262.869 116.908C262.649 116.908 262.43 116.874 262.22 116.808C261.764 116.645 261.379 116.328 261.133 115.911C260.886 115.494 260.793 115.004 260.87 114.526C260.947 114.048 261.189 113.612 261.555 113.294C261.92 112.976 262.385 112.796 262.869 112.785C263.088 112.785 263.305 112.82 263.513 112.89C263.968 113.053 264.353 113.37 264.6 113.786C264.847 114.202 264.94 114.692 264.863 115.169C264.787 115.647 264.546 116.083 264.181 116.402C263.817 116.72 263.353 116.901 262.869 116.913V116.908Z" fill="#549CF1"/>
<path d="M262.864 113.056C263.054 113.056 263.243 113.087 263.423 113.147C263.827 113.277 264.172 113.548 264.394 113.91C264.617 114.272 264.703 114.702 264.636 115.121C264.569 115.541 264.354 115.923 264.03 116.198C263.706 116.473 263.294 116.624 262.869 116.622C262.68 116.622 262.491 116.591 262.311 116.531C261.907 116.401 261.562 116.13 261.339 115.768C261.117 115.406 261.031 114.976 261.098 114.557C261.165 114.137 261.38 113.755 261.704 113.48C262.028 113.205 262.439 113.054 262.864 113.056ZM262.864 112.478C262.271 112.48 261.701 112.706 261.267 113.11C260.833 113.514 260.567 114.067 260.522 114.658C260.478 115.25 260.657 115.836 261.026 116.301C261.394 116.766 261.924 117.075 262.51 117.167C263.095 117.258 263.694 117.126 264.187 116.796C264.68 116.466 265.03 115.962 265.168 115.385C265.306 114.809 265.221 114.201 264.932 113.684C264.642 113.166 264.168 112.777 263.604 112.594C263.365 112.516 263.115 112.477 262.864 112.478Z" fill="#06122C"/>
<path d="M70.1387 132.004V42.1211C70.1387 41.6034 70.2406 41.0907 70.4388 40.6124C70.6369 40.134 70.9273 39.6994 71.2934 39.3333C71.6595 38.9672 72.0941 38.6768 72.5724 38.4787C73.0508 38.2806 73.5634 38.1786 74.0812 38.1786H203.606C204.652 38.1786 205.655 38.5938 206.395 39.333C207.135 40.0723 207.552 41.075 207.553 42.1211V132.004H70.1387Z" fill="#06122C"/>
<path d="M203.605 38.4557C204.574 38.457 205.503 38.8426 206.188 39.5279C206.874 40.2133 207.259 41.1424 207.261 42.1115V131.713H70.4246V42.1216C70.4259 41.1524 70.8115 40.2233 71.4968 39.538C72.1821 38.8527 73.1112 38.4671 74.0804 38.4657H203.605V38.4557ZM203.605 37.8875H74.0955C72.9725 37.8875 71.8956 38.3335 71.1015 39.1276C70.3074 39.9217 69.8613 40.9986 69.8613 42.1216V132.296H207.859V42.1216C207.859 40.9986 207.413 39.9217 206.619 39.1276C205.825 38.3335 204.748 37.8875 203.625 37.8875H203.605Z" fill="#06122C"/>
<path d="M120.521 134.997C119.514 134.996 118.544 134.614 117.807 133.929C117.069 133.243 116.618 132.305 116.543 131.301H162.872C162.798 132.305 162.346 133.243 161.609 133.929C160.871 134.614 159.902 134.996 158.895 134.997H120.521Z" fill="#06122C"/>
<path d="M162.545 131.587C162.406 132.456 161.962 133.246 161.293 133.817C160.624 134.388 159.774 134.703 158.895 134.705H120.52C119.641 134.703 118.791 134.388 118.122 133.817C117.453 133.246 117.009 132.456 116.87 131.587H162.545ZM163.174 131.009H116.246C116.245 131.57 116.356 132.127 116.57 132.645C116.785 133.164 117.1 133.636 117.497 134.033C117.894 134.43 118.365 134.745 118.884 134.959C119.403 135.174 119.959 135.284 120.52 135.283H158.895C159.456 135.284 160.013 135.174 160.532 134.959C161.051 134.745 161.523 134.43 161.92 134.033C162.318 133.636 162.633 133.165 162.848 132.646C163.063 132.127 163.174 131.571 163.174 131.009Z" fill="#06122C"/>
<path d="M75.1726 33.6532H208.866C210.6 33.6532 212.262 34.342 213.488 35.5679C214.714 36.7939 215.403 38.4567 215.403 40.1905V134.147H68.6504V40.1754C68.6544 38.4469 69.3428 36.7902 70.5651 35.5679C71.7874 34.3456 73.444 33.6572 75.1726 33.6532Z" fill="#FBE62E" stroke="#06122C" stroke-width="0.8" stroke-miterlimit="10"/>
<path d="M77.2498 37.8768H206.774C207.897 37.8768 208.974 38.3229 209.768 39.117C210.562 39.9111 211.008 40.988 211.008 42.111V132.296H73.0156V42.1211C73.0143 41.5642 73.1229 41.0125 73.3351 40.4976C73.5473 39.9828 73.8589 39.5148 74.2522 39.1205C74.6455 38.7263 75.1128 38.4135 75.6271 38.2001C76.1415 37.9867 76.6929 37.8768 77.2498 37.8768Z" fill="#9BCDFB" stroke="#06122C" stroke-width="0.8" stroke-linejoin="round"/>
<path d="M239.324 140.115H44.7134C44.2775 140.115 43.8551 139.965 43.5165 139.69C43.1779 139.416 42.9437 139.033 42.8528 138.607L41.7616 133.292C41.7048 133.016 41.7102 132.731 41.7774 132.457C41.8446 132.183 41.972 131.928 42.1502 131.71C42.3284 131.492 42.553 131.316 42.8076 131.196C43.0622 131.075 43.3405 131.013 43.6222 131.014H240.416C240.697 131.013 240.976 131.075 241.23 131.196C241.485 131.316 241.709 131.492 241.888 131.71C242.066 131.928 242.193 132.183 242.26 132.457C242.328 132.731 242.333 133.016 242.276 133.292L241.185 138.607C241.095 139.034 240.861 139.416 240.522 139.691C240.183 139.966 239.76 140.116 239.324 140.115Z" fill="#FBE62E" stroke="#06122C" stroke-width="0.8" stroke-miterlimit="10"/>
<path d="M119.415 131.009H166.343C166.343 132.144 165.892 133.232 165.09 134.035C164.287 134.838 163.199 135.288 162.064 135.288H123.69C122.555 135.288 121.466 134.838 120.664 134.035C119.861 133.232 119.41 132.144 119.41 131.009H119.415Z" fill="#F8BC20" stroke="#06122C" stroke-width="0.8" stroke-miterlimit="10"/>
<path d="M142.824 35.3629C142.95 35.3629 143.07 35.4127 143.159 35.5013C143.247 35.59 143.297 35.7102 143.297 35.8356V35.8708C143.297 35.9961 143.247 36.1164 143.159 36.205C143.07 36.2937 142.95 36.3435 142.824 36.3435C142.699 36.3435 142.579 36.2937 142.49 36.205C142.402 36.1164 142.352 35.9961 142.352 35.8708V35.8356C142.352 35.7102 142.402 35.59 142.49 35.5013C142.579 35.4127 142.699 35.3629 142.824 35.3629ZM142.824 34.7846C142.686 34.7839 142.549 34.8106 142.421 34.8632C142.294 34.9158 142.178 34.9932 142.08 35.0909C141.982 35.1886 141.905 35.3048 141.852 35.4326C141.8 35.5604 141.773 35.6974 141.773 35.8356V35.8708C141.773 36.0088 141.801 36.1455 141.853 36.273C141.906 36.4005 141.984 36.5163 142.081 36.6139C142.179 36.7115 142.295 36.789 142.422 36.8418C142.55 36.8946 142.686 36.9218 142.824 36.9218C143.104 36.9218 143.372 36.8112 143.569 36.6142C143.767 36.4173 143.879 36.15 143.88 35.8708V35.8356C143.88 35.6971 143.853 35.56 143.8 35.4322C143.747 35.3044 143.669 35.1883 143.571 35.0906C143.473 34.993 143.356 34.9157 143.228 34.8631C143.1 34.8106 142.963 34.7839 142.824 34.7846Z" fill="#06122C"/>
<path d="M201.629 130.37V123.013H201.719C202.127 123.015 202.517 123.177 202.804 123.466C203.092 123.754 203.253 124.145 203.253 124.552V128.832C203.253 129.239 203.092 129.629 202.804 129.918C202.517 130.206 202.127 130.369 201.719 130.37H201.629Z" fill="#06122C"/>
<path d="M201.921 123.32C202.212 123.369 202.475 123.52 202.666 123.746C202.856 123.971 202.961 124.257 202.962 124.552V128.831C202.961 129.126 202.856 129.412 202.666 129.637C202.475 129.863 202.212 130.013 201.921 130.063V123.32ZM201.72 122.726H201.322V130.657H201.704C202.189 130.657 202.653 130.464 202.995 130.122C203.338 129.78 203.53 129.315 203.53 128.831V124.552C203.53 124.068 203.338 123.603 202.995 123.261C202.653 122.919 202.189 122.726 201.704 122.726H201.72Z" fill="#06122C"/>
<path d="M203.334 124.874C203.779 124.926 204.19 125.14 204.488 125.475C204.786 125.81 204.95 126.243 204.95 126.691C204.95 127.14 204.786 127.573 204.488 127.908C204.19 128.243 203.779 128.457 203.334 128.509V124.874Z" fill="#06122C"/>
<path d="M203.615 125.236C203.839 125.309 204.043 125.435 204.208 125.603C204.393 125.788 204.527 126.018 204.599 126.269C204.671 126.521 204.677 126.787 204.618 127.042C204.558 127.297 204.435 127.533 204.26 127.727C204.084 127.921 203.862 128.067 203.615 128.152V125.236ZM203.112 124.572H203.021V128.811H203.112C203.673 128.81 204.211 128.586 204.608 128.19C205.004 127.793 205.228 127.255 205.229 126.694C205.229 126.132 205.006 125.593 204.609 125.195C204.212 124.797 203.674 124.573 203.112 124.572Z" fill="#06122C"/>
<path d="M185.486 125.065H143.285C143.024 125.065 142.812 125.277 142.812 125.538V127.846C142.812 128.107 143.024 128.318 143.285 128.318H185.486C185.747 128.318 185.959 128.107 185.959 127.846V125.538C185.959 125.277 185.747 125.065 185.486 125.065Z" fill="#06122C"/>
<path d="M143.286 124.773V125.357H185.487C185.535 125.357 185.581 125.376 185.615 125.41C185.649 125.444 185.668 125.49 185.668 125.538V127.846C185.668 127.894 185.649 127.94 185.615 127.974C185.581 128.008 185.535 128.027 185.487 128.027H143.286C143.238 128.027 143.192 128.008 143.158 127.974C143.124 127.94 143.105 127.894 143.105 127.846V125.538C143.105 125.49 143.124 125.444 143.158 125.41C143.192 125.376 143.238 125.357 143.286 125.357V124.773ZM143.286 124.773C143.083 124.773 142.889 124.854 142.745 124.997C142.602 125.141 142.521 125.335 142.521 125.538V127.846C142.521 128.049 142.602 128.243 142.745 128.386C142.889 128.53 143.083 128.61 143.286 128.61H185.487C185.689 128.61 185.884 128.53 186.027 128.386C186.171 128.243 186.251 128.049 186.251 127.846V125.538C186.251 125.335 186.171 125.141 186.027 124.997C185.884 124.854 185.689 124.773 185.487 124.773H143.286Z" fill="#06122C"/>
<path d="M189.561 127.524C189.396 127.524 189.234 127.475 189.097 127.383C188.96 127.291 188.853 127.16 188.79 127.008C188.727 126.855 188.71 126.687 188.743 126.525C188.776 126.362 188.856 126.214 188.973 126.097C189.09 125.981 189.239 125.902 189.402 125.87C189.564 125.838 189.732 125.856 189.884 125.919C190.037 125.983 190.167 126.091 190.258 126.229C190.349 126.367 190.397 126.529 190.396 126.694C190.396 126.804 190.374 126.912 190.332 127.013C190.29 127.114 190.229 127.206 190.151 127.283C190.074 127.36 189.982 127.421 189.88 127.462C189.779 127.504 189.671 127.525 189.561 127.524Z" fill="#06122C"/>
<path d="M189.56 126.151C189.668 126.15 189.773 126.181 189.863 126.24C189.953 126.299 190.023 126.383 190.065 126.483C190.107 126.582 190.119 126.691 190.098 126.797C190.078 126.902 190.027 127 189.951 127.076C189.875 127.153 189.778 127.205 189.673 127.226C189.567 127.248 189.458 127.237 189.358 127.196C189.259 127.155 189.174 127.086 189.114 126.996C189.054 126.907 189.022 126.802 189.022 126.694C189.022 126.55 189.078 126.411 189.178 126.307C189.228 126.257 189.288 126.217 189.353 126.191C189.419 126.164 189.489 126.15 189.56 126.151ZM189.56 125.568C189.337 125.568 189.119 125.634 188.934 125.757C188.749 125.881 188.605 126.057 188.519 126.263C188.434 126.469 188.412 126.695 188.455 126.914C188.499 127.132 188.606 127.333 188.764 127.49C188.921 127.648 189.122 127.755 189.34 127.799C189.559 127.842 189.785 127.82 189.991 127.735C190.197 127.649 190.373 127.505 190.497 127.32C190.62 127.135 190.686 126.917 190.686 126.694C190.687 126.546 190.658 126.399 190.602 126.262C190.546 126.125 190.463 126.001 190.358 125.896C190.253 125.791 190.129 125.708 189.992 125.652C189.855 125.596 189.708 125.567 189.56 125.568Z" fill="#06122C"/>
<path d="M193.834 127.524C193.668 127.525 193.506 127.477 193.368 127.385C193.23 127.294 193.122 127.164 193.059 127.011C192.995 126.858 192.978 126.69 193.01 126.528C193.042 126.365 193.122 126.216 193.239 126.099C193.356 125.982 193.505 125.902 193.667 125.87C193.83 125.838 193.998 125.855 194.151 125.919C194.303 125.983 194.434 126.091 194.525 126.229C194.616 126.367 194.665 126.529 194.664 126.694C194.662 126.914 194.574 127.124 194.419 127.28C194.264 127.435 194.054 127.523 193.834 127.524Z" fill="#06122C"/>
<path d="M193.835 126.151C193.942 126.151 194.047 126.183 194.136 126.242C194.226 126.302 194.295 126.387 194.336 126.486C194.377 126.585 194.388 126.695 194.367 126.8C194.346 126.905 194.295 127.002 194.219 127.078C194.143 127.154 194.046 127.206 193.941 127.227C193.835 127.248 193.726 127.237 193.627 127.196C193.528 127.155 193.443 127.085 193.383 126.996C193.323 126.906 193.291 126.801 193.291 126.694C193.291 126.623 193.306 126.552 193.333 126.486C193.36 126.42 193.4 126.36 193.451 126.31C193.501 126.259 193.561 126.219 193.627 126.192C193.693 126.165 193.763 126.151 193.835 126.151ZM193.835 125.568C193.612 125.567 193.393 125.632 193.207 125.755C193.021 125.878 192.876 126.054 192.79 126.259C192.704 126.465 192.681 126.692 192.724 126.911C192.767 127.129 192.874 127.331 193.031 127.489C193.189 127.647 193.389 127.754 193.608 127.798C193.827 127.842 194.053 127.82 194.259 127.735C194.466 127.65 194.642 127.506 194.766 127.32C194.89 127.135 194.956 126.917 194.956 126.694C194.957 126.546 194.928 126.4 194.872 126.263C194.816 126.127 194.733 126.002 194.629 125.898C194.525 125.793 194.401 125.71 194.265 125.653C194.128 125.597 193.982 125.568 193.835 125.568Z" fill="#06122C"/>
<path d="M198.216 127.524C198.05 127.524 197.889 127.475 197.751 127.383C197.614 127.291 197.507 127.16 197.444 127.008C197.381 126.855 197.365 126.687 197.397 126.525C197.43 126.362 197.51 126.214 197.627 126.097C197.744 125.981 197.894 125.902 198.056 125.87C198.218 125.838 198.386 125.856 198.539 125.919C198.691 125.983 198.821 126.091 198.912 126.229C199.003 126.367 199.051 126.529 199.05 126.694C199.05 126.804 199.029 126.912 198.987 127.013C198.945 127.114 198.883 127.206 198.806 127.283C198.728 127.36 198.636 127.421 198.535 127.462C198.433 127.504 198.325 127.525 198.216 127.524Z" fill="#06122C"/>
<path d="M198.215 126.151C198.323 126.15 198.428 126.181 198.518 126.24C198.608 126.299 198.679 126.383 198.72 126.483C198.762 126.582 198.774 126.691 198.753 126.797C198.733 126.902 198.682 127 198.606 127.076C198.53 127.153 198.433 127.205 198.328 127.226C198.222 127.248 198.113 127.237 198.014 127.196C197.914 127.155 197.829 127.086 197.769 126.996C197.709 126.907 197.677 126.802 197.677 126.694C197.677 126.551 197.734 126.413 197.834 126.312C197.935 126.21 198.072 126.152 198.215 126.151ZM198.215 125.568C198.067 125.568 197.921 125.597 197.785 125.653C197.648 125.71 197.525 125.793 197.42 125.898C197.316 126.002 197.234 126.127 197.178 126.263C197.122 126.4 197.093 126.546 197.094 126.694C197.094 126.917 197.16 127.135 197.284 127.32C197.408 127.506 197.584 127.65 197.79 127.735C197.996 127.82 198.223 127.842 198.442 127.798C198.66 127.754 198.861 127.647 199.018 127.489C199.176 127.331 199.283 127.129 199.326 126.911C199.368 126.692 199.345 126.465 199.259 126.259C199.173 126.054 199.028 125.878 198.842 125.755C198.656 125.632 198.438 125.567 198.215 125.568Z" fill="#06122C"/>
<path d="M136.195 128.112C136.183 128.112 136.171 128.107 136.162 128.098C136.153 128.09 136.147 128.079 136.145 128.067V126.106C136.145 126.106 136.145 126.071 136.195 126.061L143.657 124.326V129.857L136.195 128.112Z" fill="white"/>
<path d="M143.347 124.703V129.49L136.452 127.881V126.312L143.382 124.703H143.347ZM143.965 123.974L136.146 125.789C136.069 125.805 136 125.846 135.949 125.907C135.899 125.967 135.871 126.042 135.869 126.121V128.082C135.872 128.159 135.901 128.233 135.951 128.291C136.002 128.349 136.07 128.389 136.146 128.404L143.945 130.224V123.974H143.965Z" fill="#06122C"/>
<path d="M134.336 127.097L136.252 126.398L136.277 127.786L134.336 127.097Z" fill="#06122C"/>
<path d="M135.95 126.809V127.373L135.196 127.106L135.965 126.825L135.95 126.809ZM136.307 126.1H136.226L133.737 127.011C133.714 127.015 133.692 127.025 133.674 127.041C133.656 127.057 133.643 127.078 133.637 127.101C133.637 127.141 133.677 127.182 133.737 127.197L136.252 128.092C136.28 128.097 136.309 128.097 136.337 128.092C136.453 128.092 136.558 128.031 136.558 127.951L136.523 126.231C136.523 126.146 136.413 126.08 136.292 126.08L136.307 126.1Z" fill="#06122C"/>
<path d="M206.2 123.426H145.539V130.778H206.2V123.426Z" fill="#549CF1"/>
<path d="M145.831 123.712H205.914V130.486H145.831V123.712ZM145.248 123.134V131.069H206.493V123.134H145.248Z" fill="#06122C"/>
<path d="M144.197 130.778C144.019 130.778 143.847 130.707 143.721 130.58C143.594 130.454 143.523 130.283 143.523 130.104V124.09C143.523 123.911 143.594 123.739 143.721 123.613C143.847 123.487 144.019 123.416 144.197 123.416H145.505V130.778H144.197Z" fill="#FAE44B"/>
<path d="M145.207 123.712V130.486H144.201C144.1 130.486 144.002 130.446 143.931 130.374C143.859 130.303 143.819 130.205 143.819 130.104V124.09C143.819 123.988 143.859 123.89 143.93 123.818C144.002 123.745 144.099 123.704 144.201 123.702H145.207V123.712ZM145.785 123.124H144.196C143.94 123.124 143.694 123.226 143.513 123.407C143.332 123.588 143.23 123.834 143.23 124.09V130.124C143.23 130.38 143.332 130.626 143.513 130.807C143.694 130.988 143.94 131.09 144.196 131.09H145.785V123.134V123.124Z" fill="#06122C"/>
<path d="M206.311 130.778V123.426H206.396C206.803 123.426 207.194 123.587 207.482 123.875C207.771 124.162 207.934 124.552 207.935 124.96V129.239C207.935 129.647 207.773 130.038 207.484 130.327C207.196 130.616 206.804 130.778 206.396 130.778H206.311Z" fill="#FAE44B"/>
<path d="M206.603 123.732C206.894 123.78 207.158 123.93 207.349 124.154C207.54 124.379 207.644 124.664 207.644 124.959V129.239C207.644 129.534 207.54 129.82 207.349 130.046C207.159 130.271 206.894 130.422 206.603 130.471V123.732ZM206.397 123.134H206.02V131.069H206.397C206.882 131.069 207.348 130.876 207.691 130.533C208.034 130.19 208.227 129.724 208.227 129.239V124.959C208.226 124.475 208.032 124.01 207.689 123.668C207.346 123.326 206.881 123.134 206.397 123.134Z" fill="#06122C"/>
<path d="M208.006 125.281C208.451 125.334 208.862 125.548 209.16 125.883C209.458 126.218 209.622 126.651 209.622 127.099C209.622 127.548 209.458 127.981 209.16 128.316C208.862 128.651 208.451 128.865 208.006 128.917V125.281Z" fill="#06122C"/>
<path d="M208.297 125.644C208.603 125.746 208.868 125.942 209.056 126.204C209.244 126.466 209.345 126.78 209.345 127.102C209.345 127.424 209.244 127.738 209.056 128C208.868 128.261 208.603 128.457 208.297 128.56V125.644ZM207.794 124.98H207.709V129.219H207.794C208.073 129.22 208.349 129.167 208.607 129.061C208.864 128.956 209.099 128.8 209.296 128.604C209.494 128.408 209.651 128.175 209.758 127.918C209.865 127.661 209.921 127.385 209.922 127.107C209.922 126.544 209.698 126.004 209.3 125.606C208.902 125.208 208.362 124.985 207.799 124.985L207.794 124.98Z" fill="#06122C"/>
<path d="M190.168 125.186H147.967C147.545 125.186 147.203 125.528 147.203 125.95V128.253C147.203 128.675 147.545 129.018 147.967 129.018H190.168C190.591 129.018 190.933 128.675 190.933 128.253V125.95C190.933 125.528 190.591 125.186 190.168 125.186Z" fill="white" stroke="#06122C" stroke-width="0.8" stroke-linejoin="round"/>
<path d="M194.243 127.931C194.033 127.915 193.837 127.82 193.695 127.666C193.552 127.512 193.473 127.309 193.473 127.099C193.473 126.889 193.552 126.686 193.695 126.532C193.837 126.378 194.033 126.283 194.243 126.267C194.357 126.258 194.473 126.273 194.581 126.311C194.69 126.348 194.79 126.408 194.874 126.486C194.959 126.564 195.026 126.659 195.072 126.765C195.118 126.87 195.142 126.984 195.142 127.099C195.142 127.214 195.118 127.328 195.072 127.433C195.026 127.539 194.959 127.634 194.874 127.712C194.79 127.79 194.69 127.85 194.581 127.888C194.473 127.925 194.357 127.94 194.243 127.931Z" fill="white"/>
<path d="M194.243 126.558C194.35 126.558 194.455 126.59 194.545 126.65C194.634 126.71 194.703 126.794 194.745 126.894C194.786 126.993 194.796 127.102 194.775 127.207C194.754 127.313 194.703 127.409 194.627 127.485C194.551 127.561 194.454 127.613 194.349 127.634C194.243 127.655 194.134 127.644 194.035 127.603C193.936 127.562 193.851 127.492 193.791 127.403C193.732 127.314 193.7 127.209 193.7 127.101C193.7 126.957 193.757 126.819 193.859 126.717C193.961 126.616 194.099 126.558 194.243 126.558ZM194.243 125.975C194.02 125.974 193.801 126.039 193.616 126.162C193.43 126.286 193.285 126.461 193.199 126.667C193.112 126.873 193.089 127.099 193.132 127.318C193.175 127.537 193.282 127.738 193.439 127.896C193.597 128.054 193.797 128.162 194.016 128.206C194.235 128.25 194.462 128.228 194.668 128.143C194.874 128.057 195.05 127.913 195.174 127.728C195.298 127.542 195.364 127.324 195.364 127.101C195.365 126.954 195.336 126.807 195.28 126.671C195.224 126.534 195.142 126.41 195.037 126.305C194.933 126.201 194.809 126.118 194.673 126.061C194.537 126.004 194.39 125.975 194.243 125.975Z" fill="#06122C"/>
<path d="M198.516 127.931C198.35 127.932 198.188 127.884 198.05 127.792C197.912 127.701 197.804 127.571 197.74 127.418C197.676 127.265 197.66 127.097 197.692 126.935C197.724 126.772 197.803 126.623 197.92 126.506C198.037 126.389 198.187 126.309 198.349 126.277C198.511 126.245 198.68 126.262 198.832 126.326C198.985 126.39 199.115 126.498 199.207 126.636C199.298 126.774 199.346 126.936 199.345 127.101C199.345 127.321 199.258 127.532 199.102 127.688C198.947 127.844 198.736 127.931 198.516 127.931Z" fill="white"/>
<path d="M198.516 126.558C198.624 126.558 198.729 126.59 198.818 126.65C198.907 126.71 198.977 126.794 199.018 126.894C199.059 126.993 199.07 127.102 199.049 127.207C199.028 127.313 198.976 127.409 198.9 127.485C198.824 127.561 198.728 127.613 198.622 127.634C198.517 127.655 198.408 127.644 198.308 127.603C198.209 127.562 198.124 127.492 198.065 127.403C198.005 127.314 197.973 127.209 197.973 127.101C197.972 127.03 197.986 126.959 198.013 126.893C198.04 126.827 198.08 126.766 198.131 126.716C198.181 126.665 198.241 126.625 198.308 126.598C198.374 126.571 198.445 126.558 198.516 126.558ZM198.516 125.975C198.293 125.974 198.075 126.039 197.889 126.162C197.703 126.286 197.558 126.461 197.472 126.667C197.386 126.873 197.363 127.099 197.406 127.318C197.449 127.537 197.556 127.738 197.713 127.896C197.87 128.054 198.071 128.162 198.29 128.206C198.508 128.25 198.735 128.228 198.941 128.143C199.147 128.057 199.323 127.913 199.447 127.728C199.571 127.542 199.638 127.324 199.638 127.101C199.638 126.804 199.52 126.518 199.309 126.307C199.099 126.096 198.814 125.976 198.516 125.975Z" fill="#06122C"/>
<path d="M202.896 127.931C203.354 127.931 203.726 127.56 203.726 127.101C203.726 126.643 203.354 126.272 202.896 126.272C202.438 126.272 202.066 126.643 202.066 127.101C202.066 127.56 202.438 127.931 202.896 127.931Z" fill="white"/>
<path d="M202.897 126.558C203.005 126.558 203.11 126.59 203.199 126.65C203.288 126.71 203.358 126.794 203.399 126.894C203.44 126.993 203.451 127.102 203.43 127.207C203.409 127.313 203.357 127.409 203.281 127.485C203.205 127.561 203.108 127.613 203.003 127.634C202.898 127.655 202.788 127.644 202.689 127.603C202.59 127.562 202.505 127.492 202.446 127.403C202.386 127.314 202.354 127.209 202.354 127.101C202.354 126.957 202.411 126.819 202.513 126.717C202.615 126.616 202.753 126.558 202.897 126.558ZM202.897 125.975C202.674 125.974 202.456 126.039 202.27 126.162C202.084 126.286 201.939 126.461 201.853 126.667C201.767 126.873 201.744 127.099 201.787 127.318C201.83 127.537 201.936 127.738 202.094 127.896C202.251 128.054 202.452 128.162 202.67 128.206C202.889 128.25 203.116 128.228 203.322 128.143C203.528 128.057 203.704 127.913 203.828 127.728C203.952 127.542 204.018 127.324 204.018 127.101C204.019 126.954 203.991 126.807 203.935 126.671C203.879 126.534 203.796 126.41 203.692 126.305C203.588 126.201 203.464 126.118 203.327 126.061C203.191 126.004 203.045 125.975 202.897 125.975Z" fill="#06122C"/>
<path d="M209.983 29.4748L171.438 57.688V59.884L215.692 28.321" fill="#007D00"/>
<path d="M209.983 29.4748L171.438 57.688V59.884L215.692 28.321" stroke="#231F20" stroke-width="0.8" stroke-miterlimit="10"/>
<path d="M267.362 45.6615C267.362 45.6615 265.488 44.675 259.968 45.0138C257.27 45.1768 252.381 46.8495 251.956 42.286C251.416 36.4358 265.535 38.5374 265.535 38.5374C265.535 38.5374 264.87 33.6951 264.068 31.5806L263.463 31.4262C252.252 28.6641 247.036 36.5387 242.241 30.7442C238.965 26.7897 244.759 25.1256 246.569 24.6667C252.788 23.0755 260.097 24.0877 260.097 24.0877L260.44 23.9762C259.193 21.8341 257.783 19.7908 256.224 17.8643C256.125 17.8428 256.026 17.83 255.923 17.8042C243.056 14.7376 237.601 21.6386 231.39 21.9818C229.533 22.0847 225.304 17.0408 232.595 13.6782C239.578 10.4657 248.641 11.182 249.468 11.1734C243.035 6.10808 235.859 3.78771 229.79 4.89857C212.094 8.13249 213.848 26.1464 215.692 28.3038C213.187 26.9742 195.225 29.1873 195.924 47.1755C196.169 53.3388 199.99 59.8152 206.342 65.0092C206.171 64.1986 203.494 55.5091 205.111 47.999C206.797 40.1458 212.643 43.1738 212.947 44.9967C213.968 51.1343 208.427 57.9667 214.234 69.8473C214.281 69.9416 214.316 70.036 214.358 70.1303C216.571 71.2324 218.865 72.163 221.221 72.9139C221.251 72.6866 221.259 72.5494 221.259 72.5494C221.259 72.5494 218.686 65.644 218.87 59.2234C218.931 57.3576 219.299 51.3401 223.859 53.6734C230.562 57.1046 224.013 63.8984 229.156 74.2392L229.439 74.7925C231.677 75.1142 236.546 74.711 236.546 74.711C236.546 74.711 231.399 61.385 237.24 60.6387C241.791 60.0554 241.225 65.1937 241.654 67.8657C242.512 73.3257 243.897 74.9383 243.897 74.9383C251.44 73.9938 258.757 71.7229 265.509 68.2303C267.452 60.8754 268.08 53.2348 267.362 45.6615ZM216.048 40.7763C215.015 41.1322 212.094 40.0214 212.085 38.9277C212.064 37.092 217.404 34.3513 218.665 35.6809C219.651 36.7231 217.404 40.313 216.048 40.7763ZM226.308 49.4101C225.63 49.7875 223.601 48.9812 223.447 48.2349C223.181 46.9482 225.96 43.8601 227.131 44.4605C228.302 45.061 227.401 48.801 226.308 49.4101ZM228.13 25.6961C227.976 27.12 224.961 30.0966 223.73 29.3632C222.152 28.4196 223.666 22.6122 225.446 22.2305C226.531 22.0032 228.251 24.6109 228.13 25.6961ZM234.135 35.7109C233.277 34.6944 235.696 31.3104 237.017 31.2889C237.789 31.2889 239.007 33.086 238.784 33.828C238.437 35.029 234.946 36.676 234.144 35.7109H234.135ZM238.917 57.3705C238.531 57.8208 236.867 57.7994 236.554 57.289C236.022 56.4312 237.193 53.4889 238.193 53.609C239.192 53.7291 239.539 56.6414 238.917 57.3705ZM249.31 44.3962C248.735 45.1596 245.801 45.4127 245.484 44.5077C245.166 43.6027 247.77 41.7756 248.718 42.1101C249.275 42.3031 249.666 43.9458 249.31 44.3962Z" fill="#2AE21D" stroke="#231F20" stroke-width="0.8" stroke-miterlimit="10"/>
<path d="M215.834 64.6962C215.088 56.2297 215.954 44.9667 223.503 39.6569C224.607 38.9343 225.801 38.3576 227.054 37.9413C227.084 37.93 227.116 37.9249 227.148 37.9262C227.18 37.9276 227.212 37.9354 227.241 37.9492C227.27 37.9629 227.296 37.9824 227.318 38.0064C227.339 38.0305 227.355 38.0585 227.366 38.089C227.376 38.1194 227.38 38.1517 227.378 38.1838C227.375 38.2158 227.367 38.2471 227.352 38.2757C227.337 38.3044 227.317 38.3298 227.292 38.3504C227.268 38.371 227.239 38.3865 227.208 38.3959C225.987 38.7802 224.819 39.3193 223.734 40C216.237 45.1168 215.225 56.3455 215.834 64.6876V64.6962Z" fill="#85ED73"/>
<path d="M231.364 69.4958C230.935 62.6333 230.154 48.9085 232.976 42.9038C233.006 42.847 233.058 42.8044 233.119 42.7855C233.181 42.7666 233.248 42.7729 233.304 42.803C233.361 42.8332 233.404 42.8847 233.423 42.9462C233.442 43.0077 233.435 43.0743 233.405 43.1311C230.54 49.0285 231.081 62.6505 231.368 69.4786L231.364 69.4958Z" fill="#85ED73"/>
<path d="M251.785 68.4276C247.642 63.6625 245.429 57.4992 244.193 51.383C244.182 51.3199 244.196 51.2548 244.233 51.2022C244.269 51.1495 244.325 51.1135 244.388 51.1021C244.452 51.0907 244.517 51.1049 244.569 51.1415C244.622 51.1781 244.658 51.2341 244.669 51.2973C245.737 57.4091 247.787 63.5853 251.785 68.4276Z" fill="#85ED73"/>
<path d="M199.922 50.1692C200.051 39.5496 205.892 30.9501 216.924 29.7835C216.988 29.7774 217.051 29.7963 217.102 29.8363C217.152 29.8763 217.185 29.9342 217.194 29.9979C217.2 30.0621 217.18 30.1261 217.139 30.1759C217.098 30.2257 217.039 30.2573 216.975 30.2638C214.575 30.4882 212.232 31.1237 210.048 32.1424C203.327 35.3506 200.042 43.0108 199.922 50.1563V50.1692Z" fill="#85ED73"/>
<path d="M267.374 45.6615C267.374 45.6615 265.495 44.675 259.98 45.0095C257.282 45.1768 252.384 46.8495 251.968 42.2817C251.423 36.4358 265.543 38.5331 265.543 38.5331C265.543 38.5331 264.878 33.6951 264.076 31.5806L263.471 31.4219C252.26 28.6598 247.044 36.5387 242.245 30.74C238.972 26.7898 244.771 25.1256 246.577 24.6624C252.8 23.0755 260.104 24.092 260.104 24.092L260.452 23.9719C259.2 21.8327 257.79 19.791 256.231 17.8643C256.132 17.8386 256.034 17.83 255.931 17.8C243.064 14.7376 237.612 21.6387 231.398 21.9818C229.545 22.0804 225.312 17.0408 232.607 13.6782C239.585 10.4615 248.648 11.182 249.476 11.1691C243.042 6.10809 235.867 3.78773 229.798 4.89859C212.097 8.13251 213.856 26.1464 215.7 28.3038L265.513 68.1917C267.451 60.8492 268.081 53.2226 267.374 45.6615ZM228.142 25.6789C227.984 27.1029 224.964 30.0795 223.737 29.3418C222.163 28.3982 223.673 22.5908 225.453 22.2134C226.543 22.0032 228.262 24.6067 228.142 25.6961V25.6789ZM238.805 33.8281C238.445 35.029 234.945 36.676 234.151 35.7109C233.358 34.7459 235.712 31.3104 237.033 31.2847C237.805 31.2761 239.024 33.0861 238.805 33.8281ZM249.317 44.3748C248.747 45.1425 245.809 45.3956 245.491 44.4906C245.174 43.5856 247.773 41.7542 248.73 42.0887C249.283 42.3075 249.673 43.9201 249.317 44.3748Z" fill="#00A700" stroke="#231F20" stroke-width="0.8" stroke-miterlimit="10"/>
<path d="M251.21 20.545C242.941 21.7631 232.197 25.2029 228.843 33.6394C228.413 34.8444 228.14 36.1001 228.032 37.3751C228.029 37.4067 228.02 37.4373 228.005 37.4653C227.99 37.4932 227.97 37.5179 227.945 37.5381C227.921 37.5582 227.893 37.5732 227.862 37.5825C227.832 37.5917 227.8 37.5948 227.769 37.5917C227.737 37.5886 227.706 37.5793 227.678 37.5644C227.65 37.5495 227.626 37.5292 227.606 37.5047C227.585 37.4802 227.57 37.452 227.561 37.4217C227.552 37.3913 227.549 37.3595 227.552 37.3279C227.681 36.0076 227.982 34.7098 228.448 33.4678C231.983 24.9541 242.795 21.6387 251.21 20.5278V20.545Z" fill="#85ED73"/>
<path d="M259.282 34.6517C252.591 35.8526 239.124 38.3102 234.016 42.3719C233.968 42.4146 233.905 42.4365 233.841 42.4329C233.777 42.4293 233.717 42.4004 233.675 42.3526C233.632 42.3048 233.61 42.2421 233.614 42.1781C233.617 42.1142 233.646 42.0543 233.694 42.0116C238.922 37.9542 252.484 35.7368 259.282 34.6388V34.6517Z" fill="#85ED73"/>
<path d="M263.167 54.2739C257.591 51.426 251.098 50.7741 244.9 51.0614C244.836 51.0648 244.774 51.0428 244.726 51.0002C244.679 50.9575 244.65 50.8978 244.647 50.8341C244.643 50.7704 244.665 50.7079 244.708 50.6605C244.751 50.613 244.81 50.5844 244.874 50.581C251.11 50.4524 257.613 51.2673 263.167 54.2739Z" fill="#85ED73"/>
<path d="M233.561 8.17981C226.604 9.85682 219.836 14.7377 218.18 21.999C217.66 24.3515 217.551 26.7764 217.859 29.166C217.866 29.2296 217.848 29.2935 217.809 29.344C217.77 29.3946 217.712 29.4277 217.649 29.4362C217.617 29.4404 217.584 29.4381 217.553 29.4295C217.522 29.4209 217.493 29.4062 217.468 29.3862C217.443 29.3662 217.422 29.3413 217.407 29.3131C217.391 29.2849 217.382 29.2538 217.378 29.2218C217.107 26.7835 217.26 24.3168 217.829 21.9304C219.626 14.6391 226.51 9.77534 233.561 8.20556V8.17981Z" fill="#85ED73"/>
<path d="M215.691 28.321L265.508 68.2304" stroke="#231F20" stroke-width="0.8" stroke-miterlimit="10"/>
<path d="M202.946 47.0425L202.808 46.8881C197.233 40.1243 191.571 41.5998 188.144 39.3009C187.119 38.6103 186.892 34.2484 192.099 35.385C197.083 36.4701 201.603 40.4718 202.032 40.7977C200.642 35.5351 197.773 31.4477 194.119 29.6077C183.448 24.2507 177.181 34.4971 177.297 36.3757C176.5 34.6601 166.099 28.6555 159.283 38.4731C156.95 41.8314 156.388 46.7938 157.675 52.0821C157.907 51.5846 159.961 45.9102 163.821 42.5777C167.853 39.0907 169.736 43.028 169.165 44.126C167.257 47.7845 161.587 49.1913 159.91 57.7994C159.91 57.868 159.88 57.9324 159.862 57.9967C160.598 59.4678 161.445 60.8802 162.397 62.2214C162.504 62.1142 162.565 62.0456 162.565 62.0456C162.565 62.0456 163.954 57.3534 166.622 54.0294C167.398 53.0643 169.993 50.0191 171.481 53.0858C173.669 57.5721 167.48 58.5629 166.073 66.0944C166.047 66.2359 166.021 66.3689 166 66.5233C167.055 67.587 169.8 69.3197 169.8 69.3197C169.8 69.3197 172.404 60.2099 175.805 62.1442C178.451 63.6539 176.096 66.1459 175.256 67.7199C173.54 70.9624 173.617 72.365 173.617 72.365C177.999 74.8756 182.791 76.5905 187.771 77.4303C191.729 74.3091 195.105 70.5137 197.743 66.2188C197.743 66.2188 197.143 64.9321 194.085 62.9205C192.592 61.9298 189.332 60.8618 190.932 58.2712C192.982 54.9601 199.622 61.7024 199.622 61.7024C199.622 61.7024 201.204 58.876 201.62 57.4349C201.539 57.3276 201.457 57.2204 201.363 57.1089C196.529 51.1643 190.64 53.2488 190.396 48.2692C190.242 44.8637 193.973 46.3005 195.114 46.7766C199.047 48.4193 202.512 51.8763 202.512 51.8763L202.74 51.9535C202.934 50.3242 203.003 48.6824 202.946 47.0425ZM171.863 42.1874C171.13 41.8486 170.148 39.7684 170.688 39.1851C171.61 38.1943 175.869 39.451 175.865 40.8063C175.869 41.8571 172.824 42.6292 171.863 42.1874ZM174.865 52.288C174.055 52.288 172.292 50.8126 172.536 50.0449C172.965 48.7581 177.353 48.1234 177.915 49.3543C178.361 50.3194 175.925 52.2923 174.87 52.288H174.865ZM180.368 40.3345C179.712 39.1465 182.847 36.0069 184.134 36.4315C184.902 36.6888 185.026 39.0049 184.563 39.6397C183.915 40.4889 180.883 41.261 180.373 40.3345H180.368ZM187.6 58.6915C186.669 58.8417 184.246 57.4563 184.494 56.547C184.812 55.3804 188.783 55.3075 189.328 56.3798C189.667 57.0188 188.307 58.5715 187.604 58.6915H187.6Z" fill="#2AE21D" stroke="#231F20" stroke-width="0.8" stroke-miterlimit="10"/>
<path d="M162.844 55.702C166.245 50.1821 172.348 43.5641 179.502 45.9402C179.532 45.9509 179.56 45.9674 179.583 45.9887C179.607 46.01 179.626 46.0357 179.639 46.0644C179.653 46.0931 179.66 46.1242 179.662 46.1558C179.664 46.1875 179.659 46.2192 179.648 46.249C179.637 46.2789 179.621 46.3063 179.6 46.3298C179.578 46.3533 179.553 46.3723 179.524 46.3859C179.495 46.3994 179.464 46.4072 179.433 46.4087C179.401 46.4103 179.369 46.4056 179.339 46.3949C172.4 43.9287 166.301 50.4094 162.844 55.702Z" fill="#85ED73"/>
<path d="M169.152 64.4517C171.563 60.7288 174.115 57.0702 177.121 53.802C178.12 52.6717 179.291 51.7063 180.591 50.9412C180.62 50.9176 180.654 50.9008 180.69 50.8922C180.726 50.8836 180.764 50.8834 180.8 50.8916C180.836 50.8998 180.87 50.9162 180.899 50.9395C180.928 50.9628 180.952 50.9924 180.968 51.0261C180.983 51.0598 180.991 51.0967 180.991 51.1339C180.99 51.1711 180.981 51.2077 180.964 51.2409C180.947 51.2741 180.923 51.303 180.893 51.3254C180.864 51.3478 180.829 51.3631 180.793 51.3701C179.517 52.0745 178.359 52.9747 177.361 54.0379C174.278 57.2118 171.636 60.7931 169.131 64.4388L169.152 64.4517Z" fill="#85ED73"/>
<path d="M180.39 72.039C180.068 67.8572 181.338 63.6926 183.105 59.9397C183.115 59.9069 183.133 59.8768 183.156 59.8514C183.179 59.8259 183.207 59.8057 183.238 59.7921C183.27 59.7785 183.304 59.7718 183.338 59.7725C183.373 59.7732 183.407 59.7813 183.438 59.7961C183.469 59.811 183.496 59.8323 183.518 59.8587C183.54 59.885 183.556 59.9158 183.565 59.9489C183.574 59.982 183.576 60.0167 183.571 60.0507C183.565 60.0846 183.553 60.1169 183.534 60.1455C181.634 63.7955 180.223 67.8658 180.381 72.039H180.39Z" fill="#85ED73"/>
<path d="M160.213 41.6513C164.442 36.0756 171.15 33.7938 177.408 37.5767C177.463 37.6082 177.503 37.6601 177.52 37.7211C177.537 37.7822 177.529 37.8474 177.498 37.9027C177.482 37.9313 177.46 37.9563 177.434 37.9763C177.408 37.9962 177.378 38.0106 177.347 38.0187C177.315 38.0267 177.282 38.0282 177.25 38.023C177.217 38.0178 177.186 38.006 177.159 37.9884C175.809 37.1524 174.324 36.5561 172.771 36.2257C167.946 35.222 163.147 37.9413 160.213 41.6684V41.6513Z" fill="#85ED73"/>
<path d="M202.941 47.0425C202.898 46.9867 202.851 46.9395 202.808 46.8881C197.232 40.1243 191.57 41.5997 188.143 39.2965C187.118 38.6102 186.891 34.2483 192.102 35.3849C197.082 36.47 201.602 40.4717 202.031 40.7976C200.637 35.535 197.777 31.4433 194.118 29.6119C183.447 24.2549 177.181 34.4971 177.296 36.3799L187.74 77.4216C191.708 74.3056 195.094 70.513 197.742 66.2187C197.742 66.2187 197.146 64.932 194.088 62.9161C192.591 61.9254 189.332 60.8574 190.931 58.2711C192.981 54.96 199.621 61.7024 199.621 61.7024C199.621 61.7024 201.204 58.8759 201.624 57.4133C201.542 57.3061 201.457 57.2032 201.362 57.0917C196.528 51.1471 190.64 53.2315 190.391 48.252C190.241 44.8465 193.972 46.279 195.109 46.7594C199.038 48.4021 202.503 51.859 202.503 51.859L202.73 51.9362C202.928 50.3129 202.998 48.6767 202.941 47.0425ZM180.372 40.3387C179.716 39.1507 182.851 36.0025 184.138 36.4314C184.905 36.6845 185.03 39.0048 184.566 39.6396C183.914 40.4888 180.882 41.2609 180.372 40.3387ZM187.603 58.6915C186.677 58.8459 184.253 57.4605 184.498 56.5469C184.815 55.376 188.787 55.3074 189.332 56.3797C189.666 57.0144 188.306 58.5757 187.603 58.6915Z" fill="#00A700" stroke="#231F20" stroke-width="0.8" stroke-miterlimit="10"/>
<path d="M199.223 46.4464C193.647 43.4441 185.202 40.6734 180.287 46.1504C180.266 46.1752 180.241 46.1956 180.212 46.2105C180.184 46.2253 180.152 46.2342 180.12 46.2367C180.088 46.2393 180.056 46.2353 180.026 46.2252C179.995 46.215 179.967 46.1988 179.943 46.1775C179.919 46.1563 179.899 46.1304 179.885 46.1014C179.871 46.0724 179.863 46.0409 179.862 46.0088C179.86 45.9766 179.865 45.9445 179.876 45.9143C179.887 45.8841 179.904 45.8565 179.926 45.8331C185.073 40.3259 193.591 43.221 199.227 46.4464H199.223Z" fill="#85ED73"/>
<path d="M197.863 57.1477C193.95 55.0741 189.869 53.3338 185.665 51.9451C184.281 51.4824 182.834 51.2407 181.376 51.2288C181.312 51.2339 181.249 51.2135 181.2 51.1721C181.151 51.1307 181.121 51.0716 181.116 51.0079C181.111 50.9442 181.131 50.8811 181.173 50.8324C181.214 50.7838 181.273 50.7535 181.337 50.7484C182.846 50.7979 184.337 51.0874 185.755 51.6062C189.962 53.0388 193.951 55.0374 197.845 57.1519L197.863 57.1477Z" fill="#85ED73"/>
<path d="M191.619 69.1824C189.766 65.4509 186.592 62.543 183.161 60.244C183.108 60.2071 183.073 60.1508 183.062 60.0877C183.051 60.0245 183.066 59.9597 183.103 59.9074C183.14 59.855 183.196 59.8195 183.259 59.8087C183.322 59.7978 183.387 59.8125 183.44 59.8495C186.789 62.3028 189.895 65.3565 191.614 69.1866L191.619 69.1824Z" fill="#85ED73"/>
<path d="M194.813 32.8459C188.495 30.1781 181.65 31.4348 178.18 37.7311C178.148 37.7864 178.095 37.8268 178.033 37.8436C177.972 37.8604 177.906 37.8524 177.85 37.8212C177.821 37.8052 177.796 37.7837 177.776 37.7577C177.756 37.7318 177.742 37.702 177.734 37.6703C177.726 37.6385 177.724 37.6055 177.73 37.5732C177.735 37.5409 177.747 37.51 177.764 37.4823C181.453 31.1689 188.44 29.9637 194.813 32.8459Z" fill="#85ED73"/>
<path d="M177.301 36.3757L187.745 77.4217" stroke="#231F20" stroke-width="0.8" stroke-miterlimit="10"/>
</svg>
