<svg width="288" height="160" viewBox="0 0 288 160" fill="none" xmlns="http://www.w3.org/2000/svg">
<path d="M222.995 98.6446L85.19 125.427L63.4668 36.7583C63.2485 35.8782 63.25 35.1085 63.3617 34.229C63.4735 33.3496 63.805 32.5805 64.2466 31.8117C64.6882 31.0428 65.3495 30.4943 66.0107 29.9458C66.7817 29.5075 67.5527 29.0691 68.4332 28.9609L193.581 4.57315C195.232 4.24648 196.881 4.57956 198.31 5.462C199.739 6.34444 200.726 7.66585 201.053 9.31586L222.995 98.6446Z" fill="#519AF4" stroke="#06122C" stroke-width="0.8" stroke-linecap="round" stroke-linejoin="round"/>
<path d="M273.462 116.556L137.195 144.441C134.994 144.876 132.683 144.652 130.705 143.658L84.8693 120.258L85.4081 126.087L131.354 149.377C133.332 150.371 135.532 150.705 137.624 150.269L274 122.385C275.101 122.057 275.873 121.179 275.766 119.639L275.227 114.25L273.462 116.556Z" fill="#00AC6B" stroke="#06122C" stroke-width="0.8" stroke-linecap="round" stroke-linejoin="round"/>
<path d="M221.794 92.265L84.9773 120.259L131.033 143.659C132.902 144.543 134.881 144.876 136.973 144.441L273.57 116.556C274.01 116.447 274.45 116.228 274.781 115.899C275.112 115.57 275.333 115.13 275.334 114.581C275.335 114.141 275.226 113.591 275.006 113.26C274.787 112.93 274.347 112.599 273.908 112.379L221.794 92.265Z" fill="#519AF4" stroke="#06122C" stroke-width="0.8" stroke-linecap="round" stroke-linejoin="round"/>
<path d="M216.024 120.293L214.373 120.62L211.621 121.164L209.97 121.491L199.623 123.56L197.972 123.887L195.331 124.431L193.68 124.758L183.333 126.937L181.682 127.264L179.15 127.809L177.499 128.135L167.152 130.315L165.501 130.641L162.97 131.186L161.319 131.513L150.862 133.692C150.422 133.801 150.421 134.021 150.751 134.241L153.829 135.677C154.379 135.898 154.928 136.009 155.479 135.9L165.936 133.721L167.587 133.394L170.118 132.849L171.769 132.523L182.226 130.344L183.877 130.017L186.409 129.472L188.06 129.146L198.516 126.967L200.167 126.64L202.809 126.095L204.46 125.769L214.917 123.59L216.568 123.263L219.32 122.719L220.971 122.392L231.427 120.213C231.868 120.104 231.868 119.884 231.429 119.663L227.8 118.227C227.251 118.006 226.701 118.005 226.15 118.114L216.024 120.293Z" fill="#00AC6B" stroke="#06122C" stroke-width="0.8" stroke-miterlimit="10"/>
<path d="M216.024 120.293L214.373 120.62L211.621 121.164L209.97 121.491L199.623 123.56L197.972 123.887L195.331 124.431L193.68 124.758L183.333 126.937L181.682 127.264L179.15 127.809L177.499 128.135L167.152 130.315L165.501 130.641L162.97 131.186L161.319 131.513L150.862 133.692C150.422 133.801 150.421 134.021 150.751 134.241L153.829 135.677C154.379 135.898 154.928 136.009 155.479 135.9L165.936 133.721L167.587 133.394L170.118 132.849L171.769 132.523L182.226 130.344L183.877 130.017L186.409 129.472L188.06 129.146L198.516 126.967L200.167 126.64L202.809 126.095L204.46 125.769L214.917 123.59L216.568 123.263L219.32 122.719L220.971 122.392L231.427 120.213C231.868 120.104 231.868 119.884 231.429 119.663L227.8 118.227C227.251 118.006 226.701 118.005 226.15 118.114L216.024 120.293Z" fill="#00AC6B" stroke="#06122C" stroke-width="0.8" stroke-miterlimit="10"/>
<path d="M206.898 116.427C206.457 116.536 206.457 116.756 206.896 116.977L210.304 118.413C210.854 118.634 211.404 118.635 211.955 118.526L222.191 116.456C222.631 116.347 222.632 116.127 222.192 115.907L218.564 114.47C218.014 114.249 217.464 114.248 216.914 114.357L206.898 116.427Z" fill="#00AC6B" stroke="#06122C" stroke-width="0.8" stroke-miterlimit="10"/>
<path d="M206.898 116.427C206.457 116.536 206.457 116.756 206.896 116.977L210.304 118.413C210.854 118.634 211.404 118.635 211.955 118.526L222.191 116.456C222.631 116.347 222.632 116.127 222.192 115.907L218.564 114.47C218.014 114.249 217.464 114.248 216.914 114.357L206.898 116.427Z" fill="#00AC6B" stroke="#06122C" stroke-width="0.8" stroke-miterlimit="10"/>
<path d="M158.354 126.339C157.914 126.448 157.913 126.668 158.243 126.888L161.431 128.324C161.981 128.545 162.531 128.546 163.081 128.547L173.428 126.478C173.868 126.369 173.868 126.149 173.539 125.928L170.241 124.383C169.691 124.162 169.141 124.161 168.591 124.159L158.354 126.339Z" fill="#00AC6B" stroke="#06122C" stroke-width="0.8" stroke-miterlimit="10"/>
<path d="M158.354 126.339C157.914 126.448 157.913 126.668 158.243 126.888L161.431 128.324C161.981 128.545 162.531 128.546 163.081 128.547L173.428 126.478C173.868 126.369 173.868 126.149 173.539 125.928L170.241 124.383C169.691 124.162 169.141 124.161 168.591 124.159L158.354 126.339Z" fill="#00AC6B" stroke="#06122C" stroke-width="0.8" stroke-miterlimit="10"/>
<path d="M139.99 121.795C140.431 121.686 140.431 121.466 140.101 121.245L136.913 119.81C136.364 119.589 135.814 119.588 135.263 119.586L125.357 121.656C124.917 121.766 124.806 121.985 125.246 122.206L128.324 123.751C128.873 123.972 129.423 124.083 129.974 123.975L139.99 121.795Z" fill="#00AC6B" stroke="#06122C" stroke-width="0.8" stroke-miterlimit="10"/>
<path d="M139.99 121.795C140.431 121.686 140.431 121.466 140.101 121.245L136.913 119.81C136.364 119.589 135.814 119.588 135.263 119.586L125.357 121.656C124.917 121.766 124.806 121.985 125.246 122.206L128.324 123.751C128.873 123.972 129.423 124.083 129.974 123.975L139.99 121.795Z" fill="#00AC6B" stroke="#06122C" stroke-width="0.8" stroke-miterlimit="10"/>
<path d="M174.427 123.071C173.986 123.18 173.986 123.4 174.316 123.621L177.614 125.057C178.163 125.278 178.713 125.279 179.264 125.28L189.5 123.21C189.94 123.101 189.941 122.881 189.611 122.661L186.203 121.225C185.653 121.004 185.103 121.003 184.553 121.002L174.427 123.071Z" fill="#00AC6B" stroke="#06122C" stroke-width="0.8" stroke-miterlimit="10"/>
<path d="M174.427 123.071C173.986 123.18 173.986 123.4 174.316 123.621L177.614 125.057C178.163 125.278 178.713 125.279 179.264 125.28L189.5 123.21C189.94 123.101 189.941 122.881 189.611 122.661L186.203 121.225C185.653 121.004 185.103 121.003 184.553 121.002L174.427 123.071Z" fill="#00AC6B" stroke="#06122C" stroke-width="0.8" stroke-miterlimit="10"/>
<path d="M190.605 119.694C190.165 119.803 190.165 120.023 190.494 120.243L193.902 121.679C194.452 121.9 195.002 121.901 195.552 121.902L205.789 119.833C206.229 119.724 206.23 119.504 205.79 119.283L202.272 117.847C201.722 117.626 201.172 117.625 200.622 117.734L190.605 119.694Z" fill="#00AC6B" stroke="#06122C" stroke-width="0.8" stroke-miterlimit="10"/>
<path d="M190.605 119.694C190.165 119.803 190.165 120.023 190.494 120.243L193.902 121.679C194.452 121.9 195.002 121.901 195.552 121.902L205.789 119.833C206.229 119.724 206.23 119.504 205.79 119.283L202.272 117.847C201.722 117.626 201.172 117.625 200.622 117.734L190.605 119.694Z" fill="#00AC6B" stroke="#06122C" stroke-width="0.8" stroke-miterlimit="10"/>
<path d="M232.419 116.916C231.979 117.025 231.978 117.245 232.418 117.466L236.046 118.902C236.596 119.123 237.146 119.124 237.696 119.015L248.043 116.946C248.483 116.837 248.484 116.617 248.044 116.507L244.306 115.07C243.756 114.849 243.206 114.848 242.655 114.957L232.419 116.916Z" fill="#00AC6B" stroke="#06122C" stroke-width="0.8" stroke-miterlimit="10"/>
<path d="M232.419 116.916C231.979 117.025 231.978 117.245 232.418 117.466L236.046 118.902C236.596 119.123 237.146 119.124 237.696 119.015L248.043 116.946C248.483 116.837 248.484 116.617 248.044 116.507L244.306 115.07C243.756 114.849 243.206 114.848 242.655 114.957L232.419 116.916Z" fill="#00AC6B" stroke="#06122C" stroke-width="0.8" stroke-miterlimit="10"/>
<path d="M165.63 119.095C165.19 119.204 165.19 119.424 165.519 119.645L168.817 121.081C169.367 121.302 169.917 121.303 170.467 121.304L180.594 119.234C181.034 119.125 181.035 118.905 180.705 118.685L177.297 117.248C176.747 117.027 176.197 117.026 175.647 117.025L165.63 119.095Z" fill="#00AC6B" stroke="#06122C" stroke-width="0.8" stroke-miterlimit="10"/>
<path d="M165.63 119.095C165.19 119.204 165.19 119.424 165.519 119.645L168.817 121.081C169.367 121.302 169.917 121.303 170.467 121.304L180.594 119.234C181.034 119.125 181.035 118.905 180.705 118.685L177.297 117.248C176.747 117.027 176.197 117.026 175.647 117.025L165.63 119.095Z" fill="#00AC6B" stroke="#06122C" stroke-width="0.8" stroke-miterlimit="10"/>
<path d="M149.67 122.363C149.23 122.472 149.229 122.692 149.559 122.913L152.747 124.349C153.297 124.569 153.847 124.571 154.397 124.572L164.523 122.502C164.964 122.393 164.964 122.173 164.635 121.952L161.337 120.517C160.787 120.296 160.237 120.295 159.687 120.294L149.67 122.363Z" fill="#00AC6B" stroke="#06122C" stroke-width="0.8" stroke-miterlimit="10"/>
<path d="M149.67 122.363C149.23 122.472 149.229 122.692 149.559 122.913L152.747 124.349C153.297 124.569 153.847 124.571 154.397 124.572L164.523 122.502C164.964 122.393 164.964 122.173 164.635 121.952L161.337 120.517C160.787 120.296 160.237 120.295 159.687 120.294L149.67 122.363Z" fill="#00AC6B" stroke="#06122C" stroke-width="0.8" stroke-miterlimit="10"/>
<path d="M223.076 113.05C222.636 113.159 222.635 113.379 223.075 113.599L226.703 115.036C227.253 115.257 227.803 115.258 228.353 115.149L238.59 113.08C239.03 112.971 239.031 112.751 238.591 112.64L234.853 111.203C234.303 110.982 233.753 110.981 233.202 111.09L223.076 113.05Z" fill="#00AC6B" stroke="#06122C" stroke-width="0.8" stroke-miterlimit="10"/>
<path d="M223.076 113.05C222.636 113.159 222.635 113.379 223.075 113.599L226.703 115.036C227.253 115.257 227.803 115.258 228.353 115.149L238.59 113.08C239.03 112.971 239.031 112.751 238.591 112.64L234.853 111.203C234.303 110.982 233.753 110.981 233.202 111.09L223.076 113.05Z" fill="#00AC6B" stroke="#06122C" stroke-width="0.8" stroke-miterlimit="10"/>
<path d="M197.66 112.561C197.22 112.67 197.219 112.89 197.659 113.11L201.177 114.547C201.727 114.768 202.277 114.769 202.827 114.66L212.843 112.59C213.284 112.481 213.284 112.261 212.845 112.04L209.216 110.604C208.667 110.383 208.117 110.382 207.566 110.491L197.66 112.561Z" fill="#00AC6B" stroke="#06122C" stroke-width="0.8" stroke-miterlimit="10"/>
<path d="M197.66 112.561C197.22 112.67 197.219 112.89 197.659 113.11L201.177 114.547C201.727 114.768 202.277 114.769 202.827 114.66L212.843 112.59C213.284 112.481 213.284 112.261 212.845 112.04L209.216 110.604C208.667 110.383 208.117 110.382 207.566 110.491L197.66 112.561Z" fill="#00AC6B" stroke="#06122C" stroke-width="0.8" stroke-miterlimit="10"/>
<path d="M181.7 115.828C181.259 115.937 181.259 116.157 181.699 116.378L185.107 117.814C185.656 118.035 186.207 118.036 186.757 118.037L196.773 115.967C197.213 115.858 197.214 115.638 196.774 115.417L193.256 113.981C192.706 113.76 192.156 113.759 191.606 113.868L181.7 115.828Z" fill="#00AC6B" stroke="#06122C" stroke-width="0.8" stroke-miterlimit="10"/>
<path d="M181.7 115.828C181.259 115.937 181.259 116.157 181.699 116.378L185.107 117.814C185.656 118.035 186.207 118.036 186.757 118.037L196.773 115.967C197.213 115.858 197.214 115.638 196.774 115.417L193.256 113.981C192.706 113.76 192.156 113.759 191.606 113.868L181.7 115.828Z" fill="#00AC6B" stroke="#06122C" stroke-width="0.8" stroke-miterlimit="10"/>
<path d="M203.39 108.723C203.831 108.614 203.831 108.394 203.391 108.173L199.763 106.737C199.214 106.516 198.663 106.515 198.113 106.623L188.427 108.584C187.987 108.693 187.986 108.913 188.426 109.134L191.944 110.57C192.494 110.791 193.044 110.792 193.594 110.683L203.39 108.723Z" fill="#00AC6B" stroke="#06122C" stroke-width="0.8" stroke-miterlimit="10"/>
<path d="M203.39 108.723C203.831 108.614 203.831 108.394 203.391 108.173L199.763 106.737C199.214 106.516 198.663 106.515 198.113 106.623L188.427 108.584C187.987 108.693 187.986 108.913 188.426 109.134L191.944 110.57C192.494 110.791 193.044 110.792 193.594 110.683L203.39 108.723Z" fill="#00AC6B" stroke="#06122C" stroke-width="0.8" stroke-miterlimit="10"/>
<path d="M219.351 105.565C219.792 105.456 219.792 105.236 219.352 105.125L215.614 103.689C215.065 103.468 214.514 103.467 213.964 103.575L204.278 105.536C203.838 105.645 203.837 105.865 204.277 106.086L207.905 107.522C208.455 107.743 209.005 107.744 209.555 107.635L219.351 105.565Z" fill="#00AC6B" stroke="#06122C" stroke-width="0.8" stroke-miterlimit="10"/>
<path d="M219.351 105.565C219.792 105.456 219.792 105.236 219.352 105.125L215.614 103.689C215.065 103.468 214.514 103.467 213.964 103.575L204.278 105.536C203.838 105.645 203.837 105.865 204.277 106.086L207.905 107.522C208.455 107.743 209.005 107.744 209.555 107.635L219.351 105.565Z" fill="#00AC6B" stroke="#06122C" stroke-width="0.8" stroke-miterlimit="10"/>
<path d="M187.541 111.99C187.981 111.881 187.981 111.661 187.542 111.441L184.024 110.004C183.474 109.783 182.924 109.782 182.374 109.891L172.577 111.851C172.137 111.96 172.137 112.18 172.576 112.401L175.984 113.837C176.534 114.058 177.084 114.059 177.634 114.06L187.541 111.99Z" fill="#00AC6B" stroke="#06122C" stroke-width="0.8" stroke-miterlimit="10"/>
<path d="M187.541 111.99C187.981 111.881 187.981 111.661 187.542 111.441L184.024 110.004C183.474 109.783 182.924 109.782 182.374 109.891L172.577 111.851C172.137 111.96 172.137 112.18 172.576 112.401L175.984 113.837C176.534 114.058 177.084 114.059 177.634 114.06L187.541 111.99Z" fill="#00AC6B" stroke="#06122C" stroke-width="0.8" stroke-miterlimit="10"/>
<path d="M155.73 118.526C156.171 118.417 156.171 118.197 155.842 117.977L152.544 116.541C151.994 116.32 151.444 116.319 150.894 116.318L140.987 118.388C140.547 118.497 140.546 118.717 140.876 118.937L144.064 120.373C144.614 120.594 145.164 120.595 145.714 120.596L155.73 118.526Z" fill="#00AC6B" stroke="#06122C" stroke-width="0.8" stroke-miterlimit="10"/>
<path d="M155.73 118.526C156.171 118.417 156.171 118.197 155.842 117.977L152.544 116.541C151.994 116.32 151.444 116.319 150.894 116.318L140.987 118.388C140.547 118.497 140.546 118.717 140.876 118.937L144.064 120.373C144.614 120.594 145.164 120.595 145.714 120.596L155.73 118.526Z" fill="#00AC6B" stroke="#06122C" stroke-width="0.8" stroke-miterlimit="10"/>
<path d="M171.687 115.259C172.127 115.15 172.128 114.93 171.688 114.709L168.28 113.273C167.73 113.052 167.18 113.051 166.63 113.05L156.834 115.01C156.394 115.119 156.393 115.339 156.723 115.56L160.021 116.996C160.571 117.217 161.121 117.218 161.671 117.219L171.687 115.259Z" fill="#00AC6B" stroke="#06122C" stroke-width="0.8" stroke-miterlimit="10"/>
<path d="M171.687 115.259C172.127 115.15 172.128 114.93 171.688 114.709L168.28 113.273C167.73 113.052 167.18 113.051 166.63 113.05L156.834 115.01C156.394 115.119 156.393 115.339 156.723 115.56L160.021 116.996C160.571 117.217 161.121 117.218 161.671 117.219L171.687 115.259Z" fill="#00AC6B" stroke="#06122C" stroke-width="0.8" stroke-miterlimit="10"/>
<path d="M129.638 126.943C129.088 126.722 128.538 126.611 127.988 126.72L117.862 128.789C117.421 128.899 117.311 129.118 117.75 129.339L120.828 130.774C121.378 130.995 121.928 131.106 122.478 130.998L132.715 128.928C133.155 128.819 133.156 128.599 132.826 128.379L129.638 126.943Z" fill="#00AC6B" stroke="#06122C" stroke-width="0.8" stroke-miterlimit="10"/>
<path d="M129.638 126.943C129.088 126.722 128.538 126.611 127.988 126.72L117.862 128.789C117.421 128.899 117.311 129.118 117.75 129.339L120.828 130.774C121.378 130.995 121.928 131.106 122.478 130.998L132.715 128.928C133.155 128.819 133.156 128.599 132.826 128.379L129.638 126.943Z" fill="#00AC6B" stroke="#06122C" stroke-width="0.8" stroke-miterlimit="10"/>
<path d="M142.174 129.606C141.733 129.715 141.623 129.935 142.063 130.156L145.14 131.701C145.69 131.922 146.24 132.033 146.79 131.924L157.137 129.855C157.577 129.746 157.577 129.526 157.248 129.306L154.06 127.87C153.51 127.649 152.96 127.648 152.41 127.647L142.174 129.606Z" fill="#00AC6B" stroke="#06122C" stroke-width="0.8" stroke-miterlimit="10"/>
<path d="M142.174 129.606C141.733 129.715 141.623 129.935 142.063 130.156L145.14 131.701C145.69 131.922 146.24 132.033 146.79 131.924L157.137 129.855C157.577 129.746 157.577 129.526 157.248 129.306L154.06 127.87C153.51 127.649 152.96 127.648 152.41 127.647L142.174 129.606Z" fill="#00AC6B" stroke="#06122C" stroke-width="0.8" stroke-miterlimit="10"/>
<path d="M126.101 132.984C125.661 133.093 125.55 133.312 125.99 133.533L129.068 135.079C129.617 135.3 130.167 135.411 130.718 135.302L141.064 133.233C141.505 133.124 141.505 132.904 141.175 132.683L138.098 131.138C137.548 130.917 136.998 130.806 136.448 130.915L126.101 132.984Z" fill="#00AC6B" stroke="#06122C" stroke-width="0.8" stroke-miterlimit="10"/>
<path d="M126.101 132.984C125.661 133.093 125.55 133.312 125.99 133.533L129.068 135.079C129.617 135.3 130.167 135.411 130.718 135.302L141.064 133.233C141.505 133.124 141.505 132.904 141.175 132.683L138.098 131.138C137.548 130.917 136.998 130.806 136.448 130.915L126.101 132.984Z" fill="#00AC6B" stroke="#06122C" stroke-width="0.8" stroke-miterlimit="10"/>
<path d="M124.246 124.953C124.686 124.844 124.687 124.624 124.357 124.404L121.279 122.968C120.729 122.747 120.18 122.636 119.629 122.745L109.723 124.815C109.283 124.924 109.282 125.144 109.612 125.365L112.689 126.91C113.239 127.131 113.789 127.242 114.339 127.133L124.246 124.953Z" fill="#00AC6B" stroke="#06122C" stroke-width="0.8" stroke-miterlimit="10"/>
<path d="M124.246 124.953C124.686 124.844 124.687 124.624 124.357 124.404L121.279 122.968C120.729 122.747 120.18 122.636 119.629 122.745L109.723 124.815C109.283 124.924 109.282 125.144 109.612 125.365L112.689 126.91C113.239 127.131 113.789 127.242 114.339 127.133L124.246 124.953Z" fill="#00AC6B" stroke="#06122C" stroke-width="0.8" stroke-miterlimit="10"/>
<path d="M217.251 111.169C217.801 111.39 218.351 111.391 218.901 111.282L228.918 109.212C229.358 109.103 229.359 108.883 228.919 108.772L225.181 107.336C224.631 107.115 224.081 107.114 223.53 107.222L213.624 109.292C213.184 109.402 213.183 109.621 213.623 109.842L217.251 111.169Z" fill="#00AC6B" stroke="#06122C" stroke-width="0.8" stroke-miterlimit="10"/>
<path d="M217.251 111.169C217.801 111.39 218.351 111.391 218.901 111.282L228.918 109.212C229.358 109.103 229.359 108.883 228.919 108.772L225.181 107.336C224.631 107.115 224.081 107.114 223.53 107.222L213.624 109.292C213.184 109.402 213.183 109.621 213.623 109.842L217.251 111.169Z" fill="#00AC6B" stroke="#06122C" stroke-width="0.8" stroke-miterlimit="10"/>
<path d="M178.304 108.124C178.745 108.015 178.745 107.795 178.305 107.574L174.787 106.138C174.238 105.917 173.688 105.916 173.137 106.025L163.561 107.986C163.121 108.095 163.12 108.315 163.45 108.535L167.078 109.972C167.628 110.193 168.178 110.194 168.728 110.195L178.304 108.124Z" fill="#00AC6B" stroke="#06122C" stroke-width="0.8" stroke-miterlimit="10"/>
<path d="M178.304 108.124C178.745 108.015 178.745 107.795 178.305 107.574L174.787 106.138C174.238 105.917 173.688 105.916 173.137 106.025L163.561 107.986C163.121 108.095 163.12 108.315 163.45 108.535L167.078 109.972C167.628 110.193 168.178 110.194 168.728 110.195L178.304 108.124Z" fill="#00AC6B" stroke="#06122C" stroke-width="0.8" stroke-miterlimit="10"/>
<path d="M209.787 101.698C210.227 101.589 210.228 101.369 209.788 101.258L206.05 99.8215C205.5 99.6005 204.95 99.5994 204.4 99.7083L194.934 101.669C194.493 101.778 194.493 101.998 194.932 102.219L198.561 103.656C199.11 103.876 199.66 103.878 200.211 103.769L209.787 101.698Z" fill="#00AC6B" stroke="#06122C" stroke-width="0.8" stroke-miterlimit="10"/>
<path d="M209.787 101.698C210.227 101.589 210.228 101.369 209.788 101.258L206.05 99.8215C205.5 99.6005 204.95 99.5994 204.4 99.7083L194.934 101.669C194.493 101.778 194.493 101.998 194.932 102.219L198.561 103.656C199.11 103.876 199.66 103.878 200.211 103.769L209.787 101.698Z" fill="#00AC6B" stroke="#06122C" stroke-width="0.8" stroke-miterlimit="10"/>
<path d="M194.045 104.856C194.485 104.747 194.485 104.527 194.046 104.306L190.418 102.87C189.868 102.649 189.318 102.648 188.767 102.757L179.191 104.717C178.751 104.827 178.751 105.046 179.19 105.267L182.708 106.704C183.258 106.924 183.808 106.926 184.359 106.817L194.045 104.856Z" fill="#00AC6B" stroke="#06122C" stroke-width="0.8" stroke-miterlimit="10"/>
<path d="M194.045 104.856C194.485 104.747 194.485 104.527 194.046 104.306L190.418 102.87C189.868 102.649 189.318 102.648 188.767 102.757L179.191 104.717C178.751 104.827 178.751 105.046 179.19 105.267L182.708 106.704C183.258 106.924 183.808 106.926 184.359 106.817L194.045 104.856Z" fill="#00AC6B" stroke="#06122C" stroke-width="0.8" stroke-miterlimit="10"/>
<path d="M147.041 114.551C147.481 114.442 147.482 114.222 147.152 114.001L143.854 112.566C143.304 112.345 142.754 112.344 142.204 112.342L132.518 114.303C132.078 114.412 132.077 114.632 132.407 114.852L135.595 116.288C136.145 116.509 136.695 116.51 137.245 116.511L147.041 114.551Z" fill="#00AC6B" stroke="#06122C" stroke-width="0.8" stroke-miterlimit="10"/>
<path d="M147.041 114.551C147.481 114.442 147.482 114.222 147.152 114.001L143.854 112.566C143.304 112.345 142.754 112.344 142.204 112.342L132.518 114.303C132.078 114.412 132.077 114.632 132.407 114.852L135.595 116.288C136.145 116.509 136.695 116.51 137.245 116.511L147.041 114.551Z" fill="#00AC6B" stroke="#06122C" stroke-width="0.8" stroke-miterlimit="10"/>
<path d="M162.672 111.393C163.112 111.284 163.112 111.064 162.673 110.843L159.265 109.407C158.715 109.186 158.165 109.185 157.615 109.184L148.038 111.144C147.598 111.254 147.598 111.473 147.927 111.694L151.225 113.13C151.775 113.351 152.325 113.352 152.875 113.353L162.672 111.393Z" fill="#00AC6B" stroke="#06122C" stroke-width="0.8" stroke-miterlimit="10"/>
<path d="M162.672 111.393C163.112 111.284 163.112 111.064 162.673 110.843L159.265 109.407C158.715 109.186 158.165 109.185 157.615 109.184L148.038 111.144C147.598 111.254 147.598 111.473 147.927 111.694L151.225 113.13C151.775 113.351 152.325 113.352 152.875 113.353L162.672 111.393Z" fill="#00AC6B" stroke="#06122C" stroke-width="0.8" stroke-miterlimit="10"/>
<path d="M242.995 111.769C243.544 111.99 244.095 111.991 244.645 111.882L254.771 109.812C255.212 109.703 255.212 109.483 254.772 109.372L250.924 107.936C250.374 107.715 249.824 107.713 249.274 107.822L239.258 109.892C238.817 110.001 238.817 110.221 239.257 110.332L242.995 111.769Z" fill="#00AC6B" stroke="#06122C" stroke-width="0.8" stroke-miterlimit="10"/>
<path d="M242.995 111.769C243.544 111.99 244.095 111.991 244.645 111.882L254.771 109.812C255.212 109.703 255.212 109.483 254.772 109.372L250.924 107.936C250.374 107.715 249.824 107.713 249.274 107.822L239.258 109.892C238.817 110.001 238.817 110.221 239.257 110.332L242.995 111.769Z" fill="#00AC6B" stroke="#06122C" stroke-width="0.8" stroke-miterlimit="10"/>
<path d="M131.416 117.709C131.856 117.6 131.857 117.38 131.527 117.16L128.339 115.614C127.789 115.393 127.239 115.392 126.689 115.391L117.003 117.352C116.563 117.461 116.562 117.681 116.892 117.901L119.97 119.447C120.519 119.668 121.069 119.779 121.62 119.67L131.416 117.709Z" fill="#00AC6B" stroke="#06122C" stroke-width="0.8" stroke-miterlimit="10"/>
<path d="M131.416 117.709C131.856 117.6 131.857 117.38 131.527 117.16L128.339 115.614C127.789 115.393 127.239 115.392 126.689 115.391L117.003 117.352C116.563 117.461 116.562 117.681 116.892 117.901L119.97 119.447C120.519 119.668 121.069 119.779 121.62 119.67L131.416 117.709Z" fill="#00AC6B" stroke="#06122C" stroke-width="0.8" stroke-miterlimit="10"/>
<path d="M148.564 125.77C149.005 125.661 149.005 125.441 148.675 125.221L145.488 123.785C144.938 123.564 144.388 123.453 143.838 123.562L133.821 125.632C133.381 125.741 133.38 125.961 133.71 126.181L136.788 127.727C137.337 127.948 137.887 128.059 138.438 127.95L148.564 125.77Z" fill="#00AC6B" stroke="#06122C" stroke-width="0.8" stroke-miterlimit="10"/>
<path d="M148.564 125.77C149.005 125.661 149.005 125.441 148.675 125.221L145.488 123.785C144.938 123.564 144.388 123.453 143.838 123.562L133.821 125.632C133.381 125.741 133.38 125.961 133.71 126.181L136.788 127.727C137.337 127.948 137.887 128.059 138.438 127.95L148.564 125.77Z" fill="#00AC6B" stroke="#06122C" stroke-width="0.8" stroke-miterlimit="10"/>
<path d="M225.527 98.43C225.968 98.3209 225.968 98.101 225.528 97.9901L221.68 96.5532C221.13 96.3322 220.58 96.3312 220.03 96.4401L210.564 98.4009C210.123 98.51 210.123 98.73 210.563 98.8408L214.411 100.278C214.961 100.499 215.511 100.5 216.061 100.391L225.527 98.43Z" fill="#00AC6B" stroke="#06122C" stroke-width="0.8" stroke-miterlimit="10"/>
<path d="M225.527 98.43C225.968 98.3209 225.968 98.101 225.528 97.9901L221.68 96.5532C221.13 96.3322 220.58 96.3312 220.03 96.4401L210.564 98.4009C210.123 98.51 210.123 98.73 210.563 98.8408L214.411 100.278C214.961 100.499 215.511 100.5 216.061 100.391L225.527 98.43Z" fill="#00AC6B" stroke="#06122C" stroke-width="0.8" stroke-miterlimit="10"/>
<path d="M233.428 107.901C233.977 108.122 234.528 108.123 235.078 108.015L244.984 105.945C245.425 105.836 245.425 105.616 244.985 105.505L241.137 104.068C240.587 103.847 240.037 103.846 239.487 103.955L229.691 105.915C229.25 106.024 229.25 106.244 229.69 106.355L233.428 107.901Z" fill="#00AC6B" stroke="#06122C" stroke-width="0.8" stroke-miterlimit="10"/>
<path d="M233.428 107.901C233.977 108.122 234.528 108.123 235.078 108.015L244.984 105.945C245.425 105.836 245.425 105.616 244.985 105.505L241.137 104.068C240.587 103.847 240.037 103.846 239.487 103.955L229.691 105.915C229.25 106.024 229.25 106.244 229.69 106.355L233.428 107.901Z" fill="#00AC6B" stroke="#06122C" stroke-width="0.8" stroke-miterlimit="10"/>
<path d="M223.866 104.144C224.416 104.365 224.966 104.367 225.516 104.258L235.312 102.297C235.753 102.188 235.753 101.968 235.313 101.858L231.465 100.421C230.915 100.2 230.365 100.199 229.815 100.307L220.239 102.268C219.799 102.377 219.798 102.597 220.238 102.708L223.866 104.144Z" fill="#00AC6B" stroke="#06122C" stroke-width="0.8" stroke-miterlimit="10"/>
<path d="M223.866 104.144C224.416 104.365 224.966 104.367 225.516 104.258L235.312 102.297C235.753 102.188 235.753 101.968 235.313 101.858L231.465 100.421C230.915 100.2 230.365 100.199 229.815 100.307L220.239 102.268C219.799 102.377 219.798 102.597 220.238 102.708L223.866 104.144Z" fill="#00AC6B" stroke="#06122C" stroke-width="0.8" stroke-miterlimit="10"/>
<path d="M134.459 137.068C134.019 137.177 133.908 137.397 134.348 137.618L137.426 139.163C137.975 139.384 138.525 139.495 139.076 139.386L149.642 137.208C150.083 137.098 150.083 136.879 149.753 136.658L146.676 135.113C146.126 134.892 145.576 134.781 145.026 134.89L134.459 137.068Z" fill="#00AC6B" stroke="#06122C" stroke-width="0.8" stroke-miterlimit="10"/>
<path d="M134.459 137.068C134.019 137.177 133.908 137.397 134.348 137.618L137.426 139.163C137.975 139.384 138.525 139.495 139.076 139.386L149.642 137.208C150.083 137.098 150.083 136.879 149.753 136.658L146.676 135.113C146.126 134.892 145.576 134.781 145.026 134.89L134.459 137.068Z" fill="#00AC6B" stroke="#06122C" stroke-width="0.8" stroke-miterlimit="10"/>
<path d="M115.785 120.978C116.225 120.869 116.226 120.649 115.896 120.428L112.818 118.883C112.269 118.662 111.719 118.551 111.168 118.66L101.372 120.62C100.932 120.729 100.931 120.949 101.261 121.17L104.339 122.715C104.888 122.936 105.438 123.047 105.989 122.938L115.785 120.978Z" fill="#00AC6B" stroke="#06122C" stroke-width="0.8" stroke-miterlimit="10"/>
<path d="M115.785 120.978C116.225 120.869 116.226 120.649 115.896 120.428L112.818 118.883C112.269 118.662 111.719 118.551 111.168 118.66L101.372 120.62C100.932 120.729 100.931 120.949 101.261 121.17L104.339 122.715C104.888 122.936 105.438 123.047 105.989 122.938L115.785 120.978Z" fill="#00AC6B" stroke="#06122C" stroke-width="0.8" stroke-miterlimit="10"/>
<path d="M215.91 119.743L214.259 120.07L211.508 120.614L209.857 120.941L199.51 123.01L197.859 123.337L195.217 123.881L193.566 124.208L183.22 126.277L181.569 126.604L179.037 127.149L177.386 127.475L167.04 129.545L165.389 129.871L162.857 130.416L161.206 130.743L150.749 132.922C150.309 133.031 150.308 133.251 150.638 133.471L153.716 135.017C154.266 135.238 154.815 135.349 155.366 135.24L165.822 133.061L167.474 132.734L170.005 132.189L171.656 131.863L182.113 129.684L183.764 129.357L186.296 128.812L187.947 128.486L198.403 126.307L200.054 125.98L202.696 125.435L204.347 125.109L214.804 122.93L216.455 122.603L219.207 122.059L220.858 121.732L231.314 119.553C231.755 119.444 231.755 119.224 231.315 119.113L227.687 117.677C227.137 117.456 226.587 117.455 226.037 117.564L215.91 119.743Z" fill="#00AC6B" stroke="#06122C" stroke-width="0.8" stroke-miterlimit="10"/>
<path d="M215.91 119.743L214.259 120.07L211.508 120.614L209.857 120.941L199.51 123.01L197.859 123.337L195.217 123.881L193.566 124.208L183.22 126.277L181.569 126.604L179.037 127.149L177.386 127.475L167.04 129.545L165.389 129.871L162.857 130.416L161.206 130.743L150.749 132.922C150.309 133.031 150.308 133.251 150.638 133.471L153.716 135.017C154.266 135.238 154.815 135.349 155.366 135.24L165.822 133.061L167.474 132.734L170.005 132.189L171.656 131.863L182.113 129.684L183.764 129.357L186.296 128.812L187.947 128.486L198.403 126.307L200.054 125.98L202.696 125.435L204.347 125.109L214.804 122.93L216.455 122.603L219.207 122.059L220.858 121.732L231.314 119.553C231.755 119.444 231.755 119.224 231.315 119.113L227.687 117.677C227.137 117.456 226.587 117.455 226.037 117.564L215.91 119.743Z" fill="#00AC6B" stroke="#06122C" stroke-width="0.8" stroke-miterlimit="10"/>
<path d="M206.786 115.877C206.346 115.986 206.346 116.206 206.785 116.427L210.193 117.863C210.743 118.084 211.293 118.085 211.844 117.976L222.08 115.907C222.52 115.797 222.521 115.578 222.081 115.467L218.453 114.03C217.903 113.809 217.353 113.808 216.803 113.917L206.786 115.877Z" fill="#00AC6B" stroke="#06122C" stroke-width="0.8" stroke-miterlimit="10"/>
<path d="M206.786 115.877C206.346 115.986 206.346 116.206 206.785 116.427L210.193 117.863C210.743 118.084 211.293 118.085 211.844 117.976L222.08 115.907C222.52 115.797 222.521 115.578 222.081 115.467L218.453 114.03C217.903 113.809 217.353 113.808 216.803 113.917L206.786 115.877Z" fill="#00AC6B" stroke="#06122C" stroke-width="0.8" stroke-miterlimit="10"/>
<path d="M158.245 125.789C157.805 125.898 157.804 126.118 158.134 126.338L161.322 127.774C161.872 127.995 162.422 127.996 162.972 127.997L173.318 125.928C173.759 125.819 173.759 125.599 173.429 125.378L170.131 123.943C169.582 123.722 169.032 123.72 168.482 123.719L158.245 125.789Z" fill="#00AC6B" stroke="#06122C" stroke-width="0.8" stroke-miterlimit="10"/>
<path d="M158.245 125.789C157.805 125.898 157.804 126.118 158.134 126.338L161.322 127.774C161.872 127.995 162.422 127.996 162.972 127.997L173.318 125.928C173.759 125.819 173.759 125.599 173.429 125.378L170.131 123.943C169.582 123.722 169.032 123.72 168.482 123.719L158.245 125.789Z" fill="#00AC6B" stroke="#06122C" stroke-width="0.8" stroke-miterlimit="10"/>
<path d="M139.879 121.135C140.319 121.026 140.32 120.806 139.99 120.585L136.802 119.15C136.252 118.929 135.702 118.927 135.152 118.926L125.246 120.996C124.805 121.105 124.695 121.325 125.135 121.546L128.212 123.091C128.762 123.312 129.312 123.423 129.862 123.314L139.879 121.135Z" fill="#00AC6B" stroke="#06122C" stroke-width="0.8" stroke-miterlimit="10"/>
<path d="M139.879 121.135C140.319 121.026 140.32 120.806 139.99 120.585L136.802 119.15C136.252 118.929 135.702 118.927 135.152 118.926L125.246 120.996C124.805 121.105 124.695 121.325 125.135 121.546L128.212 123.091C128.762 123.312 129.312 123.423 129.862 123.314L139.879 121.135Z" fill="#00AC6B" stroke="#06122C" stroke-width="0.8" stroke-miterlimit="10"/>
<path d="M174.427 122.411C173.986 122.52 173.986 122.74 174.316 122.961L177.614 124.397C178.163 124.618 178.713 124.619 179.264 124.62L189.5 122.55C189.94 122.441 189.941 122.221 189.611 122.001L186.203 120.565C185.653 120.344 185.103 120.343 184.553 120.342L174.427 122.411Z" fill="#00AC6B" stroke="#06122C" stroke-width="0.8" stroke-miterlimit="10"/>
<path d="M174.427 122.411C173.986 122.52 173.986 122.74 174.316 122.961L177.614 124.397C178.163 124.618 178.713 124.619 179.264 124.62L189.5 122.55C189.94 122.441 189.941 122.221 189.611 122.001L186.203 120.565C185.653 120.344 185.103 120.343 184.553 120.342L174.427 122.411Z" fill="#00AC6B" stroke="#06122C" stroke-width="0.8" stroke-miterlimit="10"/>
<path d="M190.607 119.144C190.167 119.253 190.167 119.473 190.496 119.694L193.904 121.13C194.454 121.351 195.004 121.352 195.554 121.353L205.791 119.283C206.231 119.174 206.231 118.954 205.792 118.734L202.274 117.297C201.724 117.076 201.174 117.075 200.624 117.184L190.607 119.144Z" fill="#00AC6B" stroke="#06122C" stroke-width="0.8" stroke-miterlimit="10"/>
<path d="M190.607 119.144C190.167 119.253 190.167 119.473 190.496 119.694L193.904 121.13C194.454 121.351 195.004 121.352 195.554 121.353L205.791 119.283C206.231 119.174 206.231 118.954 205.792 118.734L202.274 117.297C201.724 117.076 201.174 117.075 200.624 117.184L190.607 119.144Z" fill="#00AC6B" stroke="#06122C" stroke-width="0.8" stroke-miterlimit="10"/>
<path d="M232.421 116.366C231.981 116.475 231.98 116.695 232.42 116.916L236.048 118.353C236.598 118.574 237.148 118.575 237.698 118.466L248.045 116.287C248.485 116.178 248.486 115.958 248.046 115.847L244.308 114.41C243.758 114.189 243.208 114.188 242.657 114.297L232.421 116.366Z" fill="#00AC6B" stroke="#06122C" stroke-width="0.8" stroke-miterlimit="10"/>
<path d="M232.421 116.366C231.981 116.475 231.98 116.695 232.42 116.916L236.048 118.353C236.598 118.574 237.148 118.575 237.698 118.466L248.045 116.287C248.485 116.178 248.486 115.958 248.046 115.847L244.308 114.41C243.758 114.189 243.208 114.188 242.657 114.297L232.421 116.366Z" fill="#00AC6B" stroke="#06122C" stroke-width="0.8" stroke-miterlimit="10"/>
<path d="M165.631 118.436C165.19 118.545 165.19 118.765 165.52 118.986L168.817 120.531C169.367 120.752 169.917 120.753 170.467 120.754L180.594 118.685C181.034 118.576 181.035 118.356 180.705 118.135L177.297 116.699C176.747 116.478 176.197 116.477 175.647 116.476L165.631 118.436Z" fill="#00AC6B" stroke="#06122C" stroke-width="0.8" stroke-miterlimit="10"/>
<path d="M165.631 118.436C165.19 118.545 165.19 118.765 165.52 118.986L168.817 120.531C169.367 120.752 169.917 120.753 170.467 120.754L180.594 118.685C181.034 118.576 181.035 118.356 180.705 118.135L177.297 116.699C176.747 116.478 176.197 116.477 175.647 116.476L165.631 118.436Z" fill="#00AC6B" stroke="#06122C" stroke-width="0.8" stroke-miterlimit="10"/>
<path d="M149.67 121.813C149.23 121.923 149.229 122.142 149.559 122.363L152.747 123.799C153.297 124.02 153.847 124.021 154.397 124.022L164.523 121.952C164.964 121.843 164.964 121.623 164.635 121.403L161.337 119.967C160.787 119.746 160.237 119.745 159.687 119.744L149.67 121.813Z" fill="#00AC6B" stroke="#06122C" stroke-width="0.8" stroke-miterlimit="10"/>
<path d="M149.67 121.813C149.23 121.923 149.229 122.142 149.559 122.363L152.747 123.799C153.297 124.02 153.847 124.021 154.397 124.022L164.523 121.952C164.964 121.843 164.964 121.623 164.635 121.403L161.337 119.967C160.787 119.746 160.237 119.745 159.687 119.744L149.67 121.813Z" fill="#00AC6B" stroke="#06122C" stroke-width="0.8" stroke-miterlimit="10"/>
<path d="M223.076 112.5C222.636 112.609 222.635 112.829 223.075 113.049L226.703 114.486C227.253 114.707 227.803 114.708 228.353 114.599L238.59 112.53C239.03 112.421 239.031 112.201 238.591 112.09L234.853 110.653C234.303 110.432 233.753 110.431 233.202 110.54L223.076 112.5Z" fill="#00AC6B" stroke="#06122C" stroke-width="0.8" stroke-miterlimit="10"/>
<path d="M223.076 112.5C222.636 112.609 222.635 112.829 223.075 113.049L226.703 114.486C227.253 114.707 227.803 114.708 228.353 114.599L238.59 112.53C239.03 112.421 239.031 112.201 238.591 112.09L234.853 110.653C234.303 110.432 233.753 110.431 233.202 110.54L223.076 112.5Z" fill="#00AC6B" stroke="#06122C" stroke-width="0.8" stroke-miterlimit="10"/>
<path d="M197.662 111.9C197.222 112.009 197.221 112.229 197.661 112.45L201.179 113.886C201.729 114.107 202.279 114.108 202.829 114L212.845 111.93C213.286 111.821 213.286 111.601 212.846 111.38L209.218 109.944C208.669 109.723 208.119 109.721 207.568 109.83L197.662 111.9Z" fill="#00AC6B" stroke="#06122C" stroke-width="0.8" stroke-miterlimit="10"/>
<path d="M197.662 111.9C197.222 112.009 197.221 112.229 197.661 112.45L201.179 113.886C201.729 114.107 202.279 114.108 202.829 114L212.845 111.93C213.286 111.821 213.286 111.601 212.846 111.38L209.218 109.944C208.669 109.723 208.119 109.721 207.568 109.83L197.662 111.9Z" fill="#00AC6B" stroke="#06122C" stroke-width="0.8" stroke-miterlimit="10"/>
<path d="M181.592 115.168C181.152 115.277 181.152 115.497 181.591 115.718L184.999 117.154C185.549 117.375 186.099 117.376 186.649 117.377L196.666 115.307C197.106 115.198 197.106 114.978 196.667 114.757L193.149 113.321C192.599 113.1 192.049 113.099 191.499 113.208L181.592 115.168Z" fill="#00AC6B" stroke="#06122C" stroke-width="0.8" stroke-miterlimit="10"/>
<path d="M181.592 115.168C181.152 115.277 181.152 115.497 181.591 115.718L184.999 117.154C185.549 117.375 186.099 117.376 186.649 117.377L196.666 115.307C197.106 115.198 197.106 114.978 196.667 114.757L193.149 113.321C192.599 113.1 192.049 113.099 191.499 113.208L181.592 115.168Z" fill="#00AC6B" stroke="#06122C" stroke-width="0.8" stroke-miterlimit="10"/>
<path d="M203.39 108.173C203.831 108.063 203.831 107.843 203.391 107.623L199.763 106.186C199.214 105.965 198.663 105.964 198.113 106.073L188.427 108.034C187.987 108.143 187.986 108.363 188.426 108.583L191.944 110.02C192.494 110.241 193.044 110.242 193.594 110.133L203.39 108.173Z" fill="#00AC6B" stroke="#06122C" stroke-width="0.8" stroke-miterlimit="10"/>
<path d="M203.39 108.173C203.831 108.063 203.831 107.843 203.391 107.623L199.763 106.186C199.214 105.965 198.663 105.964 198.113 106.073L188.427 108.034C187.987 108.143 187.986 108.363 188.426 108.583L191.944 110.02C192.494 110.241 193.044 110.242 193.594 110.133L203.39 108.173Z" fill="#00AC6B" stroke="#06122C" stroke-width="0.8" stroke-miterlimit="10"/>
<path d="M219.24 104.905C219.68 104.796 219.681 104.576 219.241 104.465L215.503 103.028C214.953 102.807 214.403 102.806 213.853 102.915L204.167 104.876C203.726 104.985 203.726 105.205 204.166 105.425L207.794 106.752C208.344 106.973 208.894 106.974 209.444 106.865L219.24 104.905Z" fill="#00AC6B" stroke="#06122C" stroke-width="0.8" stroke-miterlimit="10"/>
<path d="M219.24 104.905C219.68 104.796 219.681 104.576 219.241 104.465L215.503 103.028C214.953 102.807 214.403 102.806 213.853 102.915L204.167 104.876C203.726 104.985 203.726 105.205 204.166 105.425L207.794 106.752C208.344 106.973 208.894 106.974 209.444 106.865L219.24 104.905Z" fill="#00AC6B" stroke="#06122C" stroke-width="0.8" stroke-miterlimit="10"/>
<path d="M187.431 111.441C187.872 111.331 187.872 111.112 187.432 110.891L183.914 109.454C183.365 109.234 182.815 109.232 182.264 109.341L172.468 111.302C172.028 111.411 172.027 111.631 172.467 111.851L175.875 113.287C176.425 113.508 176.975 113.509 177.525 113.511L187.431 111.441Z" fill="#00AC6B" stroke="#06122C" stroke-width="0.8" stroke-miterlimit="10"/>
<path d="M187.431 111.441C187.872 111.331 187.872 111.112 187.432 110.891L183.914 109.454C183.365 109.234 182.815 109.232 182.264 109.341L172.468 111.302C172.028 111.411 172.027 111.631 172.467 111.851L175.875 113.287C176.425 113.508 176.975 113.509 177.525 113.511L187.431 111.441Z" fill="#00AC6B" stroke="#06122C" stroke-width="0.8" stroke-miterlimit="10"/>
<path d="M155.73 117.866C156.171 117.757 156.171 117.537 155.842 117.317L152.544 115.881C151.994 115.66 151.444 115.659 150.894 115.658L140.987 117.618C140.547 117.727 140.547 117.947 140.876 118.167L144.064 119.603C144.614 119.824 145.164 119.825 145.714 119.826L155.73 117.866Z" fill="#00AC6B" stroke="#06122C" stroke-width="0.8" stroke-miterlimit="10"/>
<path d="M155.73 117.866C156.171 117.757 156.171 117.537 155.842 117.317L152.544 115.881C151.994 115.66 151.444 115.659 150.894 115.658L140.987 117.618C140.547 117.727 140.547 117.947 140.876 118.167L144.064 119.603C144.614 119.824 145.164 119.825 145.714 119.826L155.73 117.866Z" fill="#00AC6B" stroke="#06122C" stroke-width="0.8" stroke-miterlimit="10"/>
<path d="M171.58 114.709C172.02 114.6 172.02 114.38 171.581 114.159L168.173 112.723C167.623 112.502 167.073 112.501 166.523 112.5L156.727 114.46C156.286 114.569 156.286 114.789 156.616 115.01L159.913 116.555C160.463 116.776 161.013 116.777 161.563 116.779L171.58 114.709Z" fill="#00AC6B" stroke="#06122C" stroke-width="0.8" stroke-miterlimit="10"/>
<path d="M171.58 114.709C172.02 114.6 172.02 114.38 171.581 114.159L168.173 112.723C167.623 112.502 167.073 112.501 166.523 112.5L156.727 114.46C156.286 114.569 156.286 114.789 156.616 115.01L159.913 116.555C160.463 116.776 161.013 116.777 161.563 116.779L171.58 114.709Z" fill="#00AC6B" stroke="#06122C" stroke-width="0.8" stroke-miterlimit="10"/>
<path d="M129.53 126.392C128.981 126.171 128.431 126.06 127.881 126.169L117.754 128.239C117.314 128.348 117.203 128.568 117.643 128.788L120.721 130.334C121.27 130.555 121.82 130.666 122.371 130.557L132.607 128.488C133.047 128.379 133.048 128.159 132.718 127.938L129.53 126.392Z" fill="#00AC6B" stroke="#06122C" stroke-width="0.8" stroke-miterlimit="10"/>
<path d="M129.53 126.392C128.981 126.171 128.431 126.06 127.881 126.169L117.754 128.239C117.314 128.348 117.203 128.568 117.643 128.788L120.721 130.334C121.27 130.555 121.82 130.666 122.371 130.557L132.607 128.488C133.047 128.379 133.048 128.159 132.718 127.938L129.53 126.392Z" fill="#00AC6B" stroke="#06122C" stroke-width="0.8" stroke-miterlimit="10"/>
<path d="M142.176 129.056C141.735 129.166 141.625 129.385 142.065 129.606L145.142 131.151C145.692 131.372 146.242 131.483 146.792 131.375L157.139 129.305C157.579 129.196 157.579 128.976 157.25 128.756L154.062 127.32C153.512 127.099 152.962 127.098 152.412 127.097L142.176 129.056Z" fill="#00AC6B" stroke="#06122C" stroke-width="0.8" stroke-miterlimit="10"/>
<path d="M142.176 129.056C141.735 129.166 141.625 129.385 142.065 129.606L145.142 131.151C145.692 131.372 146.242 131.483 146.792 131.375L157.139 129.305C157.579 129.196 157.579 128.976 157.25 128.756L154.062 127.32C153.512 127.099 152.962 127.098 152.412 127.097L142.176 129.056Z" fill="#00AC6B" stroke="#06122C" stroke-width="0.8" stroke-miterlimit="10"/>
<path d="M126.103 132.324C125.663 132.433 125.552 132.652 125.992 132.873L129.07 134.419C129.619 134.64 130.169 134.751 130.72 134.642L141.066 132.573C141.506 132.464 141.507 132.244 141.177 132.023L138.099 130.478C137.55 130.257 137 130.146 136.45 130.255L126.103 132.324Z" fill="#00AC6B" stroke="#06122C" stroke-width="0.8" stroke-miterlimit="10"/>
<path d="M126.103 132.324C125.663 132.433 125.552 132.652 125.992 132.873L129.07 134.419C129.619 134.64 130.169 134.751 130.72 134.642L141.066 132.573C141.506 132.464 141.507 132.244 141.177 132.023L138.099 130.478C137.55 130.257 137 130.146 136.45 130.255L126.103 132.324Z" fill="#00AC6B" stroke="#06122C" stroke-width="0.8" stroke-miterlimit="10"/>
<path d="M124.14 124.403C124.581 124.294 124.581 124.074 124.251 123.854L121.174 122.308C120.624 122.087 120.074 121.976 119.524 122.085L109.617 124.155C109.177 124.264 109.177 124.484 109.506 124.705L112.584 126.14C113.134 126.361 113.684 126.472 114.234 126.363L124.14 124.403Z" fill="#00AC6B" stroke="#06122C" stroke-width="0.8" stroke-miterlimit="10"/>
<path d="M124.14 124.403C124.581 124.294 124.581 124.074 124.251 123.854L121.174 122.308C120.624 122.087 120.074 121.976 119.524 122.085L109.617 124.155C109.177 124.264 109.177 124.484 109.506 124.705L112.584 126.14C113.134 126.361 113.684 126.472 114.234 126.363L124.14 124.403Z" fill="#00AC6B" stroke="#06122C" stroke-width="0.8" stroke-miterlimit="10"/>
<path d="M217.251 110.619C217.801 110.84 218.351 110.841 218.901 110.732L228.918 108.663C229.358 108.553 229.359 108.334 228.919 108.223L225.181 106.786C224.631 106.565 224.081 106.564 223.53 106.673L213.624 108.743C213.184 108.852 213.183 109.072 213.623 109.293L217.251 110.619Z" fill="#00AC6B" stroke="#06122C" stroke-width="0.8" stroke-miterlimit="10"/>
<path d="M217.251 110.619C217.801 110.84 218.351 110.841 218.901 110.732L228.918 108.663C229.358 108.553 229.359 108.334 228.919 108.223L225.181 106.786C224.631 106.565 224.081 106.564 223.53 106.673L213.624 108.743C213.184 108.852 213.183 109.072 213.623 109.293L217.251 110.619Z" fill="#00AC6B" stroke="#06122C" stroke-width="0.8" stroke-miterlimit="10"/>
<path d="M178.306 107.574C178.747 107.465 178.747 107.245 178.307 107.025L174.789 105.588C174.24 105.367 173.69 105.366 173.139 105.475L163.563 107.436C163.123 107.545 163.122 107.765 163.452 107.985L166.86 109.421C167.41 109.642 167.96 109.643 168.51 109.645L178.306 107.574Z" fill="#00AC6B" stroke="#06122C" stroke-width="0.8" stroke-miterlimit="10"/>
<path d="M178.306 107.574C178.747 107.465 178.747 107.245 178.307 107.025L174.789 105.588C174.24 105.367 173.69 105.366 173.139 105.475L163.563 107.436C163.123 107.545 163.122 107.765 163.452 107.985L166.86 109.421C167.41 109.642 167.96 109.643 168.51 109.645L178.306 107.574Z" fill="#00AC6B" stroke="#06122C" stroke-width="0.8" stroke-miterlimit="10"/>
<path d="M209.68 101.148C210.12 101.039 210.12 100.819 209.68 100.708L205.942 99.2713C205.393 99.0503 204.843 99.0493 204.292 99.1582L194.826 101.119C194.386 101.228 194.385 101.448 194.825 101.669L198.453 103.105C199.003 103.326 199.553 103.327 200.103 103.218L209.68 101.148Z" fill="#00AC6B" stroke="#06122C" stroke-width="0.8" stroke-miterlimit="10"/>
<path d="M209.68 101.148C210.12 101.039 210.12 100.819 209.68 100.708L205.942 99.2713C205.393 99.0503 204.843 99.0493 204.292 99.1582L194.826 101.119C194.386 101.228 194.385 101.448 194.825 101.669L198.453 103.105C199.003 103.326 199.553 103.327 200.103 103.218L209.68 101.148Z" fill="#00AC6B" stroke="#06122C" stroke-width="0.8" stroke-miterlimit="10"/>
<path d="M193.933 104.306C194.374 104.197 194.374 103.977 193.934 103.756L190.306 102.32C189.757 102.099 189.206 102.098 188.656 102.207L179.08 104.167C178.64 104.276 178.639 104.496 179.079 104.717L182.597 106.153C183.147 106.374 183.697 106.376 184.247 106.267L193.933 104.306Z" fill="#00AC6B" stroke="#06122C" stroke-width="0.8" stroke-miterlimit="10"/>
<path d="M193.933 104.306C194.374 104.197 194.374 103.977 193.934 103.756L190.306 102.32C189.757 102.099 189.206 102.098 188.656 102.207L179.08 104.167C178.64 104.276 178.639 104.496 179.079 104.717L182.597 106.153C183.147 106.374 183.697 106.376 184.247 106.267L193.933 104.306Z" fill="#00AC6B" stroke="#06122C" stroke-width="0.8" stroke-miterlimit="10"/>
<path d="M146.938 114.001C147.378 113.892 147.378 113.672 147.049 113.452L143.751 112.016C143.201 111.795 142.651 111.794 142.101 111.793L132.415 113.753C131.974 113.862 131.974 114.082 132.303 114.303L135.491 115.738C136.041 115.959 136.591 115.961 137.141 115.962L146.938 114.001Z" fill="#00AC6B" stroke="#06122C" stroke-width="0.8" stroke-miterlimit="10"/>
<path d="M146.938 114.001C147.378 113.892 147.378 113.672 147.049 113.452L143.751 112.016C143.201 111.795 142.651 111.794 142.101 111.793L132.415 113.753C131.974 113.862 131.974 114.082 132.303 114.303L135.491 115.738C136.041 115.959 136.591 115.961 137.141 115.962L146.938 114.001Z" fill="#00AC6B" stroke="#06122C" stroke-width="0.8" stroke-miterlimit="10"/>
<path d="M162.568 110.733C163.008 110.624 163.009 110.404 162.569 110.183L159.161 108.747C158.611 108.526 158.061 108.525 157.511 108.524L147.935 110.484C147.495 110.593 147.494 110.813 147.824 111.034L151.122 112.58C151.671 112.801 152.222 112.802 152.772 112.803L162.568 110.733Z" fill="#00AC6B" stroke="#06122C" stroke-width="0.8" stroke-miterlimit="10"/>
<path d="M162.568 110.733C163.008 110.624 163.009 110.404 162.569 110.183L159.161 108.747C158.611 108.526 158.061 108.525 157.511 108.524L147.935 110.484C147.495 110.593 147.494 110.813 147.824 111.034L151.122 112.58C151.671 112.801 152.222 112.802 152.772 112.803L162.568 110.733Z" fill="#00AC6B" stroke="#06122C" stroke-width="0.8" stroke-miterlimit="10"/>
<path d="M242.995 111.109C243.544 111.33 244.095 111.331 244.645 111.222L254.771 109.153C255.212 109.044 255.212 108.824 254.772 108.713L250.924 107.276C250.374 107.055 249.824 107.054 249.274 107.163L239.258 109.233C238.817 109.342 238.817 109.562 239.257 109.672L242.995 111.109Z" fill="#00AC6B" stroke="#06122C" stroke-width="0.8" stroke-miterlimit="10"/>
<path d="M242.995 111.109C243.544 111.33 244.095 111.331 244.645 111.222L254.771 109.153C255.212 109.044 255.212 108.824 254.772 108.713L250.924 107.276C250.374 107.055 249.824 107.054 249.274 107.163L239.258 109.233C238.817 109.342 238.817 109.562 239.257 109.672L242.995 111.109Z" fill="#00AC6B" stroke="#06122C" stroke-width="0.8" stroke-miterlimit="10"/>
<path d="M131.307 117.16C131.747 117.051 131.747 116.831 131.418 116.61L128.23 115.175C127.68 114.954 127.13 114.953 126.58 114.951L116.894 116.912C116.453 117.021 116.453 117.241 116.783 117.461L119.86 119.007C120.41 119.228 120.96 119.339 121.51 119.23L131.307 117.16Z" fill="#00AC6B" stroke="#06122C" stroke-width="0.8" stroke-miterlimit="10"/>
<path d="M131.307 117.16C131.747 117.051 131.747 116.831 131.418 116.61L128.23 115.175C127.68 114.954 127.13 114.953 126.58 114.951L116.894 116.912C116.453 117.021 116.453 117.241 116.783 117.461L119.86 119.007C120.41 119.228 120.96 119.339 121.51 119.23L131.307 117.16Z" fill="#00AC6B" stroke="#06122C" stroke-width="0.8" stroke-miterlimit="10"/>
<path d="M148.564 125.11C149.005 125.001 149.005 124.781 148.676 124.56L145.488 123.125C144.938 122.904 144.388 122.903 143.948 122.902L133.931 124.972C133.491 125.081 133.491 125.301 133.82 125.521L136.898 127.066C137.448 127.287 137.998 127.398 138.548 127.29L148.564 125.11Z" fill="#00AC6B" stroke="#06122C" stroke-width="0.8" stroke-miterlimit="10"/>
<path d="M148.564 125.11C149.005 125.001 149.005 124.781 148.676 124.56L145.488 123.125C144.938 122.904 144.388 122.903 143.948 122.902L133.931 124.972C133.491 125.081 133.491 125.301 133.82 125.521L136.898 127.066C137.448 127.287 137.998 127.398 138.548 127.29L148.564 125.11Z" fill="#00AC6B" stroke="#06122C" stroke-width="0.8" stroke-miterlimit="10"/>
<path d="M225.418 97.8798C225.858 97.7707 225.859 97.5508 225.419 97.44L221.571 96.0031C221.021 95.7821 220.471 95.781 219.92 95.8899L210.454 97.8508C210.014 97.9599 210.014 98.1798 210.454 98.2906L214.192 99.7273C214.741 99.9483 215.291 99.9494 215.842 99.8405L225.418 97.8798Z" fill="#00AC6B" stroke="#06122C" stroke-width="0.8" stroke-miterlimit="10"/>
<path d="M225.418 97.8798C225.858 97.7707 225.859 97.5508 225.419 97.44L221.571 96.0031C221.021 95.7821 220.471 95.781 219.92 95.8899L210.454 97.8508C210.014 97.9599 210.014 98.1798 210.454 98.2906L214.192 99.7273C214.741 99.9483 215.291 99.9494 215.842 99.8405L225.418 97.8798Z" fill="#00AC6B" stroke="#06122C" stroke-width="0.8" stroke-miterlimit="10"/>
<path d="M233.428 107.352C233.977 107.573 234.528 107.574 235.078 107.465L244.984 105.395C245.425 105.286 245.425 105.066 244.985 104.955L241.137 103.518C240.587 103.297 240.037 103.296 239.487 103.405L229.691 105.365C229.25 105.474 229.25 105.694 229.69 105.805L233.428 107.352Z" fill="#00AC6B" stroke="#06122C" stroke-width="0.8" stroke-miterlimit="10"/>
<path d="M233.428 107.352C233.977 107.573 234.528 107.574 235.078 107.465L244.984 105.395C245.425 105.286 245.425 105.066 244.985 104.955L241.137 103.518C240.587 103.297 240.037 103.296 239.487 103.405L229.691 105.365C229.25 105.474 229.25 105.694 229.69 105.805L233.428 107.352Z" fill="#00AC6B" stroke="#06122C" stroke-width="0.8" stroke-miterlimit="10"/>
<path d="M223.865 103.485C224.414 103.706 224.965 103.707 225.515 103.598L235.201 101.637C235.641 101.528 235.642 101.308 235.202 101.198L231.354 99.7606C230.804 99.5396 230.254 99.5386 229.704 99.6475L220.128 101.608C219.687 101.717 219.687 101.937 220.127 102.048L223.865 103.485Z" fill="#00AC6B" stroke="#06122C" stroke-width="0.8" stroke-miterlimit="10"/>
<path d="M223.865 103.485C224.414 103.706 224.965 103.707 225.515 103.598L235.201 101.637C235.641 101.528 235.642 101.308 235.202 101.198L231.354 99.7606C230.804 99.5396 230.254 99.5386 229.704 99.6475L220.128 101.608C219.687 101.717 219.687 101.937 220.127 102.048L223.865 103.485Z" fill="#00AC6B" stroke="#06122C" stroke-width="0.8" stroke-miterlimit="10"/>
<path d="M134.348 136.408C133.908 136.518 133.797 136.737 134.237 136.958L137.314 138.503C137.864 138.724 138.414 138.835 138.964 138.727L149.531 136.548C149.972 136.439 149.972 136.219 149.642 135.998L146.564 134.563C146.015 134.342 145.465 134.231 144.914 134.34L134.348 136.408Z" fill="#00AC6B" stroke="#06122C" stroke-width="0.8" stroke-miterlimit="10"/>
<path d="M134.348 136.408C133.908 136.518 133.797 136.737 134.237 136.958L137.314 138.503C137.864 138.724 138.414 138.835 138.964 138.727L149.531 136.548C149.972 136.439 149.972 136.219 149.642 135.998L146.564 134.563C146.015 134.342 145.465 134.231 144.914 134.34L134.348 136.408Z" fill="#00AC6B" stroke="#06122C" stroke-width="0.8" stroke-miterlimit="10"/>
<path d="M115.677 120.318C116.118 120.209 116.118 119.989 115.789 119.769L112.711 118.223C112.161 118.002 111.611 117.891 111.061 118L101.265 119.96C100.824 120.069 100.824 120.289 101.154 120.51L104.232 121.945C104.781 122.166 105.331 122.277 105.882 122.168L115.677 120.318Z" fill="#00AC6B" stroke="#06122C" stroke-width="0.8" stroke-miterlimit="10"/>
<path d="M115.677 120.318C116.118 120.209 116.118 119.989 115.789 119.769L112.711 118.223C112.161 118.002 111.611 117.891 111.061 118L101.265 119.96C100.824 120.069 100.824 120.289 101.154 120.51L104.232 121.945C104.781 122.166 105.331 122.277 105.882 122.168L115.677 120.318Z" fill="#00AC6B" stroke="#06122C" stroke-width="0.8" stroke-miterlimit="10"/>
<path d="M212.126 84.6587L211.034 80.1483L204.484 53.6356L202.192 44.0648L195.206 15.4621C195.097 14.8021 194.769 14.1417 194.219 13.7008C193.78 13.1502 193.231 12.8193 192.571 12.5981C191.801 12.3766 191.031 12.2652 190.261 12.3737L168.578 16.6199L159.882 18.3624L144.252 21.4109L109.471 28.1608L95.3824 30.8824L74.9097 34.9111C74.3593 35.02 73.8087 35.2388 73.368 35.5678C72.9273 35.8969 72.4863 36.3358 72.1554 36.775C71.8245 37.2142 71.6033 37.7636 71.4922 38.3132C71.3811 38.8627 71.3801 39.4125 71.5991 39.9627L78.2586 66.8055L82.6252 84.5172L88.629 109.05C88.9568 110.26 89.615 111.251 90.714 111.913C91.703 112.574 93.0228 112.797 94.1235 112.579L101.498 111.164L117.128 108.115L125.823 106.373L150.148 101.582L177.335 96.2467L184.93 94.722L205.953 90.5845L208.484 90.1495C209.145 90.0409 209.695 89.822 210.246 89.3832C210.797 89.0544 211.238 88.6155 211.569 88.0663C211.9 87.5172 212.121 86.9678 212.233 86.3083C212.344 85.8686 212.235 85.2087 212.126 84.6587Z" fill="#FBE62E" stroke="#06122C" stroke-width="0.8" stroke-miterlimit="10"/>
<path d="M212.126 84.6587L211.034 80.1483L204.484 53.6356L202.192 44.0648L195.206 15.4621C195.097 14.8021 194.769 14.1417 194.219 13.7008C193.78 13.1502 193.231 12.8193 192.571 12.5981C191.801 12.3766 191.031 12.2652 190.261 12.3737L168.578 16.6199L159.882 18.3624L144.252 21.4109L109.471 28.1608L95.3824 30.8824L74.9097 34.9111C74.3593 35.02 73.8088 35.2388 73.368 35.5678C72.9273 35.8969 72.4863 36.3358 72.1554 36.775C71.8245 37.2142 71.6033 37.7636 71.4922 38.3132C71.3811 38.8627 71.3801 39.4125 71.5991 39.9627L78.2586 66.8055L82.6252 84.5172L88.629 109.05C88.9568 110.26 89.615 111.251 90.714 111.913C91.703 112.574 93.0228 112.797 94.1235 112.579L101.498 111.164L117.128 108.115L125.823 106.373L150.148 101.582L177.335 96.2467L184.93 94.722L205.953 90.5845L208.484 90.1495C209.145 90.0409 209.695 89.822 210.246 89.3832C210.797 89.0544 211.238 88.6155 211.569 88.0663C211.9 87.5172 212.121 86.9678 212.233 86.3083C212.344 85.8686 212.235 85.2087 212.126 84.6587Z" stroke="#06122C" stroke-width="0.8" stroke-miterlimit="10"/>
<path d="M249.48 112.771C249.04 112.88 249.039 113.1 249.479 113.211L252.997 114.647C253.547 114.868 253.987 114.869 254.538 114.76L264.334 112.69C264.774 112.581 264.775 112.361 264.335 112.25L260.707 110.814C260.157 110.703 259.717 110.592 259.167 110.701L249.48 112.771Z" fill="#00AC6B" stroke="#06122C" stroke-width="0.8" stroke-miterlimit="10"/>
<path d="M249.48 112.771C249.04 112.88 249.039 113.1 249.479 113.211L252.997 114.647C253.547 114.868 253.987 114.869 254.538 114.76L264.334 112.69C264.774 112.581 264.775 112.361 264.335 112.25L260.707 110.814C260.157 110.703 259.717 110.592 259.167 110.701L249.48 112.771Z" fill="#00AC6B" stroke="#06122C" stroke-width="0.8" stroke-miterlimit="10"/>
<path d="M249.48 112.551C249.04 112.66 249.039 112.88 249.479 112.991L252.997 114.427C253.547 114.648 253.987 114.649 254.538 114.54L264.334 112.47C264.774 112.361 264.775 112.141 264.335 112.03L260.707 110.593C260.157 110.372 259.717 110.372 259.167 110.48L249.48 112.551Z" fill="#00AC6B" stroke="#06122C" stroke-width="0.8" stroke-miterlimit="10"/>
<path d="M21.5092 75.9724L134.043 55.2466" stroke="#06122C" stroke-width="0.8" stroke-linecap="round"/>
<path d="M98.0392 75.8379L159.571 63.8492" stroke="#06122C" stroke-width="0.8" stroke-linecap="round"/>
<path d="M19.7936 54.2466L23.1012 50.2324C25.8654 46.714 30.613 45.369 34.8119 46.9148L39.7335 48.5976L35.7193 45.2901C32.2009 42.5258 30.8559 37.7783 32.4016 33.5794L34.0845 28.6578L30.7769 32.672C28.0127 36.1904 23.2651 37.5354 19.0662 35.9897L14.1447 34.3068L18.1589 37.6144C21.6772 40.3786 23.0222 45.1262 21.4765 49.3251L19.7936 54.2466Z" fill="#F78400" stroke="#06122C" stroke-width="0.8" stroke-miterlimit="10" stroke-linejoin="round"/>
</svg>
