<svg width="32" height="32" viewBox="0 0 32 32" fill="none" xmlns="http://www.w3.org/2000/svg">
<path d="M26.8677 7.99524C26.8011 6.89269 25.8546 6.07109 24.7536 6.16016L3.99349 7.8397C2.89251 7.92877 2.05403 8.89478 2.12068 9.99733L2.89331 22.7782C2.95996 23.8807 3.90651 24.7023 5.00748 24.6133L25.7676 22.9337C26.8685 22.8447 27.707 21.8787 27.6404 20.7761L26.8677 7.99524Z" fill="#519AF4" stroke="#01090F" stroke-width="0.3" stroke-miterlimit="10" stroke-linecap="round" stroke-linejoin="round"/>
<path d="M29.0001 10.9639C29.0001 9.8593 28.1047 8.96387 27.0001 8.96387H6.19263C5.08806 8.96387 4.19263 9.8593 4.19263 10.9639V23.7784C4.19263 24.883 5.08806 25.7784 6.19263 25.7784H27.0001C28.1047 25.7784 29.0001 24.883 29.0001 23.7784V10.9639Z" fill="#9BCDFB" stroke="#01090F" stroke-width="0.3" stroke-miterlimit="10" stroke-linecap="round" stroke-linejoin="round"/>
<path d="M23.5251 25.7731H9.75708C10.2102 24.6281 10.9368 23.6095 11.8743 22.8048C12.8118 22.0001 13.9322 21.4333 15.1392 21.1533C14.186 20.797 13.3673 20.1565 12.7955 19.32C12.2238 18.4834 11.927 17.4917 11.946 16.481C11.946 13.7756 14.0161 11.5771 16.5618 11.5771H16.8261H16.8525C17.5066 11.619 18.1424 11.8089 18.7111 12.1322C19.4732 12.5739 20.1035 13.2084 20.5376 13.9709C20.9717 14.7334 21.1941 15.5966 21.182 16.4723C21.2078 17.479 20.9195 18.469 20.3566 19.3069C19.7937 20.1449 18.9836 20.7897 18.0373 21.1533C18.7882 21.3059 19.5094 21.5774 20.1734 21.9575C20.4107 22.0876 20.6388 22.2336 20.856 22.3946C22.0267 23.2666 22.9394 24.4351 23.4987 25.7775L23.5251 25.7731Z" fill="#FFC664" stroke="#01090F" stroke-width="0.3" stroke-linecap="round" stroke-linejoin="round"/>
<path d="M23.523 25.7737H21.9331C21.8191 25.503 21.6896 25.2389 21.5455 24.9826C21.1536 24.2607 20.6497 23.6044 20.0524 23.0377C19.8617 22.8555 19.6602 22.6847 19.449 22.5263C18.564 21.8432 17.5312 21.3734 16.432 21.1539C17.373 20.7929 18.1794 20.1536 18.7419 19.3225C19.3044 18.4914 19.5959 17.5089 19.5767 16.5079C19.5893 15.6326 19.3676 14.7697 18.9343 14.0073C18.501 13.2448 17.8716 12.6101 17.1103 12.1678C16.7724 11.9772 16.4112 11.8303 16.0356 11.7308C16.2939 11.6653 16.5579 11.6243 16.824 11.6084H16.8504C17.5046 11.6502 18.1404 11.8401 18.7091 12.1635C19.4712 12.6051 20.1014 13.2396 20.5355 14.0022C20.9696 14.7647 21.192 15.6278 21.1799 16.5035C21.1993 17.5051 20.908 18.4884 20.3455 19.3202C19.7831 20.152 18.9765 20.7921 18.0352 21.1539C18.7861 21.3065 19.5074 21.5781 20.1713 21.9581C20.4087 22.0882 20.6367 22.2343 20.854 22.3952C22.0246 23.2673 22.9374 24.4357 23.4966 25.7781L23.523 25.7737Z" fill="#519AF4" stroke="#01090F" stroke-width="0.3"/>
</svg>
