<svg width="32" height="32" viewBox="0 0 32 32" fill="none" xmlns="http://www.w3.org/2000/svg">
<path d="M28.9712 15.9349C28.7185 12.7339 25.8545 10.291 22.6535 10.291H8.41752C5.13229 10.291 2.26824 12.7339 2.01553 16.0191C1.76282 19.6413 4.62687 22.5896 8.16481 22.5896H17.7678C18.1047 22.5896 18.4417 22.758 18.6944 23.0107L21.3057 24.9482C21.5584 25.2009 22.0638 25.2009 22.3166 24.8639L23.917 22.6738C24.1698 22.3369 25.0964 22.0841 25.4333 21.9999C27.7919 20.9891 29.224 18.6304 28.9712 15.9349Z" fill="#FFA9C6" stroke="#01090F" stroke-width="0.3" stroke-miterlimit="10" stroke-linecap="round" stroke-linejoin="round"/>
<path d="M18.9468 17.9761H15.4931C15.3734 17.9761 15.2412 17.9148 15.1359 17.8094C15.0306 17.7041 14.9692 17.5719 14.9692 17.4522C14.9692 17.3325 15.0306 17.2003 15.1359 17.095C15.2412 16.9897 15.3734 16.9283 15.4931 16.9283H18.9468C19.0665 16.9283 19.1987 16.9897 19.304 17.095C19.4093 17.2003 19.4707 17.3325 19.4707 17.4522C19.4707 17.6327 19.4171 17.7595 19.3356 17.841C19.2541 17.9225 19.1273 17.9761 18.9468 17.9761Z" fill="#FFC664" stroke="#01090F" stroke-width="0.3"/>
<path d="M23.4113 15.7027H15.4931C15.3734 15.7027 15.2412 15.6413 15.1359 15.536C15.0306 15.4307 14.9692 15.2985 14.9692 15.1788C14.9692 15.0591 15.0306 14.9268 15.1359 14.8215C15.2412 14.7162 15.3734 14.6549 15.4931 14.6549H23.4113C23.531 14.6549 23.6633 14.7162 23.7686 14.8215C23.8739 14.9268 23.9352 15.0591 23.9352 15.1788C23.9352 15.3593 23.8817 15.4861 23.8002 15.5676C23.7187 15.6491 23.5919 15.7027 23.4113 15.7027Z" fill="#FFC664" stroke="#01090F" stroke-width="0.3"/>
<path d="M13.2181 7.93331C11.8703 6.50128 9.51168 6.75399 8.41661 8.43872C8.33237 8.52296 8.1639 8.52296 7.99542 8.43872C6.98458 6.75399 4.62596 6.58552 3.27817 7.93331L3.19394 8.01754C1.93039 9.28109 1.93039 11.387 3.19394 12.6506L7.74271 17.1993C8.07966 17.5363 8.58508 17.5363 8.92203 17.1993L13.4708 12.6506C14.7344 11.387 14.7344 9.28109 13.4708 8.01754L13.2181 7.93331Z" fill="#FFC664" stroke="#01090F" stroke-width="0.3" stroke-miterlimit="10"/>
</svg>
