<svg width="32" height="32" viewBox="0 0 32 32" fill="none" xmlns="http://www.w3.org/2000/svg">
<path d="M17.1961 25.1546H2C2.50401 23.896 3.30705 22.7769 4.34075 21.8926C5.37444 21.0083 6.60818 20.385 7.9369 20.0757C6.88857 19.6793 5.989 18.9716 5.36092 18.0492C4.73284 17.1267 4.40684 16.0345 4.4274 14.9214C4.4274 11.9321 6.70857 9.50586 9.51617 9.50586H9.80863H9.83787C10.5571 9.54578 11.2585 9.74406 11.8909 10.0863C12.7319 10.5749 13.4273 11.276 13.9061 12.1183C14.385 12.9606 14.6301 13.9138 14.6166 14.8808C14.6368 15.9847 14.315 17.0682 13.6947 17.9848C13.0744 18.9014 12.1855 19.6069 11.1481 20.0061C11.9813 20.1747 12.7814 20.4766 13.517 20.8999C13.778 21.0454 14.0299 21.2063 14.2715 21.3817C15.3104 22.1362 16.1658 23.112 16.775 24.2375C16.9369 24.533 17.0776 24.8395 17.1961 25.1546Z" fill="#4AC7D3" stroke="#01090F" stroke-width="0.3" stroke-linecap="round" stroke-linejoin="round"/>
<path d="M12.7789 21.432L12.7799 21.4328C13.0138 21.6178 13.2379 21.8146 13.4515 22.0225C14.1272 22.6582 14.6988 23.3947 15.1458 24.2054C15.1459 24.2057 15.146 24.2059 15.1461 24.2061L15.0148 24.2785C15.1746 24.5619 15.3172 24.8546 15.4418 25.155L12.7789 21.432ZM12.7789 21.432C11.9067 20.7533 10.9051 20.26 9.83657 19.9806C10.7211 19.5544 11.4791 18.9021 12.0305 18.0873C12.6678 17.1457 12.9983 16.0325 12.9772 14.8982C12.9912 13.906 12.7402 12.9277 12.2497 12.0631C11.7588 11.1977 11.0456 10.4771 10.1828 9.97448L10.1828 9.97447L10.1808 9.97334C9.97359 9.85681 9.75842 9.75528 9.53703 9.66942C9.62872 9.65807 9.72082 9.64979 9.81318 9.64463H9.83408C10.5291 9.68381 11.2067 9.87553 11.8179 10.2059C12.6352 10.6812 13.3108 11.3628 13.7761 12.1812C14.2418 13.0003 14.4802 13.9272 14.467 14.8674L14.467 14.8674L14.4671 14.8723C14.4867 15.9452 14.1739 16.9984 13.5708 17.8895C12.9678 18.7806 12.1035 19.4666 11.0946 19.8548L10.6141 20.0397L11.1187 20.1419C11.9361 20.3073 12.721 20.6035 13.4426 21.0187L13.4444 21.0197C13.7001 21.1623 13.947 21.32 14.1838 21.4918C15.2046 22.2332 16.045 23.192 16.6435 24.2977L16.6435 24.2978C16.7681 24.5272 16.8795 24.7633 16.9775 25.005H15.5413L12.7789 21.432Z" fill="#FFC664" stroke="#01090F" stroke-width="0.3"/>
<path d="M28.9996 25.1605H13.7917C14.2967 23.9014 15.1008 22.7821 16.1355 21.8978C17.1702 21.0135 18.4049 20.3904 19.7345 20.0816C18.6862 19.6852 17.7866 18.9775 17.1585 18.0551C16.5304 17.1326 16.2044 16.0403 16.225 14.9272C16.225 11.938 18.5062 9.51172 21.3196 9.51172H21.6121C22.3319 9.5481 23.034 9.74659 23.6651 10.0922C24.5199 10.5843 25.2256 11.2955 25.7083 12.1513C26.1909 13.007 26.4327 13.9759 26.4084 14.9563C26.4285 16.0602 26.1067 17.1437 25.4864 18.0603C24.8661 18.9769 23.9772 19.6824 22.9398 20.0816C23.7746 20.2512 24.5764 20.553 25.3146 20.9755C25.5745 21.1196 25.8246 21.2806 26.0633 21.4572C27.0942 22.2051 27.9452 23.1706 28.555 24.284C28.7209 24.567 28.8693 24.8597 28.9996 25.1605Z" fill="#4AC7D3" stroke="#01090F" stroke-width="0.3" stroke-linecap="round" stroke-linejoin="round"/>
<path d="M24.5828 21.4375L24.5827 21.4374C23.7119 20.7596 22.7122 20.2665 21.6456 19.9864C22.5226 19.5642 23.2758 18.9201 23.8269 18.1154C24.4645 17.1844 24.8014 16.0825 24.7926 14.9566C24.8062 13.9635 24.5543 12.9845 24.0625 12.1196C23.5705 11.2542 22.8561 10.5339 21.9923 10.032L21.9923 10.032L21.9904 10.031C21.7836 9.9147 21.569 9.81338 21.3482 9.72765C21.44 9.71624 21.5323 9.70784 21.6249 9.70247C22.3188 9.73873 22.9954 9.93052 23.6039 10.2634C24.4266 10.7403 25.1063 11.4261 25.573 12.2502C26.0399 13.0747 26.2767 14.0079 26.2591 14.9534L26.259 14.9534L26.2591 14.9589C26.2787 16.0319 25.9659 17.085 25.3629 17.9761C24.7598 18.8672 23.8955 19.5533 22.8866 19.9415L22.4068 20.1261L22.9106 20.2285C23.7298 20.3949 24.5165 20.6911 25.2408 21.1055L25.2425 21.1065C25.4967 21.2475 25.7413 21.4049 25.9747 21.5777L25.9759 21.5785C26.9889 22.3135 27.825 23.262 28.4241 24.3559L28.4241 24.356L28.4263 24.3597C28.5503 24.5713 28.6644 24.7884 28.7682 25.0104H27.3441C27.2232 24.7353 27.0854 24.4679 26.9313 24.2097C26.4919 23.3996 25.9264 22.6635 25.2557 22.0284C25.0431 21.8187 24.8184 21.6214 24.5828 21.4375Z" fill="#FFC664" stroke="#01090F" stroke-width="0.3"/>
<path d="M24.8177 25.1545H6.5332C7.13499 23.634 8.09988 22.2813 9.34493 21.2126C10.59 20.1439 12.0779 19.3912 13.6809 19.0193C12.4149 18.546 11.3277 17.6955 10.5684 16.5845C9.80909 15.4735 9.415 14.1565 9.44023 12.8143C9.44023 9.22138 12.1893 6.30176 15.5702 6.30176H15.9211H15.9562C16.8249 6.35731 17.6692 6.60948 18.4245 7.03892C19.4366 7.62548 20.2737 8.46812 20.8502 9.48076C21.4267 10.4934 21.722 11.6398 21.7059 12.8027C21.7402 14.1397 21.3573 15.4545 20.6097 16.5672C19.8622 17.68 18.7864 18.5364 17.5296 19.0193C18.5268 19.2219 19.4847 19.5825 20.3665 20.0873C20.6816 20.26 20.9846 20.454 21.2731 20.6677C22.8277 21.8258 24.0399 23.3776 24.7826 25.1603L24.8177 25.1545Z" fill="#97DDE5" stroke="#01090F" stroke-width="0.3" stroke-linecap="round" stroke-linejoin="round"/>
<path d="M24.5511 25.0044C23.8127 23.3363 22.653 21.8836 21.1824 20.7881C20.8994 20.5784 20.6022 20.3882 20.2931 20.2187L20.2906 20.2174L20.2906 20.2173C19.4228 19.7206 18.48 19.3656 17.4984 19.1661L16.9943 19.0637L17.4745 18.8791C18.6961 18.4096 19.7425 17.5789 20.4723 16.4998C21.202 15.4207 21.5798 14.1452 21.5547 12.8461L21.5546 12.8412L21.5546 12.8412C21.5703 11.705 21.2818 10.585 20.7185 9.5955C20.1553 8.60621 19.3375 7.78283 18.3486 7.20954C17.6146 6.79233 16.7942 6.54699 15.9501 6.49229H15.9243C15.7738 6.5014 15.6238 6.51673 15.4748 6.53819C15.7849 6.6528 16.0855 6.79201 16.3737 6.95461L16.3754 6.95554L16.3753 6.95555C17.4092 7.55613 18.2641 8.41823 18.8527 9.45398C19.4409 10.489 19.7421 11.6604 19.7255 12.8487C19.751 14.2081 19.3549 15.5425 18.591 16.671C17.9147 17.6703 16.979 18.4654 15.8868 18.975C17.1974 19.3025 18.427 19.8969 19.4967 20.7223C19.7816 20.936 20.0534 21.1664 20.3107 21.4122C20.3107 21.4123 20.3108 21.4123 20.3109 21.4124L20.2072 21.5209C21.0005 22.2734 21.6696 23.145 22.1901 24.1038L24.5511 25.0044ZM24.5511 25.0044H22.8039C22.6601 24.672 22.4991 24.3471 22.3214 24.0312L24.5511 25.0044Z" fill="#FFC664" stroke="#01090F" stroke-width="0.3"/>
</svg>
