<svg width="32" height="32" viewBox="0 0 32 32" fill="none" xmlns="http://www.w3.org/2000/svg">
<path d="M7.34274 14.4666C8.26751 14.4666 9.13063 14.7748 9.68549 15.2372C10.2095 14.7132 11.011 14.3741 11.9049 14.3741C12.8297 14.3741 13.662 14.744 14.2168 15.2988C14.6176 14.744 15.4499 14.3741 16.3746 14.3741C17.3919 14.3741 18.2858 14.8365 18.6249 15.4838C18.964 14.8365 19.7963 14.3741 20.7827 14.3741C21.6458 14.3741 22.3856 14.7132 22.7864 15.2372C23.2487 14.7132 24.1427 14.3741 25.1599 14.3741C26.208 14.3741 27.1019 14.744 27.5643 15.2988C27.6568 14.8056 27.6876 14.3124 27.6876 13.7884C27.6876 8.23979 22.6014 3.73926 16.3438 3.73926C10.0862 3.73926 5 8.27062 5 13.8192C5 14.2816 5.03083 14.7132 5.09248 15.1755C5.67816 14.744 6.4488 14.4666 7.34274 14.4666Z" fill="#BD80FF"/>
<path d="M17.7937 4.00195C17.7937 4.00195 26.7861 6.75772 25.738 14.2792L22.8797 14.8992C22.8797 14.8992 24.3299 7.61684 17.1001 4.07551L17.7937 4.00195Z" fill="#A041FF"/>
<path d="M14.9156 4.00195C14.9156 4.00195 5.92316 6.75772 6.97123 14.2792L9.67058 15.0253C9.67058 15.0253 8.37936 7.61684 15.6091 4.07551L14.9156 4.00195Z" fill="#A041FF"/>
<path d="M14.1373 15.1833C13.9937 14.2901 13.7927 11.85 14.1373 9.23556C14.4788 6.64515 15.4744 4.73489 15.9424 4.08327L16.7856 4.06543C17.8469 5.20034 18.2253 7.64879 18.593 9.18302C18.8873 10.4104 18.7507 13.7857 18.6456 15.3199C17.9205 14.5213 17.1744 14.4477 16.2812 14.3742C15.5666 14.3153 14.5542 14.8891 14.1373 15.1833Z" fill="#A041FF"/>
<path d="M7.34274 14.4666C8.26751 14.4666 9.13063 14.7748 9.68549 15.2372C10.2095 14.7132 11.011 14.3741 11.9049 14.3741C12.8297 14.3741 13.662 14.744 14.2168 15.2988C14.6176 14.744 15.4499 14.3741 16.3746 14.3741C17.3919 14.3741 18.2858 14.8365 18.6249 15.4838C18.964 14.8365 19.7963 14.3741 20.7827 14.3741C21.6458 14.3741 22.3856 14.7132 22.7864 15.2372C23.2487 14.7132 24.1427 14.3741 25.1599 14.3741C26.208 14.3741 27.1019 14.744 27.5643 15.2988C27.6568 14.8056 27.6876 14.3124 27.6876 13.7884C27.6876 8.23979 22.6014 3.73926 16.3438 3.73926C10.0862 3.73926 5 8.27062 5 13.8192C5 14.2816 5.03083 14.7132 5.09248 15.1755C5.67816 14.744 6.4488 14.4666 7.34274 14.4666Z" stroke="#01090F" stroke-width="0.3" stroke-miterlimit="10" stroke-linecap="round" stroke-linejoin="round"/>
<path d="M23.9628 8.07953L23.8345 8.15731L23.9628 8.07953ZM17.3263 4.07401C18.1209 4.27785 19.4059 4.72903 20.6658 5.4175C21.9284 6.10738 23.1485 7.02608 23.8345 8.15731L24.0911 8.00174C23.3648 6.80431 22.0909 5.85427 20.8097 5.15424C19.526 4.45279 18.2174 3.9929 17.4008 3.78342L17.3263 4.07401ZM23.8345 8.15731C24.7171 9.61241 25.2087 10.5582 25.4509 11.4412C25.6917 12.3192 25.6887 13.1456 25.558 14.3686L25.8563 14.4005C25.9884 13.1646 25.9959 12.2939 25.7402 11.3618C25.4859 10.4347 24.9739 9.45747 24.0911 8.00174L23.8345 8.15731Z" fill="#01090F"/>
<path d="M8.74741 8.07953L8.87566 8.15731L8.74741 8.07953ZM15.384 4.07401C14.5893 4.27785 13.3044 4.72903 12.0444 5.4175C10.7818 6.10738 9.56175 7.02608 8.87566 8.15731L8.61915 8.00174C9.34539 6.80431 10.6193 5.85427 11.9005 5.15424C13.1843 4.45279 14.4928 3.9929 15.3094 3.78342L15.384 4.07401ZM8.87566 8.15731C7.99315 9.61241 7.50152 10.5582 7.25932 11.4412C7.01848 12.3192 7.0215 13.1456 7.15217 14.3686L6.85387 14.4005C6.72182 13.1646 6.71434 12.2939 6.97001 11.3618C7.22433 10.4347 7.73626 9.45747 8.61915 8.00174L8.87566 8.15731Z" fill="#01090F"/>
<path d="M16.0675 25.3172L9.6866 15.2372C9.28587 5.65044 16.3449 3.73926 16.3449 3.73926C16.3449 3.73926 13.1391 6.17448 14.218 15.2988L16.3758 25.3172L18.626 15.4838C19.4275 5.65044 16.3449 3.77008 16.3449 3.77008C16.3449 3.77008 23.9588 6.17448 22.7875 15.268L16.7148 25.3172" stroke="#01090F" stroke-width="0.3" stroke-miterlimit="10" stroke-linecap="round" stroke-linejoin="round"/>
<path d="M16.0672 25.3173L9.68628 15.2373M14.2176 15.299L16.3754 25.3173L18.6257 15.4839M22.7871 15.2681L16.7145 25.3173" stroke="#01090F" stroke-width="0.3" stroke-miterlimit="10" stroke-linecap="round" stroke-linejoin="round"/>
<path d="M16.8681 4.07889H15.8817C15.6043 4.07889 15.3577 3.86312 15.3577 3.55486V3.52403C15.3577 3.2466 15.5734 3 15.8817 3H16.8681C17.1455 3 17.3922 3.21578 17.3922 3.52403V3.55486C17.3922 3.86312 17.1455 4.07889 16.8681 4.07889Z" fill="#FFC664" stroke="#01090F" stroke-width="0.3" stroke-miterlimit="10" stroke-linecap="round" stroke-linejoin="round"/>
<path d="M5.09375 15.1445L15.6669 25.317" stroke="#01090F" stroke-width="0.3" stroke-miterlimit="10" stroke-linecap="round" stroke-linejoin="round"/>
<path d="M27.5331 15.3301L17.0833 25.3176" stroke="#01090F" stroke-width="0.3" stroke-miterlimit="10" stroke-linecap="round" stroke-linejoin="round"/>
<path d="M12.9072 25.5855V26.1477L16.1543 28.2494L16.6114 28.2073L19.8112 26.0846L19.785 25.5382L19.4697 25.3018H13.2487L12.9072 25.5855Z" fill="#FFC664"/>
<path d="M16.0964 28.244C15.0508 28.6486 12.9544 29.4599 12.9333 29.4683L12.9701 29.8308L13.2959 29.9989H19.354L19.7586 29.8308L19.8111 29.4683L16.7111 28.2178L16.0964 28.244Z" fill="#BD80FF"/>
<path d="M19.7974 25.7171V29.5703C19.7974 29.7861 19.6125 29.9711 19.3967 29.9711H13.3241C13.1083 29.9711 12.9233 29.7861 12.9233 29.5703V25.7171C12.9233 25.5014 13.1083 25.3164 13.3241 25.3164H19.3967C19.6125 25.3164 19.7974 25.5014 19.7974 25.7171Z" stroke="#01090F" stroke-width="0.3" stroke-miterlimit="10" stroke-linecap="round" stroke-linejoin="round"/>
<path d="M16.283 28.2744L13.0964 29.5691V26.1475L14.6751 27.2264L16.283 28.2744Z" fill="#A041FF"/>
<path d="M16.4377 28.276L19.627 29.5707V25.8408L18.047 27.228L16.4377 28.276Z" fill="#A041FF"/>
<path d="M12.9233 26.0873L16.0675 28.1834C16.2525 28.3067 16.4683 28.3067 16.6532 28.1834L19.7974 25.9023" stroke="#01090F" stroke-width="0.3" stroke-miterlimit="10" stroke-linecap="round" stroke-linejoin="round"/>
<line x1="12.947" y1="29.5068" x2="16.1416" y2="28.2563" stroke="#01090F" stroke-width="0.3"/>
<line y1="-0.15" x2="3.43058" y2="-0.15" transform="matrix(-0.931198 -0.364515 -0.364515 0.931198 19.7217 29.6465)" stroke="#01090F" stroke-width="0.3"/>
</svg>
