<svg width="82" height="82" viewBox="0 0 82 82" fill="none" xmlns="http://www.w3.org/2000/svg" class="xs-hidden">
    <path
        d="M79.7441 39.8998C67.9338 -2.6804 65.2031 -1.95128 36.121 1.40264C-0.675408 5.6315 2.19184 8.11049 0.212072 36.6188C-2.31384 74.2411 17.9617 90.5003 48.3409 77.6679C78.6518 64.9084 86.5027 64.3251 79.7441 39.8998Z"
        fill="#EAF1FE"></path>
    <path
        d="M40.0123 65.2727C52.6429 65.2727 62.882 64.1302 62.882 62.7208C62.882 61.3115 52.6429 60.1689 40.0123 60.1689C27.3817 60.1689 17.1426 61.3115 17.1426 62.7208C17.1426 64.1302 27.3817 65.2727 40.0123 65.2727Z"
        fill="#EAF1FE"></path>
    <path
        d="M56.0543 56.6314H25.8809C27.9949 51.8268 32.4152 48.1752 37.6684 47.1502C33.6324 45.8049 30.6855 42.0252 30.6855 37.5408C30.6855 31.9674 35.234 27.4189 40.8074 27.4189C40.9996 27.4189 41.1918 27.4189 41.384 27.4189H41.4481C42.9215 27.483 44.2668 27.9314 45.548 28.5721C48.7512 30.2377 50.9934 33.633 50.9934 37.5408C50.9934 42.0252 48.1105 45.7408 44.0746 47.1502C49.3918 48.0471 53.8762 51.6986 56.0543 56.6314Z"
        fill="white" stroke="#15357A" stroke-width="0.5" stroke-miterlimit="10" stroke-linecap="round"
        stroke-linejoin="round"></path>
    <path opacity="0.1"
        d="M56.0539 56.6311H52.5305C50.3524 51.7623 45.868 48.1107 40.4867 47.0857C44.4586 45.7404 47.4055 41.9607 47.4055 37.4764C47.4055 33.5686 45.2274 30.2373 41.9602 28.5076C41.1914 28.1232 40.4227 27.8029 39.5898 27.6107C40.1664 27.4826 40.743 27.3545 41.3195 27.3545H41.3836C42.857 27.4186 44.2024 27.867 45.4836 28.5076C48.6867 30.1732 50.9289 33.5686 50.9289 37.4764C50.9289 41.9607 48.0461 45.6764 44.0102 47.0857C49.3914 48.0467 53.8758 51.6982 56.0539 56.6311Z"
        fill="#15357A"></path>
    <path
        d="M17.1687 49.6484L17.8094 50.8016L18.9625 51.4422L17.8094 52.0828L17.1687 53.2359L16.5281 52.0828L15.375 51.4422L16.5281 50.8016L17.1687 49.6484Z"
        fill="#2C71F0"></path>
    <path
        d="M20.1795 24.9844L21.0123 26.5219L22.5498 27.3547L21.0123 28.1875L20.1795 29.7891L19.3467 28.1875L17.7451 27.3547L19.3467 26.5219L20.1795 24.9844Z"
        fill="#15357A"></path>
    <path
        d="M63.0377 27.8672L63.7424 29.1484L65.0236 29.8531L63.7424 30.5578L63.0377 31.9031L62.333 30.5578L61.0518 29.8531L62.333 29.1484L63.0377 27.8672Z"
        fill="#2C71F0"></path>
    <path
        d="M64.4471 50.417L64.9596 51.3139L65.9205 51.8264L64.9596 52.4029L64.4471 53.2998L63.9346 52.4029L62.9736 51.8264L63.9346 51.3139L64.4471 50.417Z"
        fill="#15357A"></path>
</svg>