<svg width="32" height="32" viewBox="0 0 32 32" fill="none" xmlns="http://www.w3.org/2000/svg">
<path d="M29.1216 16.5025L29.0809 15.1437C29.0765 14.9523 29.006 14.7683 28.8813 14.6229C28.7566 14.4776 28.5855 14.38 28.397 14.3465C28.3412 14.3421 28.2851 14.3421 28.2294 14.3465L27.5545 14.3556C27.3618 14.3622 27.1728 14.301 27.0206 14.1826C26.8683 14.0643 26.7623 13.8963 26.7211 13.7079C26.694 13.5766 26.6623 13.4497 26.6305 13.3229C26.5671 13.0738 26.4992 12.8292 26.4177 12.5937C26.124 11.6869 25.708 10.8245 25.1812 10.0302L25.1495 9.98033C25.0513 9.82686 25.0061 9.64544 25.0208 9.46385C25.0356 9.28225 25.1094 9.11049 25.231 8.97484L25.6568 8.52191C25.7327 8.44345 25.7922 8.3507 25.832 8.24904C25.8717 8.14737 25.8909 8.03883 25.8884 7.9297C25.8859 7.82056 25.8617 7.71302 25.8172 7.61331C25.7728 7.51359 25.709 7.4237 25.6296 7.34884L25.2446 6.98197L24.5335 6.29805C24.4554 6.22229 24.3631 6.16282 24.2618 6.12312C24.1605 6.08342 24.0523 6.06427 23.9435 6.0668C23.8348 6.06933 23.7276 6.09349 23.6283 6.13785C23.5289 6.18222 23.4394 6.24592 23.365 6.32523L22.9619 6.74192C22.831 6.8774 22.6582 6.96459 22.4715 6.98926C22.2848 7.01394 22.0952 6.97465 21.9337 6.87779C20.7263 6.10927 19.3773 5.59028 17.9661 5.35144C17.7784 5.31884 17.6079 5.22189 17.4839 5.07725C17.3599 4.9326 17.2902 4.74929 17.2867 4.55882V3.95643C17.2838 3.84757 17.2594 3.74035 17.215 3.64091C17.1706 3.54147 17.1071 3.45175 17.028 3.37688C16.9489 3.30201 16.8559 3.24345 16.7542 3.20456C16.6524 3.16567 16.5441 3.14721 16.4352 3.15022L14.9224 3.19098C14.813 3.19392 14.7052 3.21839 14.6052 3.26301C14.5052 3.30762 14.415 3.3715 14.3397 3.451C14.2644 3.5305 14.2055 3.62406 14.1664 3.72632C14.1273 3.82859 14.1087 3.93756 14.1117 4.04701L14.1479 5.40579C13.9622 5.44655 13.7811 5.48279 13.5954 5.53261C12.3153 5.85123 11.1052 6.40405 10.0263 7.16314C9.8702 7.27177 9.68147 7.32341 9.49179 7.30939C9.30212 7.29537 9.12303 7.21655 8.98458 7.08614L8.53166 6.63322C8.37187 6.4813 8.15864 6.39848 7.93821 6.40272C7.71777 6.40696 7.50788 6.49792 7.35405 6.65586L6.26703 7.75647C6.11567 7.91473 6.03309 8.12646 6.03734 8.34541C6.04158 8.56436 6.1323 8.77274 6.28968 8.92502L6.84225 9.42776C6.97628 9.55552 7.06311 9.72489 7.0886 9.90829C7.1141 10.0917 7.07676 10.2783 6.98266 10.4378C6.27881 11.6158 5.80827 12.9182 5.5967 14.2741C5.56451 14.4631 5.46808 14.6353 5.32368 14.7616C5.17929 14.8878 4.99577 14.9604 4.80409 14.967L3.71254 14.9942C3.60388 14.9971 3.49687 15.0215 3.39768 15.066C3.29848 15.1104 3.20905 15.174 3.13454 15.2532C3.06003 15.3323 3.00191 15.4254 2.96352 15.5271C2.92513 15.6288 2.90724 15.7371 2.91086 15.8457L2.95162 17.363C2.95456 17.4719 2.97891 17.5791 3.0233 17.6785C3.06769 17.778 3.13124 17.8677 3.21031 17.9426C3.28939 18.0174 3.38245 18.076 3.48416 18.1149C3.58588 18.1538 3.69426 18.1722 3.80312 18.1692L5.69182 18.1194C5.72352 18.2689 5.75976 18.4183 5.79599 18.5723C6.10618 19.8098 6.6354 20.9817 7.35858 22.0327C7.46652 22.1888 7.51695 22.3775 7.50126 22.5667C7.48556 22.7558 7.40472 22.9337 7.27253 23.0699L6.36668 24.0029C6.29147 24.0813 6.23249 24.1737 6.19313 24.275C6.15378 24.3762 6.13482 24.4842 6.13734 24.5928C6.13987 24.7014 6.16383 24.8084 6.20785 24.9077C6.25187 25.007 6.31508 25.0967 6.39385 25.1714L6.71996 25.4885L7.4854 26.2268C7.64165 26.3827 7.85342 26.4704 8.07421 26.4704C8.29499 26.4704 8.50676 26.3827 8.66301 26.2268L9.56886 25.2666C9.6969 25.1314 9.86712 25.0439 10.0515 25.0184C10.2359 24.9929 10.4235 25.0309 10.5834 25.1262C11.3956 25.6201 12.2699 26.0039 13.1832 26.2675C13.463 26.3539 13.7472 26.4249 14.0347 26.4804C14.2155 26.5189 14.3782 26.6171 14.4965 26.7593C14.6148 26.9014 14.6818 27.0791 14.6869 27.264L14.7186 28.5004V28.5639C14.7232 28.6752 14.7501 28.7844 14.7978 28.8851C14.8455 28.9858 14.913 29.0758 14.9963 29.1498C15.0796 29.2238 15.177 29.2802 15.2825 29.3157C15.3881 29.3512 15.4998 29.3651 15.6109 29.3565L17.1372 29.3248C17.2459 29.3218 17.3529 29.2975 17.4521 29.253C17.5513 29.2086 17.6407 29.1449 17.7152 29.0658C17.7897 28.9867 17.8479 28.8936 17.8863 28.7919C17.9246 28.6902 17.9425 28.5819 17.9389 28.4733L17.9117 27.2866C17.9059 27.0903 17.9674 26.8978 18.0861 26.7413C18.2047 26.5848 18.3734 26.4735 18.564 26.426L18.8357 26.3581C19.987 26.0703 21.0817 25.5911 22.0741 24.9405C22.2303 24.8397 22.416 24.7948 22.601 24.8129C22.786 24.8309 22.9595 24.911 23.0932 25.0401L23.9991 25.9142C24.1583 26.0673 24.3717 26.1508 24.5925 26.1466C24.8133 26.1423 25.0234 26.0506 25.1767 25.8916L26.2274 24.7955C26.3821 24.6395 26.4688 24.4287 26.4688 24.209C26.4688 23.9893 26.3821 23.7785 26.2274 23.6224L25.3805 22.8072C25.2419 22.6759 25.1538 22.5003 25.1314 22.3107C25.1091 22.1212 25.1539 21.9298 25.2582 21.77C25.9641 20.6717 26.4658 19.4549 26.7393 18.1783C26.7803 17.9995 26.8794 17.8393 27.0212 17.7229C27.163 17.6066 27.3394 17.5405 27.5228 17.5351H28.3426C28.5593 17.5211 28.762 17.4236 28.9082 17.2631C29.0543 17.1026 29.1325 16.8916 29.1262 16.6746L29.1216 16.5025ZM12.9884 22.6668C12.2562 22.2943 11.5929 21.7996 11.0273 21.2038C10.3471 20.5246 9.80744 19.718 9.43901 18.8302C9.07058 17.9424 8.88062 16.9907 8.87999 16.0294C8.87872 14.0881 9.64868 12.2258 11.0205 10.8522C12.3923 9.4786 14.2536 8.7062 16.1949 8.70493C18.1362 8.70366 19.9985 9.47361 21.3721 10.8454C21.9118 11.345 22.3702 11.9257 22.7309 12.5665C23.0552 13.1345 23.3005 13.744 23.4601 14.3782C23.548 14.7328 23.6115 15.093 23.6503 15.4562C23.7526 16.5105 23.6249 17.5744 23.276 18.5745C22.9271 19.5746 22.3652 20.487 21.6293 21.2488C20.8933 22.0106 20.0008 22.6036 19.0133 22.9868C18.0259 23.37 16.967 23.5344 15.9098 23.4684C14.8898 23.4136 13.8936 23.1402 12.9884 22.6668Z" fill="#FFC664" stroke="#01090F" stroke-width="0.777974" stroke-linecap="round" stroke-linejoin="round"/>
<mask id="mask0_30549_31401" style="mask-type:alpha" maskUnits="userSpaceOnUse" x="2" y="2" width="28" height="28">
<path d="M29.1216 16.5034L29.0809 15.1447C29.0765 14.9532 29.006 14.7692 28.8813 14.6239C28.7566 14.4786 28.5855 14.3809 28.397 14.3475C28.3412 14.343 28.2851 14.343 28.2294 14.3475L27.5545 14.3566C27.3618 14.3631 27.1728 14.3019 27.0206 14.1836C26.8683 14.0653 26.7623 13.8973 26.7211 13.7089C26.694 13.5775 26.6623 13.4507 26.6305 13.3239C26.5671 13.0748 26.4992 12.8302 26.4177 12.5947C26.124 11.6879 25.708 10.8255 25.1812 10.0311L25.1495 9.98131C25.0513 9.82784 25.0061 9.64642 25.0208 9.46482C25.0356 9.28323 25.1094 9.11146 25.231 8.97581L25.6568 8.52289C25.7327 8.44443 25.7922 8.35168 25.832 8.25001C25.8717 8.14835 25.8909 8.0398 25.8884 7.93067C25.8859 7.82154 25.8617 7.714 25.8172 7.61428C25.7728 7.51457 25.709 7.42467 25.6296 7.34981L25.2446 6.98294L24.5335 6.29903C24.4554 6.22326 24.3631 6.1638 24.2618 6.1241C24.1605 6.0844 24.0523 6.06525 23.9435 6.06778C23.8348 6.07031 23.7276 6.09446 23.6283 6.13883C23.5289 6.1832 23.4394 6.24689 23.365 6.3262L22.9619 6.74289C22.831 6.87838 22.6582 6.96557 22.4715 6.99024C22.2848 7.01492 22.0952 6.97562 21.9337 6.87877C20.7263 6.11024 19.3773 5.59126 17.9661 5.35241C17.7784 5.31982 17.6079 5.22287 17.4839 5.07822C17.3599 4.93358 17.2902 4.75027 17.2867 4.55979V3.9574C17.2838 3.84854 17.2594 3.74133 17.215 3.64189C17.1706 3.54245 17.1071 3.45273 17.028 3.37786C16.9489 3.30299 16.8559 3.24443 16.7542 3.20554C16.6524 3.16665 16.5441 3.14818 16.4352 3.1512L14.9224 3.19196C14.813 3.19489 14.7052 3.21937 14.6052 3.26398C14.5052 3.3086 14.415 3.37248 14.3397 3.45198C14.2644 3.53148 14.2055 3.62503 14.1664 3.7273C14.1273 3.82956 14.1087 3.93854 14.1117 4.04799L14.1479 5.40676C13.9622 5.44753 13.7811 5.48376 13.5954 5.53358C12.3153 5.8522 11.1052 6.40503 10.0263 7.16411C9.8702 7.27275 9.68147 7.32439 9.49179 7.31037C9.30212 7.29635 9.12303 7.21752 8.98458 7.08712L8.53166 6.63419C8.37187 6.48228 8.15864 6.39946 7.93821 6.4037C7.71777 6.40794 7.50788 6.49889 7.35405 6.65684L6.26703 7.75745C6.11567 7.91571 6.03309 8.12744 6.03734 8.34639C6.04158 8.56534 6.1323 8.77371 6.28968 8.92599L6.84225 9.42874C6.97628 9.5565 7.06311 9.72586 7.0886 9.90926C7.1141 10.0927 7.07676 10.2793 6.98266 10.4388C6.27881 11.6168 5.80827 12.9192 5.5967 14.275C5.56451 14.4641 5.46808 14.6363 5.32368 14.7625C5.17929 14.8888 4.99577 14.9614 4.80409 14.968L3.71254 14.9952C3.60388 14.9981 3.49687 15.0225 3.39768 15.0669C3.29848 15.1114 3.20905 15.175 3.13454 15.2542C3.06003 15.3333 3.00191 15.4264 2.96352 15.5281C2.92513 15.6298 2.90724 15.7381 2.91086 15.8467L2.95162 17.364C2.95456 17.4728 2.97891 17.5801 3.0233 17.6795C3.06769 17.7789 3.13124 17.8687 3.21031 17.9435C3.28939 18.0184 3.38245 18.077 3.48416 18.1159C3.58588 18.1547 3.69426 18.1732 3.80312 18.1702L5.69182 18.1204C5.72352 18.2698 5.75976 18.4193 5.79599 18.5733C6.10618 19.8108 6.6354 20.9827 7.35858 22.0336C7.46652 22.1898 7.51695 22.3785 7.50126 22.5677C7.48556 22.7568 7.40472 22.9347 7.27253 23.0708L6.36668 24.0039C6.29147 24.0822 6.23249 24.1747 6.19313 24.2759C6.15378 24.3772 6.13482 24.4852 6.13734 24.5938C6.13987 24.7024 6.16383 24.8094 6.20785 24.9087C6.25187 25.008 6.31508 25.0976 6.39385 25.1724L6.71996 25.4895L7.4854 26.2277C7.64165 26.3837 7.85342 26.4713 8.07421 26.4713C8.29499 26.4713 8.50676 26.3837 8.66301 26.2277L9.56886 25.2675C9.6969 25.1324 9.86712 25.0449 10.0515 25.0194C10.2359 24.9939 10.4235 25.0319 10.5834 25.1271C11.3956 25.6211 12.2699 26.0049 13.1832 26.2685C13.463 26.3549 13.7472 26.4259 14.0347 26.4814C14.2155 26.5199 14.3782 26.6181 14.4965 26.7602C14.6148 26.9023 14.6818 27.0801 14.6869 27.2649L14.7186 28.5014V28.5648C14.7232 28.6761 14.7501 28.7854 14.7978 28.8861C14.8455 28.9867 14.913 29.0768 14.9963 29.1507C15.0796 29.2247 15.177 29.2812 15.2825 29.3167C15.3881 29.3522 15.4998 29.3661 15.6109 29.3574L17.1372 29.3257C17.2459 29.3228 17.3529 29.2984 17.4521 29.254C17.5513 29.2095 17.6407 29.1459 17.7152 29.0668C17.7897 28.9876 17.8479 28.8945 17.8863 28.7929C17.9246 28.6912 17.9425 28.5829 17.9389 28.4742L17.9117 27.2876C17.9059 27.0912 17.9674 26.8988 18.0861 26.7423C18.2047 26.5857 18.3734 26.4745 18.564 26.427L18.8357 26.3591C19.987 26.0713 21.0817 25.5921 22.0741 24.9414C22.2303 24.8407 22.416 24.7957 22.601 24.8138C22.786 24.8319 22.9595 24.912 23.0932 25.0411L23.9991 25.9152C24.1583 26.0682 24.3717 26.1518 24.5925 26.1476C24.8133 26.1433 25.0234 26.0516 25.1767 25.8926L26.2274 24.7965C26.3821 24.6404 26.4688 24.4296 26.4688 24.21C26.4688 23.9903 26.3821 23.7795 26.2274 23.6234L25.3805 22.8081C25.2419 22.6769 25.1538 22.5012 25.1314 22.3117C25.1091 22.1222 25.1539 21.9308 25.2582 21.771C25.9641 20.6726 26.4658 19.4559 26.7393 18.1793C26.7803 18.0005 26.8794 17.8403 27.0212 17.7239C27.163 17.6075 27.3394 17.5415 27.5228 17.5361H28.3426C28.5593 17.5221 28.762 17.4246 28.9082 17.2641C29.0543 17.1035 29.1325 16.8925 29.1262 16.6755L29.1216 16.5034ZM12.9884 22.6677C12.2562 22.2953 11.5929 21.8005 11.0273 21.2048C10.3471 20.5255 9.80744 19.719 9.43901 18.8312C9.07058 17.9433 8.88062 16.9916 8.87999 16.0304C8.87872 14.0891 9.64868 12.2268 11.0205 10.8532C12.3923 9.47958 14.2536 8.70718 16.1949 8.70591C18.1362 8.70463 19.9985 9.47459 21.3721 10.8464C21.9118 11.3459 22.3702 11.9266 22.7309 12.5675C23.0552 13.1354 23.3005 13.745 23.4601 14.3792C23.548 14.7338 23.6115 15.0939 23.6503 15.4572C23.7526 16.5114 23.6249 17.5754 23.276 18.5755C22.9271 19.5756 22.3652 20.488 21.6293 21.2498C20.8933 22.0116 20.0008 22.6046 19.0133 22.9878C18.0259 23.371 16.967 23.5353 15.9098 23.4694C14.8898 23.4146 13.8936 23.1412 12.9884 22.6677Z" fill="#97DDE5" stroke="#01090F" stroke-width="0.777974" stroke-linecap="round" stroke-linejoin="round"/>
</mask>
<g mask="url(#mask0_30549_31401)">
<path d="M52.2258 39.293C52.2258 55.2097 40.3166 68.0589 25.6897 68.0589C11.0628 68.0589 -0.846365 55.2097 -0.846365 39.293C-0.846365 23.3764 11.0628 10.5272 25.6897 10.5272C40.3166 10.5272 52.2258 23.3764 52.2258 39.293Z" fill="#BD80FF" stroke="#01090F" stroke-width="0.777974"/>
</g>
<path d="M29.1216 16.5025L29.0809 15.1437C29.0765 14.9523 29.006 14.7683 28.8813 14.6229C28.7566 14.4776 28.5855 14.38 28.397 14.3465C28.3412 14.3421 28.2851 14.3421 28.2294 14.3465L27.5545 14.3556C27.3618 14.3622 27.1728 14.301 27.0206 14.1826C26.8683 14.0643 26.7623 13.8963 26.7211 13.7079C26.694 13.5766 26.6623 13.4497 26.6305 13.3229C26.5671 13.0738 26.4992 12.8292 26.4177 12.5937C26.124 11.6869 25.708 10.8245 25.1812 10.0302L25.1495 9.98033C25.0513 9.82686 25.0061 9.64544 25.0208 9.46385C25.0356 9.28225 25.1094 9.11048 25.231 8.97484L25.6568 8.52191C25.7327 8.44345 25.7922 8.3507 25.832 8.24904C25.8717 8.14737 25.8909 8.03883 25.8884 7.92969C25.8859 7.82056 25.8617 7.71302 25.8172 7.61331C25.7728 7.51359 25.709 7.4237 25.6296 7.34884L25.2446 6.98197L24.5335 6.29805C24.4554 6.22229 24.3631 6.16282 24.2618 6.12312C24.1605 6.08342 24.0523 6.06427 23.9435 6.0668C23.8348 6.06933 23.7276 6.09349 23.6283 6.13785C23.5289 6.18222 23.4394 6.24592 23.365 6.32523L22.9619 6.74192C22.831 6.8774 22.6582 6.96459 22.4715 6.98926C22.2848 7.01394 22.0952 6.97465 21.9337 6.87779C20.7263 6.10927 19.3773 5.59028 17.9661 5.35144C17.7784 5.31884 17.6079 5.22189 17.4839 5.07725C17.3599 4.9326 17.2902 4.74929 17.2867 4.55882V3.95643C17.2838 3.84757 17.2594 3.74035 17.215 3.64091C17.1706 3.54147 17.1071 3.45175 17.028 3.37688C16.9489 3.30201 16.8559 3.24345 16.7542 3.20456C16.6524 3.16567 16.5441 3.14721 16.4352 3.15022L14.9224 3.19098C14.813 3.19392 14.7052 3.21839 14.6052 3.26301C14.5052 3.30762 14.415 3.3715 14.3397 3.451C14.2644 3.5305 14.2055 3.62406 14.1664 3.72632C14.1273 3.82859 14.1087 3.93756 14.1117 4.04701L14.1479 5.40579C13.9622 5.44655 13.7811 5.48279 13.5954 5.53261C12.3153 5.85123 11.1052 6.40405 10.0263 7.16314C9.8702 7.27177 9.68147 7.32341 9.49179 7.30939C9.30212 7.29537 9.12303 7.21655 8.98458 7.08614L8.53166 6.63322C8.37187 6.4813 8.15864 6.39848 7.93821 6.40272C7.71777 6.40696 7.50789 6.49792 7.35405 6.65586L6.26703 7.75647C6.11567 7.91473 6.03309 8.12646 6.03734 8.34541C6.04158 8.56436 6.1323 8.77274 6.28968 8.92502L6.84225 9.42776C6.97628 9.55552 7.06311 9.72489 7.08861 9.90829C7.1141 10.0917 7.07676 10.2783 6.98266 10.4378C6.27881 11.6158 5.80827 12.9182 5.5967 14.2741C5.56451 14.4631 5.46808 14.6353 5.32368 14.7616C5.17929 14.8878 4.99577 14.9604 4.80409 14.967L3.71254 14.9942C3.60388 14.9971 3.49687 15.0215 3.39768 15.066C3.29848 15.1104 3.20905 15.174 3.13454 15.2532C3.06003 15.3323 3.00191 15.4254 2.96352 15.5271C2.92513 15.6288 2.90724 15.7371 2.91086 15.8457L2.95162 17.363C2.95456 17.4719 2.97891 17.5791 3.0233 17.6785C3.06769 17.778 3.13124 17.8677 3.21031 17.9426C3.28939 18.0174 3.38245 18.076 3.48416 18.1149C3.58588 18.1538 3.69426 18.1722 3.80312 18.1692L5.69182 18.1194C5.72352 18.2689 5.75976 18.4183 5.79599 18.5723C6.10618 19.8098 6.6354 20.9817 7.35858 22.0327C7.46652 22.1888 7.51695 22.3775 7.50126 22.5667C7.48556 22.7558 7.40472 22.9337 7.27253 23.0699L6.36668 24.0029C6.29147 24.0813 6.23249 24.1737 6.19313 24.275C6.15378 24.3762 6.13482 24.4842 6.13734 24.5928C6.13987 24.7014 6.16383 24.8084 6.20785 24.9077C6.25187 25.007 6.31508 25.0967 6.39385 25.1714L6.71996 25.4885L7.4854 26.2268C7.64165 26.3827 7.85342 26.4704 8.07421 26.4704C8.29499 26.4704 8.50676 26.3827 8.66301 26.2268L9.56886 25.2666C9.6969 25.1314 9.86712 25.0439 10.0515 25.0184C10.2359 24.9929 10.4235 25.0309 10.5834 25.1262V25.1262C11.3956 25.6201 12.2699 26.0039 13.1832 26.2675C13.463 26.3539 13.7472 26.4249 14.0347 26.4804C14.2155 26.5189 14.3782 26.6171 14.4965 26.7593C14.6148 26.9014 14.6818 27.0791 14.6869 27.264L14.7186 28.5004V28.5639C14.7232 28.6752 14.7501 28.7844 14.7978 28.8851C14.8455 28.9858 14.913 29.0758 14.9963 29.1498C15.0796 29.2238 15.177 29.2802 15.2825 29.3157C15.3881 29.3512 15.4998 29.3651 15.6109 29.3565L17.1372 29.3248C17.2459 29.3218 17.3529 29.2975 17.4521 29.253C17.5513 29.2086 17.6407 29.1449 17.7152 29.0658C17.7897 28.9867 17.8479 28.8936 17.8863 28.7919C17.9246 28.6902 17.9425 28.5819 17.9389 28.4733L17.9117 27.2866C17.9059 27.0903 17.9674 26.8978 18.0861 26.7413C18.2047 26.5848 18.3734 26.4735 18.564 26.426L18.8357 26.3581C19.987 26.0703 21.0817 25.5911 22.0741 24.9405C22.2303 24.8397 22.416 24.7948 22.601 24.8129C22.786 24.8309 22.9595 24.911 23.0932 25.0401L23.9991 25.9142C24.1583 26.0673 24.3717 26.1508 24.5925 26.1466C24.8133 26.1423 25.0234 26.0506 25.1767 25.8916L26.2274 24.7955C26.3821 24.6395 26.4688 24.4287 26.4688 24.209C26.4688 23.9893 26.3821 23.7785 26.2274 23.6224L25.3805 22.8072C25.2419 22.6759 25.1538 22.5003 25.1314 22.3107C25.1091 22.1212 25.154 21.9298 25.2582 21.77C25.9641 20.6717 26.4658 19.4549 26.7393 18.1783C26.7803 17.9995 26.8795 17.8393 27.0212 17.7229C27.163 17.6066 27.3394 17.5405 27.5228 17.5351H28.3426C28.5593 17.5211 28.762 17.4236 28.9082 17.2631C29.0543 17.1026 29.1325 16.8916 29.1262 16.6746L29.1216 16.5025ZM12.9884 22.6668C12.2562 22.2943 11.5929 21.7996 11.0273 21.2038C10.3471 20.5246 9.80744 19.718 9.43901 18.8302C9.07058 17.9424 8.88062 16.9907 8.87999 16.0294C8.87872 14.0881 9.64868 12.2258 11.0205 10.8522C12.3923 9.4786 14.2536 8.7062 16.1949 8.70493C18.1362 8.70366 19.9985 9.47361 21.3721 10.8454C21.9118 11.345 22.3702 11.9257 22.7309 12.5665C23.0552 13.1345 23.3005 13.744 23.4601 14.3782C23.548 14.7328 23.6115 15.093 23.6503 15.4562V15.4562C23.7526 16.5105 23.6249 17.5744 23.276 18.5745C22.9271 19.5746 22.3652 20.487 21.6293 21.2488C20.8933 22.0106 20.0008 22.6036 19.0133 22.9868C18.0259 23.37 16.967 23.5344 15.9098 23.4684C14.8898 23.4136 13.8936 23.1402 12.9884 22.6668V22.6668Z" stroke="#01090F" stroke-width="0.777974" stroke-linecap="round" stroke-linejoin="round"/>
</svg>
