<svg width="27" height="27" viewBox="0 0 27 27" fill="none" xmlns="http://www.w3.org/2000/svg">
<path d="M23.6802 13.538C23.6802 14.7725 23.4598 15.9189 23.107 17.0212C22.8425 17.7267 22.5338 18.3881 22.1811 19.0054C21.652 19.8872 20.9465 20.7249 20.197 21.4304C20.0647 21.5627 19.9324 21.6509 19.8001 21.7831C19.0947 22.3563 18.2569 22.8854 17.3751 23.2382C16.5814 23.5909 15.6996 23.8555 14.8177 23.9877C14.2446 24.0759 13.7155 24.12 13.0982 24.12C8.51261 24.12 4.58843 21.2099 3.1334 17.1094C3.00112 16.7567 2.91294 16.448 2.82476 16.0953C2.69248 15.5221 2.6043 14.9048 2.56021 14.2875C2.51611 14.023 2.51611 13.8025 2.51611 13.538C2.51611 13.0529 2.56021 12.5679 2.6043 12.0829C2.6043 11.9507 2.64839 11.8625 2.64839 11.7302C2.78066 11.0247 2.95703 10.3193 3.22158 9.65787C3.53023 8.82013 3.97115 8.07057 4.50025 7.3651C6.44029 4.71958 9.52672 3 13.0982 3C15.876 3 18.3892 4.05821 20.2851 5.82188C20.3733 5.91006 20.4615 5.99825 20.5497 6.08643C21.0347 6.52735 21.4315 7.05645 21.7843 7.58556C22.2252 8.24693 22.622 8.9965 22.9307 9.74606C23.107 10.187 23.2393 10.6279 23.3275 11.0688C23.5479 11.8625 23.6802 12.7002 23.6802 13.538Z" fill="#9BCDFB" stroke="#01090F" stroke-width="0.3" stroke-miterlimit="10" stroke-linecap="round" stroke-linejoin="round"/>
<path d="M6.28964 10.348L6.29461 10.357L6.30076 10.3651C6.33216 10.407 6.35823 10.5065 6.3451 10.693C6.3326 10.8706 6.2871 11.0956 6.21493 11.3552C6.07086 11.8733 5.8273 12.5054 5.56091 13.126C5.29497 13.7457 5.00824 14.3493 4.77973 14.8091C4.6655 15.0389 4.56603 15.2324 4.49123 15.3734C4.4538 15.444 4.4228 15.501 4.39937 15.5427C4.38764 15.5636 4.37812 15.58 4.37085 15.5921C4.36823 15.5965 4.36616 15.5998 4.36458 15.6024C4.24685 15.7179 4.10335 15.8203 3.93433 15.8575C3.88409 15.8595 3.82853 15.8698 3.78331 15.8782C3.77698 15.8793 3.77084 15.8805 3.76495 15.8816C3.70436 15.8926 3.65011 15.9012 3.59888 15.9012H2.83711C2.72118 15.3695 2.64274 14.8015 2.60211 14.2327L2.60144 14.2233L2.59958 14.214C2.55899 14.0111 2.5584 13.7627 2.5584 13.4939C2.5584 13.0067 2.55879 12.5352 2.64416 12.0657L2.66429 11.955L2.56366 11.9047C2.52325 11.8844 2.48535 11.8615 2.44893 11.8361H2.54067H2.66516L2.68811 11.7137C2.81303 11.0474 2.97681 10.3856 3.21614 9.76377H5.31846C5.74411 9.76377 6.09317 9.99436 6.28964 10.348Z" fill="#519AF4" stroke="#01090F" stroke-width="0.3"/>
<mask id="path-3-inside-1_30549_31450" fill="white">
<path d="M23.6358 11.2896C23.5476 10.8927 23.4594 10.4959 23.283 10.1432C23.0626 9.48179 22.7098 8.82041 22.3571 8.24722C22.0925 7.76221 21.7398 7.32129 21.343 6.88037H19.447C19.2707 6.88037 19.0943 6.92446 18.962 6.96856C18.9179 7.01265 18.8738 7.01265 18.7857 7.05674C18.477 7.23311 17.8597 7.62993 17.5952 8.3354C17.1543 9.4377 16.052 10.0991 14.8615 10.0991H12.5687C11.731 10.0991 11.0696 10.8045 11.0696 11.7305C11.0696 11.7305 11.1578 12.3037 11.3341 13.1855C11.5105 13.9792 11.5546 14.7728 11.5105 15.5665C11.4664 16.7129 11.775 18.0797 12.5246 19.3584C13.8474 21.6511 16.0079 22.9298 17.6834 22.4889C17.8156 22.5771 18.05 22.9023 18.2263 22.9463C18.2263 22.9463 19.1357 22.6294 20.8443 20.9209C20.9325 20.8327 21.1143 20.6673 21.2025 20.5351C21.8198 19.9178 22.2689 19.0497 22.7098 18.2561C23.0185 17.727 23.283 17.1097 23.4594 16.5365C23.768 15.5665 23.9444 14.5524 23.9444 13.4942C23.8562 12.7005 23.768 11.995 23.6358 11.2896Z"/>
</mask>
<path d="M23.6358 11.2896C23.5476 10.8927 23.4594 10.4959 23.283 10.1432C23.0626 9.48179 22.7098 8.82041 22.3571 8.24722C22.0925 7.76221 21.7398 7.32129 21.343 6.88037H19.447C19.2707 6.88037 19.0943 6.92446 18.962 6.96856C18.9179 7.01265 18.8738 7.01265 18.7857 7.05674C18.477 7.23311 17.8597 7.62993 17.5952 8.3354C17.1543 9.4377 16.052 10.0991 14.8615 10.0991H12.5687C11.731 10.0991 11.0696 10.8045 11.0696 11.7305C11.0696 11.7305 11.1578 12.3037 11.3341 13.1855C11.5105 13.9792 11.5546 14.7728 11.5105 15.5665C11.4664 16.7129 11.775 18.0797 12.5246 19.3584C13.8474 21.6511 16.0079 22.9298 17.6834 22.4889C17.8156 22.5771 18.05 22.9023 18.2263 22.9463C18.2263 22.9463 19.1357 22.6294 20.8443 20.9209C20.9325 20.8327 21.1143 20.6673 21.2025 20.5351C21.8198 19.9178 22.2689 19.0497 22.7098 18.2561C23.0185 17.727 23.283 17.1097 23.4594 16.5365C23.768 15.5665 23.9444 14.5524 23.9444 13.4942C23.8562 12.7005 23.768 11.995 23.6358 11.2896Z" fill="#519AF4"/>
<path d="M23.6358 11.2896L23.9308 11.2342L23.9286 11.2245L23.6358 11.2896ZM23.283 10.1432L22.9984 10.238L23.0052 10.2583L23.0147 10.2773L23.283 10.1432ZM22.3571 8.24722L22.0937 8.39087L22.0975 8.39776L22.1016 8.40445L22.3571 8.24722ZM21.343 6.88037L21.566 6.67968L21.4766 6.58037H21.343V6.88037ZM18.962 6.96856L18.8672 6.68395L18.8 6.70635L18.7499 6.75642L18.962 6.96856ZM18.7857 7.05674L18.6515 6.78841L18.644 6.79213L18.6368 6.79627L18.7857 7.05674ZM17.5952 8.3354L17.8738 8.44685L17.8761 8.44074L17.5952 8.3354ZM11.0696 11.7305H10.7696V11.7534L10.7731 11.7761L11.0696 11.7305ZM11.3341 13.1855L11.0399 13.2444L11.0413 13.2506L11.3341 13.1855ZM11.5105 15.5665L11.2109 15.5498L11.2107 15.5549L11.5105 15.5665ZM12.5246 19.3584L12.7845 19.2085L12.7834 19.2067L12.5246 19.3584ZM17.6834 22.4889L17.8498 22.2393L17.7375 22.1644L17.607 22.1988L17.6834 22.4889ZM18.2263 22.9463L18.1536 23.2374L18.2405 23.2591L18.3251 23.2296L18.2263 22.9463ZM21.2025 20.5351L20.9904 20.3229L20.9694 20.3439L20.9529 20.3687L21.2025 20.5351ZM22.7098 18.2561L22.4506 18.1049L22.4476 18.1104L22.7098 18.2561ZM23.4594 16.5365L23.1735 16.4455L23.1727 16.4483L23.4594 16.5365ZM23.9444 13.4942H24.2444V13.4775L24.2426 13.461L23.9444 13.4942ZM23.9286 11.2245C23.842 10.8347 23.7471 10.4005 23.5514 10.009L23.0147 10.2773C23.1717 10.5913 23.2532 10.9507 23.3429 11.3546L23.9286 11.2245ZM23.5676 10.0483C23.3369 9.356 22.971 8.67247 22.6126 8.08999L22.1016 8.40445C22.4486 8.96836 22.7883 9.60758 22.9984 10.238L23.5676 10.0483ZM22.6205 8.10356C22.3395 7.58844 21.9689 7.12735 21.566 6.67968L21.12 7.08106C21.5107 7.51523 21.8456 7.93597 22.0937 8.39087L22.6205 8.10356ZM21.343 6.58037H19.447V7.18037H21.343V6.58037ZM19.447 6.58037C19.2253 6.58037 19.0144 6.63487 18.8672 6.68395L19.0569 7.25316C19.1742 7.21406 19.316 7.18037 19.447 7.18037V6.58037ZM18.7499 6.75642C18.7576 6.74868 18.767 6.74155 18.7762 6.73615C18.7836 6.73181 18.7872 6.73079 18.779 6.7341C18.7669 6.73895 18.7105 6.75892 18.6515 6.78841L18.9198 7.32507C18.949 7.31046 18.9588 7.30839 19.0018 7.29119C19.0452 7.27381 19.1104 7.2444 19.1742 7.18069L18.7499 6.75642ZM18.6368 6.79627C18.3181 6.97841 17.6181 7.41982 17.3143 8.23007L17.8761 8.44074C18.1013 7.84005 18.636 7.4878 18.9345 7.31721L18.6368 6.79627ZM17.3166 8.22399C16.9268 9.19863 15.9448 9.79908 14.8615 9.79908V10.3991C16.1591 10.3991 17.3817 9.67677 17.8737 8.44682L17.3166 8.22399ZM14.8615 9.79908H12.5687V10.3991H14.8615V9.79908ZM12.5687 9.79908C11.5435 9.79908 10.7696 10.6615 10.7696 11.7305H11.3696C11.3696 10.9476 11.9184 10.3991 12.5687 10.3991V9.79908ZM11.0696 11.7305C10.7731 11.7761 10.7731 11.7761 10.7731 11.7761C10.7731 11.7761 10.7731 11.7761 10.7731 11.7762C10.7731 11.7762 10.7731 11.7762 10.7731 11.7763C10.7731 11.7764 10.7731 11.7765 10.7732 11.7767C10.7732 11.777 10.7733 11.7775 10.7734 11.7781C10.7736 11.7793 10.7738 11.7811 10.7742 11.7834C10.7749 11.788 10.776 11.7948 10.7774 11.8038C10.7802 11.8216 10.7844 11.8479 10.79 11.8822C10.8012 11.9506 10.8179 12.0509 10.8402 12.1787C10.8846 12.4344 10.9512 12.8006 11.04 13.2443L11.6283 13.1267C11.5407 12.6885 11.475 12.3273 11.4313 12.0759C11.4094 11.9502 11.3931 11.852 11.3822 11.7855C11.3768 11.7522 11.3727 11.7268 11.37 11.7099C11.3687 11.7014 11.3677 11.6951 11.367 11.6909C11.3667 11.6888 11.3665 11.6872 11.3663 11.6862C11.3662 11.6857 11.3662 11.6853 11.3661 11.6851C11.3661 11.685 11.3661 11.6849 11.3661 11.6849C11.3661 11.6849 11.3661 11.6849 11.3661 11.6848C11.3661 11.6848 11.3661 11.6848 11.3661 11.6848C11.3661 11.6849 11.3661 11.6849 11.0696 11.7305ZM11.0413 13.2506C11.2107 14.0128 11.2538 14.7784 11.211 15.5498L11.81 15.5831C11.8554 14.7672 11.8103 13.9455 11.627 13.1204L11.0413 13.2506ZM11.2107 15.5549C11.1643 16.7607 11.4884 18.1839 12.2658 19.5101L12.7834 19.2067C12.0617 17.9755 11.7685 16.6651 11.8103 15.578L11.2107 15.5549ZM12.2648 19.5083C12.9484 20.6932 13.8534 21.6253 14.8169 22.2057C15.7778 22.7846 16.8206 23.0262 17.7597 22.779L17.607 22.1988C16.8707 22.3925 15.9955 22.2153 15.1265 21.6918C14.2602 21.1699 13.4236 20.3163 12.7845 19.2085L12.2648 19.5083ZM17.517 22.7385C17.5168 22.7384 17.523 22.7427 17.5371 22.7554C17.5505 22.7674 17.5667 22.783 17.5865 22.8029C17.6062 22.8228 17.6272 22.8445 17.6509 22.8691C17.674 22.893 17.6994 22.9193 17.7255 22.9456C17.7765 22.997 17.8372 23.0553 17.9013 23.1053C17.961 23.1518 18.0484 23.2111 18.1536 23.2374L18.2991 22.6553C18.3161 22.6595 18.3081 22.6616 18.2701 22.6321C18.2365 22.6059 18.1972 22.5691 18.1512 22.5228C18.1286 22.5001 18.1061 22.4768 18.0827 22.4524C18.0598 22.4287 18.0355 22.4035 18.0119 22.3799C17.9693 22.337 17.9109 22.28 17.8498 22.2393L17.517 22.7385ZM18.2263 22.9463C18.3251 23.2296 18.3252 23.2296 18.3254 23.2295C18.3254 23.2295 18.3256 23.2295 18.3257 23.2294C18.3259 23.2293 18.3262 23.2292 18.3264 23.2292C18.3269 23.229 18.3275 23.2288 18.3281 23.2286C18.3294 23.2281 18.3308 23.2276 18.3325 23.227C18.3359 23.2257 18.3401 23.2241 18.3452 23.2222C18.3554 23.2182 18.3691 23.2127 18.3862 23.2054C18.4205 23.1909 18.4685 23.1691 18.5301 23.138C18.6533 23.076 18.8307 22.9769 19.0606 22.8242C19.5202 22.519 20.19 21.9995 21.0564 21.133L20.6322 20.7087C19.79 21.5509 19.1508 22.0441 18.7286 22.3244C18.5176 22.4646 18.3608 22.5515 18.2601 22.6022C18.2098 22.6276 18.1734 22.6439 18.1513 22.6534C18.1402 22.6581 18.1327 22.6611 18.1287 22.6626C18.1267 22.6633 18.1257 22.6637 18.1255 22.6638C18.1254 22.6638 18.1255 22.6638 18.1259 22.6637C18.126 22.6636 18.1263 22.6635 18.1266 22.6634C18.1267 22.6634 18.1269 22.6633 18.127 22.6633C18.1271 22.6632 18.1273 22.6632 18.1273 22.6632C18.1275 22.6631 18.1276 22.6631 18.2263 22.9463ZM21.0564 21.133C21.0855 21.104 21.1743 21.0192 21.2377 20.9545C21.3071 20.8836 21.3915 20.7925 21.4521 20.7015L20.9529 20.3687C20.9254 20.41 20.8747 20.4676 20.8091 20.5345C20.7375 20.6077 20.6913 20.6496 20.6322 20.7087L21.0564 21.133ZM21.4147 20.7472C22.0691 20.0928 22.5409 19.1778 22.9721 18.4018L22.4476 18.1104C21.9969 18.9216 21.5706 19.7428 20.9904 20.3229L21.4147 20.7472ZM22.969 18.4072C23.29 17.857 23.5635 17.2184 23.7461 16.6247L23.1727 16.4483C23.0026 17.001 22.747 17.597 22.4507 18.1049L22.969 18.4072ZM23.7453 16.6275C24.0623 15.631 24.2444 14.5862 24.2444 13.4942H23.6444C23.6444 14.5185 23.4738 15.5019 23.1735 16.4455L23.7453 16.6275ZM24.2426 13.461C24.1542 12.6657 24.065 11.9512 23.9306 11.2343L23.3409 11.3448C23.471 12.0389 23.5582 12.7353 23.6462 13.5273L24.2426 13.461Z" fill="#01090F" mask="url(#path-3-inside-1_30549_31450)"/>
<path d="M23.6802 13.538C23.6802 14.7725 23.4598 15.9189 23.107 17.0212C22.8425 17.7267 22.5338 18.3881 22.1811 19.0054C21.652 19.8872 20.9465 20.7249 20.197 21.4304C20.0647 21.5627 19.9324 21.6509 19.8001 21.7831C19.0947 22.3563 18.2569 22.8854 17.3751 23.2382C16.5814 23.5909 15.6996 23.8555 14.8177 23.9877C14.2446 24.0759 13.7155 24.12 13.0982 24.12C8.51261 24.12 4.58843 21.2099 3.1334 17.1094C3.00112 16.7567 2.91294 16.448 2.82476 16.0953C2.69248 15.5221 2.6043 14.9048 2.56021 14.2875C2.51611 14.023 2.51611 13.8025 2.51611 13.538C2.51611 13.0529 2.56021 12.5679 2.6043 12.0829C2.6043 11.9507 2.64839 11.8625 2.64839 11.7302C2.78066 11.0247 2.95703 10.3193 3.22158 9.65787C3.53023 8.82013 3.97115 8.07057 4.50025 7.3651C6.44029 4.71958 9.52672 3 13.0982 3C15.876 3 18.3892 4.05821 20.2851 5.82188C20.3733 5.91006 20.4615 5.99825 20.5497 6.08643C21.0347 6.52735 21.4315 7.05645 21.7843 7.58556C22.2252 8.24693 22.622 8.9965 22.9307 9.74606C23.107 10.187 23.2393 10.6279 23.3275 11.0688C23.5479 11.8625 23.6802 12.7002 23.6802 13.538Z" stroke="#01090F" stroke-width="0.3" stroke-miterlimit="10" stroke-linecap="round" stroke-linejoin="round"/>
<path d="M0.0687945 8.13293C-0.363666 10.3618 1.29964 12.3245 3.46195 12.391H6.62224C6.8551 12.391 7.0547 12.1914 7.0547 11.9585V8.86479C7.0547 6.66922 5.09199 4.97264 2.82989 5.4051C1.46598 5.67123 0.334924 6.76902 0.0687945 8.13293Z" fill="#01090F"/>
<path d="M3.52836 12.2501C5.398 12.2501 6.91365 10.7344 6.91365 8.86478C6.91365 6.99514 5.398 5.47949 3.52836 5.47949C1.65871 5.47949 0.143066 6.99514 0.143066 8.86478C0.143066 10.7344 1.65871 12.2501 3.52836 12.2501Z" fill="#FFC664"/>
<path fill-rule="evenodd" clip-rule="evenodd" d="M5.56105 7.40534C5.77 7.58503 5.79371 7.90009 5.61402 8.10903L3.3253 10.7703C3.15067 10.9734 2.84689 11.0024 2.63701 10.836L1.50912 9.94198C1.29315 9.77079 1.25685 9.45694 1.42804 9.24097C1.59922 9.025 1.91308 8.9887 2.12905 9.15989L2.88124 9.75612L4.85736 7.45831C5.03705 7.24936 5.35211 7.22565 5.56105 7.40534Z" fill="#9BCDFB" stroke="#01090F" stroke-width="0.3" stroke-miterlimit="10" stroke-linecap="round" stroke-linejoin="round"/>
<path d="M22.8546 8.94166C20.3467 8.45507 18.1383 10.3266 18.0635 12.7596V16.3154C18.0635 16.5774 18.2881 16.802 18.5501 16.802H22.0311C24.5015 16.802 26.4104 14.5936 25.9238 12.0484C25.6244 10.4763 24.3892 9.24111 22.8546 8.94166Z" fill="#01090F"/>
<path d="M22.0309 16.5393C24.098 16.5393 25.7737 14.8636 25.7737 12.7965C25.7737 10.7294 24.098 9.05371 22.0309 9.05371C19.9638 9.05371 18.2881 10.7294 18.2881 12.7965C18.2881 14.8636 19.9638 16.5393 22.0309 16.5393Z" fill="#FFC664"/>
<path fill-rule="evenodd" clip-rule="evenodd" d="M24.3192 11.1167C24.5543 11.3189 24.581 11.6734 24.3788 11.9085L21.8036 14.9029C21.6071 15.1314 21.2653 15.164 21.0292 14.9768L19.7601 13.9709C19.5171 13.7783 19.4762 13.4251 19.6688 13.1821C19.8615 12.9391 20.2146 12.8983 20.4576 13.0909L21.304 13.7618L23.5274 11.1763C23.7296 10.9412 24.0841 10.9145 24.3192 11.1167Z" fill="#9BCDFB" stroke="#01090F" stroke-width="0.3" stroke-miterlimit="10" stroke-linecap="round" stroke-linejoin="round"/>
</svg>
