<svg width="82" height="82" viewBox="0 0 82 82" fill="none" xmlns="http://www.w3.org/2000/svg" class="xs-hidden">
    <path
        d="M81.1052 46.131C69.7169 6.35603 67.0719 -2.51318 39.0053 0.556935C3.51785 4.51397 6.01592 6.08313 0.652397 43.0609C-4.04987 75.6041 17.3308 84.4051 43.4136 81.4714C56.6388 79.9705 87.6443 68.9863 81.1052 46.131Z"
        fill="#EAF1FE"></path>
    <path
        d="M39.1525 69.8734C52.7461 69.8734 63.7659 68.8043 63.7659 67.4855C63.7659 66.1667 52.7461 65.0977 39.1525 65.0977C25.5589 65.0977 14.5391 66.1667 14.5391 67.4855C14.5391 68.8043 25.5589 69.8734 39.1525 69.8734Z"
        fill="#EAF1FE"></path>
    <path
        d="M18.45 20.5L19.2828 22.0375L20.8203 22.8703L19.2828 23.7031L18.45 25.3047L17.5531 23.7031L16.0156 22.8703L17.5531 22.0375L18.45 20.5Z"
        fill="#15357A"></path>
    <path
        d="M64.1902 27.1626L64.7027 28.1235L65.6637 28.636L64.7027 29.2126L64.1902 30.1095L63.6777 29.2126L62.7168 28.636L63.6777 28.1235L64.1902 27.1626Z"
        fill="#15357A"></path>
    <path
        d="M54.9658 61.6283H34.9143C34.1455 61.6283 33.5049 60.9877 33.5049 60.2189V22.7424C33.5049 21.9736 34.1455 21.333 34.9143 21.333H54.9658C55.7346 21.333 56.3752 21.9736 56.3752 22.7424V60.2189C56.3752 60.9877 55.7346 61.6283 54.9658 61.6283Z"
        fill="#EAF1FE" stroke="#15357A" stroke-width="0.75" stroke-miterlimit="10" stroke-linecap="round"
        stroke-linejoin="round"></path>
    <path d="M42.9863 25.3047H37.8613V30.4297H42.9863V25.3047Z" fill="white" stroke="#15357A" stroke-width="0.75"
        stroke-miterlimit="10" stroke-linecap="round" stroke-linejoin="round"></path>
    <path d="M51.9551 25.3047H46.8301V30.4297H51.9551V25.3047Z" fill="white" stroke="#2C71F0" stroke-width="0.75"
        stroke-miterlimit="10" stroke-linecap="round" stroke-linejoin="round"></path>
    <path d="M42.9863 33.1846H37.8613V38.3096H42.9863V33.1846Z" fill="white" stroke="#15357A" stroke-width="0.75"
        stroke-miterlimit="10" stroke-linecap="round" stroke-linejoin="round"></path>
    <path d="M51.9551 33.1846H46.8301V38.3096H51.9551V33.1846Z" fill="white" stroke="#15357A" stroke-width="0.75"
        stroke-miterlimit="10" stroke-linecap="round" stroke-linejoin="round"></path>
    <path d="M42.9219 41H37.7969V46.125H42.9219V41Z" fill="white" stroke="#15357A" stroke-width="0.75"
        stroke-miterlimit="10" stroke-linecap="round" stroke-linejoin="round"></path>
    <path d="M51.8262 41H46.7012V46.125H51.8262V41Z" fill="white" stroke="#15357A" stroke-width="0.75"
        stroke-miterlimit="10" stroke-linecap="round" stroke-linejoin="round"></path>
    <path d="M42.9219 48.9438H37.7969V54.0688H42.9219V48.9438Z" fill="white" stroke="#15357A" stroke-width="0.75"
        stroke-miterlimit="10" stroke-linecap="round" stroke-linejoin="round"></path>
    <path d="M51.8262 48.9438H46.7012V54.0688H51.8262V48.9438Z" fill="white" stroke="#15357A" stroke-width="0.75"
        stroke-miterlimit="10" stroke-linecap="round" stroke-linejoin="round"></path>
    <path
        d="M43.434 61.6281H20.884C20.1152 61.6281 19.4746 60.9875 19.4746 60.2188V37.6047C19.4746 36.8359 20.1152 36.1953 20.884 36.1953H43.434C44.2027 36.1953 44.8434 36.8359 44.8434 37.6047V60.1547C44.8434 60.9875 44.2027 61.6281 43.434 61.6281Z"
        fill="white" stroke="#15357A" stroke-width="0.75" stroke-miterlimit="10" stroke-linecap="round"
        stroke-linejoin="round"></path>
    <path d="M35.2348 54.9014H29.2129V61.6279H35.2348V54.9014Z" fill="#EAF1FE" stroke="#15357A" stroke-width="0.75"
        stroke-miterlimit="10" stroke-linecap="round" stroke-linejoin="round"></path>
    <path d="M27.3545 39.2061H22.2295V44.3311H27.3545V39.2061Z" fill="#EAF1FE" stroke="#2C71F0" stroke-width="0.75"
        stroke-miterlimit="10" stroke-linecap="round" stroke-linejoin="round"></path>
    <path d="M34.3379 39.2061H29.2129V44.3311H34.3379V39.2061Z" fill="#EAF1FE" stroke="#15357A" stroke-width="0.75"
        stroke-miterlimit="10" stroke-linecap="round" stroke-linejoin="round"></path>
    <path d="M41.3203 39.2061H36.1953V44.3311H41.3203V39.2061Z" fill="#EAF1FE" stroke="#15357A" stroke-width="0.75"
        stroke-miterlimit="10" stroke-linecap="round" stroke-linejoin="round"></path>
    <path d="M27.3545 47.0859H22.2295V52.2109H27.3545V47.0859Z" fill="#EAF1FE" stroke="#15357A" stroke-width="0.75"
        stroke-miterlimit="10" stroke-linecap="round" stroke-linejoin="round"></path>
    <path d="M34.3379 47.0859H29.2129V52.2109H34.3379V47.0859Z" fill="#EAF1FE" stroke="#15357A" stroke-width="0.75"
        stroke-miterlimit="10" stroke-linecap="round" stroke-linejoin="round"></path>
    <path d="M41.3203 47.0859H36.1953V52.2109H41.3203V47.0859Z" fill="#EAF1FE" stroke="#15357A" stroke-width="0.75"
        stroke-miterlimit="10" stroke-linecap="round" stroke-linejoin="round"></path>
</svg>