<svg xmlns="http://www.w3.org/2000/svg" xmlns:xlink="http://www.w3.org/1999/xlink" width="100%" height="100%" preserveAspectRatio="xMidYMid slice" viewBox="0 0 836 1196" fill="none" xmlns:v="https://vecta.io/nano"><style><![CDATA[.B{stroke-width:1.574}.C{stroke-miterlimit:10}.D{stroke-linejoin:round}.E{fill:#fff}.F{stroke:#000}.G{stroke-width:1.851}.H{stroke-linecap:round}.I{stroke-width:1.453}.J{stroke:#f8bc20}.K{fill:#fbe62e}.L{fill:#fb5d96}.M{fill-rule:evenodd}]]></style><g clip-path="url(#A)"><path d="M833.999 1195.35L0 1194l.049-30.3L1.881 30.301 1.93 0l833.999 1.348-.049 30.301-1.832 1133.391-.049 30.31z" fill="#7304e2"/><g class="F C"><g stroke-width=".968"><path d="M377 1052.11c0-7.79-6.317-14.11-14.108-14.11H199.07c-3.159 0-5.685 2.74-5.264 6.11.421 2.73 2.948 4.84 5.685 4.84h37.271c2.526 0 5.053 1.89 5.264 4.42.21 2.95-2.106 5.48-5.054 5.48h-98.335c-3.159 0-5.686 2.73-5.264 6.1.421 2.74 2.948 4.85 5.685 4.85h38.534c2.527 0 5.054 1.89 5.264 4.42.211 2.95-2.106 5.47-5.054 5.47H84.31c-3.158 0-5.685 2.74-5.264 6.11.421 2.74 2.948 4.84 5.685 4.84h92.861c2.527 0 5.054 1.9 5.264 4.42.211 2.95-2.106 5.48-5.054 5.48h-39.165c-2.948 0-5.475 2.53-5.475 5.47 0 2.95 2.527 5.48 5.475 5.48h97.914c2.527 0 5.054 1.89 5.264 4.42.211 2.95-2.105 5.48-5.053 5.48h-37.903c-2.948 0-5.474 2.52-5.474 5.47s2.526 5.47 5.474 5.47h163.822c7.791 0 14.108-6.31 14.108-14.1l.211-66.12zm-172.455 48.85h-12.213c-2.738 0-5.054-2.32-5.054-5.05 0-2.74 2.316-5.06 5.054-5.06h12.213c2.737 0 5.053 2.32 5.053 5.06 0 2.94-2.316 5.05-5.053 5.05zm30.111-21.06h-42.745c-2.738 0-5.054-2.31-5.054-5.05s2.316-5.05 5.054-5.05h42.745c2.737 0 5.054 2.31 5.054 5.05s-2.317 5.05-5.054 5.05zm16.845-30.95h1.474c2.738 0 5.054 2.32 5.054 5.05 0 2.74-2.316 5.06-5.054 5.06h-1.474c-2.737 0-5.053-2.32-5.053-5.06.21-2.73 2.316-5.05 5.053-5.05zm8.423 67.38c0 2.74-2.316 5.06-5.054 5.06h-3.579c-2.738 0-5.054-2.32-5.054-5.06s2.316-5.05 5.054-5.05h3.579c2.738 0 5.054 2.31 5.054 5.05z" class="L"/><g class="D"><path d="M358.534 1126.57h-100.23c-3.791 0-6.739-3.16-6.739-6.74v-63.59c0-3.79 3.159-6.74 6.739-6.74h100.23c3.79 0 6.738 3.16 6.738 6.74v63.59a6.65 6.65 0 0 1-6.738 6.74z" fill="#01090f"/><path d="M361.632 1124.12H261.401c-3.79 0-6.738-3.15-6.738-6.73v-63.6c0-3.79 3.159-6.73 6.738-6.73h100.231c3.79 0 6.738 3.15 6.738 6.73v63.6c0 3.79-2.948 6.73-6.738 6.73z" class="K"/></g><path d="M276.875 1047.2v77.28"/><path d="M255.015 1071.36h113.917m-92.63-.64l-10.881-3.94c-3.627-1.42-4.731-6-1.893-8.84 2.681-2.68 7.412-1.73 8.832 1.9l3.942 10.88z"/><path d="M277.452 1070.72l10.882-3.94c3.627-1.42 4.731-6 1.892-8.84-2.681-2.68-7.412-1.73-8.831 1.9l-3.943 10.88z"/><g class="H"><path d="M277.041 1070.21l-11.67 11.67m12.081-11.16l11.67 11.67"/></g></g><path d="M320.013 1089.77c9.848 0 17.832-7.98 17.832-17.83s-7.984-17.83-17.832-17.83-17.831 7.98-17.831 17.83 7.983 17.83 17.831 17.83z" fill="#2c71f0" stroke-width=".883" class="D"/></g><g class="E"><path d="M313.04 1075.55v.84h.601v-.84c.472-.02.883-.11 1.232-.27.426-.18.751-.45.976-.78s.338-.72.338-1.16c0-.33-.062-.61-.184-.85s-.288-.45-.499-.62-.443-.31-.708-.43a4.52 4.52 0 0 0-.817-.26l-.338-.09V1069a1.52 1.52 0 0 1 .701.25c.254.18.398.43.432.75h1.31c-.008-.42-.126-.8-.356-1.12-.23-.33-.546-.58-.95-.77a3.32 3.32 0 0 0-1.137-.27v-.84h-.601v.85c-.392.03-.75.12-1.075.26-.416.19-.745.44-.987.78-.239.33-.359.72-.359 1.16 0 .54.178.97.535 1.29.36.33.849.57 1.468.73l.418.1v2.21c-.173-.02-.335-.05-.485-.11-.227-.08-.412-.21-.553-.39-.142-.17-.223-.39-.242-.65h-1.339c.019.5.149.92.389 1.27s.577.61 1.005.79c.355.15.764.24 1.225.26zm.601-1.17c.169-.02.323-.06.462-.11.225-.09.401-.22.528-.38s.192-.35.195-.56a.73.73 0 0 0-.173-.49c-.112-.13-.27-.23-.473-.32-.158-.07-.338-.13-.539-.19v2.05zm-.601-3.44v-1.93c.112-.02.212-.02.319-.02l.282.01v-1.16c-.099 0-.181-.01-.264-.01-.115 0-.228.01-.337.02v1.16a1.65 1.65 0 0 0-.411.1 1.18 1.18 0 0 0-.466.35c-.108.15-.163.32-.165.51 0 .15.035.29.106.4.074.12.173.22.297.3.125.07.263.14.415.19l.224.08z" class="M"/><path d="M313.04 1069.01l.017-.01c.095-.01.195-.01.302-.01l.282.01v-1.16h-.019c-.08 0-.162-.01-.245-.01-.115 0-.228.01-.337.02v1.16z"/><path d="M319.747 1075.55v.84h.601v-.84c.472-.02.883-.11 1.233-.27a2.19 2.19 0 0 0 .975-.78c.225-.33.338-.72.338-1.16 0-.33-.061-.61-.184-.85s-.288-.45-.498-.62-.444-.31-.708-.43c-.262-.11-.535-.2-.818-.26l-.338-.09V1069c.277.03.511.12.701.25.254.18.399.43.433.75h1.309a1.94 1.94 0 0 0-.356-1.12c-.229-.33-.546-.58-.95-.77a3.32 3.32 0 0 0-1.137-.27v-.84h-.601v.85c-.392.03-.75.12-1.075.26-.415.19-.744.44-.986.78-.24.33-.36.72-.36 1.16 0 .54.179.97.536 1.29.359.33.848.57 1.467.73l.418.1v2.21a1.87 1.87 0 0 1-.484-.11 1.19 1.19 0 0 1-.554-.39c-.142-.17-.223-.39-.242-.65h-1.339c.02.5.149.92.389 1.27s.577.61 1.005.79a3.53 3.53 0 0 0 1.225.26zm.601-1.17a2.11 2.11 0 0 0 .463-.11c.225-.09.401-.22.528-.38s.192-.35.194-.56a.73.73 0 0 0-.172-.49c-.113-.13-.27-.23-.473-.32a4.6 4.6 0 0 0-.54-.19v2.05zm-.601-3.44v-1.93c.112-.02.213-.02.319-.02l.282.01v-1.16c-.099 0-.18-.01-.264-.01-.115 0-.227.01-.337.02v1.16a1.65 1.65 0 0 0-.411.1 1.18 1.18 0 0 0-.466.35.88.88 0 0 0-.165.51c0 .15.036.29.107.4.073.12.172.22.297.3.124.07.263.14.414.19l.224.08z" class="M"/><path d="M319.747 1069.01l.017-.01c.095-.01.196-.01.302-.01l.282.01v-1.16h-.019c-.08 0-.161-.01-.245-.01-.115 0-.227.01-.337.02v1.16z"/><path d="M326.454 1075.55v.84h.602v-.84c.472-.02.882-.11 1.232-.27.426-.18.751-.45.976-.78s.337-.72.337-1.16c0-.33-.061-.61-.183-.85a1.91 1.91 0 0 0-.499-.62c-.208-.17-.444-.31-.708-.43a4.53 4.53 0 0 0-.818-.26l-.337-.09V1069c.276.03.51.12.7.25.255.18.399.43.433.75h1.309c-.007-.42-.126-.8-.355-1.12-.23-.33-.547-.58-.95-.77a3.33 3.33 0 0 0-1.137-.27v-.84h-.602v.85c-.392.03-.75.12-1.074.26-.416.19-.745.44-.987.78-.24.33-.359.72-.359 1.16 0 .54.178.97.535 1.29.359.33.848.57 1.467.73l.418.1v2.21a1.87 1.87 0 0 1-.484-.11c-.227-.08-.412-.21-.554-.39-.142-.17-.222-.39-.242-.65h-1.339c.02.5.15.92.389 1.27s.577.61 1.005.79a3.53 3.53 0 0 0 1.225.26zm.602-1.17a2.11 2.11 0 0 0 .462-.11c.225-.09.401-.22.528-.38s.192-.35.194-.56a.73.73 0 0 0-.172-.49c-.112-.13-.27-.23-.473-.32-.158-.07-.338-.13-.539-.19v2.05zm-.602-3.44v-1.93c.112-.02.213-.02.319-.02l.283.01v-1.16c-.099 0-.181-.01-.264-.01a3.72 3.72 0 0 0-.338.02v1.16c-.151.02-.288.05-.411.1a1.17 1.17 0 0 0-.465.35c-.108.15-.163.32-.165.51 0 .15.035.29.106.4.073.12.172.22.297.3.125.07.263.14.414.19l.224.08z" class="M"/><path d="M326.454 1069.01l.017-.01c.095-.01.196-.01.302-.01l.283.01v-1.16h-.019c-.08 0-.162-.01-.245-.01a3.72 3.72 0 0 0-.338.02v1.16z"/></g><g fill="#2f5edd" class="M"><path d="M332.095 1110.41c-3.68 2.71-8.99 4.13-13.537 4.13-6.422 0-12.184-2.36-16.557-6.31-.347-.32-.035-.73.382-.49 4.72 2.74 10.552 4.41 16.556 4.41 4.062 0 8.539-.83 12.635-2.57.59-.28 1.111.38.521.83zm1.528-1.73c-.486-.59-3.089-.28-4.27-.14-.347.03-.416-.28-.104-.49 2.083-1.46 5.519-1.04 5.936-.55.416.48-.104 3.95-2.083 5.59-.312.24-.59.1-.451-.21.451-1.15 1.423-3.61.972-4.2zm-4.201-11.07v-1.43a.35.35 0 0 1 .347-.35h6.421c.209 0 .382.14.382.35v1.22c0 .21-.173.48-.486.9l-3.332 4.75c1.25-.03 2.534.14 3.645.8.243.14.312.35.347.56v1.53c0 .2-.243.45-.486.31-1.979-1.04-4.582-1.15-6.769 0-.208.1-.451-.11-.451-.35v-1.46c0-.24 0-.62.243-.97l3.853-5.52h-3.367c-.174.04-.347-.1-.347-.34zm-23.395 8.95h-1.944a.35.35 0 0 1-.347-.35v-10.03c0-.21.174-.34.382-.34h1.805a.34.34 0 0 1 .347.34v1.32h.035c.486-1.25 1.354-1.84 2.568-1.84s1.979.59 2.534 1.84c.486-1.25 1.562-1.84 2.708-1.84.833 0 1.7.35 2.256 1.11.625.84.486 2.09.486 3.16v6.32c0 .21-.174.35-.382.35h-1.944c-.208 0-.347-.18-.347-.35v-5.31c0-.42.035-1.49-.069-1.88-.139-.66-.59-.86-1.146-.86-.486 0-.972.31-1.18.83s-.173 1.35-.173 1.91v5.31c0 .21-.174.35-.382.35h-1.944c-.208 0-.347-.18-.347-.35v-5.31c0-1.11.173-2.78-1.215-2.78s-1.354 1.6-1.354 2.78v5.31c0 .14-.139.31-.347.31zm36.065-10.93c2.881 0 4.477 2.5 4.477 5.65 0 3.06-1.735 5.49-4.477 5.49-2.846 0-4.408-2.5-4.408-5.59.034-3.12 1.596-5.55 4.408-5.55zm.034 2.04c-1.423 0-1.527 1.95-1.527 3.2 0 1.21-.034 3.85 1.527 3.85 1.528 0 1.597-2.12 1.597-3.4 0-.83-.035-1.84-.278-2.67-.277-.7-.694-.98-1.319-.98zm8.191 8.89h-1.944c-.208 0-.347-.17-.347-.35v-10.03c0-.17.174-.31.382-.31h1.805c.174 0 .312.14.347.28v1.53h.035c.555-1.36 1.319-2.02 2.673-2.02.867 0 1.735.31 2.29 1.18.521.8.521 2.15.521 3.13v6.31c-.035.18-.173.32-.382.32h-1.943c-.174 0-.313-.14-.348-.32v-5.48c0-1.11.139-2.71-1.214-2.71-.486 0-.903.31-1.146.8-.278.62-.312 1.22-.312 1.91v5.38c-.035.21-.209.38-.417.38zm-25.998-4.79c0 .76.035 1.39-.381 2.08-.313.56-.799.91-1.354.91-.764 0-1.18-.56-1.18-1.43 0-1.66 1.492-1.98 2.915-1.98v.42zm1.944 4.76c-.139.1-.312.13-.451.03-.659-.56-.764-.8-1.111-1.28-1.076 1.07-1.839 1.42-3.228 1.42-1.631 0-2.915-1.01-2.915-3.06 0-1.59.867-2.67 2.082-3.19 1.076-.45 2.534-.55 3.679-.66v-.24c0-.45.035-1.01-.242-1.42-.243-.35-.695-.52-1.111-.52-.729 0-1.423.38-1.562 1.18-.035.17-.174.34-.347.34l-1.909-.21c-.174-.03-.347-.17-.278-.41.451-2.29 2.499-2.99 4.373-2.99.938 0 2.187.25 2.951.97.937.91.868 2.09.868 3.37v3.06c0 .9.381 1.31.729 1.8.138.17.138.38 0 .52l-1.528 1.29zm-27.558-4.76c0 .76.034 1.39-.382 2.08-.312.56-.798.91-1.354.91-.763 0-1.18-.56-1.18-1.43 0-1.66 1.493-1.98 2.916-1.98v.42zm1.978 4.76c-.139.1-.312.13-.451.03-.66-.56-.764-.8-1.111-1.28-1.076 1.07-1.839 1.42-3.228 1.42-1.631 0-2.915-1.01-2.915-3.06 0-1.59.867-2.67 2.082-3.19 1.076-.45 2.534-.55 3.679-.66v-.24c0-.45.035-1.01-.243-1.42-.243-.35-.694-.52-1.11-.52-.729 0-1.423.38-1.562 1.18-.035.17-.174.34-.347.34l-1.909-.21c-.174-.03-.347-.17-.278-.41.451-2.29 2.499-2.99 4.373-2.99.938 0 2.187.25 2.951.97.937.91.868 2.09.868 3.37v3.06c0 .9.381 1.31.728 1.8.139.17.139.38 0 .52l-1.527 1.29z"/></g><path d="M649.243 248.805c18.467 0 33.403-14.936 33.403-33.403S667.71 182 649.243 182s-33.402 14.935-33.402 33.402 14.935 33.403 33.402 33.403z" class="C F I L"/><path d="M661.858 188.762c8.578 5.146 14.431 16.449 14.431 27.145 0 10.798-5.752 22-14.431 27.146 10.495-4.541 17.862-15.036 17.862-27.146s-7.367-22.604-17.862-27.145z" class="E"/><g class="C F H I"><path d="M683.754 211.466c17.357 1.01 28.962 2.725 28.962 4.542 0 2.926-28.054 5.146-62.768 5.045-34.614-.101-62.668-2.623-62.668-5.55 0-1.816 10.899-3.33 27.449-4.238"/><path d="M683.351 209.246c30.879 1.211 52.475 3.936 52.475 6.963 0 4.037-38.448 7.064-85.877 6.863s-85.878-3.633-85.878-7.569c0-2.926 20.889-5.348 50.962-6.357"/><path d="M683.957 213.889c4.843.605 7.77 1.312 7.77 2.119 0 1.918-18.669 3.431-41.778 3.33-23.009-.101-41.678-1.816-41.678-3.733 0-.707 2.221-1.312 6.156-1.817"/><path d="M682.746 206.522c48.136 1.413 83.254 5.349 83.254 9.789 0 5.348-51.97 9.486-116.05 9.284-64.08-.404-115.95-4.945-115.95-10.394 0-4.44 34.311-7.972 81.538-8.981"/></g><g stroke="#fff" class="C H I"><path d="M683.754 210.761c17.357 1.01 28.962 2.725 28.962 4.542 0 2.926-28.054 5.146-62.768 5.045-34.614-.101-62.668-2.624-62.668-5.55 0-1.817 10.899-3.33 27.449-4.238"/><path d="M683.351 208.642c30.879 1.211 52.475 3.936 52.475 6.963 0 4.036-38.448 7.064-85.877 6.862s-85.878-3.633-85.878-7.568c0-2.927 20.889-5.349 50.962-6.358"/><path d="M683.957 213.182c4.843.605 7.77 1.312 7.77 2.119 0 1.918-18.669 3.431-41.778 3.33-23.009-.101-41.678-1.816-41.678-3.734 0-.706 2.221-1.311 6.156-1.816"/><path d="M682.746 205.916c48.136 1.413 83.254 5.348 83.254 9.789 0 5.348-51.97 9.485-116.05 9.284-64.08-.404-115.95-5.046-115.95-10.394 0-4.441 34.311-7.973 81.538-8.982"/></g><g class="F C"><g class="D K I"><path d="M546.818 223.172c2.321 0 4.239-1.917 4.239-4.238a4.27 4.27 0 0 0-4.239-4.239c-2.321 0-4.238 1.918-4.238 4.239s1.917 4.238 4.238 4.238zm206.064-7.972c2.321 0 4.238-1.917 4.238-4.238s-1.917-4.238-4.238-4.238-4.238 1.917-4.238 4.238 1.917 4.238 4.238 4.238zm-44.705 3.936c1.211 0 2.119-.908 2.119-2.119s-.908-2.12-2.119-2.12-2.119.909-2.119 2.12.908 2.119 2.119 2.119zm-102.127-5.953c1.211 0 2.119-.909 2.119-2.119s-.908-2.12-2.119-2.12-2.119.909-2.119 2.12.908 2.119 2.119 2.119zm41.579 11.301c1.211 0 2.119-.908 2.119-2.119s-.908-2.119-2.119-2.119-2.119.908-2.119 2.119c0 1.11.908 2.119 2.119 2.119z"/></g><g class="B E"><path d="M741.881 865.829h-1.396v11.062h1.396v-11.062zm2.489.698h-1.395v35.578h1.395v-35.578zm21.427 17.739a6.68 6.68 0 0 0 6.677 6.677v-13.454c-3.687.1-6.677 3.09-6.677 6.777z"/></g></g><path opacity=".1" d="M766.099 886.357c.897 2.691 3.388 4.585 6.378 4.585v-4.585h-6.378z" fill="#000"/><g class="B C E F"><path d="M725.934 883.768h-37.372l.001.896h37.371v-.896z"/><path d="M760.815 894.528h-34.88v-20.429h34.88c3.587 0 6.478 2.89 6.478 6.477v7.475c.099 3.488-2.791 6.477-6.478 6.477zm-37.371-10.264a17.57 17.57 0 0 1-17.54 17.54v-35.079a17.57 17.57 0 0 1 17.54 17.539z"/></g><use xlink:href="#B" fill="#000"/><path d="M755.633 874.001h-25.512v20.43h25.512v-20.43z" class="B C F L"/><g fill="#000"><path opacity=".1" d="M705.904 883.967v17.839a17.57 17.57 0 0 0 17.54-17.54v-.299h-17.54zm20.031.198v10.364h34.88c3.587 0 6.478-2.89 6.478-6.477v-3.787l-41.358-.1z"/></g><g class="E"><path d="M710.886 868.22c5.082 3.089 8.471 9.667 8.471 16.045s-3.389 12.955-8.471 16.045c6.179-2.691 10.563-8.87 10.563-16.045-.099-7.176-4.384-13.355-10.563-16.045zm49.732 6.678c2.99 1.794 4.983 5.681 4.983 9.368s-1.993 7.574-4.983 9.368c3.588-1.594 6.179-5.182 6.179-9.368-.1-4.185-2.591-7.773-6.179-9.368z"/></g><g class="C"><g stroke="#fff" class="B"><path d="M687.467 893.731c-5.182 0-9.467-4.186-9.467-9.468 0-5.182 4.186-9.467 9.467-9.467 5.183 0 9.468 4.186 9.468 9.467 0 5.183-4.285 9.468-9.468 9.468z"/><path d="M687.466 891.64a7.36 7.36 0 0 1-7.374-7.375c0-4.086 3.288-7.374 7.374-7.374a7.36 7.36 0 1 1 0 14.749z"/><path d="M687.469 889.648a5.36 5.36 0 1 1 0-10.763 5.36 5.36 0 0 1 5.382 5.381c0 2.99-2.492 5.382-5.382 5.382z"/></g><g class="F"><use xlink:href="#B" class="B L"/><g class="E B"><path d="M744.37 890.943h-1.395v11.062h1.395v-11.062zm-2.39 0h-1.395v11.062h1.395v-11.062z"/></g><g class="D B"><g class="K"><path d="M756.133 816h-25.512v50.526h25.512V816z"/><path d="M743.377 816h-12.756v50.526h12.756V816z"/><path d="M755.935 816h-12.756v50.526h12.756V816z"/></g><path d="M756.133 816h-25.512v5.78h25.512V816z"/><use xlink:href="#C"/><path d="M756.133 827.16h-25.512v5.78h25.512v-5.78z"/><path d="M756.133 832.741h-25.512v5.78h25.512v-5.78z"/><path d="M756.133 838.423h-25.512v5.78h25.512v-5.78z"/><path d="M756.133 844.004h-25.512v5.78h25.512v-5.78z"/><path d="M756.133 849.585h-25.512v5.78h25.512v-5.78z"/><path d="M756.133 855.264h-25.512v5.78h25.512v-5.78z"/><g class="K"><path d="M756.133 902.003h-25.512v50.526h25.512v-50.526z"/><path d="M743.377 902.003h-12.756v50.526h12.756v-50.526z"/><path d="M755.935 902.003h-12.756v50.526h12.756v-50.526z"/></g><path d="M756.133 902.003h-25.512v5.78h25.512v-5.78z"/><path d="M756.133 907.683h-25.512v5.78h25.512v-5.78z"/><path d="M756.133 913.265h-25.512v5.78h25.512v-5.78z"/><path d="M756.133 918.844h-25.512v5.78h25.512v-5.78z"/><path d="M756.133 924.526h-25.512v5.781h25.512v-5.781z"/><path d="M756.133 930.106h-25.512v5.781h25.512v-5.781z"/><path d="M756.133 935.688h-25.512v5.781h25.512v-5.781z"/><path d="M756.133 941.367h-25.512v5.78h25.512v-5.78z"/></g><g class="G"><path d="M71.872 901.421c12.267 0 22.21-9.944 22.21-22.211S84.138 857 71.872 857s-22.211 9.944-22.211 22.21 9.944 22.211 22.211 22.211z" class="K"/><path d="M59.996 883.829c1.759 4.838 6.597 8.137 11.875 8.137a12.77 12.77 0 0 0 11.875-8.137" class="H"/></g></g></g><g fill="#000"><use xlink:href="#D"/><path d="M78.688 875.471a1.76 1.76 0 0 0 1.759-1.76 1.76 1.76 0 0 0-1.759-1.759 1.76 1.76 0 0 0-1.759 1.759 1.76 1.76 0 0 0 1.759 1.76z"/></g><g class="C G"><path d="M91.664 864.917c6.597-1.32 10.995-.88 11.655.879 1.539 3.959-11.875 13.195-30.127 20.891s-34.305 10.776-36.065 6.817c-.88-2.199 2.859-5.937 9.456-10.335" stroke="#fb5d96"/><g class="D E F"><path d="M146.435 923.87l.66-3.958c.66-3.519 3.298-6.157 6.817-6.817l4.178-.66-4.178-.66c-3.519-.659-6.157-3.298-6.817-6.817l-.66-3.958-.66 3.958c-.659 3.519-3.298 6.158-6.817 6.817l-3.958.66 3.958.66c3.519.66 6.158 3.298 6.817 6.817l.66 3.958zm-90.581 50.838l-.88-4.838c-.66-4.178-3.958-7.477-8.137-8.136l-4.838-.88 4.838-.88c4.178-.659 7.477-3.958 8.137-8.136l.88-4.838.88 4.838c.66 4.178 3.958 7.477 8.136 8.136l4.838.88-4.838.88a9.8 9.8 0 0 0-8.136 8.136l-.88 4.838zM125.812 639c4.179 2.199 7.257 6.597 7.257 11.655 0 7.257-5.937 13.194-13.194 13.194-5.278 0-9.896-3.078-11.875-7.696 1.1 7.037 7.257 12.534 14.734 12.534 8.356 0 14.953-6.817 14.953-14.953 0-7.257-5.058-13.415-11.875-14.734z"/></g></g><path d="M86 526.194l4.618-6.597L86 513l6.597 4.618L99.194 513l-4.618 6.597 4.618 6.597-6.597-4.618L86 526.194z" class="E"/><g class="C D F G E"><path d="M155.194 237.389l-1.979-11.215-11.215-1.98 11.215-1.979L155.194 211l1.979 11.215 11.216 1.979-11.216 1.98-1.979 11.215zm-96.476 17.046l-.22-1.979c-.44-1.759-1.539-3.079-3.518-3.519l-1.98-.219 1.979-.22c1.759-.22 3.079-1.54 3.518-3.519l.22-1.979.22 1.979c.22 1.759 1.539 3.079 3.519 3.519l1.979.22-1.979.219c-1.759.22-3.079 1.54-3.519 3.519l-.22 1.979z"/></g><path d="M85.597 185.194c3.519 0 6.597-2.858 6.597-6.597 0-3.518-2.859-6.597-6.597-6.597-3.519 0-6.597 2.859-6.597 6.597 0 3.519 3.079 6.597 6.597 6.597z" class="C D G J"/><g class="E F C D G"><path d="M595.173 1098.11l-2.199-13.64-12.974-2.42 12.974-2.42 2.199-13.63 2.2 13.63 12.974 2.42-12.974 2.42-2.2 13.64zm-74.377-119.518l1.32-7.476 7.476-1.32-7.476-1.319-1.32-7.477-1.319 7.477-7.477 1.319 7.477 1.32 1.319 7.476z"/></g><path d="M436.639 975.278c1.539 0 2.639-1.1 2.639-2.639s-1.1-2.639-2.639-2.639-2.639 1.1-2.639 2.639 1.319 2.639 2.639 2.639z" class="C D G J"/><use xlink:href="#E" class="C D E F G"/><path d="M327.597 202.194c3.519 0 6.597-2.858 6.597-6.597 0-3.518-2.858-6.597-6.597-6.597S321 191.859 321 195.597s2.859 6.597 6.597 6.597z" class="C D G J"/><g class="E"><path d="M451.854 262.708l-.88-4.838a9.8 9.8 0 0 0-8.136-8.136l-4.838-.88 4.838-.88a9.8 9.8 0 0 0 8.136-8.136l.88-4.838.88 4.838a9.8 9.8 0 0 0 8.136 8.136l4.838.88-4.838.88a9.8 9.8 0 0 0-8.136 8.136l-.88 4.838z" class="C D F G"/><path d="M107.796 221.796l-3.078-4.398 3.078-4.398-4.398 3.079L99 213l3.079 4.398L99 221.796l4.398-3.078 4.398 3.078z"/></g><g class="C G"><path d="M649.266 219.278c1.54 0 2.639-1.1 2.639-2.639S650.806 214 649.266 214s-2.638 1.1-2.638 2.639c-.22 1.319 1.099 2.639 2.638 2.639z" class="D J"/><path d="M781.442 516.464c-4.618-4.619-11.875-4.619-16.493 0l-1.539 1.539-1.539-1.539c-4.618-4.619-11.875-4.619-16.493 0s-4.618 11.874 0 16.492l1.539 1.54 16.493 16.493 16.493-16.493 1.539-1.54c4.618-4.618 4.618-12.094 0-16.492z" class="F K"/><path d="M738.558 526.14c-6.597 1.099-10.556 3.078-10.556 5.057-.22 4.179 15.833 8.137 35.625 8.577s35.845-2.639 35.845-6.817c0-2.419-4.838-4.618-12.535-6.158" stroke="#fb5d96" class="H"/><g class="D"><path d="M769.278 695.555c3.078 0 5.277-2.418 5.277-5.277 0-3.079-2.418-5.278-5.277-5.278-3.079 0-5.278 2.419-5.278 5.278s2.419 5.277 5.278 5.277z" class="J"/><path d="M719.555 631.111l-1.539-9.016-9.016-1.54 9.016-1.539 1.539-9.016 1.54 9.016 9.016 1.539-9.016 1.54-1.54 9.016z" class="E F"/><path d="M60.597 594.194c3.519 0 6.597-2.858 6.597-6.597S64.336 581 60.597 581 54 583.859 54 587.597s3.079 6.597 6.597 6.597z" class="J"/></g></g><g class="E"><path d="M728 1113.27l5.278-8.13L728 1097l7.697 5.72 7.696-5.72-5.277 8.14 5.277 8.13-7.696-5.71-7.697 5.71zm-156-43.11l2.199-3.08L572 1064l3.079 2.2 3.078-2.2-2.199 3.08 2.199 3.08-3.078-2.2-3.079 2.2z"/></g><path d="M628.278 1047.56c3.078 0 5.277-2.42 5.277-5.28 0-3.08-2.418-5.28-5.277-5.28-3.079 0-5.278 2.42-5.278 5.28s2.419 5.28 5.278 5.28z" class="C D G J"/></g><defs><clipPath id="A"><path transform="matrix(.999999 .001616 -.001616 .999999 1.92969 0)" d="M0 0h834v1194H0z" class="E"/></clipPath><path id="B" d="M687.469 887.554a3.32 3.32 0 0 0 3.289-3.289 3.32 3.32 0 0 0-3.289-3.288 3.32 3.32 0 0 0-3.288 3.288 3.32 3.32 0 0 0 3.288 3.289z"/><path id="C" d="M756.133 821.581h-25.512v5.78h25.512v-5.78z"/><path id="D" d="M65.272 875.471a1.76 1.76 0 0 0 1.759-1.76 1.76 1.76 0 0 0-1.759-1.759 1.76 1.76 0 0 0-1.759 1.759 1.76 1.76 0 0 0 1.759 1.76z"/><path id="E" d="M733.854 171.708l-.88-4.838a9.8 9.8 0 0 0-8.136-8.136l-4.838-.88 4.838-.88a9.8 9.8 0 0 0 8.136-8.136l.88-4.838.88 4.838a9.8 9.8 0 0 0 8.136 8.136l4.838.88-4.838.88a9.8 9.8 0 0 0-8.136 8.136l-.88 4.838z"/></defs></svg>