<?xml version="1.0" standalone="no"?>
<!DOCTYPE svg PUBLIC "-//W3C//DTD SVG 20010904//EN"
 "http://www.w3.org/TR/2001/REC-SVG-20010904/DTD/svg10.dtd">
<svg version="1.0" xmlns="http://www.w3.org/2000/svg"
 width="300.000000pt" height="181.000000pt" viewBox="0 0 300.000000 181.000000"
 preserveAspectRatio="xMidYMid meet">
<metadata>
Created by potrace 1.10, written by Peter Selinger 2001-2011
</metadata>
<g transform="translate(0.000000,181.000000) scale(0.100000,-0.100000)"
fill="white" stroke="none">
<path d="M689 1440 c-119 -19 -252 -105 -318 -208 -52 -81 -73 -156 -75 -257
-1 -137 46 -247 146 -342 255 -241 665 -136 778 198 18 53 21 80 18 159 -6
116 -31 186 -96 273 -103 134 -280 203 -453 177z m231 -57 c67 -26 131 -67
162 -101 40 -45 80 -111 73 -122 -4 -6 -47 -10 -97 -10 -78 0 -95 -3 -113 -20
-21 -19 -21 -19 -70 5 -26 14 -63 25 -80 25 -28 0 -33 4 -44 40 -13 44 -34 60
-80 60 -44 0 -71 -31 -71 -79 0 -22 -4 -42 -9 -45 -4 -3 -27 2 -50 11 -42 17
-61 15 -163 -11 -14 -4 -16 -1 -7 21 38 100 161 204 280 238 69 19 206 13 269
-12z m-194 -170 c-4 -16 -9 -96 -7 -116 1 -4 12 0 26 9 33 22 92 20 123 -3 49
-36 66 -70 66 -126 0 -65 -26 -112 -76 -138 -45 -23 -70 -24 -108 -4 -18 9
-31 11 -35 5 -3 -6 -24 -10 -46 -10 l-39 0 0 200 0 200 51 0 c43 0 50 -2 45
-17z m-144 -130 c31 -30 26 -43 -22 -63 -25 -10 -32 -10 -45 4 -21 20 -44 20
-73 0 -27 -18 -30 -69 -5 -96 20 -22 71 -24 79 -3 8 20 20 19 60 -6 29 -18 32
-23 21 -40 -15 -24 -84 -59 -117 -59 -13 0 -43 9 -67 21 -122 59 -104 243 27
276 47 13 109 -2 142 -34z m608 -5 c0 -39 -6 -48 -62 -106 l-63 -64 60 4 60 3
3 -42 3 -43 -122 0 c-121 0 -121 0 -115 23 3 12 6 31 6 42 0 11 26 49 57 84
l56 63 -57 -3 -58 -4 -4 43 -4 42 120 0 120 0 0 -42z m-665 -99 c8 -12 -31
-30 -49 -23 -19 7 -21 31 -3 37 15 5 46 -3 52 -14z m70 2 c3 -5 1 -13 -5 -16
-15 -9 -43 3 -35 15 8 13 32 13 40 1z m615 -16 c0 -8 -5 -17 -11 -21 -16 -9
-30 18 -17 33 12 15 28 8 28 -12z m-148 -165 c102 0 114 -9 77 -62 -33 -49
-101 -118 -116 -118 -7 0 -13 -4 -13 -9 0 -4 -27 -21 -61 -36 -201 -90 -451
-9 -560 182 -34 60 -32 74 8 52 36 -19 130 -17 170 4 29 15 36 16 55 3 13 -8
64 -17 118 -20 88 -6 98 -5 140 18 44 23 45 24 69 5 19 -15 41 -19 113 -19z"/>
<path d="M736 1018 c-49 -69 33 -148 94 -93 43 39 13 115 -45 115 -24 0 -39
-7 -49 -22z m72 -41 c4 -20 -25 -34 -40 -19 -15 15 -1 44 19 40 10 -2 19 -11
21 -21z"/>
<path d="M1290 975 l0 -145 26 0 c26 0 26 1 22 60 l-4 60 64 0 64 0 -4 -57
c-3 -55 -2 -58 20 -58 24 0 24 0 24 140 l1 140 -24 0 c-22 0 -24 -4 -24 -59
l0 -60 -60 0 -60 0 3 62 c4 61 3 62 -22 62 l-26 0 0 -145z"/>
<path d="M1763 975 c2 -143 2 -145 25 -145 22 0 22 1 22 145 l0 145 -25 0 -24
0 2 -145z"/>
<path d="M2002 1065 c5 -59 3 -62 -26 -40 -51 38 -128 0 -141 -68 -16 -82 54
-147 128 -119 21 8 35 8 41 2 6 -6 16 -10 23 -10 10 0 13 33 13 145 0 141 -1
145 -21 145 -20 0 -21 -4 -17 -55z m-22 -85 c11 -11 20 -31 20 -45 0 -31 -33
-65 -62 -65 -28 0 -68 37 -68 64 0 27 39 66 67 66 13 0 32 -9 43 -20z"/>
<path d="M2071 1106 c-17 -20 -2 -48 23 -44 24 3 34 37 14 49 -18 12 -24 11
-37 -5z"/>
<path d="M1581 1026 c-91 -51 -51 -196 54 -196 53 0 105 51 105 103 0 81 -88
133 -159 93z m98 -52 c27 -34 26 -52 -1 -81 -28 -30 -59 -29 -87 1 -18 19 -21
31 -16 55 12 55 70 69 104 25z"/>
<path d="M2070 936 c0 -100 1 -106 20 -106 20 0 21 5 18 102 -3 89 -5 103 -20
106 -16 3 -18 -7 -18 -102z"/>
<path d="M2139 1035 c0 -3 -1 -49 -1 -102 -1 -92 1 -98 20 -101 20 -3 21 2 24
74 3 85 15 102 61 90 26 -6 27 -8 27 -86 0 -79 0 -80 25 -80 l25 0 -5 87 c-4
60 -11 93 -22 105 -18 20 -64 24 -93 8 -13 -7 -21 -7 -25 0 -6 10 -34 14 -36
5z"/>
<path d="M2378 1017 c-64 -60 -39 -161 45 -181 27 -6 65 7 79 28 4 6 8 -1 8
-16 0 -15 -7 -34 -16 -42 -20 -20 -78 -21 -94 -1 -9 11 -17 12 -33 3 -21 -11
-20 -11 7 -34 39 -34 113 -34 150 1 14 13 26 32 27 42 0 10 1 64 3 121 1 100
1 102 -21 102 -15 0 -23 -6 -23 -17 0 -15 -1 -15 -18 0 -27 25 -84 22 -114 -6z
m112 -37 c26 -26 25 -64 -2 -90 -28 -25 -48 -25 -82 1 -31 25 -33 57 -6 87 26
27 64 28 90 2z"/>
<path d="M2600 1020 c-38 -38 -23 -75 42 -101 24 -9 43 -23 43 -30 0 -20 -44
-23 -64 -5 -14 13 -21 14 -35 3 -47 -34 68 -76 119 -43 17 11 25 26 25 45 0
33 -13 46 -66 65 -44 15 -53 42 -14 40 14 -1 32 -4 40 -7 8 -4 22 -2 30 3 13
9 12 13 -9 30 -30 26 -85 26 -111 0z"/>
</g>
</svg>
