<?xml version="1.0" encoding="utf-8"?>
<!-- Generator: Adobe Illustrator 19.2.1, SVG Export Plug-In . SVG Version: 6.00 Build 0)  -->
<svg version="1.1" id="layer" xmlns="http://www.w3.org/2000/svg" xmlns:xlink="http://www.w3.org/1999/xlink" x="0px" y="0px"
	 viewBox="0 0 652 652" style="enable-background:new 0 0 652 652;" xml:space="preserve">
<style type="text/css">
	.st0{fill:white;}
	.st1{fill:white;}
	.st2{fill:white;}
	/* .st0{fill:#78787B;}
	.st1{fill:#E41E2F;}
	.st2{fill:#2A3382;} */
</style>
<g>
	<path class="st0" d="M546.9,375.8c1.1,1,2.3,1.8,3.8,2.3c1.5,0.5,3,0.9,4.5,1.2c1.5,0.3,2.8,0.7,3.8,1.1c1,0.4,1.6,0.9,1.6,1.5
		c0,1.3-1.6,1.9-4.6,1.9c-2,0-3.3-0.4-4-1.4c-0.6-0.7-1.4-1.1-2.3-1.1h-3c-0.4,0-0.7,0.1-0.9,0.4c-0.2,0.2-0.4,0.5-0.4,0.9
		c0,3.9,3.7,5.8,11.1,5.8c7.4,0,11.1-2.2,11.1-6.5c0-1.6-0.5-2.9-1.6-3.9c-1-1-2.3-1.8-3.8-2.3c-1.5-0.5-3-0.9-4.5-1.2
		c-1.5-0.3-2.8-0.7-3.8-1.1c-1-0.4-1.6-0.9-1.6-1.5c0-1.3,1.3-1.9,4-1.9c1.9,0,3.3,0.4,4,1.4c0.6,0.7,1.4,1.1,2.3,1.1h3
		c0.4,0,0.7-0.1,0.9-0.3c0.2-0.2,0.3-0.5,0.3-0.9c0-3.9-3.7-5.8-11.1-5.8c-7,0-10.5,2.2-10.5,6.5
		C545.4,373.5,545.9,374.8,546.9,375.8 M522.2,375.8c1,1,2.3,1.8,3.8,2.3c1.5,0.5,3,0.9,4.5,1.2c1.5,0.3,2.8,0.7,3.8,1.1
		c1,0.4,1.6,0.9,1.6,1.5c0,1.3-1.5,1.9-4.6,1.9c-1.9,0-3.3-0.4-4-1.4c-0.6-0.7-1.4-1.1-2.3-1.1h-3c-0.4,0-0.7,0.1-0.9,0.4
		c-0.2,0.2-0.3,0.5-0.3,0.9c0,3.9,3.7,5.8,11.1,5.8c7.4,0,11.1-2.2,11.1-6.5c0-1.6-0.5-2.9-1.6-3.9c-1-1-2.3-1.8-3.8-2.3
		c-1.5-0.5-3-0.9-4.5-1.2c-1.5-0.3-2.8-0.7-3.8-1.1c-1-0.4-1.6-0.9-1.6-1.5c0-1.3,1.3-1.9,4-1.9c1.9,0,3.3,0.4,4,1.4
		c0.6,0.7,1.4,1.1,2.3,1.1h3c0.4,0,0.7-0.1,0.9-0.3c0.2-0.2,0.3-0.5,0.3-0.9c0-3.9-3.7-5.8-11.1-5.8c-7,0-10.5,2.2-10.5,6.5
		C520.7,373.5,521.2,374.8,522.2,375.8 M506.4,370c3,0,4.5,1.6,4.7,4.8h-9.4C501.9,371.6,503.4,370,506.4,370 M506.4,388.4
		c7.4,0,11-1.9,11-5.7c0-0.4-0.1-0.7-0.4-1c-0.2-0.3-0.5-0.4-0.9-0.4h-3c-1,0-1.7,0.4-2.3,1.1c-0.7,0.9-2.1,1.4-4,1.4
		c-1.7,0-2.9-0.3-3.7-1.1c-0.8-0.7-1.3-1.8-1.4-3.4h15.2c0.4,0,0.7-0.1,0.9-0.4c0.2-0.2,0.4-0.5,0.4-0.9v-1.2c0-3.7-1-6.5-3.1-8.5
		c-2.1-2-5-3-8.7-3c-3.7,0-6.6,1-8.7,3c-2.1,2-3.1,4.8-3.1,8.6c0,3.7,1,6.6,3.1,8.5C499.8,387.4,502.7,388.4,506.4,388.4
		 M484.3,387.6c0.2,0.2,0.5,0.3,0.9,0.3h4.5c0.3,0,0.6-0.1,0.9-0.3c0.2-0.2,0.4-0.5,0.4-0.9v-26.5c0-0.4-0.1-0.7-0.4-0.9
		c-0.2-0.2-0.5-0.3-0.9-0.3h-4.5c-0.4,0-0.6,0.1-0.9,0.3c-0.2,0.2-0.3,0.5-0.3,0.9v26.5C483.9,387.1,484.1,387.4,484.3,387.6
		 M468.5,370c3,0,4.5,1.6,4.7,4.8h-9.4C463.9,371.6,465.5,370,468.5,370 M468.4,388.4c7.4,0,11-1.9,11-5.7c0-0.4-0.1-0.7-0.4-1
		c-0.2-0.3-0.5-0.4-0.9-0.4h-3c-1,0-1.7,0.4-2.3,1.1c-0.7,0.9-2.1,1.4-4,1.4c-1.7,0-2.9-0.3-3.7-1.1c-0.8-0.7-1.3-1.8-1.4-3.4H479
		c0.4,0,0.7-0.1,0.9-0.4c0.2-0.2,0.4-0.5,0.4-0.9v-1.2c0-3.7-1-6.5-3.1-8.5c-2.1-2-5-3-8.7-3c-3.7,0-6.6,1-8.7,3
		c-2.1,2-3.1,4.8-3.1,8.6c0,3.7,1,6.6,3.1,8.5C461.8,387.4,464.7,388.4,468.4,388.4 M438.6,387.6c0.2,0.2,0.5,0.3,0.9,0.3h4.5
		c0.3,0,0.6-0.1,0.9-0.3c0.2-0.2,0.4-0.5,0.4-0.9v-13c1.7-2,3.4-3,5.2-3c0.4,0,0.9,0,1.6,0.1c0.7,0,1.2,0.1,1.5,0.1h0.7
		c0.4,0,0.7-0.1,0.9-0.3c0.2-0.2,0.4-0.5,0.4-0.9v-3c0-0.3-0.1-0.6-0.4-0.9c-0.2-0.2-0.5-0.4-0.9-0.4c-2.1,0-3.7,0.2-5,0.7
		c-1.3,0.5-2.6,1.2-4,2.2v-1.2c0-0.4-0.1-0.7-0.3-0.9c-0.2-0.2-0.5-0.3-0.9-0.3h-4.5c-0.3,0-0.6,0.1-0.9,0.3
		c-0.2,0.2-0.3,0.5-0.3,0.9v19.6C438.2,387.1,438.4,387.4,438.6,387.6 M426.6,387.6c0.2,0.2,0.5,0.3,0.9,0.3h4.5
		c0.4,0,0.6-0.1,0.9-0.3c0.2-0.2,0.4-0.5,0.4-0.9v-19.1c0-0.3-0.1-0.6-0.3-0.9c-0.2-0.2-0.5-0.3-0.9-0.3h-4.5
		c-0.4,0-0.6,0.1-0.9,0.3c-0.2,0.2-0.4,0.5-0.4,0.9v19.1C426.2,387.1,426.3,387.4,426.6,387.6 M426.8,363.4c0.4,0.4,1,0.6,1.7,0.6
		h2.5c0.7,0,1.3-0.2,1.7-0.6c0.4-0.4,0.6-1,0.6-1.7V361c0-0.7-0.2-1.3-0.6-1.7c-0.4-0.4-1-0.6-1.7-0.6h-2.5c-0.7,0-1.3,0.2-1.7,0.6
		c-0.4,0.4-0.6,1-0.6,1.7v0.7C426.1,362.4,426.3,363,426.8,363.4 M386.9,385.9c0.5,1.4,1.5,2.1,2.9,2.1h2.9c1.5,0,2.4-0.7,2.9-2.1
		l4.9-15.5l4.9,15.6c0.4,1.4,1.4,2,2.8,2h2.9c1.4,0,2.4-0.7,2.9-2.1l9-25.2c0.1-0.2,0.1-0.3,0.1-0.5c0-0.3-0.1-0.5-0.3-0.7
		c-0.3-0.3-0.7-0.5-1.1-0.5h-4.4c-0.5,0-1,0.2-1.5,0.5c-0.4,0.4-0.8,0.8-0.9,1.4l-5.3,16l-4.9-16c-0.4-1.3-1.2-2-2.4-2h-3.6
		c-1.2,0-2,0.6-2.4,1.9l-4.9,16l-5.3-16c-0.2-0.6-0.5-1-0.9-1.4c-0.4-0.4-0.9-0.5-1.5-0.5h-4.4c-0.4,0-0.8,0.2-1.1,0.5
		c-0.2,0.2-0.3,0.5-0.3,0.7c0,0.1,0,0.3,0.1,0.5L386.9,385.9z"/>
	<path class="st1" d="M621,289.3c0-13.1-20.5-24.9-53.7-33.4c17.2,7,27.2,15.6,27.3,24.9c0.4,26.1-76.4,48.5-171.5,50
		c-50.5,0.8-96-4.4-127.7-13.4c-3.4-0.6-6.7-1.3-10-2c32.8,12.7,88.9,21.1,152.5,21.1C539,336.5,621,315.4,621,289.3"/>
	<polygon class="st2" points="21,255.9 21,314.4 95.3,314.4 95.3,300.4 48.3,300.4 48.3,291.4 87.9,291.4 87.9,278 48.3,278 
		48.3,269.9 94.5,269.9 94.5,255.9 	"/>
	<path class="st2" d="M160.1,256.5c5,1.1,9.3,2.7,12.9,4.8c3.6,2.1,6.3,4.7,8.3,7.9c2,3.1,2.9,6.7,2.9,10.8h-26.1
		c0-1.7-0.3-3.2-1-4.6c-0.6-1.4-1.6-2.5-2.9-3.5c-1.3-1-2.8-1.7-4.7-2.2c-1.9-0.5-4-0.8-6.5-0.8c-2.9,0-5.4,0.3-7.4,1
		c-2,0.7-3.7,1.6-5,2.8c-1.3,1.2-2.2,2.6-2.8,4.3c-0.6,1.7-0.9,3.5-0.9,5.5v5.4c0,2,0.3,3.8,0.9,5.5c0.6,1.7,1.5,3.1,2.8,4.3
		c1.3,1.2,2.9,2.1,4.9,2.8c2,0.7,4.4,1,7.2,1c5.4,0,9.4-0.9,12.1-2.8c2.7-1.9,4-4.5,4-7.9h25.2c0,4-0.9,7.6-2.7,10.7
		c-1.8,3.1-4.5,5.7-8,7.8c-3.5,2.1-7.8,3.7-12.9,4.7c-5.1,1.1-10.9,1.6-17.3,1.6c-14.5,0-25.5-2.5-33-7.6
		c-7.4-5.1-11.2-12.6-11.2-22.7c0-10,3.7-17.5,11.2-22.6c7.4-5.1,18.4-7.6,33-7.6C149.4,254.9,155.1,255.4,160.1,256.5"/>
	<path class="st2" d="M231.8,269.9c-2.2,0.7-4.1,1.6-5.6,2.8c-1.5,1.2-2.6,2.6-3.4,4.3c-0.7,1.7-1.1,3.5-1.1,5.5v5.4
		c0,2,0.4,3.8,1.1,5.5c0.7,1.7,1.9,3.1,3.4,4.3c1.5,1.2,3.3,2.1,5.6,2.8c2.2,0.7,4.9,1,7.9,1c3,0,5.7-0.3,7.9-1
		c2.3-0.7,4.1-1.6,5.6-2.8c1.5-1.2,2.6-2.6,3.4-4.3c0.7-1.7,1.1-3.5,1.1-5.5v-5.4c0-2-0.4-3.8-1.1-5.5c-0.7-1.7-1.9-3.1-3.4-4.3
		c-1.5-1.2-3.4-2.1-5.6-2.8c-2.3-0.7-4.9-1-7.9-1C236.6,268.9,234,269.2,231.8,269.9 M259.1,256.8c5.7,1.3,10.5,3.2,14.5,5.7
		c3.9,2.5,6.9,5.7,9,9.5c2.1,3.8,3.1,8.2,3.1,13.1c0,5-1,9.4-3.1,13.2c-2.1,3.8-5.1,6.9-9,9.5c-3.9,2.5-8.7,4.4-14.5,5.7
		c-5.7,1.3-12.2,1.9-19.4,1.9c-7.2,0-13.7-0.6-19.4-1.9c-5.7-1.3-10.5-3.2-14.4-5.7c-3.9-2.5-6.9-5.7-9-9.5
		c-2.1-3.8-3.1-8.2-3.1-13.2c0-5,1-9.4,3.1-13.1c2.1-3.8,5-6.9,9-9.5c3.9-2.5,8.7-4.4,14.4-5.7c5.7-1.3,12.2-1.9,19.4-1.9
		C246.9,254.9,253.4,255.5,259.1,256.8"/>
	<polygon class="st2" points="356.9,255.9 356.9,284.7 321.2,255.9 297.4,255.9 297.4,314.4 322.4,314.4 322.4,286 358.2,314.4 
		382,314.4 382,255.9"/>
	<polygon class="st2" points="398.8,255.9 398.8,314.4 473.2,314.4 473.2,300.4 426.1,300.4 426.1,291.4 465.7,291.4 465.7,278 
		426.1,278 426.1,269.9 472.4,269.9 472.4,255.9 "/>
	<polygon class="st2" points="484.8,255.9 484.8,270.9 512.7,270.9 512.7,314.4 540.1,314.4 540.1,270.9 567.9,270.9 567.9,255.9"/>
</g>
</svg>
