<?xml version="1.0" standalone="no"?>
<!DOCTYPE svg PUBLIC "-//W3C//DTD SVG 20010904//EN"
 "http://www.w3.org/TR/2001/REC-SVG-20010904/DTD/svg10.dtd">
<svg version="1.0" xmlns="http://www.w3.org/2000/svg"
 width="240.000000pt" height="210.000000pt" viewBox="0 0 240.000000 210.000000"
 preserveAspectRatio="xMidYMid meet">
<metadata>
Created by potrace 1.10, written by Peter Selinger 2001-2011
</metadata>
<g transform="translate(0.000000,210.000000) scale(0.100000,-0.100000)"
fill="white" stroke="none">
<path d="M2063 1950 c-87 -53 -82 -180 10 -223 43 -21 58 -21 102 -3 68 29 95
118 55 183 -37 61 -108 79 -167 43z m138 -41 c33 -35 37 -74 14 -119 -19 -37
-43 -50 -94 -50 -28 0 -48 7 -68 24 -24 21 -28 32 -28 76 0 44 4 55 28 76 43
37 110 34 148 -7z"/>
<path d="M2078 1903 c-10 -22 -2 -127 10 -130 8 -3 12 6 12 26 0 24 4 31 19
31 21 0 43 -22 39 -40 -2 -7 3 -15 10 -17 15 -6 16 39 1 54 -8 8 -8 13 0 17
17 11 13 53 -5 60 -22 8 -82 7 -86 -1z m78 -25 c8 -12 -21 -38 -43 -38 -7 0
-13 11 -13 25 0 20 5 25 24 25 14 0 28 -5 32 -12z"/>
<path d="M407 1798 c2 -212 6 -308 12 -308 2 0 12 6 20 14 23 19 128 73 192
97 51 19 52 20 14 14 -22 -3 -77 -24 -123 -47 -46 -22 -85 -38 -87 -36 -3 3
-7 28 -9 55 -4 46 -2 53 25 77 16 14 31 26 34 26 3 0 35 14 70 30 35 17 69 30
75 30 5 0 10 4 10 10 0 11 -22 4 -125 -41 -16 -7 -32 -13 -35 -14 -3 0 -14 -6
-25 -12 -20 -11 -20 -9 -17 107 l3 119 377 1 c382 2 463 4 562 16 30 4 67 6
82 5 15 -1 29 3 33 9 4 6 -185 10 -542 10 l-548 0 2 -162z"/>
<path d="M1520 1950 c0 -5 14 -10 30 -10 17 0 30 5 30 10 0 6 -13 10 -30 10
-16 0 -30 -4 -30 -10z"/>
<path d="M1600 1950 c0 -5 17 -10 38 -11 20 0 51 -2 67 -4 17 -3 65 -6 108 -8
43 -3 82 -8 87 -13 4 -5 10 -55 13 -111 5 -82 3 -102 -9 -107 -8 -3 -14 1 -14
10 0 9 -7 14 -17 13 -10 -2 -32 5 -50 14 -34 18 -53 22 -53 10 0 -5 26 -19 57
-33 32 -13 72 -37 90 -53 l33 -29 0 166 0 166 -175 0 c-110 0 -175 -4 -175
-10z"/>
<path d="M1035 1842 c-33 -2 -64 -8 -70 -14 -7 -7 2 -9 30 -4 22 3 114 6 204
6 90 0 161 3 158 6 -7 7 -222 11 -322 6z"/>
<path d="M759 1807 c-54 -14 -28 -14 76 -1 99 12 99 12 28 11 -40 -1 -87 -6
-104 -10z"/>
<path d="M1670 1771 c19 -4 45 -13 57 -19 25 -14 33 -15 33 -4 0 13 -54 32
-89 31 l-36 -1 35 -7z"/>
<path d="M325 1620 c4 -74 8 -155 10 -180 5 -52 11 -140 24 -360 17 -265 24
-340 32 -346 7 -4 15 369 10 428 -3 27 104 92 224 136 17 6 77 22 135 37 400
98 883 47 1155 -122 l40 -25 -3 -224 c-3 -199 -1 -224 13 -224 8 0 17 6 20 13
2 6 9 122 15 257 14 317 21 460 29 593 5 92 4 107 -9 107 -12 0 -16 -21 -18
-118 -2 -64 -7 -120 -11 -125 -4 -4 -5 -26 -2 -48 9 -61 1 -210 -10 -204 -5 4
-9 1 -9 -5 0 -6 -4 -8 -10 -5 -5 3 -10 37 -10 75 0 66 -1 70 -25 76 -14 3 -25
9 -25 13 0 9 -103 61 -119 61 -6 0 -11 -5 -11 -10 0 -6 -10 -15 -22 -20 l-23
-9 23 0 c12 -1 22 4 22 9 0 6 7 10 15 10 8 0 14 -3 14 -7 -4 -26 3 -35 22 -30
20 5 67 -29 62 -45 -5 -15 18 -8 23 7 11 28 24 4 23 -43 -1 -26 -3 -39 -6 -30
-3 14 -9 15 -30 7 -18 -7 -30 -6 -37 1 -7 7 -1 10 19 11 29 0 29 1 7 10 -13 5
-36 6 -50 3 -20 -4 -23 -3 -12 5 11 7 7 10 -16 9 -17 -1 -51 6 -75 14 -100 34
-118 39 -204 49 -49 6 -124 15 -165 21 -115 16 -550 13 -550 -4 0 -4 8 -8 17
-8 9 0 14 -2 11 -5 -2 -3 -38 -7 -78 -10 -41 -3 -77 -10 -81 -16 -5 -8 -12 -8
-28 0 -17 10 -20 9 -14 -5 5 -13 2 -15 -15 -10 -18 6 -21 4 -15 -10 5 -14 2
-16 -16 -11 -27 7 -53 -1 -45 -14 6 -11 -47 -8 -62 3 -7 5 -14 3 -17 -6 -3 -8
1 -17 9 -20 8 -3 12 -1 9 4 -4 6 1 7 11 3 16 -6 6 -17 -11 -13 -3 0 -13 -7
-23 -17 -16 -16 -17 -15 -20 13 -3 25 -16 43 -32 44 -3 0 -4 -17 -3 -37 3 -47
-5 -86 -16 -79 -12 8 -24 96 -26 191 -1 44 -6 125 -10 180 -4 55 -8 108 -8
118 -1 9 -5 17 -10 17 -4 0 -6 3 -4 8 3 4 1 16 -4 27 -6 12 -7 -33 -4 -115z"/>
<path d="M1070 1693 c-105 -7 -258 -25 -290 -35 -104 -32 -120 -48 -24 -25
111 27 403 61 445 52 22 -5 29 -4 25 4 -7 10 -50 12 -156 4z"/>
<path d="M1713 1609 c21 -5 58 -20 83 -34 48 -27 64 -31 64 -15 0 6 -6 10 -14
10 -7 0 -34 11 -60 25 -26 14 -61 25 -79 24 l-32 -1 38 -9z"/>
<path d="M1932 1575 c3 -45 -7 -56 -29 -34 -6 6 -17 9 -23 7 -7 -2 6 -16 29
-31 l41 -27 0 65 c0 41 -4 65 -11 65 -7 0 -10 -17 -7 -45z"/>
<path d="M1005 1520 c69 -11 355 -10 355 1 0 5 -87 8 -202 8 -138 -1 -187 -4
-153 -9z"/>
<path d="M815 1500 c-3 -5 -21 -10 -38 -11 -18 0 -41 -4 -52 -9 -18 -8 -18 -9
5 -9 14 0 45 4 70 10 25 6 65 12 89 14 66 6 62 15 -7 15 -33 0 -64 -4 -67 -10z"/>
<path d="M900 1481 c0 -5 21 -6 48 -4 70 7 74 11 10 12 -32 1 -58 -3 -58 -8z"/>
<path d="M1570 1476 c0 -13 8 -15 43 -10 31 4 38 3 27 -5 -12 -9 -10 -11 10
-11 48 0 54 17 8 24 -24 4 -53 9 -65 13 -17 4 -23 1 -23 -11z"/>
<path d="M666 1458 c3 -5 -11 -8 -30 -8 -20 0 -36 -4 -36 -10 0 -5 -9 -10 -19
-10 -31 0 -34 -17 -5 -24 15 -4 29 -5 32 -1 3 3 -1 5 -9 5 -26 1 25 24 56 26
51 2 139 16 152 23 7 3 -23 6 -67 6 -43 0 -76 -3 -74 -7z"/>
<path d="M1718 1434 c33 -14 52 -12 52 7 0 5 -19 9 -42 8 l-43 -1 33 -14z"/>
<path d="M485 1389 c-16 -10 -34 -20 -40 -22 -5 -2 -2 -11 8 -21 16 -17 17
-16 18 6 1 14 3 17 6 7 3 -11 12 -15 28 -11 27 5 34 22 9 22 -8 0 -12 5 -9 11
4 6 19 7 36 4 30 -7 41 8 13 19 -24 9 -36 6 -69 -15z"/>
<path d="M410 1342 c0 -10 22 -32 32 -32 15 0 8 28 -8 34 -21 8 -24 8 -24 -2z"/>
<path d="M1100 1145 l-22 -23 22 -22 c20 -20 21 -20 44 -2 l23 18 -22 26 -23
27 -22 -24z"/>
<path d="M551 980 l-2 -130 30 0 30 0 3 78 3 77 37 -78 c34 -72 40 -78 64 -75
l28 3 2 128 2 127 -35 0 c-28 0 -33 -3 -29 -17 8 -27 11 -101 5 -108 -3 -3
-21 24 -39 60 -30 60 -36 65 -66 65 l-32 0 -1 -130z"/>
<path d="M998 1103 c-22 -3 -28 -10 -28 -29 0 -13 -4 -24 -10 -24 -5 0 -10 -9
-10 -20 0 -11 5 -20 10 -20 6 0 10 -28 10 -64 0 -74 14 -96 61 -96 24 0 29 4
29 26 0 14 -4 23 -10 19 -6 -4 -10 17 -10 55 0 38 4 59 10 55 6 -4 10 5 10 19
0 16 -6 26 -15 26 -11 0 -13 8 -8 30 3 17 2 29 -3 29 -5 -1 -21 -4 -36 -6z"/>
<path d="M1760 975 l0 -125 33 0 32 0 0 125 0 125 -32 0 -33 0 0 -125z"/>
<path d="M791 1041 c-8 -5 -11 -16 -8 -24 5 -12 13 -14 35 -8 28 9 62 -2 62
-18 0 -5 -18 -11 -39 -15 -49 -7 -71 -28 -71 -66 0 -37 32 -60 85 -60 79 0 80
2 77 88 -4 95 -17 112 -81 112 -25 0 -52 -4 -60 -9z m85 -121 c-1 -17 -5 -30
-9 -30 -4 0 -14 0 -22 0 -9 0 -15 9 -15 23 0 28 7 37 30 37 13 0 17 -8 16 -30z"/>
<path d="M1090 950 l0 -100 30 0 30 0 0 100 0 100 -30 0 -30 0 0 -100z"/>
<path d="M1214 1042 c-21 -14 -34 -51 -34 -97 0 -77 56 -115 125 -83 50 23 59
140 12 173 -22 16 -84 20 -103 7z m64 -89 c-2 -44 -7 -58 -18 -58 -11 0 -16
14 -18 58 -3 52 -1 57 18 57 19 0 21 -5 18 -57z"/>
<path d="M1383 1043 c-9 -3 -13 -33 -13 -99 l0 -94 35 0 35 0 0 80 c0 73 2 80
20 80 18 0 20 -7 20 -80 l0 -80 33 0 32 0 -4 87 c-2 66 -7 90 -20 100 -16 12
-113 17 -138 6z"/>
<path d="M1578 1044 c-3 -3 -4 -13 -1 -23 4 -15 12 -18 49 -13 36 4 44 2 44
-12 0 -9 -8 -16 -20 -16 -32 0 -77 -27 -83 -50 -13 -50 19 -80 86 -80 73 0 77
5 77 86 0 95 -15 114 -93 114 -30 0 -56 -3 -59 -6z m92 -122 c0 -36 -8 -44
-31 -31 -22 11 -24 30 -7 47 21 21 38 14 38 -16z"/>
<path d="M880 705 c0 -78 3 -95 15 -95 11 0 15 12 15 45 0 42 2 45 23 43 12
-2 23 2 25 7 1 6 -9 11 -23 13 -19 3 -25 9 -25 28 0 20 5 24 30 24 20 0 30 5
30 15 0 11 -12 15 -45 15 l-45 0 0 -95z"/>
<path d="M1005 775 c-35 -34 -35 -112 -2 -143 53 -50 117 -10 117 72 0 36 -5
52 -25 71 -13 14 -33 25 -45 25 -11 0 -32 -11 -45 -25z m80 -61 c3 -48 -9 -74
-36 -74 -24 0 -38 33 -32 80 10 75 61 70 68 -6z"/>
<path d="M1180 793 c-28 -11 -39 -38 -40 -90 0 -62 23 -93 68 -93 45 0 67 32
67 97 0 45 -4 58 -24 74 -23 19 -43 22 -71 12z m54 -39 c3 -9 6 -31 6 -49 0
-46 -9 -65 -31 -65 -34 0 -49 53 -29 104 11 29 44 35 54 10z"/>
<path d="M1310 791 c-12 -7 -14 -27 -12 -96 l4 -86 41 2 c61 4 87 30 87 91 0
39 -5 54 -25 73 -25 26 -67 32 -95 16z m78 -39 c15 -20 16 -84 0 -100 -7 -7
-22 -12 -34 -12 -21 0 -22 4 -19 68 1 37 3 68 4 69 3 6 38 -12 49 -25z"/>
<path d="M1474 792 c-17 -12 -32 -44 -27 -61 2 -9 17 -24 34 -33 18 -11 29
-25 29 -38 0 -18 -5 -21 -32 -18 -39 4 -48 -25 -9 -30 38 -6 67 6 79 33 15 32
0 59 -41 76 -36 15 -32 44 5 44 34 1 47 13 28 25 -18 12 -51 13 -66 2z"/>
<path d="M335 713 c-81 -17 -115 -29 -115 -43 0 -14 20 -13 69 5 27 9 39 10
35 3 -5 -8 -1 -9 12 -3 10 4 45 7 77 6 44 -1 59 3 64 15 13 35 -28 40 -142 17z"/>
<path d="M1913 723 c-7 -2 -13 -13 -13 -22 0 -15 9 -18 48 -18 78 0 117 -35
93 -82 -6 -11 -11 -33 -11 -50 0 -17 -5 -31 -10 -31 -6 0 -8 -10 -5 -22 3 -13
7 -36 9 -52 5 -30 16 -48 16 -26 0 10 3 10 15 0 8 -6 19 -9 24 -5 6 3 8 0 5
-9 -4 -11 -12 -12 -37 -5 -41 12 -45 11 -44 -3 5 -43 -16 -109 -40 -128 -25
-19 -73 -19 -81 2 -2 4 -13 1 -25 -7 -12 -8 -32 -15 -45 -15 -13 0 -20 -4 -17
-10 4 -6 39 -10 82 -9 69 2 77 4 109 34 30 28 41 57 35 89 -1 5 0 15 3 22 4
10 22 6 78 -17 40 -17 77 -35 83 -40 5 -5 15 -9 22 -9 26 0 11 16 -38 40 -54
26 -71 47 -49 60 14 9 8 13 -41 29 -41 13 -41 14 -19 145 11 68 0 91 -52 110
-40 15 -40 15 -8 10 19 -4 40 -10 46 -15 10 -8 89 0 80 8 -2 2 -35 11 -72 19
-69 14 -118 17 -141 7z"/>
<path d="M2161 659 c18 -16 20 -22 10 -28 -11 -7 -11 -10 0 -14 9 -4 11 -8 4
-14 -13 -10 -38 -150 -30 -164 4 -5 12 -9 18 -9 16 0 19 53 4 62 -8 5 -6 8 6
8 10 0 15 4 12 10 -3 5 3 31 14 56 12 25 18 50 15 55 -3 5 2 9 10 9 9 0 16 7
16 15 0 10 -10 15 -29 15 -17 0 -33 5 -36 10 -3 6 -13 10 -22 10 -12 0 -10 -5
8 -21z"/>
<path d="M300 659 c0 -6 -8 -8 -17 -5 -31 9 -45 -8 -20 -23 20 -13 21 -13 8 2
-9 11 -10 17 -2 17 12 0 12 -1 15 -40 8 -83 20 -150 27 -150 5 0 9 -16 9 -35
0 -24 -5 -35 -14 -35 -8 0 -16 5 -18 12 -3 7 -11 9 -24 4 -19 -8 -19 -8 0 -15
14 -5 16 -10 8 -15 -7 -4 -16 -5 -21 -2 -5 3 -14 -1 -21 -9 -7 -8 -20 -15 -29
-15 -13 0 -14 -2 -2 -9 12 -8 9 -11 -12 -16 -15 -4 -27 -11 -27 -16 0 -5 -7
-9 -15 -9 -18 0 -19 -12 -4 -27 8 -8 16 -7 29 5 10 10 50 37 89 61 l71 45 0
48 c0 27 -7 82 -15 123 -12 55 -13 80 -5 95 7 14 7 20 0 20 -5 0 -10 -5 -10
-11z"/>
<path d="M473 633 c-1 -19 -7 -41 -14 -49 -9 -11 -8 -14 4 -14 18 0 27 21 27
60 0 42 -15 44 -17 3z"/>
<path d="M1891 626 c-1 -32 2 -45 14 -50 13 -5 16 2 14 44 -3 62 -24 67 -28 6z"/>
<path d="M336 641 c-15 -17 -15 -19 1 -39 10 -11 30 -23 44 -26 23 -5 26 -3
26 25 0 21 -4 28 -14 25 -11 -4 -11 -1 -3 14 9 17 8 20 -13 20 -13 0 -31 -8
-41 -19z"/>
<path d="M1976 645 c4 -8 13 -15 21 -15 22 0 -35 -58 -77 -78 -32 -15 -98 -16
-730 -13 -382 2 -712 4 -733 6 -32 2 -37 0 -32 -16 4 -11 0 -19 -12 -22 -15
-4 -14 -5 4 -6 21 -1 21 -4 16 -96 -4 -82 -3 -95 11 -95 17 0 22 26 7 32 -6 2
-5 25 1 58 5 30 8 66 6 81 -4 23 0 28 25 33 46 9 116 7 138 -4 13 -8 19 -7 19
0 0 7 149 10 480 9 264 -1 480 -5 480 -9 0 -5 -6 -11 -12 -13 -7 -3 3 -3 22 1
19 3 44 6 55 5 11 -1 36 -1 55 -1 19 1 78 1 130 1 52 0 89 2 83 4 -22 8 -14
20 37 54 54 37 68 62 50 84 -17 20 -51 20 -44 0z"/>
<path d="M113 634 c-38 -16 -41 -24 -14 -41 31 -19 61 -5 61 28 0 33 -2 33
-47 13z"/>
<path d="M141 561 c-17 -11 -5 -51 21 -69 15 -11 16 -17 7 -28 -8 -10 -8 -14
0 -14 6 0 11 -7 11 -15 0 -8 -4 -15 -10 -15 -5 0 -10 -6 -10 -14 0 -13 4 -13
28 0 15 7 32 14 38 14 7 0 15 7 18 16 3 8 2 12 -4 9 -6 -3 -13 2 -17 11 -3 10
-15 26 -25 36 -10 10 -18 25 -18 33 0 8 -4 15 -9 15 -5 0 -11 7 -13 15 -2 9
-8 12 -17 6z"/>
<path d="M1870 460 c0 -22 3 -40 8 -40 4 0 7 18 7 40 0 22 -3 40 -7 40 -5 0
-8 -18 -8 -40z"/>
<path d="M666 434 c-23 -23 -20 -41 12 -61 49 -31 51 -57 4 -51 -31 4 -41 -18
-13 -27 32 -10 75 16 79 46 3 21 -3 29 -32 43 -42 20 -39 46 6 46 17 0 27 4
23 10 -10 16 -62 12 -79 -6z"/>
<path d="M770 375 c0 -65 2 -75 18 -75 15 0 17 10 17 75 0 65 -2 75 -17 75
-16 0 -18 -10 -18 -75z"/>
<path d="M830 375 c0 -43 4 -75 10 -75 6 0 10 23 10 50 0 28 3 50 8 49 4 0 21
-21 37 -47 17 -26 38 -48 48 -50 15 -3 17 6 17 72 0 60 -3 76 -14 76 -11 0
-16 -15 -18 -52 l-3 -53 -32 53 c-47 76 -63 70 -63 -23z"/>
<path d="M998 433 c-35 -41 -26 -112 15 -130 28 -11 69 -5 64 10 -2 7 -12 11
-21 9 -27 -5 -46 17 -46 52 0 36 15 56 41 56 10 0 21 5 24 10 11 18 -61 11
-77 -7z"/>
<path d="M1090 375 l0 -75 45 0 c25 0 45 5 45 10 0 6 -12 10 -27 10 -23 0 -28
5 -29 26 -2 21 2 25 24 22 15 -2 27 3 30 11 3 10 -2 13 -21 9 -20 -4 -26 0
-30 19 -4 20 0 23 24 23 16 0 29 5 29 10 0 6 -20 10 -45 10 l-45 0 0 -75z"/>
<path d="M1295 441 c-3 -6 -15 -11 -26 -11 -10 0 -19 -5 -19 -11 0 -7 10 -9
25 -7 24 5 25 4 25 -53 0 -51 3 -59 19 -59 16 0 18 7 15 73 -2 53 -7 73 -18
75 -8 2 -17 -2 -21 -7z"/>
<path d="M1387 432 c-10 -10 -17 -24 -17 -30 0 -19 31 -42 58 -42 l27 -1 -23
-19 c-12 -10 -28 -20 -34 -22 -6 -2 -8 -10 -4 -16 18 -30 96 47 96 96 0 46
-72 69 -103 34z m63 -9 c0 -5 3 -18 6 -30 5 -18 2 -23 -14 -23 -25 0 -44 23
-36 44 6 16 44 23 44 9z"/>
<path d="M1500 440 c0 -5 18 -10 41 -10 22 0 39 -3 37 -7 -2 -5 -10 -21 -18
-38 -8 -16 -17 -32 -20 -35 -3 -3 -11 -15 -18 -27 -11 -21 -10 -23 13 -23 20
0 26 7 35 38 5 20 19 51 30 67 11 17 20 33 20 38 0 4 -27 7 -60 7 -33 0 -60
-4 -60 -10z"/>
<path d="M1642 425 c-39 -86 32 -174 85 -106 19 25 16 95 -5 114 -28 26 -67
22 -80 -8z m66 -43 c4 -50 -13 -79 -34 -61 -14 12 -20 90 -7 103 19 19 38 -1
41 -42z"/>
<path d="M341 358 c-1 -10 -6 -18 -13 -18 -9 0 -9 -3 0 -12 7 -7 12 -19 12
-28 0 -9 13 -28 28 -43 25 -24 36 -27 100 -27 41 0 72 4 72 10 0 6 -18 10 -40
10 -29 0 -40 4 -40 15 0 8 -4 15 -9 15 -5 0 -11 -7 -15 -15 -15 -39 -70 7 -85
70 -5 22 -9 32 -10 23z"/>
<path d="M605 219 c-41 -5 282 -12 600 -13 250 0 597 5 593 9 -8 8 -1131 11
-1193 4z"/>
<path d="M671 178 c10 -7 4 -8 -21 -4 -19 3 -41 2 -48 -3 -20 -12 194 -19 680
-20 427 -2 558 3 558 21 0 6 -32 7 -79 3 -54 -5 -81 -4 -85 4 -9 14 -76 15
-76 1 0 -6 -53 -9 -142 -8 l-143 2 135 6 135 6 -165 1 c-100 1 -157 -2 -145
-7 12 -5 -34 -8 -120 -8 -95 1 -124 3 -90 8 28 4 -53 7 -179 8 -154 0 -225 -3
-215 -10z"/>
</g>
</svg>
