<?xml version="1.0" standalone="no"?>
<!DOCTYPE svg PUBLIC "-//W3C//DTD SVG 20010904//EN"
 "http://www.w3.org/TR/2001/REC-SVG-20010904/DTD/svg10.dtd">
<svg version="1.0" xmlns="http://www.w3.org/2000/svg"
 width="700.000000pt" height="507.000000pt" viewBox="0 0 700.000000 507.000000"
 preserveAspectRatio="xMidYMid meet">

<g transform="translate(0.000000,507.000000) scale(0.100000,-0.100000)"
fill="white" stroke="none">
<path d="M3321 5059 c-179 -22 -392 -90 -546 -174 -197 -107 -401 -286 -524
-460 -71 -102 -167 -292 -205 -408 -74 -225 -92 -518 -48 -744 105 -533 475
-963 987 -1148 180 -65 430 -103 605 -90 407 28 772 199 1050 491 142 149 267
367 335 584 79 255 87 544 19 811 -106 426 -412 798 -814 994 -112 54 -280
108 -405 131 -109 19 -352 26 -454 13z m219 -634 l0 -205 248 -2 247 -3 3
-108 c1 -59 -2 -126 -8 -148 -14 -52 -83 -126 -152 -165 -50 -27 -61 -29 -195
-32 l-143 -4 0 -312 c0 -195 4 -326 11 -351 31 -110 143 -146 344 -110 126 23
115 33 115 -102 0 -65 -5 -135 -10 -155 -25 -90 -129 -172 -253 -199 -87 -20
-276 -17 -357 4 -211 56 -353 201 -395 405 -13 62 -15 170 -13 695 l3 622 31
65 c80 168 290 309 462 310 l62 0 0 -205z"/>
<path d="M2082 903 l3 -618 29 -62 c34 -75 95 -134 174 -171 51 -24 69 -27
167 -27 95 0 116 3 157 23 73 36 93 76 93 187 l0 90 -80 6 c-44 3 -91 11 -105
16 -56 24 -55 7 -60 532 -5 477 -5 487 -27 527 -28 52 -72 90 -121 104 -20 5
-81 10 -135 10 l-98 0 3 -617z"/>
<path d="M6372 908 l3 -613 24 -59 c31 -79 89 -139 170 -179 62 -30 72 -32
176 -32 123 0 168 16 218 75 31 37 39 73 35 160 l-3 65 -88 5 c-82 5 -89 7
-120 38 l-32 32 -5 483 c-5 516 -5 514 -58 571 -48 51 -95 66 -215 66 l-108 0
3 -612z"/>
<path d="M259 1396 c-106 -28 -202 -114 -239 -212 -19 -52 -20 -77 -20 -433 0
-208 4 -403 10 -432 16 -87 67 -177 125 -221 77 -58 131 -73 265 -73 108 0
119 2 175 30 87 44 99 66 103 187 l4 101 -29 -7 c-67 -15 -171 -18 -207 -6
-62 20 -66 39 -66 290 l0 220 88 0 c104 0 156 20 198 76 26 34 29 46 32 131
l4 93 -161 0 -161 0 0 135 0 135 -37 -1 c-21 0 -59 -6 -84 -13z"/>
<path d="M1215 1152 c-179 -54 -310 -183 -376 -369 -15 -41 -22 -92 -26 -178
-8 -195 31 -315 139 -431 133 -141 354 -202 589 -160 191 34 279 122 279 279
0 52 -2 59 -17 54 -127 -42 -168 -49 -285 -54 -142 -6 -202 4 -260 43 -33 23
-68 76 -68 103 0 7 46 11 143 11 241 0 411 31 478 87 133 112 89 404 -79 528
-26 19 -83 49 -127 67 -72 28 -92 32 -205 35 -99 2 -138 -1 -185 -15z m264
-286 c37 -19 65 -74 56 -109 -11 -44 -39 -52 -202 -55 -150 -4 -153 -3 -153
17 0 28 26 90 48 115 9 10 35 27 57 38 48 23 143 20 194 -6z"/>
<path d="M3218 1154 c-94 -22 -177 -70 -248 -143 -117 -119 -172 -257 -173
-436 0 -126 15 -192 70 -297 96 -184 314 -290 563 -274 112 7 179 23 250 62
67 36 106 85 120 146 9 46 14 138 7 138 -2 0 -28 -8 -58 -19 -94 -32 -189 -44
-315 -39 -103 3 -125 7 -164 28 -46 26 -90 80 -90 111 0 17 10 19 119 19 324
0 506 50 555 154 24 50 31 152 16 217 -17 71 -62 160 -105 208 -102 112 -358
171 -547 125z m213 -276 c51 -17 77 -39 90 -77 10 -28 9 -37 -8 -59 -11 -15
-31 -30 -44 -33 -36 -10 -309 -10 -309 0 0 23 33 98 53 120 49 53 144 75 218
49z"/>
<path d="M4505 1155 c-38 -7 -89 -20 -112 -29 -280 -101 -428 -440 -326 -746
30 -91 52 -129 117 -198 167 -178 474 -225 664 -103 80 52 106 104 110 223 l4
87 -74 -26 c-141 -50 -312 -40 -387 23 -16 14 -42 50 -57 80 -36 75 -38 178
-5 247 28 58 87 110 143 127 87 26 246 11 329 -31 20 -10 39 -15 43 -12 3 4 6
42 6 85 0 119 -33 179 -127 235 -88 52 -192 64 -328 38z"/>
<path d="M5520 1154 c-204 -54 -354 -211 -404 -424 -18 -76 -21 -227 -5 -302
64 -305 364 -477 719 -414 189 34 280 126 280 284 l0 49 -82 -25 c-74 -23
-101 -26 -248 -26 -162 -1 -166 -1 -211 26 -49 29 -74 59 -85 102 l-6 26 113
1 c139 0 306 13 375 29 77 17 154 67 182 117 48 87 37 245 -25 353 -35 61
-114 134 -176 163 -115 54 -308 73 -427 41z m237 -283 c50 -23 63 -45 63 -104
0 -44 0 -45 -44 -56 -25 -6 -104 -11 -175 -11 l-131 0 0 25 c0 31 31 93 58
118 52 47 158 60 229 28z"/>
</g>
</svg>
