<?xml version="1.0" standalone="no"?>
<svg version="1.0" xmlns="http://www.w3.org/2000/svg" width="1169.000000pt" height="826.000000pt"
    viewBox="0 0 1169.000000 826.000000" preserveAspectRatio="xMidYMid meet">

    <g transform="translate(0.000000,826.000000) scale(0.100000,-0.100000)" fill="white" stroke="none">
        <path d="M1295 6094 c-23 -8 -57 -28 -77 -44 -45 -37 -95 -137 -101 -202 l-5
-48 354 0 354 0 2 -842 3 -843 24 -53 c46 -101 152 -164 302 -178 l64 -6 -3
961 -3 961 229 0 c256 0 301 8 374 63 51 39 95 120 104 195 l7 52 -794 -1
c-663 0 -801 -3 -834 -15z" />
        <path d="M4121 6024 c4 -49 8 -485 8 -969 1 -955 1 -946 56 -1041 33 -56 90
-110 145 -135 46 -22 127 -37 168 -31 l22 3 -2 1012 -3 1012 -24 52 c-47 106
-155 170 -301 180 l-75 6 6 -89z" />
        <path d="M5878 5860 c-140 -17 -362 -100 -391 -147 -5 -7 -12 -11 -16 -9 -4 3
-8 -1 -8 -9 0 -9 23 -2 71 25 137 75 286 110 461 111 249 1 479 -88 618 -237
42 -45 119 -173 111 -185 -2 -4 2 -24 10 -45 7 -22 11 -45 8 -53 -2 -8 -1 -11
4 -8 5 3 9 -5 10 -16 4 -94 9 -125 21 -145 14 -22 16 -23 38 -8 21 14 24 14
19 1 -4 -8 -1 -15 6 -15 9 0 8 -6 -4 -19 -12 -13 -14 -24 -8 -41 7 -18 11 -20
17 -10 5 9 4 15 -3 18 -16 5 -15 19 1 25 10 4 13 -8 12 -47 -1 -28 9 -83 21
-122 28 -88 42 -212 32 -283 -10 -62 -68 -193 -125 -277 -45 -66 -136 -162
-200 -213 l-43 -33 0 46 0 45 -29 -17 c-16 -9 -27 -21 -24 -26 3 -5 1 -6 -6
-2 -9 6 -9 11 0 22 6 8 16 14 21 14 5 0 18 9 29 19 19 17 21 29 18 110 -3 60
-9 94 -18 103 -11 11 -13 7 -8 -27 3 -22 3 -34 0 -27 -7 18 -23 4 -24 -21 0
-21 -1 -21 -8 -3 -7 19 -8 19 -13 -2 -4 -12 -15 -25 -26 -29 -11 -5 -32 -23
-47 -41 -15 -18 -45 -42 -66 -53 -22 -11 -39 -26 -39 -34 0 -8 -9 -15 -20 -15
-11 0 -20 -5 -20 -11 0 -6 -7 -8 -16 -5 -12 4 -15 2 -10 -9 4 -10 -3 -17 -22
-21 -15 -4 -32 -13 -38 -20 -7 -8 -50 -18 -110 -25 -82 -9 -119 -8 -214 5
-150 22 -157 23 -169 31 -6 3 -23 -2 -39 -13 -15 -10 -45 -29 -66 -42 l-39
-24 7 45 c4 24 9 54 13 67 3 13 1 22 -7 22 -21 0 -151 92 -216 153 l-62 58
-10 -28 c-9 -25 -10 -26 -11 -5 -1 12 -6 22 -12 22 -5 0 -7 5 -3 11 4 8 9 7
16 -2 7 -11 8 -9 4 4 -3 10 -6 20 -6 23 0 2 -7 1 -16 -3 -10 -4 -14 -1 -12 8
1 8 -20 59 -49 114 -71 140 -87 198 -80 304 3 48 2 142 -2 211 -7 115 -6 131
14 192 30 91 85 185 162 280 35 44 59 77 53 73 -33 -21 -147 -181 -190 -269
-75 -152 -93 -229 -96 -421 -1 -88 -5 -172 -9 -186 -13 -53 67 -252 149 -368
46 -66 137 -161 148 -155 4 3 7 2 6 -3 -6 -19 177 -153 208 -153 7 0 14 -3 16
-7 4 -10 95 -49 158 -69 238 -76 552 -42 769 82 63 36 182 126 236 178 25 23
48 40 53 37 4 -3 4 -2 -1 3 -4 6 12 30 35 54 24 25 37 41 29 37 -10 -6 -12 -4
-6 6 19 33 28 40 35 29 5 -8 9 -6 13 5 4 9 3 13 -3 10 -16 -10 -11 11 9 36 10
13 22 35 26 49 17 53 55 91 55 55 0 -10 10 -15 30 -15 22 0 28 -4 24 -15 -4
-8 -12 -15 -20 -15 -25 0 -56 -39 -49 -61 6 -18 4 -20 -17 -15 -12 3 -17 3
-10 0 22 -10 14 -72 -15 -104 -14 -17 -32 -30 -40 -30 -7 0 -13 -5 -13 -11 0
-6 -7 -9 -15 -6 -8 4 -17 1 -21 -5 -4 -7 -9 -6 -15 3 -6 9 -9 10 -9 2 0 -31
77 -64 115 -49 18 7 19 2 4 -27 l-11 -22 20 20 c39 37 52 46 52 35 0 -6 -6
-13 -14 -16 -8 -3 -17 -13 -20 -21 -6 -14 -4 -14 10 -2 25 21 69 92 65 108 -1
7 2 10 7 7 11 -6 54 68 45 78 -3 3 -1 6 5 6 7 0 11 3 10 8 -1 4 5 21 15 39 40
75 73 188 57 198 -5 3 -10 16 -11 28 l0 22 -9 -22 c-5 -13 -17 -23 -25 -23 -9
0 -13 -5 -10 -11 4 -6 13 -8 21 -5 8 3 14 0 14 -7 0 -7 -10 -13 -22 -14 -13
-1 -43 -4 -68 -6 -25 -2 -55 -9 -67 -15 -27 -15 -36 -2 -24 30 39 103 54 330
31 473 -12 78 -55 207 -95 285 -53 106 -159 245 -177 233 -6 -3 -8 -1 -4 5 3
6 -15 29 -41 51 -27 22 -50 36 -51 30 -3 -6 -10 -5 -20 3 -14 12 -14 10 -2
-12 8 -15 15 -20 18 -12 6 19 20 14 27 -9 4 -12 10 -17 14 -11 4 6 10 5 18 -3
10 -11 8 -13 -15 -11 -15 1 -26 8 -24 15 1 6 -3 11 -11 9 -15 -3 -69 36 -62
46 3 3 3 4 0 2 -3 -2 -52 20 -109 49 -113 57 -217 89 -346 105 -93 11 -123 11
-222 0z m942 -704 c0 -8 -7 -16 -15 -20 -13 -4 -14 -2 -5 14 13 23 20 26 20 6z
m-1770 -467 c0 -5 -4 -9 -10 -9 -5 0 -10 7 -10 16 0 8 5 12 10 9 6 -3 10 -10
10 -16z m2001 -292 c-10 -9 -11 -8 -5 6 3 10 9 15 12 12 3 -3 0 -11 -7 -18z
m-50 -78 c-2 -8 -4 -22 -5 -31 0 -9 -4 -14 -9 -11 -4 2 -5 14 -1 25 5 17 3 20
-10 15 -15 -6 -22 4 -10 15 11 11 39 0 35 -13z m-1316 -217 c-3 -3 -11 0 -18
7 -9 10 -8 11 6 5 10 -3 15 -9 12 -12z m172 -38 c-3 -3 -12 -4 -19 -1 -8 3 -5
6 6 6 11 1 17 -2 13 -5z" />
        <path d="M3155 5380 c-310 -28 -550 -253 -617 -579 -16 -77 -19 -120 -15 -216
6 -139 23 -209 76 -320 125 -260 362 -415 637 -415 204 0 398 76 526 207 l48
49 -30 35 c-34 42 -85 69 -129 69 -17 0 -79 -16 -138 -35 -294 -96 -438 -65
-543 118 -26 45 -69 192 -59 202 2 2 38 -3 79 -10 256 -45 503 -15 663 78 64
38 136 113 163 171 67 145 24 346 -102 472 -120 120 -354 193 -559 174z m242
-291 c60 -29 95 -77 101 -140 19 -199 -203 -285 -540 -208 -45 10 -48 13 -42
37 50 230 184 351 373 337 36 -2 83 -14 108 -26z" />
        <path d="M8020 5379 c-123 -9 -195 -26 -280 -66 -171 -82 -284 -258 -311 -486
-6 -53 -9 -223 -7 -402 3 -299 4 -312 26 -360 13 -27 33 -60 45 -74 53 -57
149 -97 257 -107 l65 -6 -4 448 c-2 295 1 469 8 507 24 131 98 237 187 268 21
8 73 13 114 13 122 -2 196 -44 247 -141 54 -103 58 -138 55 -468 -2 -310 4
-389 38 -454 25 -49 72 -96 121 -121 46 -24 155 -50 212 -50 l37 0 -5 173 c-3
94 -7 305 -10 469 -6 342 -16 413 -74 535 -116 242 -357 350 -721 322z" />
        <path d="M9692 5379 c-139 -16 -273 -77 -379 -173 -235 -212 -307 -627 -163
-935 82 -174 220 -306 392 -375 205 -81 453 -56 654 65 66 40 164 125 164 143
0 18 -71 83 -103 95 -45 17 -76 13 -183 -22 -284 -96 -429 -70 -535 95 -34 53
-69 154 -69 200 0 23 4 28 18 24 36 -11 141 -25 227 -31 96 -7 231 6 329 31
140 36 272 129 324 228 25 47 27 60 27 167 0 113 -1 116 -38 191 -101 206
-377 329 -665 297z m245 -284 c112 -47 149 -154 92 -267 -51 -100 -243 -140
-475 -98 -88 16 -89 18 -74 81 26 112 91 213 167 260 78 48 206 59 290 24z" />
        <path d="M5007 4800 c-3 -11 -1 -23 4 -26 5 -3 9 6 9 20 0 31 -6 34 -13 6z" />
        <path d="M5016 4743 c-6 -14 -5 -15 5 -6 7 7 10 15 7 18 -3 3 -9 -2 -12 -12z" />
        <path d="M7162 4685 c-14 -31 -16 -53 -3 -39 9 9 24 64 18 64 -2 0 -9 -11 -15
-25z" />
        <path d="M6937 4528 c-3 -13 -8 -34 -12 -48 -6 -23 -6 -24 7 -5 12 20 23 75
15 75 -3 0 -7 -10 -10 -22z" />
        <path d="M9000 3260 l0 -320 30 0 30 0 0 143 c0 161 10 195 69 234 68 46 143
17 161 -62 5 -22 10 -102 10 -177 l0 -138 25 0 25 0 0 168 c0 190 -13 237 -69
266 -62 32 -159 12 -201 -42 l-20 -25 0 137 0 136 -30 0 -30 0 0 -320z" />
        <path d="M1815 3558 c-3 -7 -4 -150 -3 -318 l3 -305 94 -3 c123 -4 186 14 234
67 22 24 37 54 42 79 14 84 -36 172 -106 187 l-31 7 30 19 c67 40 89 119 53
192 -32 65 -70 81 -203 85 -84 3 -109 1 -113 -10z m211 -53 c47 -19 71 -73 55
-125 -18 -60 -42 -74 -132 -79 l-79 -3 0 111 0 111 60 0 c33 0 76 -7 96 -15z
m18 -279 c51 -21 76 -60 76 -118 0 -41 -5 -54 -28 -78 -34 -34 -87 -50 -164
-50 l-58 0 0 130 0 130 70 0 c39 0 85 -6 104 -14z" />
        <path d="M2623 3563 c-7 -2 -13 -20 -13 -39 0 -35 1 -35 38 -32 33 3 37 6 40
32 5 38 -25 56 -65 39z" />
        <path d="M3833 3563 c-7 -2 -13 -20 -13 -39 0 -32 2 -34 35 -34 33 0 35 2 35
34 0 39 -21 54 -57 39z" />
        <path d="M5197 3564 c-3 -3 39 -93 94 -198 l99 -193 0 -116 0 -117 30 0 30 0
0 115 0 115 97 194 c54 107 94 198 91 202 -4 3 -19 3 -33 0 -22 -6 -38 -32
-102 -166 -42 -88 -79 -160 -83 -160 -4 0 -40 70 -80 156 -41 85 -82 160 -91
165 -20 10 -43 12 -52 3z" />
        <path d="M6840 3535 c0 -25 1 -25 85 -25 l85 0 0 -285 0 -285 30 0 30 0 0 285
0 284 83 3 c76 3 82 5 85 26 l3 22 -200 0 -201 0 0 -25z" />
        <path d="M8748 3493 c-22 -22 -28 -39 -28 -71 0 -41 -1 -42 -35 -42 -31 0 -35
-3 -35 -25 0 -22 4 -25 35 -25 l35 0 0 -147 c0 -174 9 -217 50 -238 32 -16
125 -21 134 -6 15 23 -7 41 -49 41 -72 0 -75 8 -75 191 l0 159 60 0 c57 0 60
1 60 25 0 24 -3 25 -60 25 l-59 0 -3 71 -3 70 -27 -28z" />
        <path d="M2978 3370 c-20 -11 -44 -30 -52 -42 l-16 -22 0 21 c0 37 -11 53 -36
53 l-24 0 0 -220 0 -220 30 0 30 0 0 138 c0 125 2 143 23 182 35 66 114 99
169 69 38 -20 48 -68 48 -234 l0 -155 31 0 32 0 -5 173 c-5 181 -11 210 -57
251 -32 29 -125 32 -173 6z" />
        <path d="M3411 3368 c-87 -43 -107 -162 -39 -235 l21 -23 -22 -24 c-33 -35
-39 -91 -12 -120 19 -20 20 -24 7 -29 -24 -10 -56 -68 -56 -104 0 -44 41 -90
93 -104 24 -6 73 -9 113 -6 127 9 204 65 204 147 0 78 -54 110 -187 110 -95 0
-137 14 -140 45 -5 42 22 60 95 60 82 0 137 25 164 75 20 38 23 94 8 134 -9
25 -8 26 30 26 38 0 40 2 40 30 0 34 -16 38 -81 20 -28 -8 -43 -7 -65 5 -42
22 -121 19 -173 -7z m174 -60 c34 -40 35 -106 2 -143 -29 -35 -99 -45 -145
-21 -35 18 -59 77 -48 119 20 83 136 110 191 45z m40 -392 c27 -12 35 -21 35
-41 0 -68 -51 -99 -166 -100 -67 0 -86 3 -103 19 -30 27 -28 80 4 111 22 23
32 25 110 25 52 0 99 -6 120 -14z" />
        <path d="M4200 3379 c-14 -6 -40 -24 -57 -42 l-33 -31 0 37 c0 33 -3 37 -25
37 l-25 0 0 -220 0 -220 24 0 c23 0 23 1 28 139 6 157 20 200 77 238 44 30 92
30 127 0 34 -29 43 -80 43 -249 l1 -128 25 0 25 0 0 168 c0 190 -13 237 -69
266 -33 18 -103 20 -141 5z" />
        <path d="M4620 3371 c-44 -23 -69 -57 -76 -103 -9 -53 3 -102 32 -133 l25 -27
-25 -27 c-30 -31 -36 -100 -11 -121 13 -11 11 -17 -15 -47 -40 -45 -42 -112
-6 -148 66 -66 257 -57 341 16 43 38 54 87 31 136 -23 48 -65 63 -175 63 -113
0 -141 10 -141 49 0 43 23 56 99 56 74 0 119 20 155 68 22 30 28 101 13 144
-7 20 -4 22 30 25 33 3 38 7 41 31 3 23 0 27 -20 27 -13 0 -39 -5 -59 -10 -28
-8 -45 -7 -72 5 -50 21 -125 19 -167 -4z m165 -54 c54 -46 40 -150 -25 -177
-45 -19 -110 -7 -137 25 -33 38 -31 103 3 144 23 28 32 31 79 31 41 0 60 -5
80 -23z m64 -411 c62 -56 -29 -136 -155 -136 -113 0 -160 66 -94 132 30 30 31
30 129 26 80 -2 103 -7 120 -22z" />
        <path d="M5765 3374 c-68 -35 -104 -95 -112 -185 -11 -115 42 -223 123 -249
59 -20 146 -9 189 24 121 93 104 347 -28 407 -51 23 -131 24 -172 3z m170 -67
c40 -40 59 -103 52 -174 -11 -102 -56 -153 -137 -153 -95 0 -134 51 -135 175
0 132 39 184 139 185 41 0 53 -5 81 -33z" />
        <path d="M7353 3371 c-80 -37 -125 -152 -104 -266 21 -112 74 -166 171 -173
77 -6 122 11 164 60 98 114 59 339 -67 387 -43 17 -117 13 -164 -8z m157 -46
c48 -25 65 -68 65 -165 0 -130 -38 -180 -138 -180 -86 0 -131 62 -131 180 0
83 16 124 60 159 32 25 101 28 144 6z" />
        <path d="M7822 3370 c-87 -39 -108 -164 -40 -237 l21 -22 -27 -31 c-30 -36
-34 -84 -9 -112 15 -17 15 -20 -4 -41 -61 -67 -57 -142 10 -183 49 -29 205
-26 269 5 107 52 120 176 22 217 -20 9 -69 14 -126 14 -69 0 -100 4 -116 16
-28 19 -28 48 -1 75 16 16 28 19 58 14 96 -16 189 44 198 128 3 25 1 59 -5 76
l-11 31 40 0 c37 0 39 2 39 30 0 34 -16 38 -81 20 -28 -8 -45 -7 -72 5 -49 20
-113 19 -165 -5z m173 -62 c34 -40 35 -106 2 -143 -29 -35 -99 -45 -145 -21
-54 28 -68 130 -22 171 45 40 128 37 165 -7z m40 -392 c27 -12 35 -21 35 -41
0 -69 -51 -99 -167 -99 -72 -1 -85 2 -104 21 -31 30 -28 81 6 111 23 19 37 22
111 22 51 0 98 -6 119 -14z" />
        <path d="M8300 3368 c-34 -19 -52 -38 -73 -79 -26 -49 -28 -61 -25 -139 6
-152 59 -212 196 -219 88 -4 157 12 148 35 -3 9 -6 19 -6 24 0 5 -15 4 -32 -1
-53 -15 -140 -11 -178 9 -40 19 -70 71 -70 120 l0 32 154 0 c173 0 171 -1 160
73 -16 105 -72 159 -169 165 -49 3 -68 -1 -105 -20z m165 -50 c15 -12 34 -36
41 -54 27 -64 28 -64 -116 -64 -144 0 -143 -1 -116 65 29 70 133 99 191 53z" />
        <path d="M9584 3371 c-72 -33 -107 -107 -106 -223 1 -89 28 -149 85 -186 32
-22 55 -28 115 -31 41 -2 92 2 112 8 32 9 37 14 33 35 -5 22 -8 23 -36 15 -47
-13 -133 -11 -172 5 -42 18 -66 54 -75 112 l-7 44 159 0 158 0 0 53 c0 66 -28
127 -71 158 -46 32 -138 37 -195 10z m165 -57 c25 -21 51 -74 51 -106 0 -5
-59 -8 -131 -8 l-131 0 6 33 c19 97 133 142 205 81z" />
        <path d="M2310 3160 l0 -220 25 0 25 0 0 103 c0 205 28 272 118 284 36 5 42 9
42 29 0 21 -5 24 -38 24 -38 0 -74 -18 -104 -55 -17 -20 -17 -19 -18 18 0 33
-3 37 -25 37 l-25 0 0 -220z" />
        <path d="M2582 3358 c2 -17 11 -24 31 -26 l27 -3 0 -195 0 -194 30 0 30 0 0
220 0 220 -61 0 c-57 0 -60 -1 -57 -22z" />
        <path d="M3790 3355 c0 -21 5 -25 30 -25 l30 0 0 -195 0 -195 25 0 25 0 0 220
0 220 -55 0 c-52 0 -55 -1 -55 -25z" />
        <path d="M6171 3218 c4 -141 7 -168 25 -202 36 -70 60 -81 182 -81 59 0 115 3
125 7 15 7 17 27 17 223 l0 215 -25 0 -25 0 -2 -197 -3 -198 -75 -3 c-141 -4
-160 24 -160 246 l0 152 -31 0 -31 0 3 -162z" />
        <path d="M9980 3160 l0 -220 30 0 30 0 0 140 c0 190 19 232 113 247 31 5 37 9
37 31 0 23 -2 24 -46 19 -31 -3 -54 -13 -74 -32 l-28 -27 -7 31 c-5 24 -12 31
-31 31 l-24 0 0 -220z" />
    </g>
</svg>