<?xml version="1.0" standalone="no"?>
<!DOCTYPE svg PUBLIC "-//W3C//DTD SVG 20010904//EN"
 "http://www.w3.org/TR/2001/REC-SVG-20010904/DTD/svg10.dtd">
<svg version="1.0" xmlns="http://www.w3.org/2000/svg"
 width="300.000000pt" height="174.000000pt" viewBox="0 0 300.000000 174.000000"
 preserveAspectRatio="xMidYMid meet">
<metadata>
Created by potrace 1.10, written by Peter Selinger 2001-2011
</metadata>
<g transform="translate(0.000000,174.000000) scale(0.100000,-0.100000)"
fill="white" stroke="none">
<path d="M610 1730 c-105 -20 -170 -100 -170 -210 0 -127 87 -214 215 -214
131 -1 230 113 212 245 -16 120 -135 204 -257 179z m95 -35 c75 -45 94 -62
111 -104 42 -102 -24 -227 -132 -247 -79 -15 -187 51 -200 123 -18 98 14 172
94 214 23 12 47 28 53 36 14 17 7 19 74 -22z"/>
<path d="M1305 1731 c-63 -11 -112 -39 -160 -93 -160 -178 -44 -459 195 -475
120 -9 227 54 281 163 33 68 33 179 0 244 -30 57 -76 106 -124 131 -41 21
-127 41 -127 29 0 -4 29 -22 64 -39 72 -37 127 -85 152 -132 24 -47 24 -173 0
-219 -41 -78 -110 -127 -196 -137 -164 -19 -294 109 -277 272 9 93 62 166 147
204 48 22 112 62 95 60 -5 -1 -28 -5 -50 -8z"/>
<path d="M170 1218 c-57 -39 -75 -72 -75 -137 0 -48 5 -64 28 -95 36 -47 75
-66 132 -66 57 0 96 19 132 66 23 31 28 47 28 94 0 96 -65 160 -163 160 -34 0
-59 -7 -82 -22z m150 -35 c38 -22 64 -82 56 -127 -10 -50 -65 -96 -116 -96
-57 0 -87 18 -110 66 -18 36 -19 49 -11 81 13 46 19 54 51 76 31 22 94 22 130
0z"/>
<path d="M740 1028 c-79 -41 -85 -62 -85 -288 0 -178 2 -198 20 -230 30 -51
85 -75 170 -75 80 0 140 27 168 75 17 28 29 169 15 170 -5 0 -42 0 -83 0 l-74
0 -3 -72 c-3 -65 -5 -73 -23 -73 -19 0 -20 7 -20 205 0 198 1 205 20 205 18 0
20 -8 23 -82 l3 -83 86 0 86 0 -6 81 c-11 135 -53 179 -181 186 -60 4 -78 1
-116 -19z m187 -37 c46 -22 57 -38 67 -98 8 -58 0 -73 -39 -73 -36 0 -45 15
-45 81 0 26 -8 44 -26 63 -33 33 -41 33 -76 -1 l-28 -27 0 -195 c0 -186 1
-196 22 -218 12 -13 32 -23 44 -23 29 0 64 44 64 81 0 47 9 59 46 59 34 0 34
-1 34 -45 0 -104 -129 -156 -242 -99 -49 25 -53 44 -53 246 0 174 1 188 21
215 39 52 136 68 211 34z"/>
<path d="M1975 1039 c-38 -15 -80 -54 -95 -89 -8 -19 -10 -92 -8 -223 3 -180
5 -198 24 -224 38 -50 81 -68 165 -68 66 0 81 4 118 28 52 35 71 77 71 159 l0
63 -80 0 -80 0 0 -66 c0 -74 -17 -103 -45 -79 -12 10 -15 45 -15 199 0 102 4
192 9 199 5 8 17 12 27 10 16 -3 19 -14 22 -86 l3 -82 82 0 82 0 -6 88 c-7 97
-18 123 -68 154 -39 25 -158 34 -206 17z m146 -39 c59 -16 84 -51 84 -118 l0
-57 -35 0 -35 0 -5 57 c-4 46 -11 64 -33 85 -26 27 -29 27 -55 13 -46 -27 -52
-51 -52 -238 0 -147 3 -178 17 -203 43 -72 123 -29 123 66 0 36 0 36 38 33 34
-3 37 -6 40 -35 2 -17 -4 -45 -13 -62 -38 -75 -180 -92 -249 -30 l-31 27 0
200 c0 199 0 201 24 226 39 42 111 56 182 36z"/>
<path d="M1155 1008 c-11 -69 -75 -537 -75 -552 0 -13 14 -16 85 -16 l85 0 0
56 0 55 33 -3 c31 -3 32 -4 35 -55 l3 -53 86 0 c83 0 85 1 80 23 -3 12 -24
147 -48 300 l-43 277 -118 0 -117 0 -6 -32z m205 -30 c8 -18 80 -455 80 -482
0 -4 -18 -6 -39 -6 -34 0 -40 3 -46 27 -3 16 -16 38 -27 51 -39 41 -87 25
-112 -38 -14 -36 -19 -40 -51 -40 -32 0 -35 3 -35 28 0 57 61 456 71 469 8 8
35 13 80 13 62 0 70 -2 79 -22z"/>
<path d="M1256 868 c-16 -25 -36 -122 -36 -173 0 -37 32 -75 62 -75 33 0 58
37 58 85 0 93 -30 185 -61 185 -5 0 -15 -10 -23 -22z m48 -160 c5 -48 5 -48
-26 -48 -21 0 -29 4 -25 14 3 7 8 51 12 97 11 147 17 138 39 -63z"/>
<path d="M1537 743 l3 -298 80 -3 80 -3 0 126 0 125 50 0 50 0 0 60 0 60 -50
0 -50 0 0 55 0 55 55 0 55 0 0 60 0 60 -137 0 -138 0 2 -297z m228 237 c0 -8
-14 -17 -35 -21 -46 -10 -70 -41 -70 -94 0 -52 30 -95 66 -95 32 0 29 -33 -2
-38 -12 -2 -31 -13 -42 -25 -18 -19 -22 -37 -24 -117 l-3 -95 -37 -3 -38 -3 0
249 c0 137 3 252 7 256 4 4 46 5 93 4 66 -2 85 -6 85 -18z"/>
<path d="M2336 759 c-21 -154 -41 -289 -43 -300 -5 -18 1 -19 80 -19 94 0 97
2 97 78 0 29 3 32 30 32 27 0 30 -3 30 -32 0 -75 4 -78 94 -78 l82 0 -18 113
c-10 61 -29 186 -43 277 -14 91 -28 175 -30 188 -5 21 -9 22 -123 22 l-117 0
-39 -281z m231 233 c12 -7 83 -420 83 -478 0 -23 -3 -25 -37 -22 -31 3 -38 8
-44 32 -24 90 -121 85 -143 -6 -5 -24 -12 -28 -41 -28 -18 0 -36 4 -39 9 -7
10 58 473 68 490 8 12 134 15 153 3z"/>
<path d="M2477 872 c-19 -21 -36 -92 -39 -161 -4 -83 52 -119 102 -66 22 24
22 27 12 111 -11 81 -31 134 -51 134 -4 0 -15 -8 -24 -18z m33 -46 c0 -23 3
-71 6 -105 l7 -61 -28 0 c-26 0 -27 1 -21 43 3 23 8 70 12 105 8 71 24 84 24
18z"/>
<path d="M149 727 c-19 -12 -45 -44 -58 -71 -22 -45 -23 -52 -12 -95 37 -138
198 -165 285 -48 28 38 28 126 0 164 -55 74 -147 95 -215 50z m124 -28 c32 -9
42 -18 58 -54 22 -50 18 -87 -16 -129 -19 -24 -33 -30 -77 -34 -50 -4 -56 -2
-86 29 -49 50 -48 118 3 167 37 34 58 38 118 21z"/>
<path d="M402 396 c-34 -32 -37 -38 -37 -91 0 -53 3 -59 37 -91 30 -27 46 -34
78 -34 81 0 130 47 130 125 0 78 -49 125 -130 125 -32 0 -48 -7 -78 -34z m143
-31 c52 -51 16 -145 -54 -145 -20 0 -42 10 -62 28 -28 25 -31 32 -25 65 14 74
91 103 141 52z"/>
<path d="M1133 353 c-7 -2 -13 -17 -13 -32 0 -49 42 -68 73 -33 21 23 21 36 1
56 -15 16 -37 19 -61 9z"/>
<path d="M970 310 c-31 -31 -27 -93 6 -119 37 -29 70 -26 106 9 25 26 29 36
24 62 -3 18 -14 40 -23 50 -23 25 -87 24 -113 -2z m85 -55 c0 -27 -3 -30 -30
-30 -21 0 -31 5 -33 18 -6 33 6 49 35 45 24 -3 28 -8 28 -33z"/>
<path d="M716 279 c-36 -42 -34 -82 4 -121 27 -26 36 -30 68 -25 114 19 105
176 -10 177 -28 0 -42 -7 -62 -31z m98 -25 c21 -21 20 -40 -4 -64 -27 -27 -46
-25 -66 5 -15 23 -15 27 0 50 19 29 47 32 70 9z"/>
</g>
</svg>
