<?xml version="1.0" standalone="no"?>
<!DOCTYPE svg PUBLIC "-//W3C//DTD SVG 20010904//EN"
 "http://www.w3.org/TR/2001/REC-SVG-20010904/DTD/svg10.dtd">
<svg version="1.0" xmlns="http://www.w3.org/2000/svg"
 width="300.000000pt" height="115.000000pt" viewBox="0 0 300.000000 115.000000"
 preserveAspectRatio="xMidYMid meet">
<metadata>
Created by potrace 1.10, written by Peter Selinger 2001-2011
</metadata>
<g transform="translate(0.000000,115.000000) scale(0.100000,-0.100000)"
fill="white" stroke="none">
<path d="M663 790 c-13 -5 -23 -15 -22 -22 0 -10 2 -10 6 0 4 9 222 12 1044
12 687 0 1038 3 1034 10 -8 13 -2030 12 -2062 0z"/>
<path d="M444 779 c10 -6 36 -9 57 -6 l38 5 95 -153 c53 -83 98 -159 102 -169
6 -14 -11 -16 -170 -16 l-177 0 12 23 c7 12 32 55 56 95 25 40 43 78 40 85 -3
11 -116 -172 -125 -205 -4 -16 8 -17 192 -16 183 1 197 0 211 -18 8 -10 15
-22 15 -26 0 -5 -118 -8 -262 -8 -174 0 -258 -4 -248 -10 9 -6 116 -10 251
-10 265 0 280 3 257 55 -7 17 -15 32 -18 35 -3 3 -12 19 -20 35 -8 17 -30 51
-47 76 -18 26 -33 50 -33 54 0 5 -10 22 -23 39 -13 17 -26 38 -29 46 -3 8 -20
34 -37 58 -31 42 -32 42 -94 42 -49 -1 -58 -3 -43 -11z"/>
<path d="M410 769 c0 -3 5 -19 10 -36 12 -32 9 -37 -103 -226 -60 -100 -75
-158 -20 -72 21 33 56 92 77 130 22 39 49 88 62 110 l23 40 -25 30 c-13 17
-24 27 -24 24z"/>
<path d="M760 749 c-58 -3 363 -6 934 -7 572 -1 1037 0 1034 3 -7 7 -1837 11
-1968 4z"/>
<path d="M794 699 c-14 -15 -18 -39 -20 -107 -1 -48 3 -93 8 -99 14 -18 101
-16 145 2 29 12 39 13 51 3 11 -9 67 -13 194 -15 148 -1 181 1 193 14 22 21
16 89 -10 127 -19 28 -26 31 -71 30 -37 -1 -52 4 -62 18 -7 10 -25 18 -41 18
-16 0 -31 7 -35 15 -9 25 -44 17 -63 -15 -11 -19 -25 -30 -39 -30 -12 0 -29
-3 -37 -6 -8 -3 -21 1 -28 9 -55 54 -151 73 -185 36z m346 -89 c0 -57 4 -90
11 -90 5 0 8 -4 5 -8 -5 -9 -53 -8 -63 1 -3 4 -1 7 5 7 16 0 16 146 0 156 -8
5 -6 10 8 15 10 4 22 8 27 8 4 1 7 -39 7 -89z m-232 69 c17 -6 37 -19 42 -29
18 -33 12 -87 -13 -115 -20 -24 -31 -27 -90 -29 -64 -2 -85 5 -52 18 11 4 15
22 15 76 0 40 -4 70 -10 70 -5 0 -10 3 -10 8 0 11 81 12 118 1z m300 -26 c-2
-10 3 -17 10 -15 17 3 15 -15 -3 -22 -10 -3 -15 -19 -15 -46 0 -35 3 -40 22
-40 21 0 21 -1 6 -16 -30 -30 -48 -10 -48 51 0 32 -4 55 -10 55 -12 0 21 49
33 50 4 0 7 -8 5 -17z m-144 -29 c9 -8 16 -25 16 -36 0 -17 -5 -20 -35 -16
-29 3 -35 1 -35 -14 0 -24 28 -34 52 -19 28 18 33 6 9 -18 -26 -26 -45 -27
-71 -1 -23 23 -25 51 -9 83 21 40 47 47 73 21z m264 4 c7 -7 12 -31 12 -55 0
-34 4 -43 17 -43 16 0 16 -1 0 -17 -13 -13 -20 -14 -28 -6 -9 9 -18 9 -31 2
-14 -7 -24 -7 -34 2 -23 19 -13 52 21 69 17 8 32 16 34 18 3 1 -1 8 -8 15 -10
9 -15 8 -27 -7 -10 -14 -17 -17 -25 -9 -7 7 -5 15 6 27 19 19 46 21 63 4z"/>
<path d="M840 600 l0 -70 28 0 c37 0 62 28 62 68 0 39 -30 72 -65 72 -24 0
-25 -2 -25 -70z"/>
<path d="M1017 613 c-13 -12 -7 -23 13 -23 11 0 20 7 20 15 0 15 -21 21 -33 8z"/>
<path d="M1280 555 c-10 -12 -9 -16 3 -21 20 -7 37 3 37 22 0 18 -24 18 -40
-1z"/>
<path d="M1456 686 c-33 -28 -39 -39 -44 -84 -4 -49 -2 -54 31 -87 38 -38 69
-44 126 -24 23 8 35 8 45 0 8 -6 48 -9 104 -8 83 3 92 2 92 -14 0 -10 10 -25
22 -33 25 -18 48 -9 91 37 19 21 32 27 45 22 27 -12 186 -14 200 -2 9 7 16 7
24 -1 7 -7 25 -12 40 -12 26 0 28 -2 22 -27 -4 -16 -12 -31 -18 -35 -6 -4
-312 -8 -680 -8 -368 0 -672 -2 -674 -5 -3 -3 303 -5 679 -5 534 0 688 -3 698
-12 11 -11 12 -5 9 30 -3 36 -1 42 15 42 15 0 17 -5 12 -30 -8 -37 1 -55 21
-39 11 9 14 8 14 -5 0 -15 -63 -16 -727 -16 -399 0 -724 -2 -722 -4 2 -2 417
-6 921 -9 841 -4 918 -3 931 12 8 9 17 24 20 34 7 20 -11 67 -26 67 -6 0 -3 8
6 18 12 13 17 36 17 75 0 47 -4 58 -25 75 -22 18 -38 20 -140 17 -104 -3 -115
-2 -115 14 0 18 -29 51 -46 51 -5 0 -15 -9 -22 -21 -10 -15 -20 -19 -36 -15
-13 3 -32 -2 -46 -11 -20 -14 -54 -18 -180 -21 -85 -1 -166 -3 -180 -2 -14 0
-94 2 -177 3 l-153 3 -32 31 c-45 43 -91 42 -142 -1z m992 -9 c2 -12 -3 -17
-17 -17 -12 0 -21 6 -21 13 0 31 32 34 38 4z m-880 7 c16 -5 22 -14 22 -35 0
-16 -4 -29 -10 -29 -5 0 -10 9 -10 20 0 24 -40 36 -68 21 -27 -14 -37 -63 -20
-98 16 -34 61 -43 89 -17 16 15 19 15 19 2 0 -21 -21 -37 -58 -44 -26 -5 -36
-1 -62 24 -41 42 -42 92 -1 133 29 29 54 35 99 23z m792 -35 c0 -11 4 -18 9
-14 5 3 12 1 16 -5 3 -5 -1 -10 -9 -10 -12 0 -16 -11 -16 -45 0 -33 4 -45 15
-45 20 0 19 -19 0 -26 -27 -11 -45 16 -45 67 0 32 -4 49 -12 49 -8 1 -6 6 5
14 9 7 17 18 17 25 0 6 5 11 10 11 6 0 10 -9 10 -21z m-790 -60 c0 -19 -33
-35 -50 -24 -14 8 -13 48 2 63 15 15 48 -12 48 -39z m128 35 c43 -30 20 -124
-31 -124 -55 0 -81 92 -35 124 12 9 27 16 33 16 6 0 21 -7 33 -16z m161 4 c84
2 91 -3 91 -59 0 -43 -28 -74 -59 -64 -17 5 -21 2 -21 -14 0 -12 7 -21 15 -21
8 0 15 -4 15 -10 0 -5 -16 -10 -35 -10 -34 0 -46 12 -25 25 11 7 14 128 3 138
-3 4 -12 2 -19 -3 -6 -6 -18 -9 -25 -8 -17 4 -25 -60 -10 -75 18 -18 13 -24
-16 -23 -27 1 -28 2 -28 61 0 58 9 80 29 68 5 -4 43 -6 85 -5z m208 -10 c29
-27 29 -65 1 -95 -26 -28 -52 -29 -78 -3 -38 38 -13 120 37 120 9 0 27 -10 40
-22z m98 10 c19 3 25 0 25 -13 0 -12 -6 -16 -19 -12 -33 8 -45 -64 -13 -82 19
-12 19 -12 -25 -16 -32 -3 -43 7 -23 20 6 3 10 24 10 46 0 21 -4 39 -10 39 -5
0 -10 4 -10 9 0 11 34 20 38 10 1 -3 14 -4 27 -1z m106 2 c14 -8 19 -21 19
-55 0 -25 5 -45 13 -48 9 -4 8 -8 -3 -16 -9 -6 -18 -7 -24 -1 -5 5 -17 5 -28
-1 -25 -13 -48 5 -48 37 0 17 9 26 35 35 37 14 43 23 23 35 -6 4 -17 -1 -25
-11 -10 -15 -16 -16 -26 -6 -10 10 -8 15 7 27 24 17 31 17 57 4z m171 -48 c-2
-31 0 -52 7 -56 6 -4 11 -11 11 -16 0 -7 -16 -7 -59 -1 -3 1 0 6 7 13 14 14
16 88 2 88 -17 0 -11 18 8 23 27 6 29 1 24 -51z m128 38 c39 -39 12 -120 -40
-120 -26 0 -60 34 -60 61 0 66 58 101 100 59z m96 8 c32 18 54 -3 54 -51 0
-24 5 -48 12 -55 16 -16 8 -21 -22 -15 -23 4 -25 8 -21 55 3 44 1 49 -15 46
-16 -3 -19 -13 -19 -54 1 -49 0 -51 -27 -51 -28 0 -37 11 -18 22 14 9 13 82
-2 91 -8 5 -6 10 8 14 10 4 22 3 25 -3 4 -6 13 -6 25 1z m-336 -153 c0 -8 8
-15 18 -15 14 0 17 -7 14 -40 -3 -25 0 -40 7 -40 6 0 11 17 11 40 0 22 3 40 8
40 10 0 42 -58 42 -76 0 -23 -15 -16 -28 14 l-12 27 4 -27 c3 -25 0 -28 -25
-28 -26 0 -29 3 -29 35 0 23 -7 41 -19 52 -11 9 -18 20 -15 25 9 13 24 9 24
-7z m134 -65 c1 -46 -19 -55 -27 -13 -5 27 9 70 20 59 3 -3 6 -24 7 -46z m36
21 c0 -16 3 -36 6 -45 4 -11 1 -16 -10 -16 -12 0 -16 10 -16 45 0 25 5 45 10
45 6 0 10 -13 10 -29z m144 20 c9 -14 -6 -51 -22 -51 -22 0 -6 -13 18 -15 17
-1 20 5 20 37 0 39 5 43 47 32 27 -8 38 -36 23 -64 -9 -17 -21 -20 -75 -20
l-65 0 0 33 c0 24 -5 34 -16 34 -12 0 -15 -8 -12 -34 3 -25 0 -33 -12 -33 -12
0 -15 8 -12 35 4 29 1 34 -12 29 -15 -6 -22 6 -11 17 8 9 124 9 129 0z"/>
<path d="M1644 606 c-11 -28 1 -81 18 -84 26 -5 45 41 30 73 -13 27 -39 33
-48 11z"/>
<path d="M1877 603 c-14 -13 -7 -74 8 -79 21 -8 45 14 45 40 0 34 -34 59 -53
39z"/>
<path d="M2004 606 c-11 -30 1 -81 20 -84 22 -5 36 14 36 49 0 41 -43 68 -56
35z"/>
<path d="M2230 555 c-10 -12 -9 -16 3 -21 20 -7 37 3 37 22 0 18 -24 18 -40
-1z"/>
<path d="M2510 601 c-14 -28 -12 -56 5 -71 23 -19 45 -4 45 29 0 59 -28 82
-50 42z"/>
<path d="M2680 410 c0 -28 2 -30 20 -20 23 12 25 21 8 38 -20 20 -28 14 -28
-18z"/>
<path d="M515 547 c-11 -17 -21 -35 -23 -39 -2 -5 19 -8 46 -8 l50 0 -21 40
c-12 22 -24 40 -27 40 -3 0 -14 -15 -25 -33z"/>
</g>
</svg>
