<?xml version="1.0" standalone="no"?>
<!DOCTYPE svg PUBLIC "-//W3C//DTD SVG 20010904//EN"
 "http://www.w3.org/TR/2001/REC-SVG-20010904/DTD/svg10.dtd">
<svg version="1.0" xmlns="http://www.w3.org/2000/svg"
 width="113.000000pt" height="140.000000pt" viewBox="0 0 113.000000 140.000000"
 preserveAspectRatio="xMidYMid meet">
<metadata>
Created by potrace 1.10, written by Peter Selinger 2001-2011
</metadata>
<g transform="translate(0.000000,140.000000) scale(0.100000,-0.100000)"
fill="white" stroke="none">
<path d="M460 1347 c-130 -86 -435 -290 -442 -296 -4 -4 11 -58 34 -121 68
-192 65 -174 33 -212 -15 -18 -38 -39 -52 -46 -23 -13 -24 -17 -21 -105 l3
-92 547 0 c302 0 548 3 548 8 0 4 -4 7 -8 7 -5 0 -33 21 -63 47 -30 27 -72 62
-93 79 l-38 32 67 193 c37 107 69 197 71 201 2 3 -32 29 -76 57 -49 32 -80 58
-80 69 0 9 7 39 15 66 8 27 13 51 10 54 -2 3 -40 -5 -84 -18 l-80 -22 -38 23
c-21 13 -69 45 -107 71 -38 27 -72 48 -75 48 -3 0 -35 -19 -71 -43z m134 -44
c31 -21 56 -40 56 -44 0 -4 -10 -9 -22 -12 -13 -3 -77 -21 -143 -42 -178 -54
-237 -67 -227 -49 9 16 253 184 268 184 6 0 37 -17 68 -37z m176 -75 c8 0 33
3 56 7 34 6 42 4 48 -11 4 -9 2 -22 -3 -27 -5 -5 -6 -21 -1 -38 11 -37 -69
-399 -88 -399 -4 0 -46 33 -93 73 -46 39 -119 100 -162 135 l-77 63 0 -104 0
-105 -127 -43 c-71 -23 -152 -53 -182 -65 -29 -13 -56 -24 -59 -24 -4 0 52 57
122 126 l129 125 -58 59 c-32 33 -71 64 -87 71 -15 6 -28 14 -28 18 0 3 60 21
133 40 72 19 195 51 272 72 77 21 151 36 165 33 14 -3 32 -6 40 -6z m-542
-219 l74 -71 -84 -87 c-46 -48 -86 -84 -89 -81 -3 3 -20 46 -37 95 -27 81 -36
124 -33 163 1 15 59 52 81 52 8 0 48 -32 88 -71z m728 50 c19 -11 34 -29 34
-39 0 -10 -13 -54 -29 -97 -15 -43 -36 -103 -46 -133 -23 -72 -32 -82 -56 -70
-33 18 -42 47 -29 99 7 25 14 57 16 71 8 39 34 138 44 165 12 30 23 31 66 4z
m-345 -180 c74 -61 150 -121 169 -134 62 -40 229 -219 216 -232 -9 -9 -90 -12
-543 -20 l-423 -6 0 85 0 86 43 15 c229 79 374 132 386 141 11 8 12 30 7 99
-3 49 -2 86 3 83 5 -3 69 -56 142 -117z"/>
<path d="M20 330 c0 -83 1 -90 20 -90 17 0 20 7 20 40 0 39 1 40 35 40 34 0
35 -1 35 -40 0 -33 3 -40 20 -40 19 0 20 7 20 90 0 83 -1 90 -20 90 -16 0 -20
-7 -20 -35 0 -33 -2 -35 -35 -35 -33 0 -35 2 -35 35 0 28 -4 35 -20 35 -19 0
-20 -7 -20 -90z"/>
<path d="M215 333 c19 -81 23 -88 46 -88 22 0 25 6 34 63 10 62 25 75 25 22 0
-61 12 -90 35 -90 20 0 25 10 44 85 25 102 25 95 2 95 -19 0 -31 -34 -31 -90
0 -53 -15 -40 -25 21 -8 50 -14 65 -29 67 -24 5 -34 -12 -42 -75 -6 -54 -24
-64 -24 -14 0 61 -11 91 -35 91 l-22 0 22 -87z"/>
<path d="M465 408 c-2 -7 -14 -48 -28 -90 l-24 -78 22 0 c16 0 25 8 29 26 5
20 12 25 34 22 19 -2 28 -9 30 -25 3 -17 10 -23 29 -23 20 0 24 3 18 18 -4 9
-17 50 -29 90 -19 67 -23 72 -49 72 -15 0 -29 -6 -32 -12z m44 -92 c-4 -5 -14
-6 -23 -3 -12 5 -13 12 -3 43 l11 36 12 -33 c6 -19 8 -38 3 -43z"/>
<path d="M600 331 c0 -86 1 -91 21 -91 20 0 21 4 17 65 -2 36 -1 65 2 64 3 0
19 -28 36 -62 22 -43 37 -63 52 -65 21 -3 22 0 22 87 0 84 -2 91 -20 91 -18 0
-19 -5 -13 -62 3 -35 3 -61 0 -58 -3 3 -19 30 -34 60 -23 43 -35 56 -56 58
l-27 3 0 -90z"/>
<path d="M809 391 c-38 -39 -40 -91 -4 -127 22 -21 33 -25 78 -22 l52 3 0 49
c0 48 -1 49 -32 51 -27 2 -33 -1 -33 -16 0 -11 7 -19 15 -19 8 0 15 -9 15 -21
0 -31 -50 -22 -70 14 -13 24 -13 30 0 55 13 22 23 27 55 28 29 0 41 5 43 17 3
14 -5 17 -43 17 -38 0 -52 -5 -76 -29z"/>
<path d="M970 330 l0 -90 61 0 c52 0 60 2 57 18 -3 13 -12 16 -41 14 -34 -3
-37 -1 -37 22 0 23 4 26 35 26 24 0 35 5 35 15 0 10 -11 15 -35 15 -28 0 -35
4 -35 20 0 16 7 20 35 20 24 0 35 5 35 15 0 12 -13 15 -55 15 l-55 0 0 -90z"/>
<path d="M4 165 c-4 -8 -4 -22 0 -30 6 -17 36 -21 36 -5 0 6 -7 10 -16 10 -9
0 -14 6 -11 13 2 6 10 11 16 10 6 -2 11 2 11 7 0 16 -30 12 -36 -5z"/>
<path d="M57 165 c-9 -22 3 -46 22 -43 10 2 16 13 16 28 0 28 -29 40 -38 15z"/>
<path d="M110 150 c0 -20 5 -30 15 -30 8 0 15 5 15 10 0 6 -4 10 -9 10 -5 0
-7 9 -4 20 3 11 0 20 -6 20 -6 0 -11 -13 -11 -30z"/>
<path d="M159 176 c-11 -11 3 -56 17 -56 8 0 14 5 14 10 0 6 -4 10 -9 10 -5 0
-11 9 -13 21 -2 11 -6 18 -9 15z"/>
<path d="M230 150 c0 -20 5 -30 15 -30 8 0 15 5 15 10 0 6 -4 10 -10 10 -12 0
-9 22 5 32 6 4 2 8 -7 8 -13 0 -18 -8 -18 -30z"/>
<path d="M279 178 c-5 -21 -4 -50 3 -54 4 -3 8 0 8 7 0 9 3 9 14 -1 13 -10 15
-7 13 17 -2 17 -9 29 -20 31 -9 2 -17 2 -18 0z"/>
<path d="M335 162 c3 -7 5 -21 5 -30 0 -20 15 -5 24 23 5 16 1 21 -14 21 -13
0 -19 -5 -15 -14z"/>
<path d="M417 173 c-11 -10 -8 -41 4 -49 6 -3 16 -1 22 5 8 8 6 11 -6 11 -9 0
-17 5 -17 10 0 6 7 10 15 10 8 0 15 5 15 10 0 11 -23 14 -33 3z"/>
<path d="M467 173 c-11 -10 -8 -41 4 -49 16 -9 41 20 33 39 -6 17 -25 22 -37
10z"/>
<path d="M521 148 c1 -20 3 -26 6 -14 4 15 7 16 14 5 7 -12 9 -12 10 1 0 10 3
8 9 -5 7 -17 9 -15 9 13 1 32 -13 44 -22 20 -4 -10 -6 -10 -6 0 -2 28 -21 9
-20 -20z"/>
<path d="M590 150 l0 -31 21 20 c22 20 19 41 -7 41 -9 0 -14 -11 -14 -30z"/>
<path d="M640 156 c-13 -35 -13 -43 2 -28 9 9 15 9 26 -1 13 -10 14 -8 7 13
-12 40 -23 46 -35 16z"/>
<path d="M691 149 c1 -19 3 -26 6 -16 5 18 5 18 19 0 12 -16 13 -15 13 17 0
19 -3 29 -6 22 -4 -10 -8 -10 -19 -1 -12 9 -14 6 -13 -22z"/>
<path d="M746 156 c9 -31 24 -44 24 -20 0 11 5 25 11 31 7 7 3 11 -16 11 -21
0 -25 -4 -19 -22z"/>
<path d="M820 155 c0 -25 24 -44 38 -30 4 4 1 10 -5 12 -7 3 -13 13 -13 24 0
10 -4 19 -10 19 -5 0 -10 -11 -10 -25z"/>
<path d="M901 148 c0 -18 3 -27 6 -20 2 6 9 10 14 6 5 -3 9 1 10 8 0 7 4 4 9
-7 7 -17 9 -15 9 13 1 32 -13 44 -22 20 -4 -10 -6 -10 -6 0 -2 28 -21 9 -20
-20z"/>
<path d="M998 150 c2 -16 8 -27 13 -24 5 3 7 10 3 15 -3 5 0 16 6 24 10 12 9
15 -7 15 -16 0 -19 -5 -15 -30z"/>
<path d="M1037 154 c-3 -16 0 -28 10 -31 19 -7 31 6 14 16 -16 10 -16 22 1 32
10 7 9 9 -3 9 -10 0 -19 -11 -22 -26z"/>
<path d="M1080 156 c0 -29 11 -39 35 -30 24 10 15 48 -12 52 -19 3 -23 -1 -23
-22z"/>
<path d="M30 30 c0 -17 4 -30 10 -30 5 0 7 8 4 18 -5 15 -3 14 10 -2 23 -28
31 -12 9 18 -24 34 -33 32 -33 -4z"/>
<path d="M94 45 c-9 -22 3 -45 23 -45 15 0 15 2 -3 14 -19 15 -19 15 1 30 18
14 18 15 2 16 -10 0 -20 -7 -23 -15z"/>
<path d="M140 44 c-11 -12 -10 -18 3 -32 16 -15 18 -15 34 0 13 14 14 20 3 32
-16 20 -24 20 -40 0z"/>
<path d="M199 58 c-6 -32 -6 -58 2 -58 5 0 9 6 9 13 0 8 4 7 11 -3 7 -12 9 -8
7 14 -2 16 -9 31 -15 34 -7 2 -13 2 -14 0z"/>
<path d="M247 54 c-11 -11 -8 -54 3 -54 9 0 14 15 11 33 -1 5 4 5 10 1 7 -4
10 -2 7 6 -5 16 -22 23 -31 14z"/>
<path d="M297 53 c-11 -10 -8 -41 4 -49 6 -3 18 1 27 9 13 13 13 19 2 31 -14
17 -23 20 -33 9z"/>
<path d="M351 28 c0 -18 3 -27 6 -19 5 11 7 11 14 0 6 -10 9 -4 9 19 0 22 -5
32 -15 32 -10 0 -15 -10 -14 -32z"/>
<path d="M405 47 c-3 -9 -8 -25 -11 -35 -4 -13 -3 -14 7 -5 10 10 16 10 27 0
13 -10 14 -8 7 13 -10 35 -23 47 -30 27z"/>
<path d="M448 48 c7 -7 12 -21 12 -32 0 -25 5 -18 14 17 5 23 3 27 -16 27 -17
0 -19 -3 -10 -12z"/>
<path d="M497 53 c-4 -3 -7 -17 -7 -30 0 -34 25 -28 26 7 2 29 -5 37 -19 23z"/>
<path d="M538 55 c-3 -3 -3 -17 0 -31 6 -33 37 -28 37 6 0 23 -23 39 -37 25z"/>
<path d="M631 28 c0 -27 2 -30 9 -13 7 18 8 19 15 3 11 -28 25 -21 25 12 0 30
-14 41 -23 18 -4 -10 -6 -10 -6 0 -2 28 -21 9 -20 -20z"/>
<path d="M708 48 c7 -7 8 -17 1 -30 -8 -15 -6 -18 13 -18 14 0 19 3 11 8 -8 5
-9 13 -3 22 15 23 12 30 -12 30 -17 0 -19 -3 -10 -12z"/>
<path d="M780 28 c0 -25 3 -29 10 -18 8 12 10 12 10 1 0 -8 2 -12 5 -9 9 8 -6
58 -16 58 -5 0 -9 -15 -9 -32z"/>
<path d="M850 30 c0 -21 4 -30 13 -28 6 3 12 15 12 28 0 13 -6 25 -12 28 -9 2
-13 -7 -13 -28z"/>
<path d="M900 35 c-13 -35 -13 -40 5 -25 10 9 15 9 15 1 0 -6 4 -11 9 -11 10
0 2 48 -10 56 -5 3 -14 -7 -19 -21z"/>
<path d="M950 30 c0 -21 4 -30 13 -28 6 3 12 15 12 28 0 13 -6 25 -12 28 -9 2
-13 -7 -13 -28z"/>
<path d="M994 40 c3 -14 6 -28 6 -32 0 -5 5 -8 10 -8 15 0 12 24 -6 46 -15 18
-15 18 -10 -6z"/>
<path d="M1021 50 c0 -8 4 -24 9 -35 7 -19 9 -18 19 8 13 35 14 37 1 37 -5 0
-10 -8 -11 -17 0 -15 -2 -15 -9 2 -5 13 -9 14 -9 5z"/>
<path d="M1070 30 c0 -22 5 -30 18 -30 11 0 13 3 5 8 -8 5 -9 13 -3 22 14 21
12 30 -5 30 -10 0 -15 -10 -15 -30z"/>
</g>
</svg>
