<?xml version="1.0" standalone="no"?>
<!DOCTYPE svg PUBLIC "-//W3C//DTD SVG 20010904//EN"
 "http://www.w3.org/TR/2001/REC-SVG-20010904/DTD/svg10.dtd">
<svg version="1.0" xmlns="http://www.w3.org/2000/svg"
 width="263.000000pt" height="130.000000pt" viewBox="0 0 263.000000 130.000000"
 preserveAspectRatio="xMidYMid meet">
<metadata>
Created by potrace 1.10, written by Peter Selinger 2001-2011
</metadata>
<g transform="translate(0.000000,130.000000) scale(0.100000,-0.100000)"
fill="white" stroke="none">
<path d="M627 1243 c-39 -62 -53 -93 -82 -183 -16 -47 -45 -119 -65 -160 -21
-41 -43 -93 -50 -115 -24 -78 -85 -180 -135 -230 -28 -27 -97 -79 -153 -115
-99 -64 -101 -66 -102 -104 l0 -39 55 52 c59 56 142 100 205 108 33 5 49 -1
102 -34 154 -98 281 -148 422 -168 232 -34 236 -35 269 -100 l15 -30 7 28 c4
15 4 47 1 70 l-7 43 36 -4 35 -4 0 56 c0 31 1 56 3 56 2 0 40 -13 85 -30 242
-88 545 -102 806 -35 173 43 287 101 378 190 302 295 -96 657 -722 657 -168 0
-305 -22 -435 -69 -94 -34 -108 -36 -247 -40 l-148 -4 0 -66 0 -65 45 4 c25 2
45 2 45 2 0 -1 -15 -25 -34 -52 -84 -125 -65 -254 54 -369 36 -35 50 -56 50
-76 0 -27 -1 -27 -53 26 -136 139 -319 171 -547 93 -92 -31 -100 -35 -65 -35
23 -1 61 10 90 24 55 27 65 29 65 16 0 -5 -16 -15 -35 -21 -46 -15 -45 -30 3
-30 26 0 41 6 49 20 13 20 71 55 79 47 3 -2 -11 -16 -31 -31 -19 -15 -35 -31
-35 -35 0 -16 50 -18 62 -3 11 13 68 42 83 42 17 0 0 -20 -25 -29 -44 -15 -37
-31 14 -31 28 0 61 9 92 26 l49 26 -27 -26 c-16 -14 -28 -27 -28 -30 0 -10 58
-23 71 -16 27 14 69 21 69 10 0 -5 -11 -12 -25 -16 -32 -8 -32 -18 0 -32 16
-7 33 -8 48 -3 14 6 30 6 38 0 11 -7 9 -9 -8 -9 -12 0 -24 -4 -28 -9 -6 -11
47 -51 68 -51 9 0 19 -4 22 -10 3 -6 -1 -7 -9 -4 -18 7 -21 -7 -5 -23 11 -11
5 -33 -10 -33 -5 0 -14 13 -21 29 -11 28 -50 72 -50 57 0 -4 7 -21 16 -39 l15
-32 -30 33 c-17 18 -31 38 -31 45 0 7 -14 21 -30 31 l-31 18 32 -52 c17 -28
46 -67 64 -86 18 -19 29 -34 24 -34 -18 0 -71 55 -109 116 -24 37 -51 69 -66
74 -38 15 -40 12 -13 -17 26 -29 69 -87 84 -113 16 -28 -36 24 -88 87 -47 58
-54 63 -90 63 l-40 0 64 -68 c35 -37 70 -66 76 -64 7 2 20 -3 28 -12 15 -15
14 -16 -8 -16 -17 0 -51 25 -112 85 -110 106 -145 115 -80 19 39 -56 53 -84
43 -84 -2 0 -28 34 -58 75 -41 56 -62 76 -85 80 -16 4 -38 9 -47 11 -38 11
-15 -16 47 -55 36 -22 65 -45 65 -50 0 -12 -107 49 -142 82 -32 30 -85 41
-124 27 -26 -9 -27 -8 -11 4 16 13 16 14 -5 20 -22 6 -21 8 17 41 62 54 161
101 262 124 51 11 113 30 139 42 47 22 164 122 154 132 -3 3 -68 -16 -146 -41
-113 -38 -152 -56 -199 -92 -102 -80 -120 -91 -124 -79 -6 19 32 61 120 132
89 73 125 121 152 201 23 69 21 107 -10 184 -15 37 -27 82 -27 100 0 17 -1 32
-3 32 -1 0 -13 -17 -26 -37z m8 -90 c-5 -55 -4 -66 6 -55 26 24 32 11 8 -15
-14 -16 -30 -45 -36 -66 -11 -36 -10 -38 10 -31 19 6 18 4 -5 -17 -15 -13 -29
-34 -33 -46 -5 -19 -2 -23 17 -23 20 -1 19 -3 -9 -15 -18 -8 -34 -21 -34 -30
-1 -8 -2 -21 -3 -27 -1 -7 -9 -16 -18 -20 -9 -4 -22 -16 -28 -27 -9 -18 -8
-20 7 -15 14 4 13 3 -2 -7 -11 -6 -41 -32 -67 -57 -27 -26 -48 -42 -48 -36 0
6 16 25 35 44 24 24 35 43 36 64 0 24 2 27 8 13 6 -17 8 -16 19 8 7 14 10 31
7 36 -3 5 0 6 8 3 16 -6 31 35 28 76 -1 18 1 21 7 12 12 -18 23 24 16 58 -4
19 -3 21 4 11 14 -19 36 62 28 101 -3 18 -2 27 4 23 6 -3 10 1 10 11 0 21 22
94 28 94 2 0 1 -30 -3 -67z m1304 -39 c186 -27 365 -99 466 -188 148 -129 148
-303 0 -432 -213 -187 -678 -258 -1035 -158 -86 24 -190 65 -190 75 0 12 6 11
38 -5 111 -57 316 -96 508 -96 339 0 617 102 732 269 35 50 37 58 37 131 0 74
-2 80 -39 134 -75 110 -223 190 -446 243 -60 14 -117 18 -285 18 -204 0 -213
-1 -334 -33 -131 -34 -165 -39 -116 -18 157 66 444 93 664 60z m-59 -34 c148
-21 234 -44 339 -92 65 -30 131 -74 131 -88 0 -8 -76 -20 -130 -21 -155 -2
-132 -3 -313 5 -81 4 -154 3 -162 -1 -7 -4 -42 -6 -77 -3 -35 3 -73 1 -85 -4
-12 -5 -30 -5 -40 -1 -10 4 -60 8 -111 9 -69 1 -95 5 -102 15 -6 10 -3 19 7
26 9 7 16 31 18 59 2 26 6 50 9 53 15 16 238 48 356 51 47 1 119 -2 160 -8z
m-1219 -97 c-9 -15 -10 -12 -11 18 0 20 3 39 8 43 11 12 14 -42 3 -61z m659
-8 l0 -45 -75 0 -75 0 0 -324 0 -324 -50 -4 -50 -3 0 328 0 327 -75 0 -75 0 0
45 0 45 200 0 200 0 0 -45z m-304 -107 c-33 -38 -66 -117 -66 -158 0 -44 33
-121 71 -164 23 -26 39 -49 37 -52 -9 -8 -79 77 -99 120 -24 53 -24 138 0 192
19 42 80 118 89 110 2 -3 -12 -24 -32 -48z m354 -128 l0 -110 -30 0 c-27 0
-30 2 -24 25 5 22 3 25 -20 25 -21 0 -26 -5 -26 -25 0 -21 -5 -25 -27 -25
l-28 0 2 107 c2 60 3 109 3 111 0 1 34 2 75 2 l75 0 0 -110z m83 98 c3 -10 7
-10 20 0 9 7 28 12 43 10 l28 -3 0 -110 1 -110 -24 0 c-24 0 -25 2 -25 85 -1
78 -3 85 -21 85 -18 0 -20 -8 -23 -87 -3 -86 -3 -88 -27 -88 l-25 0 0 115 c0
115 0 115 24 115 13 0 26 -6 29 -12z m263 -13 c-1 -23 -5 -25 -43 -25 l-43 0
0 -60 c0 -47 3 -60 15 -60 9 0 15 9 15 25 0 21 5 25 29 25 28 0 28 -1 26 -47
l-1 -48 -72 -3 -72 -3 0 95 c0 52 3 101 6 110 5 12 21 16 74 16 66 0 68 -1 66
-25z m174 -85 l0 -110 -25 0 c-20 0 -25 5 -25 25 0 20 -5 25 -25 25 -20 0 -25
-5 -25 -25 0 -20 -5 -25 -25 -25 l-25 0 0 110 0 110 75 0 75 0 0 -110z m80
100 c0 -7 6 -7 19 0 11 5 31 10 45 10 l26 0 0 -115 0 -115 -25 0 c-25 0 -25 1
-25 86 0 82 -1 85 -22 82 -20 -3 -21 -8 -19 -86 l2 -83 -28 3 -28 3 -3 113 -3
112 31 0 c16 0 30 -5 30 -10z m238 -102 l3 -108 -61 0 -60 0 0 110 0 111 58
-3 57 -3 3 -107z m184 2 l3 -110 -27 0 c-23 0 -28 4 -28 25 0 20 -5 25 -26 25
-23 0 -26 -3 -22 -25 5 -22 2 -25 -23 -25 l-29 0 0 110 0 110 74 0 75 0 3
-110z m-1362 -29 c0 -104 -9 -129 -29 -84 -21 46 -24 106 -8 146 27 63 37 45
37 -62z m1437 44 c24 -71 -6 -145 -91 -222 -57 -52 -193 -127 -262 -144 -97
-25 -234 -50 -234 -45 0 3 14 18 30 34 35 35 38 57 10 74 -11 7 -20 20 -20 28
0 9 -7 26 -16 39 -13 18 -22 21 -43 16 -14 -4 -34 -14 -44 -23 -17 -15 -21
-15 -49 1 -16 9 -38 17 -47 17 -17 0 -47 47 -37 57 8 9 167 24 177 17 18 -11
114 -12 127 -1 8 6 20 7 35 0 12 -5 60 -8 107 -6 47 2 131 5 188 6 128 2 132
6 132 120 0 87 14 99 37 32z m-1109 -155 c49 -7 80 -6 96 1 18 9 29 8 49 -6
17 -10 27 -13 32 -6 8 14 35 14 35 1 0 -5 -8 -10 -17 -10 -20 0 -53 -28 -53
-47 0 -7 6 -22 12 -33 10 -16 10 -24 0 -40 -6 -11 -17 -29 -24 -39 -10 -17 -9
-24 7 -42 l20 -21 -45 5 c-25 3 -54 8 -65 11 -11 3 -40 10 -63 16 -58 14 -119
46 -130 68 -5 9 -8 44 -8 77 l1 60 35 6 c19 4 37 7 40 7 3 1 38 -3 78 -8z
m280 -55 c0 -19 -3 -35 -7 -35 -10 0 -31 -70 -31 -101 1 -26 -3 -29 81 73 15
18 31 28 37 24 20 -12 13 -43 -13 -64 -14 -11 -25 -25 -25 -31 0 -24 38 -8 94
39 66 57 96 76 96 61 0 -6 -20 -29 -45 -52 -25 -23 -43 -44 -40 -47 3 -3 18 7
33 21 30 29 58 36 49 12 -8 -20 11 -29 29 -14 8 6 18 9 22 5 10 -11 -36 -46
-59 -46 -13 0 -19 7 -19 21 0 19 -3 18 -37 -11 -34 -30 -37 -31 -50 -15 -12
17 -14 17 -31 2 -23 -21 -46 -22 -62 -2 -11 13 -16 12 -42 -10 -16 -14 -34
-25 -39 -25 -16 0 -21 27 -11 63 l10 36 -35 -35 c-43 -44 -58 -36 -16 9 31 33
63 77 63 87 0 3 -15 5 -32 5 -23 0 -33 5 -33 15 0 11 10 14 42 12 34 -3 42 0
48 17 10 33 23 25 23 -14z"/>
<path d="M1270 760 c0 -36 3 -40 25 -40 23 0 25 4 25 40 0 36 -2 40 -25 40
-22 0 -25 -4 -25 -40z"/>
<path d="M1794 795 c-3 -7 -4 -26 -2 -42 2 -20 9 -29 26 -31 20 -3 22 1 22 36
0 32 -4 41 -21 45 -12 3 -22 0 -25 -8z"/>
<path d="M2130 735 c0 -36 2 -65 4 -65 28 0 36 16 36 71 0 52 -2 59 -20 59
-18 0 -20 -7 -20 -65z"/>
<path d="M2300 760 c0 -33 3 -40 20 -40 17 0 20 7 20 40 0 33 -3 40 -20 40
-17 0 -20 -7 -20 -40z"/>
<path d="M1150 180 c-24 -24 -27 -82 -4 -104 30 -30 94 -15 94 23 0 11 -6 8
-24 -8 -20 -19 -28 -21 -46 -11 -17 9 -20 19 -18 47 4 45 29 64 59 45 27 -17
40 -5 15 14 -27 19 -52 18 -76 -6z"/>
<path d="M1980 130 l0 -70 40 0 c22 0 40 5 40 10 0 6 -13 10 -30 10 -30 0 -30
0 -30 60 0 33 -4 60 -10 60 -6 0 -10 -30 -10 -70z"/>
<path d="M2540 177 c0 -20 -4 -24 -20 -20 -28 7 -50 -14 -50 -47 0 -35 17 -49
57 -48 l32 1 -1 64 c0 35 -5 66 -9 69 -5 3 -9 -6 -9 -19z m0 -67 c0 -22 -25
-44 -40 -35 -14 9 -13 62 3 68 17 6 37 -12 37 -33z"/>
<path d="M2318 173 c-2 -10 -1 -38 2 -63 4 -35 9 -46 25 -48 16 -3 18 -1 8 9
-7 7 -13 27 -13 45 0 18 6 35 13 37 10 4 10 6 0 6 -7 1 -13 8 -13 16 0 21 -17
19 -22 -2z"/>
<path d="M1272 148 c-7 -7 -12 -24 -12 -38 0 -31 17 -50 45 -50 28 0 45 19 45
50 0 31 -17 50 -45 50 -12 0 -26 -5 -33 -12z m58 -43 c0 -23 -24 -40 -41 -29
-14 8 -11 62 4 67 18 7 37 -12 37 -38z"/>
<path d="M1370 108 c0 -26 5 -48 10 -48 6 0 10 18 10 39 0 41 13 60 26 39 5
-7 7 -27 5 -45 -1 -19 2 -33 8 -33 6 0 11 15 11 34 0 33 20 62 33 49 4 -3 7
-24 7 -45 0 -21 5 -38 11 -38 6 0 9 19 7 48 l-3 47 -62 1 -63 1 0 -49z"/>
<path d="M1520 88 c0 -39 4 -68 10 -68 6 0 10 11 10 24 0 19 4 22 25 19 33 -7
54 34 37 72 -9 20 -18 24 -47 23 l-35 -1 0 -69z m70 27 c0 -26 -24 -50 -40
-40 -13 8 -13 48 1 62 17 17 39 4 39 -22z"/>
<path d="M1630 145 c-14 -17 0 -21 16 -5 12 12 44 3 44 -11 0 -5 -11 -9 -24
-9 -28 0 -51 -24 -42 -45 4 -10 18 -14 45 -13 39 1 39 1 34 37 -2 20 -6 42 -9
49 -5 17 -49 15 -64 -3z m60 -43 c0 -12 -23 -32 -37 -32 -19 0 -16 28 5 33 28
8 32 7 32 -1z"/>
<path d="M1730 108 c0 -26 5 -48 10 -48 6 0 10 18 10 40 0 33 3 40 20 40 17 0
20 -7 20 -40 0 -22 5 -40 10 -40 12 0 13 70 2 88 -5 7 -23 11 -40 10 -31 -2
-32 -4 -32 -50z"/>
<path d="M1841 109 c19 -50 20 -54 3 -66 -10 -7 -15 -16 -11 -19 14 -15 33 7
51 57 11 30 21 60 24 67 2 6 -1 12 -7 12 -6 0 -11 -4 -11 -9 0 -5 -5 -22 -11
-38 l-11 -28 -12 34 c-7 19 -17 36 -23 38 -7 3 -3 -18 8 -48z"/>
<path d="M2080 110 c0 -27 5 -50 10 -50 6 0 10 23 10 50 0 28 -4 50 -10 50 -5
0 -10 -22 -10 -50z"/>
<path d="M2120 108 c0 -26 5 -48 10 -48 6 0 10 18 10 39 0 24 5 41 14 44 20 8
26 -2 26 -45 0 -21 5 -38 10 -38 6 0 10 18 10 40 0 33 3 40 20 40 17 0 20 -7
20 -40 0 -22 5 -40 10 -40 13 0 13 56 0 80 -8 15 -21 18 -70 18 l-60 -1 0 -49z"/>
<path d="M2280 110 c0 -27 5 -50 10 -50 6 0 10 23 10 50 0 28 -4 50 -10 50 -5
0 -10 -22 -10 -50z"/>
<path d="M2382 148 c-15 -15 -16 -60 0 -76 15 -15 55 -16 63 -1 11 16 -3 23
-19 10 -17 -14 -36 -7 -36 13 0 8 10 11 31 8 29 -4 30 -3 27 24 -2 22 -9 30
-28 32 -14 2 -31 -3 -38 -10z m48 -13 c11 -13 8 -15 -20 -15 -28 0 -31 2 -20
15 7 8 16 15 20 15 4 0 13 -7 20 -15z"/>
</g>
</svg>
