<?xml version="1.0" standalone="no"?>
<!DOCTYPE svg PUBLIC "-//W3C//DTD SVG 20010904//EN"
 "http://www.w3.org/TR/2001/REC-SVG-20010904/DTD/svg10.dtd">
<svg version="1.0" xmlns="http://www.w3.org/2000/svg"
 width="119.000000pt" height="39.000000pt" viewBox="0 0 119.000000 39.000000"
 preserveAspectRatio="xMidYMid meet">
<metadata>
Created by potrace 1.10, written by Peter Selinger 2001-2011
</metadata>
<g transform="translate(0.000000,39.000000) scale(0.100000,-0.100000)"
fill="white" stroke="none">
<path d="M80 359 c-17 -14 -21 -22 -12 -26 25 -10 3 -132 -30 -165 -17 -17
-17 -20 -1 -56 9 -20 17 -52 17 -69 l1 -33 83 0 82 0 0 28 c1 46 35 110 62
114 41 6 24 32 -54 83 -71 46 -77 52 -77 86 -1 35 -15 59 -35 59 -6 0 -22 -10
-36 -21z m51 -11 c1 -7 3 -24 4 -38 2 -16 -6 -35 -23 -52 -30 -33 -19 -38 14
-7 l23 22 65 -42 c113 -74 110 -90 -10 -47 -37 14 -71 31 -75 38 -6 9 -9 9 -9
1 0 -6 9 -18 21 -26 20 -15 20 -15 -8 -34 -15 -11 -35 -23 -43 -26 -12 -4 -11
-6 3 -6 11 -1 15 -6 11 -12 -5 -8 -1 -8 14 0 31 16 49 13 55 -9 4 -16 0 -20
-19 -20 -13 0 -24 5 -24 11 0 8 -4 8 -14 -1 -42 -34 -98 30 -61 70 23 25 48
136 35 159 -5 10 -6 21 -3 25 11 11 43 6 44 -6z m95 -184 c46 -12 24 -24 -43
-24 l-68 0 30 19 c17 11 36 18 43 15 8 -2 25 -7 38 -10z m-4 -56 c-16 -16 -25
-19 -33 -11 -16 16 -2 33 29 33 l26 0 -22 -22z m-17 -37 c2 -4 -27 -7 -65 -7
-39 0 -70 4 -70 8 0 15 125 14 135 -1z m5 -36 c0 -12 -14 -15 -70 -15 -56 0
-70 3 -70 15 0 12 14 15 70 15 56 0 70 -3 70 -15z"/>
<path d="M317 273 c-4 -3 -7 -18 -6 -32 0 -25 1 -25 11 -4 10 20 68 39 68 22
0 -5 -20 -42 -45 -84 l-44 -75 73 0 c76 0 87 6 85 48 0 13 -3 11 -11 -6 -12
-24 -42 -36 -77 -30 -20 3 -20 4 7 48 16 25 38 61 49 80 l21 35 -62 2 c-35 2
-66 0 -69 -4z"/>
<path d="M480 272 c6 -2 10 -33 10 -68 0 -36 4 -74 10 -84 19 -35 88 -33 112
4 4 6 8 38 8 71 0 34 5 66 12 73 9 9 4 12 -23 12 -28 -1 -31 -2 -16 -11 13 -7
17 -22 16 -57 -2 -78 -11 -97 -44 -97 l-30 0 -3 70 c-2 53 1 72 12 81 12 9 6
11 -29 10 -25 -1 -40 -2 -35 -4z"/>
<path d="M663 269 c25 -15 25 -155 0 -162 -10 -3 5 -5 32 -5 28 0 42 2 33 5
-13 3 -18 15 -18 39 0 28 4 34 21 34 33 0 59 19 59 44 0 35 -23 48 -87 51 -42
3 -53 1 -40 -6z m85 -41 c-2 -22 -9 -34 -20 -36 -15 -3 -18 4 -18 32 0 30 4
36 21 36 17 0 20 -5 17 -32z"/>
<path d="M861 266 c-26 -15 -50 -51 -51 -79 -1 -62 73 -111 126 -85 15 7 30
20 32 28 4 12 1 11 -15 -2 -24 -22 -66 -23 -83 -3 -7 9 -14 36 -14 61 -1 37 4
50 23 65 30 25 37 24 66 -6 l25 -24 0 27 c0 25 -4 27 -43 29 -23 1 -53 -4 -66
-11z"/>
<path d="M1034 265 c-59 -41 -51 -135 13 -162 91 -38 164 77 94 148 -33 32
-74 38 -107 14z m75 -8 c34 -42 18 -147 -23 -147 -34 0 -46 19 -46 76 0 70 37
108 69 71z"/>
<path d="M304 51 c0 -18 8 -19 73 -19 44 1 70 5 66 11 -4 6 -1 7 7 2 7 -4 25
-9 39 -11 19 -2 27 2 28 14 1 14 -8 17 -53 17 -30 0 -54 -4 -54 -10 0 -5 -4
-4 -9 4 -7 10 -13 11 -30 2 -16 -9 -21 -9 -21 1 -1 8 -7 5 -15 -6 -13 -17 -15
-18 -15 -3 0 9 -4 17 -8 17 -4 0 -8 -9 -8 -19z"/>
<path d="M585 61 c-11 -5 -23 -7 -27 -4 -5 2 -8 -2 -8 -9 0 -10 -3 -9 -11 2
-9 13 -10 13 -6 0 4 -16 57 -22 57 -7 0 5 6 4 14 -2 11 -10 15 -8 19 6 4 16 5
17 6 1 1 -22 46 -19 46 3 0 15 -60 22 -90 10z"/>
<path d="M696 63 c-3 -4 -6 -13 -6 -21 0 -11 3 -12 13 -3 8 6 17 8 21 4 4 -4
42 -8 84 -9 70 -2 78 -1 78 16 0 18 -1 18 -20 2 -15 -13 -18 -14 -14 -2 8 22
-59 22 -67 1 -6 -14 -8 -13 -21 3 -14 20 -14 20 -14 0 0 -11 -3 -15 -8 -8 -9
14 -38 24 -46 17z"/>
<path d="M935 62 c-3 -3 -5 -11 -5 -18 0 -8 14 -11 43 -10 33 2 43 7 45 22 3
16 1 16 -7 4 -6 -8 -11 -10 -11 -4 0 10 -56 15 -65 6z"/>
<path d="M1056 55 c-3 -9 -6 -18 -6 -19 0 -1 14 -2 30 -2 17 0 30 4 30 10 0 6
5 4 11 -4 8 -12 10 -12 7 4 -3 20 -48 31 -48 12 0 -6 -4 -5 -9 2 -7 11 -10 10
-15 -3z"/>
</g>
</svg>
