<?xml version="1.0" standalone="no"?>
<!DOCTYPE svg PUBLIC "-//W3C//DTD SVG 20010904//EN"
 "http://www.w3.org/TR/2001/REC-SVG-20010904/DTD/svg10.dtd">
<svg version="1.0" xmlns="http://www.w3.org/2000/svg"
 width="238.000000pt" height="82.000000pt" viewBox="0 0 238.000000 82.000000"
 preserveAspectRatio="xMidYMid meet">
<metadata>
Created by potrace 1.10, written by Peter Selinger 2001-2011
</metadata>
<g transform="translate(0.000000,82.000000) scale(0.100000,-0.100000)"
fill="white" stroke="none">
<path d="M415 795 c-16 -15 -25 -36 -25 -55 0 -30 1 -30 24 -15 28 19 27 19
197 -72 l136 -73 142 0 c137 0 141 1 131 19 -15 28 -13 34 11 28 18 -5 208 26
234 38 6 3 -62 4 -150 4 -318 -3 -435 1 -435 12 0 7 84 10 268 9 344 -2 390
-1 372 8 -8 4 -160 5 -336 2 l-321 -5 8 -22 c16 -43 59 -54 197 -52 110 1 127
-1 130 -15 3 -14 -12 -16 -118 -16 l-122 0 -87 49 c-139 78 -209 111 -236 111
-14 0 -25 3 -25 6 0 14 21 42 36 48 19 7 215 -54 208 -65 -2 -4 0 -10 5 -13 5
-3 11 1 15 9 5 13 49 15 308 16 288 0 476 13 495 33 5 5 -21 6 -62 3 -68 -5
-69 -5 -35 9 31 13 6 14 -230 9 -146 -3 -307 -5 -357 -5 -77 0 -96 -3 -111
-18 -18 -18 -21 -18 -103 9 -105 35 -133 36 -164 4z m810 -22 c-276 -7 -523
-7 -518 0 2 4 145 6 316 5 172 -1 263 -4 202 -5z"/>
<path d="M1780 641 c-14 -5 -48 -6 -75 -3 l-51 4 -57 -88 c-31 -48 -56 -88
-54 -89 1 -1 21 0 44 3 36 3 46 10 64 41 41 67 59 81 105 81 33 0 45 5 57 24
9 13 13 26 10 30 -7 7 -9 7 -43 -3z"/>
<path d="M1285 625 c-45 -16 -115 -85 -115 -113 0 -36 27 -46 131 -48 l100 -3
22 37 c12 20 36 59 54 86 18 26 33 50 33 52 0 9 -79 3 -85 -6 -4 -6 -15 -6
-31 0 -34 13 -61 12 -109 -5z m92 -52 c8 -21 -40 -63 -73 -63 -37 0 -42 29
-10 57 32 27 74 30 83 6z"/>
<path d="M1485 557 c-27 -45 -51 -85 -53 -89 -2 -5 16 -8 40 -8 39 0 46 4 63
33 10 17 35 58 56 90 l38 57 -47 0 -47 -1 -50 -82z"/>
<path d="M783 564 c3 -4 45 -28 93 -55 86 -48 88 -49 176 -49 48 0 88 3 88 8
0 4 -22 29 -49 55 l-48 47 -133 0 c-73 0 -131 -3 -127 -6z m151 -26 c5 -10 7
-10 12 0 7 15 64 16 64 1 0 -5 -5 -7 -12 -3 -6 4 -17 -1 -24 -10 -11 -16 -15
-16 -43 -1 -17 8 -31 12 -31 7 0 -9 64 -42 80 -42 6 0 10 7 10 15 0 19 9 19
34 0 25 -19 44 -19 48 0 2 13 6 12 16 -5 12 -19 10 -20 -61 -20 -63 0 -79 4
-118 28 -25 16 -51 32 -59 35 -8 3 6 6 32 6 28 1 49 -4 52 -11z"/>
<path d="M995 442 c-39 -3 -43 -6 -75 -65 -18 -34 -50 -90 -71 -124 l-38 -63
39 0 c21 0 42 5 45 10 4 7 12 7 25 0 71 -38 220 44 220 121 0 42 -71 65 -121
39 -24 -14 -24 -6 2 36 11 19 19 37 17 42 -2 4 -21 6 -43 4z m53 -139 c5 -18
-52 -73 -76 -73 -11 0 -25 7 -32 15 -10 13 -9 19 6 36 33 37 92 50 102 22z"/>
<path d="M1460 330 c-34 -60 -66 -112 -71 -116 -26 -15 0 -22 89 -22 78 -1
106 3 140 20 70 33 103 106 65 143 -13 14 -28 16 -70 12 l-54 -6 21 33 c11 19
20 36 20 40 0 3 -18 6 -40 6 l-39 0 -61 -110z m147 -27 c4 -11 -4 -26 -25 -45
-36 -31 -63 -36 -82 -13 -10 13 -9 19 6 36 34 39 90 51 101 22z"/>
<path d="M613 375 c-19 -8 -35 -10 -38 -4 -4 5 -23 9 -43 9 -36 0 -38 -3 -90
-92 -29 -50 -51 -92 -50 -93 2 -1 22 0 45 3 39 4 45 8 72 58 32 56 59 78 85
68 21 -8 21 -9 -14 -71 -16 -29 -30 -54 -30 -55 0 -2 19 -2 42 -2 41 1 44 4
78 59 38 62 72 87 92 67 8 -8 3 -24 -20 -62 -18 -28 -32 -53 -32 -56 0 -2 19
-4 43 -4 l42 0 40 74 c38 73 39 75 21 95 -24 26 -62 27 -102 2 -26 -16 -34
-17 -45 -6 -22 22 -61 26 -96 10z"/>
<path d="M108 350 l-16 -29 36 -3 37 -3 -61 -28 c-56 -26 -84 -55 -84 -88 0
-6 43 -8 117 -4 107 4 119 7 135 27 26 34 22 41 -17 35 -50 -8 -43 5 19 35 29
15 64 40 76 57 l21 31 -123 0 -123 0 -17 -30z m130 -18 c9 -6 6 -14 -13 -32
-14 -13 -25 -32 -25 -42 0 -14 -8 -18 -41 -18 l-41 0 31 36 c17 19 29 39 26
44 -10 16 40 26 63 12z"/>
<path d="M355 318 c-21 -35 -46 -77 -56 -94 l-19 -31 44 1 43 1 49 85 c27 46
51 88 52 92 2 5 -14 8 -36 8 -37 0 -41 -3 -77 -62z"/>
<path d="M1245 365 c-46 -16 -101 -72 -111 -111 -12 -47 19 -61 131 -62 52 0
95 3 95 7 0 4 23 45 50 91 28 46 50 85 50 87 0 8 -79 2 -85 -7 -4 -6 -15 -6
-31 0 -33 13 -51 12 -99 -5z m91 -56 c9 -15 -53 -69 -79 -69 -50 0 -36 60 18
80 22 8 52 2 61 -11z"/>
<path d="M2034 328 c-25 -27 -47 -48 -50 -48 -3 0 -2 20 2 45 l6 45 -40 0
c-36 0 -47 -6 -86 -47 l-46 -48 0 48 0 47 -49 0 -50 0 -3 -90 -3 -90 49 0 c38
0 56 6 86 30 21 17 40 30 42 30 2 0 4 -12 3 -27 0 -25 4 -28 38 -31 36 -3 44
2 130 85 51 48 93 90 95 93 1 3 -16 6 -39 5 -36 0 -47 -6 -85 -47z m-237 -42
c19 -30 20 -36 8 -46 -26 -21 -45 -4 -45 40 0 22 3 40 8 40 4 0 17 -16 29 -34z
m161 2 c11 -18 18 -36 16 -40 -9 -15 -37 -8 -60 13 -18 17 -21 26 -13 40 14
28 34 23 57 -13z"/>
<path d="M2202 361 c-85 -40 -116 -107 -71 -152 18 -18 30 -21 78 -16 57 5
131 33 131 50 0 8 -30 7 -120 -5 -17 -2 -25 2 -28 15 -3 15 6 17 87 17 l91 0
0 39 c0 22 -6 44 -15 51 -27 23 -106 23 -153 1z m96 -38 c2 -9 -9 -13 -38 -13
-37 0 -41 2 -30 16 15 17 61 15 68 -3z"/>
<path d="M244 90 l-10 -60 28 0 c21 0 31 6 38 25 11 29 4 55 -16 55 -8 0 -14
9 -14 20 0 43 -17 17 -26 -40z m43 -24 c-4 -9 -11 -16 -17 -16 -11 0 -14 33
-3 44 11 10 26 -11 20 -28z"/>
<path d="M405 104 c-3 -26 -9 -53 -12 -60 -4 -10 4 -14 25 -14 32 0 42 14 42
56 0 15 -6 24 -15 24 -8 0 -15 9 -15 20 0 39 -18 20 -25 -26z m39 -13 c9 -13
-4 -41 -19 -41 -8 0 -10 9 -7 25 4 25 16 32 26 16z"/>
<path d="M862 133 c-5 -10 -12 -38 -16 -61 -5 -33 -3 -43 6 -40 7 3 14 14 16
26 2 13 11 22 21 22 14 0 17 -6 13 -25 -2 -14 0 -25 6 -25 7 0 27 92 23 108
-3 11 -17 -1 -19 -18 -2 -11 -11 -20 -21 -20 -14 0 -17 6 -13 25 5 29 -3 33
-16 8z"/>
<path d="M1346 119 c-9 -47 -7 -89 4 -89 6 0 10 13 10 29 0 16 3 43 6 60 4 18
2 31 -3 31 -6 0 -13 -14 -17 -31z"/>
<path d="M1615 139 c-3 -8 -9 -35 -14 -61 -6 -36 -5 -48 4 -48 7 0 15 22 19
56 6 55 2 82 -9 53z"/>
<path d="M1859 145 c-13 -20 -21 -115 -11 -115 6 0 12 14 14 32 2 17 9 34 17
36 11 4 12 -3 7 -32 -4 -20 -3 -36 2 -36 15 0 23 61 11 76 -6 8 -15 12 -19 9
-5 -3 -10 5 -12 17 -2 13 -6 19 -9 13z"/>
<path d="M2046 135 c-16 -17 -9 -46 14 -60 17 -10 11 -25 -10 -25 -11 0 -20
-4 -20 -10 0 -17 47 -11 54 6 4 9 0 27 -9 40 -19 29 -19 34 1 34 9 0 14 5 12
12 -7 19 -24 20 -42 3z"/>
<path d="M2106 113 c-3 -21 -6 -49 -6 -63 1 -22 2 -23 11 -7 10 18 11 18 24 0
7 -10 17 -15 21 -11 4 5 0 16 -10 27 -15 16 -15 19 -1 31 8 7 15 17 15 23 0 5
-9 2 -20 -8 -20 -18 -20 -18 -14 13 4 19 2 32 -3 32 -6 0 -13 -17 -17 -37z"/>
<path d="M10 130 c0 -5 9 -10 20 -10 19 0 19 -2 -5 -40 -14 -22 -25 -42 -25
-45 0 -9 59 -5 65 5 3 5 -4 10 -15 10 -22 0 -22 0 4 45 l27 45 -36 0 c-19 0
-35 -4 -35 -10z"/>
<path d="M1216 123 c-17 -61 -17 -83 -1 -89 19 -8 34 4 18 14 -13 8 -6 52 7
52 5 0 6 9 3 20 -7 25 -20 26 -27 3z"/>
<path d="M1442 123 c-7 -12 -12 -38 -12 -57 0 -29 4 -36 20 -36 11 0 20 5 20
10 0 6 -4 10 -10 10 -12 0 -13 33 -1 46 5 5 5 18 1 29 -7 19 -7 19 -18 -2z"/>
<path d="M1755 130 c3 -5 12 -10 20 -10 10 0 11 -9 4 -41 -10 -44 -7 -55 10
-44 6 3 11 24 11 46 0 27 4 39 14 39 8 0 18 5 21 10 4 6 -12 10 -40 10 -28 0
-44 -4 -40 -10z"/>
<path d="M148 112 c-10 -2 -18 -11 -18 -20 0 -9 -3 -27 -6 -39 -4 -13 -2 -23
4 -23 5 0 13 16 16 35 4 19 12 35 18 35 6 0 8 -13 4 -35 -8 -43 10 -48 19 -5
10 45 29 51 21 6 -4 -20 -3 -36 2 -36 10 0 27 69 18 77 -6 6 -56 10 -78 5z"/>
<path d="M342 113 c-17 -7 -33 -49 -26 -68 4 -8 18 -15 34 -15 26 0 28 2 26
42 -1 41 -9 51 -34 41z m14 -48 c-7 -18 -26 -20 -26 -2 0 18 24 41 28 27 2 -6
1 -17 -2 -25z"/>
<path d="M480 116 c-9 -8 1 -86 10 -86 5 0 12 9 15 20 8 27 23 25 27 -2 3 -20
6 -18 21 16 10 22 15 44 13 50 -3 6 -8 1 -11 -11 -9 -27 -25 -30 -25 -5 -1 16
-1 16 -14 0 -17 -23 -24 -23 -28 3 -2 11 -5 18 -8 15z"/>
<path d="M596 104 c-24 -24 -17 -68 12 -72 12 -2 22 1 22 7 0 6 -8 11 -17 12
-14 0 -13 3 5 11 15 8 22 19 20 31 -4 27 -22 32 -42 11z"/>
<path d="M664 95 c-22 -33 -15 -59 17 -63 23 -3 27 1 32 34 4 20 4 41 1 46
-10 16 -34 8 -50 -17z m36 -4 c0 -17 -12 -41 -21 -41 -10 0 -12 33 -2 43 9 10
23 9 23 -2z"/>
<path d="M736 87 c-8 -42 -7 -57 3 -57 6 0 11 15 13 32 2 18 8 32 13 30 6 -2
9 -16 7 -32 -4 -40 14 -38 22 2 7 35 -3 51 -33 53 -14 1 -21 -7 -25 -28z"/>
<path d="M956 105 c-9 -9 -16 -30 -16 -46 0 -24 4 -29 25 -29 18 0 26 7 31 24
13 52 -10 81 -40 51z m34 -30 c0 -17 -17 -28 -30 -20 -7 4 -7 13 0 26 12 21
30 17 30 -6z"/>
<path d="M1033 113 c-15 -6 -17 -43 -3 -43 6 0 10 -4 10 -10 0 -5 -7 -10 -15
-10 -8 0 -15 -4 -15 -10 0 -5 9 -10 20 -10 24 0 37 27 21 43 -12 12 -15 28 -3
25 4 -2 8 1 10 7 4 11 -8 15 -25 8z"/>
<path d="M1098 113 c-11 -3 -18 -14 -18 -27 0 -13 -3 -38 -6 -55 -4 -20 -3
-31 5 -31 6 0 11 7 11 15 0 8 7 15 15 15 8 0 22 11 30 24 13 19 14 29 5 45
-11 22 -12 22 -42 14z m26 -46 c-3 -9 -12 -17 -20 -17 -17 0 -17 5 -3 32 13
24 33 10 23 -15z"/>
<path d="M1284 112 c-19 -12 -34 -50 -28 -66 4 -10 18 -16 35 -16 28 0 29 2
29 45 0 44 -10 55 -36 37z m16 -37 c0 -16 -6 -25 -15 -25 -18 0 -18 5 -5 31
14 26 20 24 20 -6z"/>
<path d="M1488 114 c-3 -3 -1 -24 4 -46 6 -31 6 -43 -4 -49 -7 -4 -9 -11 -5
-15 11 -12 35 16 53 62 19 51 13 69 -10 27 -14 -25 -15 -26 -16 -6 0 22 -13
37 -22 27z"/>
<path d="M1658 113 c-10 -2 -18 -12 -18 -21 0 -9 -3 -27 -6 -39 -4 -14 -2 -23
5 -23 6 0 11 9 11 19 0 27 10 51 22 51 7 0 8 -14 5 -36 -4 -25 -2 -34 6 -31
14 4 16 79 2 82 -5 2 -18 1 -27 -2z"/>
<path d="M1936 107 c-26 -19 -18 -71 12 -75 12 -2 22 1 22 7 0 6 -8 11 -17 11
-16 1 -15 2 2 12 28 16 36 30 23 45 -13 16 -20 16 -42 0z"/>
<path d="M2224 95 c-19 -29 -10 -65 16 -65 28 0 35 20 8 21 l-23 0 23 9 c28
12 40 39 21 51 -21 13 -27 11 -45 -16z"/>
<path d="M2300 105 c-11 -13 -10 -19 5 -35 18 -19 17 -20 -3 -20 -12 0 -22 -4
-22 -10 0 -5 11 -10 25 -10 32 0 45 28 22 45 -22 16 -22 26 -1 18 11 -4 15 -2
12 7 -6 20 -23 23 -38 5z"/>
<path d="M88 70 c-2 -25 0 -39 7 -37 13 4 19 77 7 77 -6 0 -12 -18 -14 -40z"/>
<path d="M1162 70 c-1 -22 3 -40 8 -40 6 0 10 11 10 24 0 13 3 31 6 40 4 10 1
16 -8 16 -10 0 -15 -13 -16 -40z"/>
<path d="M1383 70 c-1 -43 11 -54 21 -18 9 36 7 58 -6 58 -8 0 -14 -16 -15
-40z"/>
<path d="M2175 70 c-1 -44 9 -53 19 -18 9 36 7 58 -6 58 -8 0 -13 -15 -13 -40z"/>
</g>
</svg>
