<?xml version="1.0" standalone="no"?>
<!DOCTYPE svg PUBLIC "-//W3C//DTD SVG 20010904//EN" "http://www.w3.org/TR/2001/REC-SVG-20010904/DTD/svg10.dtd">
<svg version="1.0" xmlns="http://www.w3.org/2000/svg" width="300.000000pt" height="300.000000pt"
    viewBox="0 0 300.000000 300.000000" preserveAspectRatio="xMidYMid meet">
    <metadata>
        Created by potrace 1.10, written by Peter Selinger 2001-2011
    </metadata>
    <g transform="translate(0.000000,300.000000) scale(0.100000,-0.100000)" fill="white" stroke="none">
        <path d="M1945 2060 c-102 -14 -325 -78 -325 -94 0 -4 6 -6 13 -3 163 62 455
95 598 66 67 -13 128 -53 152 -99 22 -42 19 -141 -7 -285 -9 -49 -23 -124 -31
-165 -8 -41 -17 -94 -20 -117 l-7 -43 35 0 c30 0 34 3 35 28 0 15 5 47 11 72
6 25 11 61 11 80 0 21 4 30 9 25 10 -10 67 -112 98 -172 14 -29 22 -33 55 -33
21 0 38 2 38 5 0 3 -20 36 -43 73 -24 37 -53 83 -65 102 l-21 35 97 98 97 97
-36 0 c-33 0 -44 -9 -124 -95 -48 -53 -89 -94 -92 -92 -2 3 1 25 7 51 6 26 13
66 15 88 3 23 10 60 15 82 13 55 12 118 -1 153 -14 37 -65 90 -109 113 -73 37
-249 50 -405 30z" />
        <path d="M1413 1887 c-30 -21 -39 -45 -48 -132 -2 -20 -27 -161 -36 -202 -5
-22 -13 -72 -19 -110 -5 -37 -12 -77 -16 -89 -4 -17 1 -22 34 -32 161 -48 302
64 304 243 1 91 0 92 -37 129 -35 35 -36 35 -106 31 -62 -3 -69 -2 -65 13 6
17 36 160 36 168 0 9 -16 2 -47 -19z m127 -217 c26 -26 34 -61 27 -127 -7 -66
-41 -138 -79 -166 -26 -19 -109 -29 -124 -14 -3 3 1 38 9 79 9 40 21 106 28
147 7 40 19 79 27 87 21 21 88 18 112 -6z" />
        <path d="M473 1828 c-11 -14 -29 -86 -38 -153 -3 -22 -9 -62 -15 -90 -37 -196
-43 -234 -37 -249 6 -14 22 -16 129 -14 119 3 123 4 126 25 3 22 2 22 -92 16
l-96 -6 6 49 c4 27 12 74 19 104 l12 55 74 -1 c72 -1 89 6 89 34 0 8 -23 12
-81 12 -80 0 -81 1 -75 23 3 12 12 52 18 90 l12 67 88 0 c48 0 88 4 88 9 0 5
3 16 6 25 5 14 -8 16 -109 16 -80 0 -118 -4 -124 -12z" />
        <path d="M761 1682 c-59 -59 -85 -127 -82 -220 2 -75 20 -116 61 -137 59 -31
150 -12 150 32 0 22 -14 31 -24 15 -2 -4 -23 -9 -45 -10 -37 -3 -43 1 -61 30
-23 39 -25 92 -6 165 26 99 86 149 150 125 27 -11 33 -10 44 5 19 27 -11 43
-80 43 -57 0 -61 -2 -107 -48z" />
        <path d="M1063 1709 c-125 -79 -154 -349 -42 -388 132 -46 248 67 255 248 3
82 -10 120 -50 146 -32 21 -126 18 -163 -6z m133 -40 c39 -44 13 -213 -43
-279 -19 -24 -33 -30 -62 -30 -42 0 -64 19 -75 61 -5 23 -1 54 18 156 7 35 34
81 58 97 32 23 81 20 104 -5z" />
        <path d="M1748 1718 c-36 -12 -41 -54 -5 -43 12 4 45 9 73 12 45 5 54 2 73
-18 17 -18 21 -31 17 -53 -4 -16 -7 -31 -9 -32 -1 -1 -25 -5 -52 -8 -123 -13
-205 -83 -205 -175 0 -31 30 -68 67 -82 33 -12 119 -10 167 4 44 14 41 6 72
172 35 195 19 233 -103 233 -37 -1 -80 -5 -95 -10z m137 -210 c-18 -122 -26
-146 -48 -152 -88 -23 -150 19 -127 88 14 44 48 75 101 91 76 24 82 21 74 -27z" />
        <path d="M2060 1713 c-24 -9 -30 -18 -30 -42 0 -17 -7 -64 -15 -106 -8 -41
-22 -109 -30 -150 -20 -98 -20 -95 19 -95 33 0 34 1 40 48 4 26 14 83 23 127
18 87 21 109 22 142 2 36 28 53 81 53 69 0 84 -18 75 -89 -9 -79 -11 -86 -29
-180 -9 -46 -16 -87 -16 -92 0 -5 15 -9 33 -9 l33 0 13 83 c7 45 19 112 27
149 20 96 18 115 -16 149 -29 30 -32 30 -115 28 -47 -2 -99 -9 -115 -16z" />
        <path d="M355 1230 c-4 -7 373 -10 1124 -10 747 0 1131 3 1131 10 0 14 -2246
14 -2255 0z" />
        <path d="M465 1128 c-11 -32 -35 -146 -35 -170 0 -50 19 -29 31 33 12 61 30
82 51 61 8 -8 9 -27 1 -67 -7 -41 -7 -55 2 -55 16 0 36 111 23 128 -6 6 -22
12 -37 12 -25 0 -27 3 -23 35 4 34 -4 48 -13 23z" />
        <path d="M1442 1124 c-12 -8 -22 -24 -22 -35 0 -10 -3 -19 -7 -19 -5 0 -8 -15
-8 -32 0 -18 -4 -50 -8 -70 -6 -30 -5 -38 6 -38 15 0 27 41 27 91 0 16 7 32
18 38 9 6 11 11 5 11 -20 0 -15 27 8 43 11 8 16 17 11 21 -5 3 -18 -2 -30 -10z" />
        <path d="M2486 1132 c-3 -5 -10 -42 -16 -82 -6 -40 -13 -83 -16 -96 -5 -18 -2
-24 10 -24 12 0 16 10 16 38 l0 37 22 -37 c12 -21 28 -38 36 -38 10 0 8 9 -8
36 l-23 35 34 35 c18 18 29 37 25 41 -4 5 -23 -10 -42 -32 -36 -42 -40 -37
-23 34 9 42 0 77 -15 53z" />
        <path d="M330 1100 c0 -5 9 -10 20 -10 16 0 19 -5 15 -22 -29 -131 -30 -138
-11 -138 9 0 16 15 20 40 3 22 9 58 12 80 4 31 10 40 25 40 10 0 19 5 19 10 0
6 -22 10 -50 10 -27 0 -50 -4 -50 -10z" />
        <path d="M802 1093 c-5 -10 -12 -39 -15 -65 -4 -27 -9 -59 -13 -73 -5 -19 -2
-25 9 -25 10 0 17 11 19 32 3 28 8 33 38 39 52 11 79 66 48 97 -19 19 -76 15
-86 -5z m74 -17 c9 -25 -15 -56 -42 -56 -20 0 -25 4 -20 16 3 9 6 24 6 35 0
23 47 27 56 5z" />
        <path d="M1267 1020 c-32 -60 -43 -90 -34 -90 8 0 19 11 25 25 9 19 19 25 45
25 31 0 34 -2 29 -25 -3 -20 0 -25 16 -25 19 0 19 2 6 63 -7 34 -13 74 -14 90
0 49 -24 29 -73 -63z m62 3 c1 -18 -5 -23 -23 -23 l-25 0 17 39 c13 31 19 36
24 23 4 -9 7 -27 7 -39z" />
        <path d="M2086 1102 c-6 -11 -36 -140 -36 -158 0 -10 12 -14 43 -14 48 0 59 6
76 37 9 19 8 26 -7 41 -19 19 -19 19 -1 31 22 13 25 41 7 59 -13 13 -74 16
-82 4z m68 -21 c11 -16 -6 -41 -31 -47 -31 -8 -36 -3 -27 30 4 19 13 26 29 26
13 0 26 -4 29 -9z m-20 -74 c28 -21 13 -57 -25 -57 -30 0 -33 7 -23 48 7 25
22 28 48 9z" />
        <path d="M1511 1071 c-22 -6 -26 -15 -36 -74 -8 -51 -8 -67 1 -67 6 0 15 21
19 46 9 63 14 74 38 83 27 10 9 20 -22 12z" />
        <path d="M1758 1073 c-16 -2 -28 -9 -28 -15 0 -6 9 -8 21 -5 11 3 27 3 35 0
26 -10 14 -31 -20 -37 -41 -8 -59 -27 -54 -58 3 -20 9 -23 48 -23 l45 0 7 59
c7 55 -1 89 -21 85 -3 -1 -18 -4 -33 -6z m27 -102 c-7 -32 -19 -38 -44 -22
-19 12 -7 39 21 50 29 11 31 9 23 -28z" />
        <path d="M581 1044 c-21 -26 -27 -67 -15 -98 4 -11 19 -16 50 -16 54 0 59 18
7 22 -26 2 -39 8 -41 20 -2 13 7 18 43 24 51 7 63 21 45 53 -16 31 -63 28 -89
-5z m67 -11 c2 -16 -3 -22 -28 -25 -39 -6 -46 6 -20 32 25 25 44 22 48 -7z" />
        <path d="M920 1059 c0 -7 9 -9 22 -6 21 6 48 -7 48 -23 0 -4 -14 -10 -32 -14
-43 -8 -58 -23 -58 -57 0 -28 2 -29 45 -29 50 0 56 9 58 92 l2 43 -42 3 c-28
2 -43 -1 -43 -9z m50 -93 c-7 -18 -16 -26 -28 -24 -26 5 -21 41 8 55 29 15 35
6 20 -31z" />
        <path d="M1035 1018 c-3 -29 -9 -61 -11 -70 -3 -11 0 -18 9 -18 10 0 17 16 21
48 8 59 26 88 51 79 12 -5 15 -14 12 -30 -18 -74 -19 -97 -5 -97 11 0 17 17
22 61 3 34 3 65 0 70 -3 5 -25 9 -49 9 l-43 0 -7 -52z" />
        <path d="M1567 1033 c-4 -21 -9 -53 -13 -70 -5 -26 -3 -33 8 -33 11 0 17 15
21 53 3 28 8 60 12 70 5 11 2 17 -8 17 -9 0 -17 -14 -20 -37z" />
        <path d="M1637 1053 c-20 -23 -31 -67 -23 -98 5 -21 12 -25 41 -25 19 0 35 5
35 10 0 6 -11 10 -25 10 -22 0 -25 4 -25 39 0 42 29 75 56 64 8 -3 14 0 14 6
0 18 -55 13 -73 -6z" />
        <path d="M1857 1063 c-3 -5 -8 -33 -12 -63 -4 -30 -9 -58 -12 -62 -2 -5 2 -8
10 -8 8 0 19 23 28 63 11 51 18 62 34 62 22 0 26 -31 11 -92 -6 -26 -4 -33 7
-33 11 0 17 17 22 59 4 33 4 65 0 70 -7 12 -81 15 -88 4z" />
        <path d="M2210 1059 c0 -7 8 -9 21 -6 11 3 27 3 35 0 26 -10 14 -31 -21 -37
-38 -7 -63 -41 -52 -70 8 -20 85 -22 92 -3 3 7 6 37 8 67 l2 55 -42 3 c-28 2
-43 -1 -43 -9z m57 -81 c-3 -34 -21 -45 -46 -29 -24 16 4 51 47 60 2 1 1 -14
-1 -31z" />
        <path d="M2337 1048 c-3 -13 -9 -44 -12 -70 -10 -71 12 -60 27 13 12 61 29 82
50 61 8 -8 9 -27 1 -67 -13 -75 10 -76 25 0 15 74 9 85 -43 85 -36 0 -44 -4
-48 -22z" />
    </g>
</svg>