<?xml version="1.0" standalone="no"?>
<svg version="1.0" xmlns="http://www.w3.org/2000/svg"
 width="2038.000000pt" height="2008.000000pt" viewBox="0 0 2038.000000 2038.000000"
 preserveAspectRatio="xMidYMid meet">

<g transform="translate(0.000000,2038.000000) scale(0.100000,-0.100000)"
fill="white" stroke="none">
<path d="M4320 12400 c-496 -22 -819 -137 -1030 -368 -68 -74 -140 -208 -165
-307 -24 -94 -37 -242 -30 -335 25 -327 183 -565 470 -705 168 -82 370 -133
618 -156 166 -15 576 -6 711 15 299 48 508 134 651 268 120 111 186 247 201
408 l7 70 -395 0 -395 0 -6 -55 c-16 -160 -156 -255 -400 -274 -311 -24 -505
67 -567 265 -17 56 -20 93 -20 238 0 115 5 188 14 224 51 189 211 284 481 285
237 0 379 -66 447 -208 15 -33 28 -77 28 -97 l0 -38 410 0 410 0 -6 58 c-37
353 -310 587 -797 681 -108 21 -340 42 -427 39 -25 -1 -119 -4 -210 -8z"/>
<path d="M7195 12399 c-416 -42 -706 -152 -895 -339 -178 -175 -251 -374 -237
-644 7 -137 34 -243 87 -344 154 -297 484 -472 1000 -533 136 -16 556 -16 685
0 324 40 578 123 749 245 78 56 191 176 235 249 77 130 119 323 108 496 -9
125 -30 208 -82 316 -138 287 -436 463 -910 536 -150 23 -587 34 -740 18z
m504 -445 c142 -32 268 -119 315 -218 44 -92 59 -278 35 -426 -27 -171 -159
-294 -362 -336 -108 -23 -312 -20 -410 5 -180 47 -295 146 -332 286 -20 80
-21 319 0 398 34 132 138 228 301 281 111 36 317 41 453 10z"/>
<path d="M660 11465 l0 -915 1160 0 1160 0 0 220 0 220 -735 0 -735 0 0 140 0
140 620 0 620 0 0 210 0 210 -620 0 -620 0 0 125 0 125 720 0 720 0 0 220 0
220 -1145 0 -1145 0 0 -915z"/>
<path d="M9300 11465 l0 -915 388 2 387 3 5 440 5 441 558 -443 559 -443 369
0 369 0 0 915 0 915 -390 0 -390 0 -2 -450 -3 -450 -557 450 -558 450 -370 0
-370 0 0 -915z"/>
<path d="M12470 11465 l0 -915 1160 0 1160 0 0 220 0 220 -735 0 -735 0 0 140
0 140 618 2 617 3 3 208 2 207 -620 0 -620 0 0 125 0 125 720 0 720 0 0 220 0
220 -1145 0 -1145 0 0 -915z"/>
<path d="M15160 12145 l0 -235 435 0 435 0 0 -680 0 -680 425 0 425 0 0 680 0
680 435 0 435 0 0 235 0 235 -1295 0 -1295 0 0 -235z"/>
<path d="M17925 12297 c400 -195 618 -408 657 -639 58 -353 -367 -715 -1180
-1004 -930 -331 -2244 -543 -3737 -604 -310 -13 -1192 -13 -1500 0 -1065 44
-1991 165 -2750 359 -211 54 -404 95 -412 88 -6 -6 289 -104 457 -151 1195
-336 2946 -515 4658 -476 250 5 541 15 646 20 1110 57 2086 187 2886 385 1067
265 1689 620 1752 1001 42 249 -171 504 -602 723 -207 106 -456 202 -750 290
-267 80 -273 80 -125 8z"/>
<path d="M11832 9148 c-7 -7 -12 -18 -12 -26 0 -31 284 -819 303 -839 18 -21
30 -23 107 -23 77 0 89 2 107 23 12 13 52 122 98 270 43 136 81 247 84 247 3
0 21 -48 39 -108 95 -307 126 -396 143 -413 15 -15 34 -19 98 -19 95 0 107 4
126 40 31 61 297 821 291 835 -8 23 -192 22 -217 -1 -10 -9 -57 -133 -105
-276 -47 -143 -90 -256 -94 -251 -4 4 -37 107 -74 228 -88 289 -92 300 -122
314 -40 18 -158 14 -183 -6 -16 -13 -43 -86 -101 -277 -44 -142 -81 -261 -84
-263 -2 -2 -43 113 -91 256 -103 309 -97 301 -219 301 -51 0 -87 -5 -94 -12z"/>
<path d="M13346 9144 c-10 -10 -16 -33 -16 -64 0 -61 13 -70 109 -70 61 0 72
3 85 22 9 12 16 36 16 53 0 17 -7 41 -16 53 -13 19 -24 22 -89 22 -54 0 -78
-4 -89 -16z"/>
<path d="M15136 9135 c-3 -9 -6 -205 -6 -435 0 -346 2 -420 14 -429 9 -8 46
-11 103 -9 l88 3 0 440 0 440 -96 3 c-81 2 -98 0 -103 -13z"/>
<path d="M14552 8949 c-108 -19 -200 -88 -244 -184 -20 -43 -23 -66 -23 -165
0 -98 4 -122 23 -166 65 -144 218 -208 436 -184 146 17 220 62 233 146 8 51
-8 64 -82 64 -50 0 -68 -5 -96 -25 -55 -40 -95 -55 -150 -55 -72 0 -117 24
-140 74 -36 80 -50 76 230 76 211 0 250 2 261 15 17 20 7 141 -16 210 -24 68
-102 145 -176 173 -66 25 -182 35 -256 21z m185 -154 c27 -18 53 -71 53 -110
l0 -25 -150 0 c-82 0 -150 3 -150 8 0 23 24 90 38 106 42 47 152 58 209 21z"/>
<path d="M15722 8945 c-118 -26 -193 -89 -233 -195 -30 -79 -29 -223 1 -304
56 -149 215 -222 431 -197 144 17 215 55 239 127 23 68 -6 90 -106 82 -41 -4
-61 -11 -82 -31 -36 -34 -72 -47 -133 -47 -92 0 -143 37 -156 114 l-6 36 254
2 254 3 -1 95 c-1 78 -5 104 -24 145 -46 94 -127 152 -245 174 -74 14 -114 13
-193 -4z m177 -143 c43 -21 68 -56 77 -104 l6 -38 -151 0 c-144 0 -151 1 -151
20 0 34 31 98 54 113 46 30 116 34 165 9z"/>
<path d="M14059 8936 c-20 -7 -57 -25 -84 -39 -26 -15 -51 -27 -56 -27 -4 0
-9 15 -11 33 l-3 32 -75 3 c-41 2 -85 0 -98 -3 l-22 -5 2 -333 3 -332 95 0 95
0 3 216 2 217 44 40 c54 50 100 64 190 55 60 -5 71 -4 82 12 17 23 18 117 2
133 -16 16 -123 15 -169 -2z"/>
<path d="M16455 8937 c-116 -30 -175 -90 -175 -177 0 -116 82 -180 296 -230
151 -35 191 -60 173 -107 -11 -30 -75 -46 -161 -41 -56 3 -72 8 -95 30 -43 39
-66 48 -132 48 -73 0 -88 -16 -71 -78 20 -77 97 -117 248 -132 245 -23 409 39
427 164 13 86 -33 158 -130 202 -27 13 -104 37 -170 54 -131 33 -170 54 -170
91 0 47 107 74 193 50 18 -6 49 -24 68 -41 34 -29 40 -31 107 -28 l72 3 -1 47
c0 61 -34 99 -113 129 -71 27 -288 36 -366 16z"/>
<path d="M17250 8943 c-91 -15 -170 -65 -191 -121 -15 -39 -10 -101 11 -143
36 -69 119 -114 280 -150 86 -19 159 -49 170 -70 25 -46 -31 -79 -132 -79 -62
0 -100 14 -157 55 -61 45 -181 31 -181 -21 0 -31 29 -83 61 -107 56 -42 135
-59 277 -60 194 -1 285 34 331 126 32 65 24 123 -27 179 -48 53 -89 72 -244
113 -73 20 -144 44 -158 54 -53 39 -28 86 52 97 76 10 132 -3 179 -42 40 -33
45 -35 113 -32 l71 3 3 35 c4 43 -28 95 -74 122 -65 38 -272 60 -384 41z"/>
<path d="M13335 8908 c-3 -7 -4 -155 -3 -328 l3 -315 91 -3 c69 -2 94 1 103
11 8 11 11 100 9 328 l-3 314 -98 3 c-73 2 -99 -1 -102 -10z"/>
</g>
</svg>
