<?xml version="1.0" standalone="no"?>
<!DOCTYPE svg PUBLIC "-//W3C//DTD SVG 20010904//EN"
 "http://www.w3.org/TR/2001/REC-SVG-20010904/DTD/svg10.dtd">
<svg version="1.0" xmlns="http://www.w3.org/2000/svg"
 width="215.000000pt" height="133.000000pt" viewBox="0 0 215.000000 133.000000"
 preserveAspectRatio="xMidYMid meet">
<metadata>
Created by potrace 1.10, written by Peter Selinger 2001-2011
</metadata>
<g transform="translate(0.000000,133.000000) scale(0.100000,-0.100000)"
fill="white" stroke="none">
<path d="M1135 1251 c-7 -23 3 -51 19 -51 15 0 39 48 31 61 -10 16 -43 10 -50
-10z"/>
<path d="M1033 1232 c-7 -4 -17 -28 -22 -52 -14 -59 -13 -66 1 -52 18 18 36
15 48 -8 9 -16 6 -27 -15 -55 -18 -22 -25 -43 -23 -62 3 -25 7 -28 38 -27 19
1 45 5 56 9 16 5 22 2 27 -14 7 -27 27 -27 27 -1 0 23 17 25 44 5 28 -21 52
-19 70 6 17 25 7 60 -27 97 l-21 22 21 22 c18 18 24 19 37 8 14 -10 16 -10 16
6 0 11 -5 36 -11 56 -13 49 -53 63 -81 28 -20 -25 -24 -70 -7 -87 8 -8 3 -22
-16 -52 -15 -22 -33 -41 -39 -41 -6 0 -21 16 -34 36 -18 28 -22 43 -16 67 4
18 7 41 5 52 -4 35 -48 56 -78 37z m47 -43 c7 -11 9 -28 6 -36 -6 -14 -8 -14
-24 1 -10 9 -25 16 -32 16 -9 0 -8 6 5 20 23 25 32 25 45 -1z m186 -30 c-32
-25 -36 -24 -36 10 0 35 18 44 42 23 16 -14 16 -16 -6 -33z m-172 -111 c22
-31 20 -40 -6 -36 -17 2 -24 11 -26 31 -4 33 11 35 32 5z m159 0 c8 -29 1 -38
-29 -38 -29 0 -29 4 -6 35 21 30 28 31 35 3z"/>
<path d="M975 1086 c-95 -44 -204 -168 -221 -254 -11 -55 19 -38 44 26 29 73
90 141 171 190 36 21 67 44 69 50 5 16 -5 14 -63 -12z"/>
<path d="M1272 1099 c2 -7 27 -25 54 -40 96 -53 169 -133 198 -217 12 -34 46
-58 46 -32 0 28 -73 150 -115 191 -62 63 -195 133 -183 98z"/>
<path d="M1383 778 c-40 -11 -67 -56 -58 -99 11 -50 70 -82 118 -63 22 8 9 57
-14 51 -25 -7 -52 15 -47 39 3 14 12 19 36 19 28 0 32 3 32 26 0 31 -20 39
-67 27z"/>
<path d="M656 765 c-30 -31 -18 -69 27 -80 15 -4 27 -13 27 -21 0 -19 -34 -18
-50 1 -21 26 -39 19 -31 -12 6 -21 16 -30 43 -37 49 -12 88 12 88 54 0 25 -6
32 -36 45 -19 8 -33 19 -29 25 9 15 26 12 48 -7 18 -17 19 -17 15 12 -3 27 -7
30 -44 33 -28 2 -47 -2 -58 -13z"/>
<path d="M792 699 l3 -81 53 -2 c47 -1 52 1 52 21 0 17 -5 21 -26 20 -36 -3
-43 21 -7 25 35 4 39 33 4 33 -14 0 -26 6 -29 13 -2 8 7 12 27 12 24 0 31 4
31 20 0 18 -7 20 -55 20 l-56 0 3 -81z"/>
<path d="M927 698 l1 -82 54 1 c45 1 53 4 53 19 0 15 -6 18 -27 16 -20 -2 -28
2 -28 13 0 9 9 15 25 15 18 0 25 5 25 20 0 15 -7 20 -25 20 -34 0 -32 18 2 22
17 2 29 10 31 21 3 15 -5 17 -55 17 l-58 0 2 -82z"/>
<path d="M1066 698 l2 -83 53 3 c69 5 99 30 99 83 0 52 -35 79 -104 79 l-51 0
1 -82z m97 13 c6 -23 -10 -51 -28 -51 -10 0 -15 11 -15 35 0 28 4 35 19 35 10
0 21 -8 24 -19z"/>
<path d="M1508 770 c-24 -14 -41 -72 -29 -101 12 -32 29 -45 69 -53 82 -15
133 72 81 138 -16 21 -29 26 -62 26 -23 0 -50 -5 -59 -10z m81 -54 c23 -28
-17 -68 -45 -45 -15 12 -19 41 -7 52 11 12 40 8 52 -7z"/>
<path d="M1257 696 l-17 -26 30 0 c33 0 37 7 17 34 -13 17 -14 17 -30 -8z"/>
<path d="M750 582 c0 -35 55 -128 105 -179 165 -164 416 -171 586 -15 51 46
106 131 124 190 10 33 -23 29 -36 -5 -34 -96 -113 -184 -204 -229 -55 -27 -68
-29 -170 -29 -104 0 -114 2 -170 32 -75 39 -148 112 -180 179 -14 29 -25 58
-25 63 0 6 -7 11 -15 11 -8 0 -15 -8 -15 -18z"/>
<path d="M300 184 c0 -8 7 -14 15 -14 12 0 15 -9 13 -36 -2 -23 2 -39 10 -41
8 -3 12 8 12 36 0 34 3 41 20 41 16 0 19 -6 17 -32 -1 -18 3 -34 8 -35 6 -2
10 6 10 17 1 29 19 25 23 -5 5 -38 22 -30 22 10 0 25 -5 38 -17 42 -10 4 -20
10 -23 13 -3 4 -29 9 -57 12 -40 4 -53 2 -53 -8z"/>
<path d="M670 186 c-13 -17 -10 -92 5 -89 6 2 10 13 11 25 0 13 4 33 8 45 8
26 -7 38 -24 19z"/>
<path d="M760 143 c1 -50 3 -56 14 -41 11 16 14 16 29 1 8 -9 23 -13 31 -10
23 9 20 27 -4 27 -11 0 -20 7 -20 16 0 11 6 14 21 9 15 -5 20 -3 17 6 -8 24
-46 23 -53 -2 -6 -17 -9 -19 -16 -8 -5 8 -6 21 -3 31 2 9 0 19 -6 23 -6 4 -10
-14 -10 -52z"/>
<path d="M1055 180 c-17 -19 -17 -20 14 -37 17 -10 31 -21 31 -25 0 -12 -24
-10 -37 3 -7 7 -13 7 -17 1 -10 -16 22 -35 49 -28 16 4 25 13 25 26 0 11 -4
20 -8 20 -5 0 -17 7 -28 16 -18 15 -18 15 9 9 29 -6 35 3 15 23 -17 17 -32 15
-53 -8z"/>
<path d="M1330 190 c0 -6 -11 -15 -25 -20 -17 -6 -25 -17 -25 -34 0 -27 16
-42 48 -44 20 -1 22 4 22 48 0 27 -4 52 -10 55 -5 3 -10 1 -10 -5z"/>
<path d="M1410 180 c-25 -25 -26 -52 -2 -73 23 -21 46 -22 62 -2 11 14 15 14
32 -2 33 -30 77 17 48 52 -18 21 -33 19 -64 -10 -35 -32 -69 -34 -64 -2 2 17
9 21 31 19 31 -3 36 13 8 28 -26 13 -28 13 -51 -10z"/>
<path d="M580 145 c-11 -26 -20 -49 -20 -51 0 -11 24 -2 36 14 13 16 15 16 29
-2 8 -11 18 -17 21 -13 9 9 -20 90 -34 95 -7 2 -21 -17 -32 -43z"/>
<path d="M464 145 c-7 -27 10 -55 32 -55 21 0 37 49 23 66 -19 23 -48 17 -55
-11z"/>
<path d="M709 143 c-1 -13 -2 -27 -3 -33 -1 -5 4 -9 9 -7 6 1 10 7 10 14 0 7
6 18 13 25 17 17 15 24 -8 24 -14 0 -20 -7 -21 -23z"/>
<path d="M865 160 c-4 -7 2 -14 14 -17 21 -5 30 -33 10 -33 -5 0 -7 5 -4 10 3
6 -1 10 -10 10 -10 0 -15 -7 -13 -17 2 -12 13 -18 31 -18 26 -1 28 2 25 35 -2
27 -8 36 -25 38 -11 2 -24 -2 -28 -8z"/>
<path d="M939 146 c-1 -14 -2 -31 -3 -38 -1 -6 5 -13 12 -15 8 -3 12 6 12 27
0 18 4 29 10 25 6 -3 10 -17 10 -31 0 -13 5 -24 11 -24 6 0 9 16 7 38 -3 32
-7 37 -30 40 -24 3 -28 -1 -29 -22z"/>
<path d="M1142 158 c-16 -16 -15 -43 3 -58 16 -14 45 -7 45 11 0 6 -7 9 -15 5
-11 -4 -15 1 -14 17 0 12 3 16 6 10 2 -7 11 -13 18 -13 8 0 19 -9 25 -20 13
-24 45 -26 54 -4 4 12 1 14 -14 9 -16 -5 -20 -2 -20 16 0 18 2 19 15 9 18 -15
30 -7 22 15 -8 20 -44 19 -55 -1 -8 -14 -10 -14 -21 0 -16 19 -33 20 -49 4z"/>
<path d="M1570 130 c0 -22 5 -40 10 -40 6 0 10 14 10 30 0 17 5 30 10 30 6 0
10 -11 10 -24 0 -14 5 -28 10 -31 6 -4 10 7 10 24 0 17 5 31 10 31 6 0 10 -11
10 -25 0 -14 5 -25 11 -25 6 0 9 14 7 33 -3 31 -5 32 -50 35 l-48 2 0 -40z"/>
<path d="M1689 168 c0 -2 -2 -24 -4 -50 -2 -35 1 -48 11 -48 8 0 14 7 14 16 0
8 5 12 10 9 6 -4 18 -1 26 6 12 10 17 10 23 0 5 -7 18 -10 33 -6 22 6 24 10
19 38 -5 22 -13 32 -26 32 -10 0 -20 -6 -23 -13 -2 -7 2 -11 9 -10 7 2 15 -5
17 -14 2 -10 -2 -18 -8 -18 -6 0 -8 5 -4 11 4 7 1 10 -7 7 -8 -3 -18 5 -24 16
-8 17 -62 37 -66 24z"/>
<path d="M1840 130 c0 -22 5 -40 10 -40 6 0 10 11 10 24 0 14 5 28 10 31 6 4
10 -7 10 -24 0 -17 5 -31 10 -31 6 0 10 14 10 30 0 17 4 30 9 30 15 0 23 -51
10 -66 -9 -11 -8 -14 8 -14 15 0 25 12 37 43 19 50 20 57 6 57 -6 0 -15 -10
-20 -22 -9 -22 -9 -22 -15 -3 -5 16 -16 21 -51 23 l-44 2 0 -40z"/>
</g>
</svg>
