<?xml version="1.0" standalone="no"?>
<!DOCTYPE svg PUBLIC "-//W3C//DTD SVG 20010904//EN"
 "http://www.w3.org/TR/2001/REC-SVG-20010904/DTD/svg10.dtd">
<svg version="1.0" xmlns="http://www.w3.org/2000/svg"
 width="137.000000pt" height="100.000000pt" viewBox="0 0 137.000000 100.000000"
 preserveAspectRatio="xMidYMid meet">
<metadata>
Created by potrace 1.10, written by Peter Selinger 2001-2011
</metadata>
<g transform="translate(0.000000,100.000000) scale(0.100000,-0.100000)"
fill="white" stroke="none">
<path d="M671 981 c-13 -24 -6 -97 10 -107 11 -6 29 38 29 70 0 12 -6 31 -14
41 -13 18 -14 18 -25 -4z"/>
<path d="M645 872 c13 -38 27 -91 31 -118 l8 -49 12 61 c7 34 22 87 33 118 12
35 15 56 9 54 -7 -3 -17 -20 -23 -39 -16 -46 -44 -46 -60 0 -6 19 -16 36 -22
38 -7 3 -1 -26 12 -65z"/>
<path d="M527 860 c18 -10 39 -33 48 -49 24 -48 45 -150 45 -228 0 -72 0 -73
26 -73 l26 0 -4 108 c-3 86 -8 117 -27 160 -26 58 -78 102 -121 102 -24 0 -24
-1 7 -20z"/>
<path d="M794 860 c-17 -11 -44 -44 -60 -72 -26 -48 -29 -64 -32 -165 l-4
-113 30 0 30 0 4 118 c4 134 27 199 82 233 30 19 30 19 6 19 -14 0 -39 -9 -56
-20z m-54 -267 c0 -32 -4 -53 -8 -46 -7 11 -4 103 4 103 2 0 4 -26 4 -57z"/>
<path d="M430 758 c-28 -31 -25 -40 8 -21 16 9 36 14 45 10 48 -18 70 -303 33
-417 -10 -30 -22 -59 -27 -64 -18 -20 -8 -26 45 -26 l54 0 -6 110 -5 110 102
0 101 0 0 -110 0 -110 55 0 c50 0 69 10 46 25 -14 8 -38 101 -46 175 -8 81 9
229 31 275 18 38 37 43 72 19 28 -19 29 -1 2 26 -38 38 -106 17 -137 -43 -9
-18 -17 -69 -20 -128 l-6 -99 -99 0 -98 0 1 100 c1 79 -2 105 -16 127 -40 64
-97 81 -135 41z"/>
<path d="M226 700 l-170 -5 -7 -27 c-8 -32 -4 -33 31 -13 26 15 205 22 198 8
-1 -5 -60 -94 -131 -200 -70 -106 -127 -194 -127 -197 0 -4 76 -6 170 -6 129
0 170 3 170 13 0 6 3 22 6 35 l7 23 -34 -20 c-27 -17 -51 -21 -116 -21 l-83 0
34 53 c135 206 226 351 224 356 -2 3 -79 4 -172 1z m104 -46 c0 -13 -53 -94
-61 -94 -5 0 -9 -5 -9 -11 0 -5 -19 -38 -42 -72 -24 -34 -55 -84 -69 -111 -14
-28 -31 -52 -37 -54 -18 -6 -14 15 7 46 103 151 181 274 181 287 0 8 7 15 15
15 8 0 15 -3 15 -6z"/>
<path d="M970 674 c13 -34 13 -370 0 -395 -10 -18 -5 -19 179 -19 181 0 190 1
195 20 3 11 9 30 12 41 6 22 6 22 -27 -2 -31 -22 -44 -24 -149 -24 l-115 0 -3
174 c-2 99 1 186 7 202 l10 29 -59 0 -60 0 10 -26z"/>
<path d="M619 355 c-1 -47 -2 -91 -3 -97 -1 -7 11 -14 27 -16 l27 -3 0 100 0
101 -25 0 c-25 0 -25 -1 -26 -85z"/>
<path d="M700 340 l0 -100 30 0 30 0 0 100 0 100 -30 0 -30 0 0 -100z m40 5
c0 -30 -4 -55 -8 -55 -4 0 -7 12 -6 28 1 15 3 39 3 55 2 51 11 27 11 -28z"/>
<path d="M10 220 c0 -5 7 -10 16 -10 13 0 12 -5 -6 -30 l-21 -30 45 0 46 0 0
41 c0 24 -4 38 -10 34 -5 -3 -10 -19 -10 -36 0 -22 -5 -29 -20 -29 -19 0 -20
2 -5 30 20 38 19 40 -10 40 -14 0 -25 -4 -25 -10z"/>
<path d="M107 224 c-10 -11 -9 -74 2 -74 12 0 21 52 12 68 -4 7 -10 9 -14 6z"/>
<path d="M197 224 c-11 -11 -8 -74 3 -74 6 0 10 7 10 15 0 20 10 19 25 -2 10
-14 12 -10 11 23 -1 31 -5 40 -21 42 -12 2 -24 0 -28 -4z"/>
<path d="M269 228 c0 -2 -2 -19 -4 -39 -4 -34 -2 -37 26 -41 16 -3 32 -1 35 4
3 4 -6 8 -20 8 -29 0 -35 16 -8 23 16 4 16 5 0 6 -25 1 -23 21 2 21 11 0 20 5
20 10 0 8 -49 15 -51 8z"/>
<path d="M462 218 c-32 -32 2 -87 40 -67 31 17 17 79 -17 79 -6 0 -16 -5 -23
-12z m46 -31 c4 -20 -25 -34 -40 -19 -15 15 -1 44 19 40 10 -2 19 -11 21 -21z"/>
<path d="M597 223 c-4 -3 -7 -22 -7 -40 0 -33 2 -34 33 -31 25 2 33 8 35 27 5
34 -40 66 -61 44z m48 -38 c0 -11 -8 -21 -17 -23 -14 -3 -18 3 -18 23 0 20 4
26 18 23 9 -2 17 -12 17 -23z"/>
<path d="M752 206 c-2 -24 -4 -27 -17 -16 -19 16 -19 1 0 -24 20 -26 27 -16
22 30 -3 30 -4 32 -5 10z"/>
<path d="M785 217 c-35 -26 -1 -86 40 -71 20 8 19 44 -1 44 -14 0 -14 -3 -4
-15 10 -13 9 -15 -9 -15 -16 0 -21 6 -21 26 0 23 3 26 25 22 28 -6 34 6 9 16
-20 8 -17 8 -39 -7z"/>
<path d="M860 215 c-12 -14 -11 -18 1 -26 8 -5 20 -9 27 -9 6 0 12 -5 12 -11
0 -7 -10 -9 -25 -7 -14 3 -25 2 -25 -2 0 -12 28 -20 45 -14 19 8 20 44 1 44
-8 0 -18 5 -22 12 -5 8 0 9 15 5 14 -3 21 -1 18 6 -6 19 -33 19 -47 2z"/>
<path d="M972 194 c-2 -34 2 -43 18 -47 11 -3 23 -1 26 4 3 5 -4 9 -15 9 -16
0 -21 8 -24 38 l-4 37 -1 -41z"/>
<path d="M1061 193 c-1 -24 3 -43 8 -43 5 0 7 10 4 23 -4 21 -4 21 10 4 15
-18 16 -18 26 0 10 17 10 16 11 -4 0 -13 5 -23 11 -23 7 0 9 9 5 23 -3 12 -6
31 -6 42 0 19 -2 19 -18 -3 l-18 -24 -17 24 c-16 23 -16 23 -16 -19z"/>
<path d="M1162 222 c-14 -4 -16 -72 -2 -72 5 0 7 13 4 30 -5 23 -3 30 10 30
11 0 16 -9 16 -30 0 -16 5 -30 11 -30 7 0 10 12 7 30 -3 20 0 30 9 30 8 0 13
-12 13 -30 0 -27 3 -30 33 -29 30 2 30 2 5 6 -30 5 -39 23 -11 23 15 0 14 2
-3 15 -18 14 -18 14 9 15 15 0 27 4 27 10 0 9 -102 11 -128 2z"/>
<path d="M1307 223 c-4 -3 -7 -21 -7 -40 0 -30 3 -33 30 -33 24 0 31 5 36 27
5 19 2 30 -11 40 -21 14 -38 17 -48 6z m43 -38 c0 -16 -6 -25 -15 -25 -9 0
-15 9 -15 25 0 16 6 25 15 25 9 0 15 -9 15 -25z"/>
<path d="M147 199 c-10 -11 -16 -24 -13 -27 4 -3 13 3 22 14 15 18 15 18 11
-8 -2 -16 0 -28 4 -28 5 0 9 16 9 35 0 40 -8 44 -33 14z"/>
<path d="M370 180 c0 -22 5 -40 10 -40 6 0 10 9 10 20 0 11 7 20 15 20 8 0 15
-9 15 -20 0 -11 5 -20 10 -20 6 0 10 18 10 40 0 22 -4 40 -10 40 -5 0 -10 -7
-10 -15 0 -8 -7 -15 -15 -15 -8 0 -15 7 -15 15 0 8 -4 15 -10 15 -5 0 -10 -18
-10 -40z"/>
<path d="M530 185 c0 -32 3 -35 28 -34 16 1 20 3 10 6 -12 3 -18 14 -18 34 0
16 -4 29 -10 29 -5 0 -10 -16 -10 -35z"/>
<path d="M1030 185 c0 -19 5 -35 10 -35 6 0 10 16 10 35 0 19 -4 35 -10 35 -5
0 -10 -16 -10 -35z"/>
<path d="M619 65 c-1 -31 -3 -34 -6 -12 -4 27 -17 35 -28 18 -3 -5 -21 -7 -40
-4 -27 4 -36 2 -41 -11 -4 -10 -1 -23 5 -29 9 -9 16 -6 31 13 17 22 20 23 25
7 4 -9 12 -17 17 -17 6 0 8 7 4 15 -3 8 -1 15 4 15 6 0 10 -9 10 -20 0 -27 28
-25 33 2 l4 23 2 -22 c0 -13 5 -23 11 -23 12 0 7 39 -7 48 -5 4 -13 14 -16 22
-3 8 -6 -3 -8 -25z"/>
<path d="M770 67 c-11 -24 -15 -28 -18 -14 -6 29 -32 20 -31 -10 l1 -28 8 25
c7 21 8 22 9 5 1 -15 9 -21 31 -22 28 -2 30 0 30 32 0 45 -13 51 -30 12z"/>
<path d="M944 85 c-7 -17 -69 -21 -79 -5 -3 6 -14 10 -24 10 -14 0 -16 -7 -13
-35 2 -19 8 -35 13 -35 5 0 6 6 3 14 -3 7 2 16 10 19 11 5 16 0 16 -13 0 -11
5 -20 11 -20 6 0 9 7 6 15 -4 8 -2 17 2 20 5 2 11 -4 14 -15 5 -21 27 -28 27
-9 0 5 -4 7 -10 4 -5 -3 -10 2 -10 12 1 16 3 15 20 -5 l19 -22 4 22 4 23 2
-23 c0 -13 5 -21 11 -17 10 6 2 36 -14 47 -7 5 -4 8 7 8 12 0 20 -10 24 -30 4
-23 11 -30 29 -30 40 0 25 38 -25 61 -36 16 -43 16 -47 4z"/>
<path d="M1047 64 c7 -46 8 -48 22 -39 17 10 13 34 -9 57 l-19 21 6 -39z"/>
<path d="M124 79 c-4 -7 1 -16 10 -21 9 -5 16 -14 16 -20 0 -7 -5 -6 -15 2 -9
8 -15 9 -15 2 0 -18 20 -25 35 -12 9 7 15 8 20 0 3 -5 11 -10 17 -10 6 0 6 6
-2 15 -20 24 -4 29 18 5 13 -14 22 -18 27 -11 3 6 1 11 -4 11 -6 0 -11 4 -11
8 0 5 7 9 15 9 8 0 15 -9 15 -19 0 -10 7 -18 15 -18 10 0 15 9 14 28 0 24 -1
25 -9 7 -7 -17 -9 -17 -9 -3 -1 14 -9 18 -43 16 -24 0 -46 -5 -49 -10 -3 -5
-12 -1 -20 8 -9 12 -10 15 -1 10 6 -4 12 -2 12 3 0 15 -27 14 -36 0z"/>
<path d="M350 82 c0 -7 -13 -12 -30 -12 -23 0 -30 -5 -30 -19 0 -11 5 -23 10
-26 6 -3 10 3 10 14 0 12 5 21 11 21 6 0 9 -7 6 -15 -4 -8 -2 -17 3 -20 5 -3
11 5 13 17 4 22 4 22 6 2 0 -12 7 -27 15 -33 11 -9 16 -5 25 20 6 18 9 35 6
37 -3 3 -5 -1 -5 -8 0 -8 -8 -3 -20 10 -11 13 -20 18 -20 12z"/>
<path d="M424 76 c-10 -26 1 -51 21 -51 11 0 21 8 23 18 2 9 -1 17 -7 17 -5 0
-11 -8 -14 -17 -4 -17 -4 -17 -12 0 -4 11 -3 23 3 29 15 15 42 -7 43 -36 1
-19 2 -18 8 4 5 17 3 26 -6 28 -7 2 -13 8 -13 13 0 15 -40 10 -46 -5z"/>
<path d="M1109 63 c0 -25 -1 -26 -9 -8 -8 18 -9 17 -9 -7 -1 -22 4 -28 19 -28
14 0 20 7 21 23 1 21 1 21 9 -3 8 -25 8 -25 9 -2 1 21 -19 52 -33 52 -3 0 -6
-12 -7 -27z"/>
<path d="M1160 57 c0 -12 7 -31 15 -41 14 -18 15 -18 25 9 6 15 13 32 16 36 3
5 1 9 -5 9 -6 0 -14 -12 -17 -26 -5 -19 -9 -22 -15 -12 -12 18 -11 31 1 23 6
-3 10 -2 10 3 0 6 -7 12 -15 16 -11 4 -15 -1 -15 -17z"/>
<path d="M680 45 c0 -16 6 -25 15 -25 9 0 15 9 15 25 0 16 -6 25 -15 25 -9 0
-15 -9 -15 -25z"/>
</g>
</svg>
